<svg width="20" height="20" viewBox="0 0 20 20" fill="none" xmlns="http://www.w3.org/2000/svg">
<path d="M7.39583 8.17708V7.36979C7.39583 6.35417 7.10937 6.09375 6.35416 6.09375H5.72916V9.50521H6.38021C7.13541 9.50521 7.39583 9.21875 7.39583 8.17708Z" fill="white"/>
<path d="M0 0V20H20V0H0ZM3.15104 4.375H6.43229C8.46354 4.375 9.63542 5.39062 9.63542 7.73438C9.63542 10.0781 8.46354 11.0937 6.43229 11.0937H5.72917V13.8542H3.125L3.54167 12.1875V6.04167L3.15104 4.375ZM9.47917 17.3698H3.15104V15.625H9.45312V17.3698H9.47917ZM16.849 15.625H9.47917V13.8802H16.849V15.625ZM16.849 12.1354H15.3385L14.8958 11.1458L14.3229 12.0833C14.1406 12.1615 13.75 12.2917 13.151 12.2917C11.849 12.2917 10.651 11.4844 10.651 8.85417V4.29688L10.2344 2.63021H12.8385V9.375C12.8385 10.2344 13.099 10.599 13.724 10.599C14.1927 10.599 14.4792 10.5208 14.7135 10.3906V4.29688L14.2969 2.63021H16.901V12.1354H16.849Z" fill="white"/>
</svg>
