<svg width="154" height="24" viewBox="0 0 154 24" fill="none" xmlns="http://www.w3.org/2000/svg">
<g clip-path="url(#clip0)">
<path d="M0 23.21V18.4H1.47V5.22H0V0.410004H19.78V9.26H13.22V5.22H9.67V9.85H12.25V13.19H9.67V18.41H13.22V13.78H19.78V23.21H0Z" fill="black"/>
<path d="M22.36 23.21V18.4H23.83V5.22H22.36V0.410004H34.72V5.22H32.02V18.4H34.66V15.7H40.49V23.2H22.36V23.21Z" fill="black"/>
<path d="M42.96 23.21V18.4H44.43V5.22H42.96V0.410004H62.74V9.26H56.18V5.22H52.63V9.85H55.21V13.19H52.63V18.41H56.18V13.78H62.74V23.21H42.96Z" fill="black"/>
<path d="M68.14 20.8C66.14 18.92 65.14 15.93 65.14 11.8C65.14 3.94 68.96 0 76.62 0C78.48 0 80.2 0.22 81.79 0.67C83.38 1.12 84.57 1.62 85.35 2.16V9.49H78.32V7.38C78.32 6.64 78.15 6.09 77.82 5.74C77.49 5.39 76.99 5.21 76.33 5.21C75.66 5.21 75.17 5.39 74.84 5.74C74.51 6.09 74.34 6.64 74.34 7.38V16.23C74.34 16.97 74.51 17.52 74.84 17.87C75.17 18.22 75.67 18.4 76.33 18.4C76.99 18.4 77.49 18.22 77.82 17.87C78.15 17.52 78.32 16.97 78.32 16.23V13.86H85.35V21.45C84.55 22 83.36 22.49 81.79 22.94C80.22 23.39 78.51 23.61 76.68 23.61C72.99 23.62 70.14 22.68 68.14 20.8Z" fill="black"/>
<path d="M109.79 7.5H104.75V5.22H102.88V18.4H104.93V23.21H92.62V18.4H94.67V5.22H92.8V7.5H87.76V0.410004H109.8V7.5H109.79Z" fill="black"/>
<path d="M118.12 2.13998C118.4 2.13998 118.65 2.19998 118.85 2.32998C119.06 2.44998 119.22 2.62998 119.33 2.85998C119.44 3.08998 119.49 3.34998 119.49 3.64998V3.97998H117.21C117.22 4.35998 117.32 4.63998 117.5 4.83998C117.68 5.03998 117.94 5.13998 118.27 5.13998C118.48 5.13998 118.67 5.11998 118.83 5.07998C118.99 5.03998 119.16 4.97998 119.34 4.90998V5.38998C119.17 5.45998 119 5.51998 118.84 5.54998C118.67 5.58998 118.48 5.59998 118.25 5.59998C117.93 5.59998 117.65 5.53998 117.41 5.40998C117.17 5.27998 116.98 5.08998 116.85 4.83998C116.72 4.58998 116.65 4.26998 116.65 3.89998C116.65 3.53998 116.71 3.21998 116.83 2.95998C116.95 2.69998 117.12 2.49998 117.35 2.35998C117.57 2.20998 117.83 2.13998 118.12 2.13998ZM118.12 2.58998C117.86 2.58998 117.65 2.66998 117.5 2.83998C117.35 3.00998 117.26 3.23998 117.23 3.53998H118.93C118.93 3.25998 118.86 3.02998 118.73 2.84998C118.6 2.67998 118.39 2.58998 118.12 2.58998Z" fill="black"/>
<path d="M118.07 7.92999C115.88 7.92999 114.1 6.14999 114.1 3.95999C114.1 1.76999 115.88 -0.0100098 118.07 -0.0100098C120.26 -0.0100098 122.04 1.76999 122.04 3.95999C122.04 6.14999 120.26 7.92999 118.07 7.92999ZM118.07 0.58999C116.21 0.58999 114.69 2.10999 114.69 3.96999C114.69 5.82999 116.21 7.34999 118.07 7.34999C119.93 7.34999 121.45 5.82999 121.45 3.96999C121.45 2.10999 119.94 0.58999 118.07 0.58999Z" fill="black"/>
</g>
<path d="M143.356 16.6071V15.3766C144.947 15.3166 145.487 14.9764 145.487 13.2457V6.92288H148.538V7.90331L148.018 7.96334C147.438 8.02336 147.178 8.21345 147.178 8.96378V13.2857C147.178 16.8472 143.356 16.6071 143.356 16.6071Z" fill="#131313"/>
<path d="M130.74 13.2957V8.96378C130.74 8.21345 130.489 8.02336 129.899 7.96334L129.379 7.90331V6.92288H132.43V13.2557C132.43 14.9864 132.97 15.3266 134.561 15.3866V16.6171C134.561 16.6071 130.74 16.8472 130.74 13.2957Z" fill="#131313"/>
<path d="M133.781 20.0086V19.0182L134.302 18.9382C134.882 18.8581 135.142 18.648 135.142 17.9377V17.7876C135.142 16.6572 135.662 16.0569 136.833 15.7568C136.833 15.7568 135.142 15.3566 135.142 13.2957V8.96378C135.142 8.21345 134.892 8.02336 134.302 7.96334L133.781 7.90331V6.92288H136.833V13.2557C136.833 14.9864 137.373 15.3266 138.964 15.3866V16.6171C137.363 16.6171 136.833 17.0573 136.833 17.7876V20.0086H133.781Z" fill="#131313"/>
<path d="M141.094 20.0086V17.7876C141.094 17.0573 140.564 16.6171 138.964 16.6171V15.3866C140.554 15.3266 141.094 14.9864 141.094 13.2557V6.92288H144.146V7.90331L143.626 7.96334C143.045 8.02336 142.785 8.21345 142.785 8.96378V13.2857C142.785 15.3566 141.094 15.7468 141.094 15.7468C142.265 16.0369 142.785 16.6471 142.785 17.7776V17.9277C142.785 18.638 143.035 18.8481 143.626 18.9281L144.146 19.0082V19.9886H141.094V20.0086Z" fill="#131313"/>
<path d="M153.322 3.6915H125V5.22217H153.322V3.6915Z" fill="#131313"/>
<path d="M153.322 0.410004H125V1.94067H153.322V0.410004Z" fill="#131313"/>
<path d="M149.379 21.5693H129.379V23.21H149.379V21.5693Z" fill="#131313"/>
<defs>
<clipPath id="clip0">
<rect width="122.04" height="23.62" fill="white"/>
</clipPath>
</defs>
</svg>
