<svg width="20" height="20" viewBox="0 0 20 20" fill="none" xmlns="http://www.w3.org/2000/svg">
<path d="M14.6776 13.5742C13.9312 13.5742 13.3034 14.2014 13.3034 15.1363V15.16C13.3034 16.0949 13.9312 16.7221 14.6776 16.7221C15.4239 16.7221 16.0636 16.1068 16.0636 15.16V15.1363C16.0636 14.1896 15.4239 13.5742 14.6776 13.5742Z" fill="white"/>
<path d="M4.05149 4.31955C4.12257 4.28404 4.1818 4.24854 4.24104 4.18937C4.30027 4.1302 4.33581 4.07103 4.37134 4.00002C4.40688 3.92901 4.41873 3.85801 4.41873 3.77517C4.41873 3.69233 4.40688 3.60949 4.37134 3.52665C4.34765 3.45564 4.30027 3.38464 4.25288 3.32546C4.19365 3.26629 4.13442 3.23079 4.06334 3.19529C3.99226 3.15978 3.90934 3.14795 3.82641 3.14795C3.74349 3.14795 3.66057 3.15978 3.58949 3.19529C3.51841 3.23079 3.44733 3.27813 3.39995 3.32546C3.34072 3.38464 3.30518 3.44381 3.26964 3.52665C3.2341 3.59765 3.22225 3.68049 3.22225 3.77517C3.22225 3.85801 3.2341 3.92901 3.26964 4.00002C3.30518 4.07103 3.35256 4.1302 3.39995 4.18937C3.45918 4.24854 3.51841 4.28404 3.58949 4.31955C3.66057 4.35505 3.73164 4.36688 3.81457 4.36688C3.89749 4.36688 3.96857 4.34321 4.05149 4.31955Z" fill="white"/>
<path d="M8.80182 14.2129H4.71484V15.7277H8.80182V14.2129Z" fill="white"/>
<path d="M0 0V20H19.9729V0H0ZM2.36926 3.76331C2.36926 3.45562 2.46403 3.15976 2.66542 2.88757C2.78388 2.73373 2.90235 2.60355 3.0445 2.52071C3.18666 2.43787 3.32881 2.3787 3.48282 2.35503C3.6842 2.33136 3.8382 2.31953 3.93298 2.31953C4.43052 2.31953 4.8096 2.47337 5.08207 2.78107C5.40192 3.12426 5.55592 3.52663 5.55592 3.98817V8.59172H7.78303C7.90149 8.59172 7.98441 8.55621 8.05549 8.47337C8.09103 8.43787 8.11472 8.34319 8.11472 8.18935V2.4142H9.70213V8.31953C9.70213 8.7574 9.60736 9.11243 9.40597 9.37278C9.1572 9.70414 8.75442 9.88166 8.20949 9.88166H3.34066V8.59172H3.96851V5.15976C3.94482 5.15976 3.90928 5.15976 3.88559 5.15976C3.85005 5.15976 3.82636 5.15976 3.80267 5.15976C3.39989 5.15976 3.06819 5.02959 2.78388 4.7574C2.51142 4.49704 2.36926 4.16568 2.36926 3.76331ZM10.1878 17.0296H3.31697V10.6864H4.70299V12.8994H8.78996V10.6864H10.1878V17.0296ZM12.2254 4.26035C11.5738 4.26035 11.3843 4.27219 11.0763 4.30769V2.95858C11.3962 3.01775 11.5975 3.01775 12.2491 3.01775H15.4831C15.6845 3.01775 15.7674 3.01775 15.9214 3.00592C15.9807 2.99408 15.9807 2.99408 16.0399 2.99408C15.9688 2.86391 15.9688 2.86391 15.7793 2.56805L16.4664 2.35503C16.727 2.72189 16.7862 2.84024 17.0231 3.34911L16.7625 3.44379L17.0587 3.82249C17.0113 3.95266 16.9995 4 16.9521 4.17751C16.6559 5.38462 16.1821 6.36686 15.495 7.18343C14.796 8.02367 13.955 8.61539 12.6282 9.23077C12.332 8.66272 12.2017 8.49704 11.6686 7.9645C12.3202 7.75148 12.7229 7.57396 13.2679 7.23077C14.4051 6.52071 15.1751 5.47929 15.4594 4.26035H12.2254ZM17.6628 15.1479C17.6628 17.0296 16.4308 18.071 15.0922 18.071C14.2393 18.071 13.7062 17.6805 13.3271 17.2308V17.9645H11.7278V10.2722H13.3271V13.1243C13.718 12.5917 14.2511 12.213 15.0922 12.213C16.4071 12.213 17.6628 13.2426 17.6628 15.1361V15.1479ZM17.2245 3.32544C17.0824 2.95858 16.9521 2.72189 16.6915 2.30769L17.3667 2.07101C17.6273 2.42604 17.7458 2.65089 17.8998 3.06509L17.2245 3.32544Z" fill="white"/>
</svg>
