<svg width="40" height="41" viewBox="0 0 40 41" fill="none" xmlns="http://www.w3.org/2000/svg">
<path fill-rule="evenodd" clip-rule="evenodd" d="M20 0.968018C9 0.968018 0 9.96802 0 20.968C0 31.968 9 40.968 20 40.968C31 40.968 40 31.968 40 20.968C40 9.96802 31 0.968018 20 0.968018ZM25.3 13.168C24.6 13.168 24 13.168 23.3 13.168C22.4 13.168 21.9 13.668 21.8 14.468C21.8 15.168 21.8 15.868 21.8 16.568C21.8 16.868 21.9 16.768 22.1 16.768C23.1 16.768 24.1 16.768 25.1 16.768C25.4 16.768 25.5 16.868 25.5 17.168C25.4 18.368 25.3 19.468 25.2 20.668C25.2 20.968 25.1 20.968 24.8 20.968C24 20.968 23.2 20.968 22.4 20.968C21.8 20.968 21.9 20.868 21.9 21.468C21.9 25.168 21.9 28.768 21.9 32.468C21.9 32.868 21.8 32.968 21.4 32.968C20 32.968 18.7 32.968 17.3 32.968C16.9 32.968 16.9 32.868 16.9 32.468C16.9 30.668 16.9 28.768 16.9 26.968C16.9 25.068 16.9 23.268 16.9 21.368C16.9 21.068 16.8 20.968 16.5 20.968C15.9 20.968 15.3 20.968 14.7 20.968C14.5 20.968 14.4 20.868 14.4 20.668C14.4 19.468 14.4 18.368 14.4 17.168C14.4 16.968 14.5 16.868 14.7 16.868C15.3 16.868 15.9 16.868 16.5 16.868C16.8 16.868 16.9 16.768 16.9 16.468C16.9 15.568 16.9 14.668 16.9 13.768C16.9 12.668 17.2 11.668 17.9 10.768C18.7 9.66802 19.9 9.16802 21.2 9.06802C22.6 8.96802 24 9.06802 25.3 9.06802C25.5 9.06802 25.5 9.16802 25.5 9.36802C25.5 10.568 25.5 11.768 25.5 12.868C25.6 13.068 25.5 13.168 25.3 13.168Z" fill="white"/>
</svg>
