<svg width="40" height="41" viewBox="0 0 40 41" fill="none" xmlns="http://www.w3.org/2000/svg">
<path d="M20 0.968018C9 0.968018 0 9.96802 0 20.968C0 31.968 9 40.968 20 40.968C31 40.968 40 31.968 40 20.968C40 9.96802 31 0.968018 20 0.968018ZM29.6 16.068C29.6 16.268 29.6 16.468 29.6 16.668C29.6 23.168 24.6 30.768 15.5 30.768C12.7 30.768 10.1 29.968 7.9 28.568C8.3 28.568 8.7 28.668 9.1 28.668C11.4 28.668 13.5 27.868 15.2 26.568C13 26.568 11.2 25.068 10.6 23.168C10.9 23.268 11.2 23.268 11.5 23.268C12 23.268 12.4 23.168 12.8 23.068C10.5 22.568 8.8 20.568 8.8 18.268C8.8 18.268 8.8 18.268 8.8 18.168C9.5 18.568 10.2 18.768 11 18.768C9.8 17.768 9 16.268 9 14.568C9 13.668 9.2 12.768 9.7 12.068C12.1 15.068 15.8 17.068 19.9 17.268C19.8 16.868 19.8 16.568 19.8 16.168C19.8 13.468 22 11.268 24.7 11.268C26.1 11.268 27.4 11.868 28.3 12.868C29.4 12.668 30.5 12.268 31.4 11.668C31 12.868 30.2 13.768 29.2 14.368C30.2 14.268 31.2 13.968 32 13.568C31.4 14.468 30.5 15.368 29.6 16.068Z" fill="white"/>
</svg>
