<svg width="40" height="41" viewBox="0 0 40 41" fill="none" xmlns="http://www.w3.org/2000/svg">
<path d="M17 16.2681C16.7 16.2681 16.4 16.5681 16.4 16.8681V21.3681C16.4 21.6681 16.7 21.9681 17 21.9681C17.3 21.9681 17.6 21.6681 17.6 21.3681V16.8681C17.6 16.5681 17.3 16.2681 17 16.2681Z" fill="white"/>
<path d="M22.3 16.2681C22 16.2681 21.7 16.5681 21.7 16.8681V19.5681L19.6 16.6681C19.5 16.4681 19.2 16.3681 18.9 16.4681C18.7 16.5681 18.5 16.7681 18.5 17.0681V21.4681C18.5 21.7681 18.8 22.0681 19.1 22.0681C19.4 22.0681 19.7 21.7681 19.7 21.4681V18.8681L21.8 21.7681C21.9 21.9681 22.1 21.9681 22.3 21.9681C22.4 21.9681 22.4 21.9681 22.5 21.9681C22.7 21.8681 22.9 21.6681 22.9 21.3681V16.8681C22.8 16.5681 22.6 16.2681 22.3 16.2681Z" fill="white"/>
<path d="M15.3 20.7681H13.7V16.8681C13.7 16.5681 13.4 16.2681 13.1 16.2681C12.8 16.2681 12.5 16.5681 12.5 16.8681V21.3681C12.5 21.6681 12.8 21.9681 13.1 21.9681H15.2C15.5 21.9681 15.8 21.6681 15.8 21.3681C15.8 21.0681 15.7 20.7681 15.3 20.7681Z" fill="white"/>
<path d="M27.1 20.6681H24.8V19.5681H26.6C26.9 19.5681 27.2 19.2681 27.2 18.9681C27.2 18.6681 26.9 18.3681 26.6 18.3681H24.8V17.2681H27C27.3 17.2681 27.6 16.9681 27.6 16.6681C27.6 16.3681 27.3 16.0681 27 16.0681H24.2C23.9 16.0681 23.6 16.3681 23.6 16.6681V18.8681V21.0681C23.6 21.3681 23.9 21.6681 24.2 21.6681H27.1C27.4 21.6681 27.7 21.3681 27.7 21.0681C27.7 20.7681 27.4 20.6681 27.1 20.6681Z" fill="white"/>
<path d="M20 0.968018C9 0.968018 0 9.96802 0 20.968C0 31.968 9 40.968 20 40.968C31 40.968 40 31.968 40 20.968C40 9.96802 31 0.968018 20 0.968018ZM30.3 25.268C28.7 27.268 21.7 31.968 20.1 32.968C19.4 33.368 18.6 32.868 18.6 32.068V29.668C14.7 29.468 7.7 26.068 7.7 19.268C7.7 12.268 14.7 8.86802 20.1 8.86802C25.9 8.86802 32.5 12.668 32.5 19.268C32.4 21.068 31.9 23.268 30.3 25.268Z" fill="white"/>
</svg>
