<svg width="19" height="16" viewBox="0 0 19 16" fill="none" xmlns="http://www.w3.org/2000/svg">
<path d="M17.2 4.3251C17.2 4.4751 17.2 4.6251 17.2 4.7751C17.2 9.6501 13.45 15.3501 6.625 15.3501C4.525 15.3501 2.575 14.7501 0.925003 13.7001C1.225 13.7001 1.525 13.7751 1.825 13.7751C3.55 13.7751 5.125 13.1751 6.4 12.2001C4.75 12.2001 3.4 11.0751 2.95 9.6501C3.175 9.7251 3.4 9.7251 3.625 9.7251C4 9.7251 4.3 9.6501 4.6 9.5751C2.875 9.2001 1.6 7.7001 1.6 5.9751C1.6 5.9751 1.6 5.9751 1.6 5.9001C2.125 6.2001 2.65 6.3501 3.25 6.3501C2.35 5.6001 1.75 4.4751 1.75 3.2001C1.75 2.5251 1.9 1.8501 2.275 1.3251C4.075 3.5751 6.85 5.0751 9.925 5.2251C9.85 4.9251 9.85 4.7001 9.85 4.4001C9.85 2.3751 11.5 0.725098 13.525 0.725098C14.575 0.725098 15.55 1.1751 16.225 1.9251C17.05 1.7751 17.875 1.4751 18.55 1.0251C18.25 1.9251 17.65 2.6001 16.9 3.0501C17.65 2.9751 18.4 2.7501 19 2.4501C18.55 3.1251 17.875 3.8001 17.2 4.3251Z" fill="white"/>
</svg>
