<svg width="9" height="18" viewBox="0 0 9 18" fill="none" xmlns="http://www.w3.org/2000/svg">
<path fill-rule="evenodd" clip-rule="evenodd" d="M8.175 3.14984C7.65 3.14984 7.2 3.14984 6.675 3.14984C6 3.14984 5.625 3.52484 5.55 4.12484C5.55 4.64984 5.55 5.17484 5.55 5.69984C5.55 5.92484 5.625 5.84984 5.775 5.84984C6.525 5.84984 7.275 5.84984 8.025 5.84984C8.25 5.84984 8.325 5.92484 8.325 6.14984C8.25 7.04984 8.175 7.87484 8.1 8.77484C8.1 8.99984 8.025 8.99984 7.8 8.99984C7.2 8.99984 6.6 8.99984 6 8.99984C5.55 8.99984 5.625 8.92484 5.625 9.37484C5.625 12.1498 5.625 14.8498 5.625 17.6248C5.625 17.9248 5.55 17.9998 5.25 17.9998C4.2 17.9998 3.225 17.9998 2.175 17.9998C1.875 17.9998 1.875 17.9248 1.875 17.6248C1.875 16.2748 1.875 14.8498 1.875 13.4998C1.875 12.0748 1.875 10.7248 1.875 9.29984C1.875 9.07484 1.8 8.99984 1.575 8.99984C1.125 8.99984 0.675 8.99984 0.225 8.99984C0.0750001 8.99984 0 8.92484 0 8.77484C0 7.87484 0 7.04984 0 6.14984C0 5.99984 0.0750001 5.92484 0.225 5.92484C0.675 5.92484 1.125 5.92484 1.575 5.92484C1.8 5.92484 1.875 5.84984 1.875 5.62484C1.875 4.94984 1.875 4.27484 1.875 3.59984C1.875 2.77484 2.1 2.02484 2.625 1.34984C3.225 0.524837 4.125 0.149837 5.1 0.0748372C6.15 -0.000162758 7.2 0.0748372 8.175 0.0748372C8.325 0.0748372 8.325 0.149837 8.325 0.299837C8.325 1.19984 8.325 2.09984 8.325 2.92484C8.4 3.07484 8.325 3.14984 8.175 3.14984Z" fill="white"/>
</svg>
