<svg width="83" height="16" viewBox="0 0 83 16" fill="none" xmlns="http://www.w3.org/2000/svg">
<path d="M0 15.7223V12.464H0.995766V3.536H0V0.27774H13.3988V6.27266H8.95512V3.536H6.55038V6.67232H8.29805V8.93481H6.55038V12.4708H8.95512V9.33447H13.3988V15.7223H0Z" fill="black"/>
<path d="M15.1465 15.7223V12.464H16.1423V3.536H15.1465V0.27774H23.519V3.536H21.6901V12.464H23.4784V10.6351H27.4276V15.7155H15.1465V15.7223Z" fill="black"/>
<path d="M29.1008 15.7223V12.464H30.0965V3.536H29.1008V0.27774H42.4996V6.27266H38.0559V3.536H35.6511V6.67232H37.3988V8.93481H35.6511V12.4708H38.0559V9.33447H42.4996V15.7223H29.1008Z" fill="black"/>
<path d="M46.1575 14.0898C44.8027 12.8163 44.1253 10.7909 44.1253 7.99323C44.1253 2.66892 46.713 0 51.9018 0C53.1617 0 54.3268 0.149026 55.4039 0.453853C56.481 0.758679 57.287 1.09738 57.8154 1.46317V6.42845H53.0533V4.99915C53.0533 4.49788 52.9382 4.12532 52.7147 3.88823C52.4911 3.65114 52.1524 3.52921 51.7053 3.52921C51.2515 3.52921 50.9196 3.65114 50.696 3.88823C50.4725 4.12532 50.3573 4.49788 50.3573 4.99915V10.9941C50.3573 11.4953 50.4725 11.8679 50.696 12.105C50.9196 12.3421 51.2583 12.464 51.7053 12.464C52.1524 12.464 52.4911 12.3421 52.7147 12.105C52.9382 11.8679 53.0533 11.4953 53.0533 10.9941V9.38865H57.8154V14.5301C57.2735 14.9026 56.4674 15.2345 55.4039 15.5394C54.3404 15.8442 53.1821 15.9932 51.9424 15.9932C49.4428 16 47.5123 15.3632 46.1575 14.0898Z" fill="black"/>
<path d="M74.3709 5.08045H70.9568V3.536H69.6901V12.464H71.0787V15.7223H62.74V12.464H64.1287V3.536H62.862V5.08045H59.4479V0.27774H74.3776V5.08045H74.3709Z" fill="black"/>
<path d="M80.0135 1.44962C80.2032 1.44962 80.3726 1.49026 80.508 1.57832C80.6503 1.65961 80.7587 1.78154 80.8332 1.93734C80.9077 2.09314 80.9416 2.26926 80.9416 2.47248V2.69602H79.3971C79.4039 2.95343 79.4716 3.1431 79.5936 3.27857C79.7155 3.41405 79.8916 3.48179 80.1151 3.48179C80.2574 3.48179 80.3861 3.46824 80.4945 3.44115C80.6029 3.41405 80.718 3.37341 80.84 3.32599V3.65114C80.7248 3.69856 80.6096 3.7392 80.5013 3.75952C80.3861 3.78662 80.2574 3.79339 80.1016 3.79339C79.8848 3.79339 79.6952 3.75275 79.5326 3.66469C79.37 3.57663 79.2413 3.44792 79.1533 3.27857C79.0652 3.10923 79.0178 2.89246 79.0178 2.64183C79.0178 2.39796 79.0584 2.1812 79.1397 2.00508C79.221 1.82895 79.3361 1.69348 79.4919 1.59864C79.641 1.49703 79.8171 1.44962 80.0135 1.44962ZM80.0135 1.75444C79.8374 1.75444 79.6952 1.80863 79.5936 1.92379C79.4919 2.03895 79.431 2.19475 79.4107 2.39796H80.5622C80.5622 2.20829 80.5148 2.05249 80.4268 1.93056C80.3387 1.81541 80.1964 1.75444 80.0135 1.75444Z" fill="black"/>
<path d="M79.9797 5.37172C78.4962 5.37172 77.2904 4.16596 77.2904 2.68247C77.2904 1.19898 78.4962 -0.0067749 79.9797 -0.0067749C81.4632 -0.0067749 82.6689 1.19898 82.6689 2.68247C82.6689 4.16596 81.4632 5.37172 79.9797 5.37172ZM79.9797 0.39966C78.7197 0.39966 77.6901 1.4293 77.6901 2.68925C77.6901 3.94919 78.7197 4.97883 79.9797 4.97883C81.2396 4.97883 82.2693 3.94919 82.2693 2.68925C82.2693 1.4293 81.2464 0.39966 79.9797 0.39966Z" fill="black"/>
</svg>
