<svg width="113" height="23" viewBox="0 0 113 23" fill="none" xmlns="http://www.w3.org/2000/svg">
<g clip-path="url(#clip0)">
<path d="M16.7167 15.5183C15.8958 15.5183 15.2051 16.2083 15.2051 17.2367V17.2627C15.2051 18.2911 15.8958 18.981 16.7167 18.981C17.5377 18.981 18.2414 18.3041 18.2414 17.2627V17.2367C18.2414 16.1952 17.5377 15.5183 16.7167 15.5183Z" fill="white"/>
<path d="M5.02801 5.33856C5.1062 5.29951 5.17135 5.26046 5.23651 5.19537C5.30166 5.13028 5.34075 5.06519 5.37985 4.98708C5.41894 4.90898 5.43197 4.83087 5.43197 4.73975C5.43197 4.64862 5.41894 4.5575 5.37985 4.46637C5.35379 4.38827 5.30166 4.31016 5.24954 4.24507C5.18438 4.17998 5.11923 4.14093 5.04104 4.10188C4.96286 4.06282 4.87164 4.0498 4.78042 4.0498C4.68921 4.0498 4.59799 4.06282 4.5198 4.10188C4.44162 4.14093 4.36343 4.193 4.31131 4.24507C4.24615 4.31016 4.20706 4.37525 4.16797 4.46637C4.12888 4.54448 4.11584 4.6356 4.11584 4.73975C4.11584 4.83087 4.12888 4.90898 4.16797 4.98708C4.20706 5.06519 4.25919 5.13028 4.31131 5.19537C4.37646 5.26046 4.44162 5.29951 4.5198 5.33856C4.59799 5.37761 4.67618 5.39063 4.76739 5.39063C4.85861 5.39063 4.93679 5.3646 5.02801 5.33856Z" fill="white"/>
<path d="M10.2534 16.2212H5.75775V17.8875H10.2534V16.2212Z" fill="white"/>
<path d="M0.571411 0.586914V22.5869H22.5416V0.586914H0.571411ZM3.1776 4.72656C3.1776 4.3881 3.28185 4.06265 3.50337 3.76325C3.63368 3.59401 3.76399 3.45082 3.92036 3.35969C4.07673 3.26857 4.23311 3.20348 4.40251 3.17745C4.62403 3.15141 4.79344 3.13839 4.89768 3.13839C5.44498 3.13839 5.86197 3.30762 6.16168 3.64609C6.51352 4.0236 6.68292 4.4662 6.68292 4.9739V10.0378H9.13274C9.26305 10.0378 9.35427 9.99875 9.43245 9.90762C9.47154 9.86857 9.49761 9.76443 9.49761 9.5952V3.24254H11.2438V9.73839C11.2438 10.2201 11.1395 10.6106 10.918 10.897C10.6443 11.2615 10.2013 11.4567 9.60185 11.4567H4.24614V10.0378H4.93678V6.26265C4.91071 6.26265 4.87162 6.26265 4.84556 6.26265C4.80647 6.26265 4.7804 6.26265 4.75434 6.26265C4.31129 6.26265 3.94642 6.11946 3.63368 5.82005C3.33397 5.53366 3.1776 5.16916 3.1776 4.72656ZM11.778 19.3195H4.22007V12.3419H5.74469V14.7763H10.2404V12.3419H11.778V19.3195ZM14.0193 5.2733C13.3026 5.2733 13.0941 5.28632 12.7553 5.32538V3.84135C13.1072 3.90644 13.3287 3.90644 14.0454 3.90644H17.6028C17.8244 3.90644 17.9156 3.90644 18.085 3.89342C18.1501 3.88041 18.1501 3.8804 18.2153 3.8804C18.1371 3.73721 18.1371 3.73721 17.9286 3.41177L18.6844 3.17745C18.9711 3.581 19.0363 3.71117 19.2969 4.27094L19.0102 4.37508L19.336 4.79165C19.2838 4.93484 19.2708 4.98691 19.2187 5.18218C18.8929 6.50999 18.3717 7.59046 17.6159 8.48869C16.8471 9.41295 15.9219 10.0638 14.4624 10.7408C14.1366 10.1159 13.9933 9.93366 13.4069 9.34786C14.1236 9.11354 14.5666 8.91827 15.1661 8.54076C16.417 7.7597 17.264 6.61413 17.5768 5.2733H14.0193ZM20.0005 17.2496C20.0005 19.3195 18.6453 20.465 17.1728 20.465C16.2346 20.465 15.6482 20.0354 15.2312 19.5408V20.3479H13.472V11.8863H15.2312V15.0236C15.6612 14.4378 16.2476 14.0212 17.1728 14.0212C18.6193 14.0212 20.0005 15.1538 20.0005 17.2366V17.2496ZM19.5184 4.2449C19.362 3.84135 19.2187 3.581 18.932 3.12538L19.6748 2.86502C19.9615 3.25555 20.0918 3.50289 20.2612 3.95851L19.5184 4.2449Z" fill="white"/>
<path d="M30.751 6.8094C31.1941 6.8094 31.6111 6.84846 31.976 6.92656C32.3408 7.00467 32.6536 7.13485 32.9142 7.3171C33.1748 7.49935 33.3833 7.73367 33.5266 8.03307C33.67 8.33248 33.7482 8.69698 33.7482 9.13958C33.7482 9.60822 33.6439 10.0118 33.4224 10.3242C33.2139 10.6366 32.8881 10.897 32.4711 11.0922C33.0445 11.2615 33.4875 11.5479 33.7612 11.9644C34.0479 12.381 34.1912 12.8757 34.1912 13.4615C34.1912 13.9301 34.1 14.3467 33.9176 14.6851C33.7351 15.0366 33.4875 15.31 33.1748 15.5313C32.8621 15.7526 32.5102 15.9088 32.1063 16.013C31.7023 16.1171 31.2983 16.1692 30.8814 16.1692H26.3336V6.79639H30.751V6.8094ZM30.4904 10.5976C30.8553 10.5976 31.155 10.5064 31.4026 10.3372C31.6372 10.168 31.7544 9.88159 31.7544 9.47804C31.7544 9.25674 31.7153 9.07449 31.6372 8.94432C31.559 8.80112 31.4547 8.69698 31.3244 8.61887C31.1941 8.54077 31.0377 8.48869 30.8683 8.44964C30.6989 8.42361 30.5165 8.39757 30.3341 8.39757H28.4055V10.5846H30.4904V10.5976ZM30.6077 14.581C30.8032 14.581 30.9986 14.555 31.1811 14.5159C31.3635 14.4769 31.5329 14.4118 31.6632 14.3206C31.8066 14.2295 31.9108 14.0993 32.002 13.9431C32.0802 13.7869 32.1323 13.5786 32.1323 13.3443C32.1323 12.8627 32.002 12.5242 31.7284 12.3159C31.4547 12.1076 31.1029 12.0035 30.6468 12.0035H28.4055V14.581H30.6077Z" fill="white"/>
<path d="M35.4292 11.3135C35.5986 10.8709 35.8331 10.4933 36.1328 10.1809C36.4325 9.8685 36.8104 9.63418 37.2405 9.46494C37.6705 9.29571 38.1526 9.20459 38.6869 9.20459C39.2212 9.20459 39.7033 9.29571 40.1333 9.46494C40.5634 9.63418 40.9413 9.88151 41.241 10.1809C41.5537 10.4933 41.7883 10.8709 41.9577 11.3135C42.1271 11.7561 42.2053 12.2507 42.2053 12.7845C42.2053 13.3312 42.1271 13.8129 41.9577 14.2555C41.7883 14.6981 41.5537 15.0626 41.241 15.375C40.9413 15.6874 40.5634 15.9218 40.1333 16.091C39.7033 16.2602 39.2081 16.3383 38.6869 16.3383C38.1526 16.3383 37.6705 16.2602 37.2405 16.091C36.8104 15.9218 36.4456 15.6874 36.1328 15.375C35.8201 15.0626 35.5855 14.6851 35.4292 14.2555C35.2598 13.8129 35.1816 13.3312 35.1816 12.7845C35.1816 12.2507 35.2728 11.7561 35.4292 11.3135ZM37.1232 13.5786C37.1753 13.8389 37.2665 14.0732 37.3968 14.2685C37.5271 14.4768 37.6966 14.633 37.905 14.7632C38.1135 14.8803 38.3742 14.9454 38.6999 14.9454C39.0127 14.9454 39.2863 14.8803 39.4948 14.7632C39.7033 14.646 39.8727 14.4768 40.003 14.2685C40.1333 14.0602 40.2246 13.8259 40.2767 13.5786C40.3288 13.3182 40.3549 13.0578 40.3549 12.7845C40.3549 12.5111 40.3288 12.2507 40.2767 11.9774C40.2246 11.717 40.1333 11.4827 40.003 11.2874C39.8727 11.0922 39.7033 10.9229 39.4948 10.7928C39.2863 10.6626 39.0127 10.5975 38.6999 10.5975C38.3872 10.5975 38.1266 10.6626 37.905 10.7928C37.6966 10.9229 37.5271 11.0791 37.3968 11.2874C37.2665 11.4827 37.1753 11.717 37.1232 11.9774C37.0711 12.2377 37.045 12.5111 37.045 12.7845C37.045 13.0578 37.0711 13.3312 37.1232 13.5786Z" fill="white"/>
<path d="M43.4562 11.3135C43.6256 10.8709 43.8602 10.4933 44.1599 10.1809C44.4596 9.8685 44.8375 9.63418 45.2675 9.46494C45.6975 9.29571 46.1797 9.20459 46.7139 9.20459C47.2482 9.20459 47.7304 9.29571 48.1604 9.46494C48.5904 9.63418 48.9683 9.88151 49.268 10.1809C49.5807 10.4933 49.8153 10.8709 49.9847 11.3135C50.1541 11.7561 50.2323 12.2507 50.2323 12.7845C50.2323 13.3312 50.1541 13.8129 49.9847 14.2555C49.8153 14.6981 49.5807 15.0626 49.268 15.375C48.9683 15.6874 48.5904 15.9218 48.1604 16.091C47.7304 16.2602 47.2352 16.3383 46.7139 16.3383C46.1797 16.3383 45.6975 16.2602 45.2675 16.091C44.8375 15.9218 44.4726 15.6874 44.1599 15.375C43.8471 15.0626 43.6126 14.6851 43.4562 14.2555C43.2868 13.8129 43.2086 13.3312 43.2086 12.7845C43.2086 12.2507 43.2868 11.7561 43.4562 11.3135ZM45.1502 13.5786C45.2024 13.8389 45.2936 14.0732 45.4239 14.2685C45.5542 14.4768 45.7236 14.633 45.9321 14.7632C46.1406 14.8803 46.4012 14.9454 46.7139 14.9454C47.0267 14.9454 47.3003 14.8803 47.5088 14.7632C47.7173 14.646 47.8867 14.4768 48.017 14.2685C48.1473 14.0602 48.2386 13.8259 48.2907 13.5786C48.3428 13.3182 48.3689 13.0578 48.3689 12.7845C48.3689 12.5111 48.3428 12.2507 48.2907 11.9774C48.2386 11.717 48.1473 11.4827 48.017 11.2874C47.8867 11.0922 47.7173 10.9229 47.5088 10.7928C47.3003 10.6626 47.0267 10.5975 46.7139 10.5975C46.4012 10.5975 46.1406 10.6626 45.9321 10.7928C45.7236 10.9229 45.5542 11.0791 45.4239 11.2874C45.2936 11.4827 45.2024 11.717 45.1502 11.9774C45.0981 12.2377 45.072 12.5111 45.072 12.7845C45.072 13.0578 45.0981 13.3312 45.1502 13.5786Z" fill="white"/>
<path d="M53.2164 9.38684V10.3371H53.2555C53.49 9.9466 53.8028 9.66021 54.1806 9.47796C54.5585 9.29571 54.9364 9.20459 55.3404 9.20459C55.8356 9.20459 56.2526 9.26968 56.5653 9.41287C56.8911 9.54305 57.1387 9.73832 57.3211 9.97264C57.5035 10.207 57.6338 10.5064 57.712 10.8578C57.7902 11.2093 57.8293 11.5868 57.8293 12.0034V16.1821H55.9529V12.3419C55.9529 11.7821 55.8616 11.3655 55.6922 11.0922C55.5098 10.8188 55.2101 10.6756 54.767 10.6756C54.2588 10.6756 53.894 10.8318 53.6594 11.1312C53.4379 11.4306 53.3206 11.9253 53.3206 12.6152V16.1691H51.4572V9.38684H53.2164Z" fill="white"/>
<path d="M61.048 9.38684V10.3111H61.0741C61.3216 9.95962 61.6214 9.68625 61.9602 9.49098C62.312 9.29571 62.7029 9.20459 63.146 9.20459C63.576 9.20459 63.9669 9.2827 64.3188 9.45193C64.6706 9.62116 64.9442 9.90755 65.1267 10.3371C65.3221 10.0377 65.5958 9.77737 65.9476 9.54305C66.2864 9.32175 66.7034 9.20459 67.1725 9.20459C67.5374 9.20459 67.8632 9.24364 68.1759 9.33477C68.4887 9.42589 68.7493 9.56909 68.9578 9.75134C69.1793 9.9466 69.3487 10.1939 69.466 10.5064C69.5833 10.8188 69.6484 11.1963 69.6484 11.6259V16.1691H67.785V12.3289C67.785 12.1075 67.772 11.8862 67.7589 11.691C67.7459 11.4957 67.6938 11.3135 67.6156 11.1703C67.5374 11.0271 67.4201 10.8969 67.2638 10.8188C67.1074 10.7277 66.8989 10.6886 66.6383 10.6886C66.3777 10.6886 66.1692 10.7407 65.9998 10.8448C65.8434 10.949 65.7131 11.0791 65.6219 11.2354C65.5306 11.3916 65.4655 11.5868 65.4394 11.7821C65.4134 11.9904 65.3873 12.1987 65.3873 12.407V16.1821H63.5239V12.3679C63.5239 12.1726 63.5239 11.9644 63.5108 11.7691C63.4978 11.5738 63.4587 11.3916 63.3936 11.2223C63.3284 11.0531 63.2242 10.9229 63.0678 10.8188C62.9114 10.7146 62.6899 10.6626 62.3902 10.6626C62.299 10.6626 62.1817 10.6886 62.0383 10.7277C61.895 10.7667 61.7517 10.8448 61.6214 10.949C61.478 11.0531 61.3738 11.2223 61.2695 11.4176C61.1783 11.6259 61.1262 11.8862 61.1262 12.2247V16.1561H59.2628V9.38684H61.048Z" fill="white"/>
<path d="M73.1277 14.555C73.4013 14.8283 73.8053 14.9585 74.3395 14.9585C74.7174 14.9585 75.0432 14.8674 75.3169 14.6721C75.5905 14.4899 75.7599 14.2816 75.812 14.0733H77.4539C77.1933 14.8804 76.7894 15.4662 76.2421 15.8177C75.6948 16.1692 75.0432 16.3384 74.2744 16.3384C73.7401 16.3384 73.258 16.2473 72.828 16.078C72.3979 15.9088 72.0331 15.6615 71.7334 15.349C71.4336 15.0366 71.2121 14.6591 71.0427 14.2165C70.8863 13.7739 70.7951 13.2922 70.7951 12.7715C70.7951 12.2638 70.8733 11.7952 71.0427 11.3526C71.2121 10.91 71.4467 10.5325 71.7464 10.2201C72.0591 9.89461 72.424 9.64727 72.841 9.46502C73.271 9.28277 73.7401 9.19165 74.2483 9.19165C74.8217 9.19165 75.3299 9.30881 75.7599 9.53011C76.1899 9.75141 76.5418 10.0508 76.8154 10.4283C77.0891 10.8059 77.2845 11.2354 77.4148 11.7171C77.5321 12.1988 77.5842 12.7064 77.5451 13.2272H72.6455C72.6976 13.839 72.854 14.2816 73.1277 14.555ZM75.2387 10.9751C75.0171 10.7277 74.6783 10.6106 74.2223 10.6106C73.9226 10.6106 73.675 10.6627 73.4795 10.7668C73.284 10.8709 73.1277 10.9881 73.0104 11.1443C72.8931 11.2875 72.8149 11.4567 72.7628 11.613C72.7107 11.7822 72.6846 11.9254 72.6716 12.0556H75.7078C75.6166 11.5869 75.4602 11.2224 75.2387 10.9751Z" fill="white"/>
<path d="M80.6726 14.555C80.9463 14.8283 81.3502 14.9585 81.8845 14.9585C82.2624 14.9585 82.5882 14.8674 82.8618 14.6721C83.1355 14.4899 83.3049 14.2816 83.357 14.0733H84.9989C84.7383 14.8804 84.3343 15.4662 83.787 15.8177C83.2397 16.1692 82.5882 16.3384 81.8193 16.3384C81.2851 16.3384 80.8029 16.2473 80.3729 16.078C79.9429 15.9088 79.578 15.6615 79.2783 15.349C78.9786 15.0366 78.744 14.6591 78.5876 14.2165C78.4182 13.7739 78.3401 13.2922 78.3401 12.7715C78.3401 12.2638 78.4182 11.7952 78.5876 11.3526C78.7571 10.91 78.9916 10.5325 79.2913 10.2201C79.6041 9.89461 79.9689 9.64727 80.3859 9.46502C80.8159 9.28277 81.2851 9.19165 81.7933 9.19165C82.3666 9.19165 82.8748 9.30881 83.3049 9.53011C83.7349 9.75141 84.0867 10.0508 84.3604 10.4283C84.634 10.8059 84.8295 11.2354 84.9598 11.7171C85.0771 12.1988 85.1292 12.7064 85.0901 13.2272H80.1905C80.2426 13.839 80.3859 14.2816 80.6726 14.555ZM82.7836 10.9751C82.5621 10.7277 82.2233 10.6106 81.7672 10.6106C81.4675 10.6106 81.2199 10.6627 81.0244 10.7668C80.829 10.8709 80.6726 10.9881 80.5553 11.1443C80.438 11.2875 80.3599 11.4567 80.3077 11.613C80.2556 11.7822 80.2296 11.9254 80.2165 12.0556H83.2527C83.1615 11.5869 83.0052 11.2224 82.7836 10.9751Z" fill="white"/>
<path d="M92.1268 6.80933V14.4507H96.7007V16.1821H90.0679V6.80933H92.1268Z" fill="white"/>
<path d="M97.5737 11.4827C97.5998 11.0401 97.7171 10.6886 97.8995 10.3892C98.095 10.1028 98.3426 9.8685 98.6423 9.69926C98.942 9.53003 99.2808 9.39986 99.6456 9.32175C100.024 9.24364 100.388 9.20459 100.766 9.20459C101.105 9.20459 101.457 9.23063 101.809 9.2827C102.161 9.33477 102.473 9.42589 102.773 9.56909C103.06 9.71228 103.294 9.90755 103.477 10.1549C103.659 10.4022 103.75 10.7407 103.75 11.1442V14.672C103.75 14.9845 103.763 15.2709 103.803 15.5573C103.842 15.8436 103.894 16.0519 103.985 16.1821H102.095C102.056 16.078 102.03 15.9738 102.004 15.8567C101.978 15.7525 101.965 15.6354 101.965 15.5182C101.665 15.8306 101.314 16.0389 100.91 16.1561C100.506 16.2732 100.089 16.3383 99.6717 16.3383C99.3459 16.3383 99.0462 16.2993 98.7726 16.2212C98.4859 16.1431 98.2513 16.0259 98.0428 15.8567C97.8343 15.6874 97.6649 15.4791 97.5477 15.2318C97.4304 14.9715 97.3652 14.672 97.3652 14.3206C97.3652 13.93 97.4304 13.6176 97.5737 13.3703C97.704 13.1229 97.8865 12.9277 98.095 12.7715C98.3035 12.6283 98.551 12.5111 98.8247 12.433C99.0983 12.3549 99.385 12.3028 99.6587 12.2507C99.9454 12.2117 100.219 12.1726 100.493 12.1466C100.766 12.1206 101.001 12.0815 101.222 12.0294C101.431 11.9774 101.6 11.8993 101.718 11.7951C101.835 11.691 101.9 11.5478 101.887 11.3525C101.887 11.1573 101.848 10.988 101.783 10.8709C101.718 10.7537 101.626 10.6626 101.522 10.5975C101.418 10.5324 101.288 10.4933 101.144 10.4673C101.001 10.4413 100.844 10.4283 100.675 10.4283C100.31 10.4283 100.024 10.5064 99.802 10.6626C99.5935 10.8188 99.4632 11.0791 99.4372 11.4436H97.5737V11.4827ZM101.887 12.8496C101.809 12.9146 101.705 12.9797 101.587 13.0188C101.47 13.0578 101.34 13.0969 101.209 13.1229C101.079 13.149 100.936 13.175 100.779 13.188C100.636 13.201 100.48 13.2271 100.336 13.2531C100.193 13.2791 100.063 13.3182 99.9193 13.3573C99.789 13.3963 99.6717 13.4614 99.5675 13.5395C99.4632 13.6176 99.385 13.7087 99.3199 13.8259C99.2547 13.9431 99.2287 14.0862 99.2287 14.2555C99.2287 14.4247 99.2547 14.5679 99.3199 14.672C99.385 14.7892 99.4632 14.8803 99.5675 14.9454C99.6717 15.0105 99.789 15.0626 99.9323 15.0886C100.076 15.1147 100.219 15.1277 100.362 15.1277C100.727 15.1277 101.014 15.0626 101.222 14.9454C101.418 14.8283 101.574 14.672 101.665 14.5028C101.757 14.3336 101.822 14.1644 101.848 13.9821C101.874 13.8129 101.887 13.6697 101.887 13.5655V12.8496Z" fill="white"/>
<path d="M107.06 6.80932V10.22H107.086C107.308 9.86849 107.621 9.60813 108.011 9.45192C108.402 9.29571 108.806 9.20458 109.223 9.20458C109.562 9.20458 109.901 9.26967 110.24 9.41287C110.579 9.55606 110.878 9.76435 111.139 10.0507C111.413 10.3371 111.621 10.7146 111.79 11.1572C111.96 11.6129 112.038 12.1466 112.038 12.7584C112.038 13.3833 111.96 13.917 111.79 14.3596C111.621 14.8152 111.413 15.1797 111.139 15.4661C110.865 15.7525 110.579 15.9738 110.24 16.104C109.914 16.2472 109.575 16.3123 109.223 16.3123C108.728 16.3123 108.272 16.2342 107.881 16.078C107.49 15.9217 107.191 15.6484 106.982 15.2709H106.956V16.143H105.184V6.77026H107.06V6.80932ZM110.083 11.9643C110.018 11.704 109.927 11.4697 109.797 11.2744C109.666 11.0791 109.497 10.9099 109.302 10.7927C109.106 10.6756 108.872 10.6105 108.585 10.6105C108.311 10.6105 108.077 10.6756 107.881 10.7927C107.686 10.9099 107.516 11.0661 107.386 11.2744C107.256 11.4697 107.164 11.704 107.099 11.9643C107.034 12.2247 107.008 12.4981 107.008 12.7975C107.008 13.0709 107.034 13.3442 107.099 13.6046C107.164 13.8649 107.256 14.0993 107.386 14.2945C107.516 14.4898 107.686 14.659 107.881 14.7762C108.077 14.8933 108.324 14.9584 108.585 14.9584C108.858 14.9584 109.106 14.8933 109.302 14.7762C109.497 14.659 109.666 14.5028 109.797 14.2945C109.927 14.0993 110.031 13.8649 110.083 13.6046C110.149 13.3442 110.175 13.0709 110.175 12.7975C110.175 12.4981 110.149 12.2247 110.083 11.9643Z" fill="white"/>
</g>
<defs>
<clipPath id="clip0">
<rect width="111.467" height="22" fill="white" transform="translate(0.571411 0.586914)"/>
</clipPath>
</defs>
</svg>
