<svg width="174" height="81" viewBox="0 0 174 81" fill="none" xmlns="http://www.w3.org/2000/svg">
<path d="M5 17C7.76142 17 10 14.7614 10 12C10 9.23858 7.76142 7 5 7C2.23858 7 0 9.23858 0 12C0 14.7614 2.23858 17 5 17Z" fill="#C1B1F0"/>
<line opacity="0.2" x1="48" y1="12" x2="10" y2="12" stroke="black" stroke-width="2" stroke-dasharray="2 2"/>
<path d="M57.144 7.852C55.296 7.852 53.952 8.874 53.952 10.694V11.38H55.702V11.436C54.974 11.604 54.246 12.206 54.246 13.522V16H55.394V13.214C55.394 11.996 55.884 11.45 56.92 11.408V10.568H55.086C55.212 9.364 55.954 8.86 57.144 8.86C58.474 8.86 59.23 9.616 59.23 10.946V16H60.378V10.876C60.378 9.028 59.3 7.852 57.144 7.852ZM54.6742 6.9H60.2322V5.976H54.6742V6.9ZM64.9753 7.852C63.6173 7.852 62.6653 8.342 62.0633 9.266L62.8053 9.98C63.2393 9.266 63.9533 8.86 64.9613 8.86C66.4173 8.86 67.2293 9.728 67.2293 11.254V12.598C67.2293 14.208 66.5153 14.992 65.5073 14.992H65.3253L64.6953 12.584C64.4433 11.632 64.1633 11.352 63.4493 11.352H62.5533V12.332H63.5053L64.4993 16H65.5073C67.3553 16 68.4333 14.656 68.4333 11.898C68.4333 9.28 67.3973 7.852 64.9753 7.852ZM73.3315 7.852C71.4835 7.852 70.1395 8.874 70.1395 10.694V11.38H71.8895V11.436C71.1615 11.604 70.4335 12.206 70.4335 13.522V16H71.5815V13.214C71.5815 11.996 72.0715 11.45 73.1075 11.408V10.568H71.2735C71.3995 9.364 72.1415 8.86 73.3315 8.86C74.6615 8.86 75.4175 9.616 75.4175 10.946V16H76.5655V10.876C76.5655 9.028 75.4875 7.852 73.3315 7.852ZM81.3448 16.168C83.0108 16.168 84.1028 15.258 84.1028 13.69C84.1028 12.486 83.4308 11.73 81.8347 11.506L81.2188 11.422C80.3088 11.296 79.7488 10.904 79.7488 10.134C79.7488 9.364 80.3088 8.86 81.2468 8.86C82.1708 8.86 82.8568 9.378 83.1928 9.868L84.0328 9.14C83.3748 8.328 82.5348 7.852 81.3308 7.852C79.8608 7.852 78.6427 8.622 78.6427 10.19C78.6427 11.674 79.7348 12.206 81.0648 12.402L81.6808 12.486C82.6608 12.626 82.9968 13.214 82.9968 13.83C82.9968 14.656 82.3668 15.16 81.4147 15.16C80.4488 15.16 79.7628 14.74 79.1328 13.9L78.3068 14.6C79.0208 15.538 79.9308 16.168 81.3448 16.168ZM88.4268 16.168C90.0928 16.168 91.1848 15.258 91.1848 13.69C91.1848 12.486 90.5128 11.73 88.9168 11.506L88.3008 11.422C87.3908 11.296 86.8308 10.904 86.8308 10.134C86.8308 9.364 87.3908 8.86 88.3288 8.86C89.2528 8.86 89.9388 9.378 90.2748 9.868L91.1148 9.14C90.4568 8.328 89.6168 7.852 88.4128 7.852C86.9428 7.852 85.7248 8.622 85.7248 10.19C85.7248 11.674 86.8168 12.206 88.1468 12.402L88.7628 12.486C89.7428 12.626 90.0788 13.214 90.0788 13.83C90.0788 14.656 89.4488 15.16 88.4968 15.16C87.5308 15.16 86.8448 14.74 86.2148 13.9L85.3888 14.6C86.1028 15.538 87.0128 16.168 88.4268 16.168ZM96.5308 16.168C98.1548 16.168 99.2048 15.062 99.2048 13.144V8.02H98.0568V12.976C98.0568 14.404 97.4128 15.146 96.2228 15.146C95.2428 15.146 94.2768 14.656 94.2768 13.606V8.02H93.1288V16H94.2488V14.684H94.3048C94.6128 15.44 95.2148 16.168 96.5308 16.168ZM56.626 37.168C58.292 37.168 59.384 36.258 59.384 34.69C59.384 33.486 58.712 32.73 57.116 32.506L56.5 32.422C55.59 32.296 55.03 31.904 55.03 31.134C55.03 30.364 55.59 29.86 56.528 29.86C57.452 29.86 58.138 30.378 58.474 30.868L59.314 30.14C58.656 29.328 57.816 28.852 56.612 28.852C55.142 28.852 53.924 29.622 53.924 31.19C53.924 32.674 55.016 33.206 56.346 33.402L56.962 33.486C57.942 33.626 58.278 34.214 58.278 34.83C58.278 35.656 57.648 36.16 56.696 36.16C55.73 36.16 55.044 35.74 54.414 34.9L53.588 35.6C54.302 36.538 55.212 37.168 56.626 37.168ZM70.778 29.02V34.606C70.778 35.656 69.812 36.146 68.916 36.146C67.922 36.146 67.278 35.656 67.278 33.99V31.876C67.278 30.028 66.158 28.852 64.114 28.852C62.168 28.852 60.978 29.874 60.978 31.694V32.38H62.63V32.436C61.902 32.604 61.174 33.206 61.174 34.606V35.11C61.174 36.384 61.72 37 62.812 37H63.694V36.02H62.294V34.214C62.294 32.996 62.784 32.45 63.932 32.408V31.568H62.07C62.196 30.42 62.882 29.86 64.114 29.86C65.36 29.86 66.13 30.602 66.13 31.946V34.158C66.13 36.314 67.18 37.168 68.608 37.168C69.84 37.168 70.442 36.44 70.75 35.684H70.806V37H71.926V29.02H70.778ZM76.792 37.168C78.458 37.168 79.55 36.258 79.55 34.69C79.55 33.486 78.878 32.73 77.282 32.506L76.666 32.422C75.756 32.296 75.196 31.904 75.196 31.134C75.196 30.364 75.756 29.86 76.694 29.86C77.618 29.86 78.304 30.378 78.64 30.868L79.48 30.14C78.822 29.328 77.982 28.852 76.778 28.852C75.308 28.852 74.09 29.622 74.09 31.19C74.09 32.674 75.182 33.206 76.512 33.402L77.128 33.486C78.108 33.626 78.444 34.214 78.444 34.83C78.444 35.656 77.814 36.16 76.862 36.16C75.896 36.16 75.21 35.74 74.58 34.9L73.754 35.6C74.468 36.538 75.378 37.168 76.792 37.168ZM83.188 37H84.07C85.876 37 86.786 36.174 86.786 33.5V30.98C86.786 29.72 86.268 29.02 85.19 29.02H84.154V30H85.638V33.99C85.638 35.502 85.176 35.992 84.14 35.992H84.014L81.76 29.02H80.598L83.188 37ZM88.9156 37H90.0636V35.054C90.0636 33.878 90.8756 33.584 91.6176 33.584H92.6396V32.436H91.9816C90.9176 32.436 90.3716 33.094 90.1196 33.808H90.0636V31.946C90.0636 30.602 90.8336 29.86 92.0936 29.86C93.3536 29.86 94.1236 30.602 94.1236 31.946V37H95.2716V31.876C95.2716 30.028 94.1796 28.852 92.0936 28.852C90.0076 28.852 88.9156 30.028 88.9156 31.876V37ZM93.0767 27.9H94.1407V26.99H95.9887V26.066H94.6587C93.5387 26.066 93.0767 26.486 93.0767 27.48V27.9ZM98.7879 37H100.188V36.02H98.7459V29.02H97.5979V35.81C97.5979 36.51 98.0179 37 98.7879 37ZM102.498 37H103.898V36.02H102.456V29.02H101.308V35.81C101.308 36.51 101.728 37 102.498 37ZM108.249 28.852C106.401 28.852 105.057 29.874 105.057 31.694V32.38H106.807V32.436C106.079 32.604 105.351 33.206 105.351 34.522V37H106.499V34.214C106.499 32.996 106.989 32.45 108.025 32.408V31.568H106.191C106.317 30.364 107.059 29.86 108.249 29.86C109.579 29.86 110.335 30.616 110.335 31.946V37H111.483V31.876C111.483 30.028 110.405 28.852 108.249 28.852ZM108.664 27.9H111.926V26.976H109.588V26.85C109.588 26.052 109.294 25.786 108.51 25.786H107.684V26.71H108.664V27.9ZM115.437 37H116.837V36.02H115.395V28.852C115.395 26.864 116.207 25.366 117.593 25.324V24.344H113.127V25.296H116.431V25.352C114.835 25.898 114.247 26.962 114.247 29.174V35.81C114.247 36.51 114.667 37 115.437 37ZM120.903 37.168C122.667 37.168 123.717 36.16 123.717 34.424V29.02H122.569V34.256C122.569 35.516 121.925 36.16 120.903 36.16C119.867 36.16 119.223 35.642 119.223 34.34C119.223 32.296 120.483 32.324 120.483 30.56V30.392C120.483 29.552 120.105 29.02 118.845 29.02H117.963V30H119.363V30.686C119.363 32.198 118.047 31.918 118.047 34.382C118.047 36.104 119.111 37.168 120.903 37.168ZM129.031 28.852C127.183 28.852 125.839 29.874 125.839 31.694V32.38H127.589V32.436C126.861 32.604 126.133 33.206 126.133 34.522V37H127.281V34.214C127.281 32.996 127.771 32.45 128.807 32.408V31.568H126.973C127.099 30.364 127.841 29.86 129.031 29.86C130.361 29.86 131.117 30.616 131.117 31.946V37H132.265V31.876C132.265 30.028 131.187 28.852 129.031 28.852ZM137.646 28.852C135.63 28.852 134.412 29.874 134.412 31.694V32.38H136.442V32.436C135.714 32.604 134.986 33.206 134.986 34.522V36.02H134.006V37H134.608C135.77 37 136.106 36.65 136.106 35.278V34.214C136.106 33.234 136.442 32.45 137.506 32.408V31.568H135.532C135.63 30.378 136.274 29.86 137.646 29.86C139.032 29.86 139.83 30.616 139.83 31.946V37.56C139.83 38.4 139.578 38.708 138.99 38.82L137.688 37.868H137.66C137.296 38.582 136.918 38.862 136.428 38.862C135.938 38.862 135.588 38.596 135.28 38.064L134.468 38.708C134.818 39.464 135.42 39.87 136.148 39.87C136.862 39.87 137.338 39.562 137.59 38.918H137.618L138.738 39.8C139.998 39.8 140.978 39.198 140.978 37.532V31.876C140.978 30.028 139.914 28.852 137.646 28.852ZM143.373 37H144.521V32.744H146.831C147.755 32.744 148.147 33.206 148.147 34.27V37H149.323V34.074C149.323 32.87 148.777 32.086 147.811 31.82V31.764C148.567 31.484 149.267 30.938 149.267 29.944V29.02H148.119V30.308C148.119 30.91 147.825 31.722 146.649 31.722H144.521V29.02H143.373V37ZM155.087 37.168C156.711 37.168 157.761 36.062 157.761 34.144V29.02H156.613V33.976C156.613 35.404 155.969 36.146 154.779 36.146C153.799 36.146 152.833 35.656 152.833 34.606V29.02H151.685V37H152.805V35.684H152.861C153.169 36.44 153.771 37.168 155.087 37.168ZM163.185 37H164.333V31.288C164.333 29.734 163.395 28.852 161.757 28.852C160.553 28.852 159.601 29.37 159.111 30.266L159.881 30.966C160.329 30.294 160.875 29.86 161.729 29.86C162.695 29.86 163.185 30.322 163.185 31.414V37ZM169.51 37.168C171.484 37.168 172.534 36.062 172.534 34.144V29.02H171.386V33.976C171.386 35.418 170.742 36.16 169.51 36.16C168.278 36.16 167.634 35.474 167.634 34.34V33.066H169.538V32.058H169.174C168.054 32.058 167.704 31.218 167.704 30.28V30H169.356V29.02H168.082C167.074 29.02 166.584 29.51 166.584 30.364V30.434C166.584 31.372 167.326 31.848 168.04 32.016V32.058H167.914C166.99 32.058 166.486 32.744 166.486 33.906V34.354C166.486 36.118 167.536 37.168 169.51 37.168ZM57.144 49.852C55.296 49.852 53.952 50.874 53.952 52.694V53.38H55.702V53.436C54.974 53.604 54.246 54.206 54.246 55.522V58H55.394V55.214C55.394 53.996 55.884 53.45 56.92 53.408V52.568H55.086C55.212 51.364 55.954 50.86 57.144 50.86C58.474 50.86 59.23 51.616 59.23 52.946V58H60.378V52.876C60.378 51.028 59.3 49.852 57.144 49.852ZM65.7733 58H66.9213V52.288C66.9213 50.734 65.9833 49.852 64.3453 49.852C63.1413 49.852 62.1893 50.37 61.6993 51.266L62.4693 51.966C62.9173 51.294 63.4633 50.86 64.3173 50.86C65.2833 50.86 65.7733 51.322 65.7733 52.414V58ZM71.7198 58.168C73.3858 58.168 74.4778 57.258 74.4778 55.69C74.4778 54.486 73.8058 53.73 72.2097 53.506L71.5938 53.422C70.6838 53.296 70.1238 52.904 70.1238 52.134C70.1238 51.364 70.6838 50.86 71.6218 50.86C72.5458 50.86 73.2318 51.378 73.5678 51.868L74.4078 51.14C73.7498 50.328 72.9098 49.852 71.7058 49.852C70.2358 49.852 69.0177 50.622 69.0177 52.19C69.0177 53.674 70.1098 54.206 71.4398 54.402L72.0558 54.486C73.0358 54.626 73.3718 55.214 73.3718 55.83C73.3718 56.656 72.7418 57.16 71.7897 57.16C70.8238 57.16 70.1378 56.74 69.5078 55.9L68.6818 56.6C69.3958 57.538 70.3058 58.168 71.7198 58.168ZM76.4218 58H77.5698V52.428C77.5698 51.378 78.5638 50.888 79.5718 50.888C80.7478 50.888 81.3918 51.63 81.3918 53.058V58H82.5398V52.876C82.5398 50.958 81.4898 49.852 79.8798 49.852C78.5358 49.852 77.9198 50.58 77.5978 51.336H77.5418V50.02H76.4218V58ZM81.7503 48.942C82.7443 48.942 83.1783 48.424 83.1783 47.724V47.36C83.1783 46.66 82.7443 46.142 81.7503 46.142C80.7563 46.142 80.3223 46.66 80.3223 47.36V47.724C80.3223 48.424 80.7563 48.942 81.7503 48.942ZM81.7503 48.13C81.4003 48.13 81.2183 47.934 81.2183 47.542C81.2183 47.15 81.4003 46.954 81.7503 46.954C82.1003 46.954 82.2823 47.15 82.2823 47.542C82.2823 47.934 82.1003 48.13 81.7503 48.13ZM87.9627 58H89.1107V52.288C89.1107 50.734 88.1727 49.852 86.5347 49.852C85.3307 49.852 84.3787 50.37 83.8887 51.266L84.6587 51.966C85.1067 51.294 85.6527 50.86 86.5067 50.86C87.4727 50.86 87.9627 51.322 87.9627 52.414V58ZM92.6492 58H94.0492V57.02H92.6072V50.02H91.4592V56.81C91.4592 57.51 91.8792 58 92.6492 58ZM96.3592 58H97.7592V57.02H96.3172V50.02H95.1692V56.81C95.1692 57.51 95.5892 58 96.3592 58ZM99.2128 58H100.361V52.428C100.361 51.378 101.355 50.888 102.363 50.888C103.539 50.888 104.183 51.63 104.183 53.058V58H105.331V52.876C105.331 50.958 104.281 49.852 102.671 49.852C101.327 49.852 100.711 50.58 100.389 51.336H100.333V50.02H99.2128V58ZM102.511 48.9H105.773V47.976H103.435V47.85C103.435 47.052 103.141 46.786 102.357 46.786H101.531V47.71H102.511V48.9ZM109.452 58H110.334C112.14 58 113.05 57.174 113.05 54.5V51.98C113.05 50.72 112.532 50.02 111.454 50.02H110.418V51H111.902V54.99C111.902 56.502 111.44 56.992 110.404 56.992H110.278L108.024 50.02H106.862L109.452 58Z" fill="black" fill-opacity="0.5"/>
<path d="M53.63 77H58.45V75.91H55.03L56.52 74.67C57.48 73.88 58.27 73.14 58.27 71.98C58.27 70.77 57.43 69.9 55.97 69.9C54.55 69.9 53.81 70.71 53.51 71.63L54.63 72.06C54.79 71.49 55.14 71.02 55.86 71.02C56.45 71.02 56.91 71.37 56.91 71.98V72.12C56.91 72.73 56.56 73.23 55.82 73.87L53.63 75.8V77ZM61.7161 77.12C63.2461 77.12 64.2761 76.3 64.2761 75.07C64.2761 74.08 63.6161 73.51 62.8161 73.36V73.31C63.5461 73.16 64.1461 72.61 64.1461 71.72C64.1461 70.6 63.1861 69.9 61.7961 69.9C60.6261 69.9 59.9661 70.41 59.4961 71.06L60.3261 71.81C60.6561 71.28 61.1461 70.96 61.7561 70.96C62.3961 70.96 62.7961 71.31 62.7961 71.89V71.96C62.7961 72.47 62.4161 72.85 61.6161 72.85H60.9261V73.92H61.6161C62.4561 73.92 62.9361 74.27 62.9361 74.93V74.99C62.9361 75.65 62.4961 76.06 61.7161 76.06C60.9261 76.06 60.5161 75.66 60.1961 75.1L59.2461 75.83C59.6861 76.5 60.3661 77.12 61.7161 77.12ZM70.2255 77.12C71.6355 77.12 72.4155 76.46 72.4155 75.15C72.4155 74.03 71.8755 73.5 70.5755 73.3L69.1355 73.12V72.89C69.1355 72.46 69.4755 72.21 70.1355 72.21C70.7655 72.21 71.1755 72.44 71.5255 72.83L72.3655 72.09C71.9055 71.49 71.2255 71.15 70.1455 71.15C68.7655 71.15 67.9455 71.82 67.9455 72.84V72.95C67.9455 73.61 68.3755 74.01 69.2055 74.14L70.3355 74.27C70.9955 74.36 71.2255 74.58 71.2255 75.15C71.2255 75.78 70.8955 76.05 70.2055 76.05C69.8155 76.05 69.5255 75.98 69.2255 75.85V74.57H68.0855V76.52C68.6055 76.91 69.2855 77.12 70.2255 77.12ZM74.3338 77.11C74.8738 77.11 75.1238 76.81 75.1238 76.39V76.21C75.1238 75.79 74.8738 75.48 74.3338 75.48C73.7938 75.48 73.5438 75.79 73.5438 76.21V76.39C73.5438 76.81 73.7938 77.11 74.3338 77.11ZM76.5225 77H77.8025V75.62C77.8025 74.99 78.2325 74.74 78.8925 74.74H79.4025V73.63H79.0525C78.3725 73.63 77.9925 74 77.8425 74.6H77.8025V73.47C77.8025 72.66 78.2125 72.23 78.9725 72.23C79.7225 72.23 80.1425 72.66 80.1425 73.47V77H81.4125V73.52C81.4125 72.03 80.5625 71.15 78.9725 71.15C77.3725 71.15 76.5225 72.03 76.5225 73.52V77ZM83.6111 77.11C84.1511 77.11 84.4011 76.81 84.4011 76.39V76.21C84.4011 75.79 84.1511 75.48 83.6111 75.48C83.0711 75.48 82.8211 75.79 82.8211 76.21V76.39C82.8211 76.81 83.0711 77.11 83.6111 77.11ZM88.0831 77H92.9031V75.91H89.4831L90.9731 74.67C91.9331 73.88 92.7231 73.14 92.7231 71.98C92.7231 70.77 91.8831 69.9 90.4231 69.9C89.0031 69.9 88.2631 70.71 87.9631 71.63L89.0831 72.06C89.2431 71.49 89.5931 71.02 90.3131 71.02C90.9031 71.02 91.3631 71.37 91.3631 71.98V72.12C91.3631 72.73 91.0131 73.23 90.2731 73.87L88.0831 75.8V77ZM96.3992 77.12C98.0392 77.12 98.9692 76.1 98.9692 74.7C98.9692 73.32 98.0392 72.5 96.8392 72.5C96.0092 72.5 95.6592 72.9 95.3692 73.5H95.2892L95.4592 71.14H98.5892V70.02H94.4992L94.2392 73.93L95.2992 74.08C95.5092 73.83 95.8592 73.56 96.4292 73.56C97.1792 73.56 97.6192 74 97.6192 74.73V74.82C97.6192 75.58 97.1992 76.06 96.4092 76.06C95.6492 76.06 95.2692 75.64 94.9492 75.1L94.0092 75.83C94.4292 76.5 95.1092 77.12 96.3992 77.12ZM102.475 77.12C104.005 77.12 104.995 76.13 104.995 74.72C104.995 73.4 104.115 72.55 102.945 72.55C102.075 72.55 101.635 73.04 101.365 73.59L101.285 73.56C101.595 72.13 102.555 71.2 104.185 70.02H102.445C101.275 70.8 99.9453 72.38 99.9453 74.38C99.9453 76.05 100.885 77.12 102.475 77.12ZM102.475 76.1C101.725 76.1 101.275 75.67 101.275 74.9V74.75C101.275 73.99 101.725 73.56 102.475 73.56C103.215 73.56 103.665 73.99 103.665 74.75V74.9C103.665 75.67 103.215 76.1 102.475 76.1ZM108.161 77.12C109.691 77.12 110.721 76.3 110.721 75.07C110.721 74.08 110.061 73.51 109.261 73.36V73.31C109.991 73.16 110.591 72.61 110.591 71.72C110.591 70.6 109.631 69.9 108.241 69.9C107.071 69.9 106.411 70.41 105.941 71.06L106.771 71.81C107.101 71.28 107.591 70.96 108.201 70.96C108.841 70.96 109.241 71.31 109.241 71.89V71.96C109.241 72.47 108.861 72.85 108.061 72.85H107.371V73.92H108.061C108.901 73.92 109.381 74.27 109.381 74.93V74.99C109.381 75.65 108.941 76.06 108.161 76.06C107.371 76.06 106.961 75.66 106.641 75.1L105.691 75.83C106.131 76.5 106.811 77.12 108.161 77.12Z" fill="black" fill-opacity="0.5"/>
</svg>
