<svg width="275" height="136" viewBox="0 0 275 136" fill="none" xmlns="http://www.w3.org/2000/svg">
<path d="M52 15C52 17.7614 54.2386 20 57 20C59.7614 20 62 17.7614 62 15C62 12.2386 59.7614 10 57 10C54.2386 10 52 12.2386 52 15Z" fill="#FF7A00"/>
<path d="M15 64.9995C15 67.7609 17.2386 69.9995 20 69.9995C22.7614 69.9995 25 67.7609 25 64.9995C25 62.2381 22.7614 59.9995 20 59.9995C17.2386 59.9995 15 62.2381 15 64.9995Z" fill="#C1B1F0"/>
<path d="M30.5452 45.7137C32.5588 43.8241 32.6593 40.6598 30.7696 38.6462C28.88 36.6326 25.7158 36.5321 23.7021 38.4217C21.6885 40.3114 21.588 43.4756 23.4777 45.4893C25.3673 47.5029 28.5315 47.6034 30.5452 45.7137Z" fill="#C1B1F0"/>
<path d="M43.1465 59.8726L40.5135 48.6298L32.0934 56.5315L43.1465 59.8726ZM29.4515 46.7405L36.2586 53.9941L37.717 52.6255L30.9099 45.3718L29.4515 46.7405Z" fill="#0CC6C6"/>
<path d="M50.3543 66.8221C52.3679 64.9325 52.4684 61.7682 50.5787 59.7546C48.6891 57.741 45.5248 57.6405 43.5112 59.5301C41.4976 61.4198 41.3971 64.584 43.2867 66.5976C45.1764 68.6113 48.3406 68.7118 50.3543 66.8221Z" fill="#C1B1F0"/>
<path opacity="0.2" d="M57 37C60.0732 36.9998 63.6585 37.2 63.6585 39.8C63.6585 45.08 63.6585 65.6666 63.6585 81.6C63.6585 84.2 64.478 87.2 78 87.2C72.878 87.2 63.6585 87.3199 63.6585 91.7999C63.6585 96.2799 63.6585 114.4 63.6585 115.4C63.6585 116.533 62.6341 118 58.5366 118" stroke="black" stroke-width="2" stroke-dasharray="2 2"/>
<line opacity="0.2" x1="101" y1="16" x2="63" y2="16" stroke="black" stroke-width="2" stroke-dasharray="2 2"/>
<line opacity="0.2" x1="101" y1="87" x2="77" y2="87" stroke="black" stroke-width="2" stroke-dasharray="2 2"/>
<path d="M113.57 16.168C114.788 16.168 115.53 15.538 115.95 14.628H116.02C116.076 15.44 116.44 16 117.266 16H117.952V15.02H117.126V10.708C117.126 8.888 115.922 7.852 113.934 7.852C112.352 7.852 111.386 8.342 110.812 9.266L111.554 9.98C112.002 9.266 112.716 8.86 113.808 8.86C115.194 8.86 115.978 9.462 115.978 10.876V13.144C115.978 14.586 114.802 15.146 113.836 15.146C113.066 15.146 112.632 14.768 112.632 13.83V12.584C112.632 11.842 112.464 11.52 111.764 11.52H110.728V12.5H111.554V13.844C111.554 15.328 112.212 16.168 113.57 16.168ZM122.513 16H123.661V10.288C123.661 8.734 122.723 7.852 121.085 7.852C119.881 7.852 118.929 8.37 118.439 9.266L119.209 9.966C119.657 9.294 120.203 8.86 121.057 8.86C122.023 8.86 122.513 9.322 122.513 10.414V16ZM128.838 16.168C130.812 16.168 131.862 15.062 131.862 13.144V8.02H130.714V12.976C130.714 14.418 130.07 15.16 128.838 15.16C127.606 15.16 126.962 14.474 126.962 13.34V12.066H128.866V11.058H128.502C127.382 11.058 127.032 10.218 127.032 9.28V9H128.684V8.02H127.41C126.402 8.02 125.912 8.51 125.912 9.364V9.434C125.912 10.372 126.654 10.848 127.368 11.016V11.058H127.242C126.318 11.058 125.814 11.744 125.814 12.906V13.354C125.814 15.118 126.864 16.168 128.838 16.168ZM135.543 16H136.943V15.02H135.501V8.02H134.353V14.81C134.353 15.51 134.773 16 135.543 16ZM140.96 7.852C139.518 7.852 138.552 8.482 137.978 9.406L138.72 10.12C139.154 9.406 139.868 8.86 140.876 8.86C142.22 8.86 142.864 9.462 142.864 10.876V11.296H141.156C138.902 11.296 137.824 12.094 137.824 13.69C137.824 15.23 138.846 16 140.456 16H141.282V14.978H140.596C139.588 14.978 139.028 14.614 139.028 13.802V13.438C139.028 12.738 139.658 12.318 140.918 12.318H142.864V16H144.012V10.708C144.012 8.888 142.948 7.852 140.96 7.852ZM147.67 16H149.07V15.02H147.628V8.02H146.48V14.81C146.48 15.51 146.9 16 147.67 16ZM153.241 16.168C155.005 16.168 156.055 15.16 156.055 13.424V12.388C156.055 11.226 155.565 10.442 154.655 10.162V10.106C155.411 9.798 156.111 9.252 156.111 8.258V8.02H154.879V8.622C154.879 9.518 154.347 10.036 153.577 10.036H153.563V10.918H153.731C154.515 10.918 154.907 11.38 154.907 12.444V13.256C154.907 14.516 154.263 15.16 153.241 15.16C152.205 15.16 151.561 14.642 151.561 13.34C151.561 11.45 152.961 11.632 152.961 9.602V8.02H151.897V8.216C151.897 8.636 151.309 9.112 150.721 9.112V8.02H149.741V8.888C149.741 9.588 150.077 9.952 150.679 9.952C151.295 9.952 151.673 9.504 151.841 8.79H151.897V9.686C151.897 11.198 150.413 10.918 150.413 13.382C150.413 15.104 151.463 16.168 153.241 16.168ZM160.951 16.168C163.233 16.168 164.283 14.824 164.283 12.01C164.283 9.28 163.205 7.852 160.909 7.852C159.551 7.852 158.585 8.342 157.955 9.266L158.725 9.952C159.187 9.266 159.873 8.86 160.881 8.86C162.281 8.86 163.079 9.728 163.079 11.254V12.794C163.079 14.376 162.365 15.16 160.951 15.16C159.495 15.16 158.879 14.474 158.879 12.794V12.374H160.335V11.394H159.215C158.291 11.394 157.759 11.856 157.759 12.808V12.92C157.759 14.978 158.921 16.168 160.951 16.168ZM168.614 16.168C170.28 16.168 171.372 15.258 171.372 13.69C171.372 12.486 170.7 11.73 169.104 11.506L168.488 11.422C167.578 11.296 167.018 10.904 167.018 10.134C167.018 9.364 167.578 8.86 168.516 8.86C169.44 8.86 170.126 9.378 170.462 9.868L171.302 9.14C170.644 8.328 169.804 7.852 168.6 7.852C167.13 7.852 165.912 8.622 165.912 10.19C165.912 11.674 167.004 12.206 168.334 12.402L168.95 12.486C169.93 12.626 170.266 13.214 170.266 13.83C170.266 14.656 169.636 15.16 168.684 15.16C167.718 15.16 167.032 14.74 166.402 13.9L165.576 14.6C166.29 15.538 167.2 16.168 168.614 16.168ZM169.108 6.9H170.172V5.99H172.02V5.066H170.69C169.57 5.066 169.108 5.486 169.108 6.48V6.9ZM177.227 9.14C177.815 9.14 178.081 8.804 178.081 8.314V8.118C178.081 7.74 177.913 7.46 177.535 7.376C177.689 6.718 178.025 6.228 178.585 5.64H177.647C176.849 6.326 176.373 7.362 176.373 8.118V8.314C176.373 8.804 176.639 9.14 177.227 9.14ZM182.987 16H183.841V14.978H183.057C181.755 14.978 181.195 14.376 181.195 12.85V11.24C181.195 9.882 181.629 8.958 182.357 8.958L183.421 10.078H183.449L184.513 8.958C185.185 9.028 185.353 9.364 185.353 10.764V16H186.501V9.966C186.501 8.37 185.521 7.852 184.345 7.852L183.463 8.888H183.421L182.525 7.852C180.901 7.852 179.991 9.21 179.991 11.884C179.991 14.768 180.873 16 182.987 16ZM191.953 16H193.101V10.288C193.101 8.734 192.163 7.852 190.525 7.852C189.321 7.852 188.369 8.37 187.879 9.266L188.649 9.966C189.097 9.294 189.643 8.86 190.497 8.86C191.463 8.86 191.953 9.322 191.953 10.414V16ZM198.921 16.168C200.545 16.168 201.595 15.062 201.595 13.144V8.02H200.447V12.976C200.447 14.404 199.803 15.146 198.613 15.146C197.633 15.146 196.667 14.656 196.667 13.606V8.02H195.519V16H196.639V14.684H196.695C197.003 15.44 197.605 16.168 198.921 16.168ZM204.023 16H205.171V11.744H207.481C208.405 11.744 208.797 12.206 208.797 13.27V16H209.973V13.074C209.973 11.87 209.427 11.086 208.461 10.82V10.764C209.217 10.484 209.917 9.938 209.917 8.944V8.02H208.769V9.308C208.769 9.91 208.475 10.722 207.299 10.722H205.171V8.02H204.023V16ZM215.332 16H216.48V10.288C216.48 8.734 215.542 7.852 213.904 7.852C212.7 7.852 211.748 8.37 211.258 9.266L212.028 9.966C212.476 9.294 213.022 8.86 213.876 8.86C214.842 8.86 215.332 9.322 215.332 10.414V16ZM218.8 16H219.948V14.054C219.948 12.878 220.76 12.584 221.502 12.584H222.524V11.436H221.866C220.802 11.436 220.256 12.094 220.004 12.808H219.948V10.946C219.948 9.602 220.718 8.86 221.978 8.86C223.238 8.86 224.008 9.602 224.008 10.946V16H225.156V10.876C225.156 9.028 224.064 7.852 221.978 7.852C219.892 7.852 218.8 9.028 218.8 10.876V16ZM229.625 16.168C231.767 16.168 232.789 14.74 232.789 12.01C232.789 9.28 231.767 7.852 229.625 7.852C228.183 7.852 227.259 8.552 226.811 9.546L227.819 10.022C228.113 9.294 228.771 8.86 229.625 8.86C230.787 8.86 231.585 9.728 231.585 11.254V12.766C231.585 14.292 230.787 15.16 229.625 15.16C228.771 15.16 228.113 14.726 227.819 13.998L226.811 14.474C227.259 15.468 228.183 16.168 229.625 16.168ZM237.726 16H238.874V10.288C238.874 8.734 237.936 7.852 236.298 7.852C235.094 7.852 234.142 8.37 233.652 9.266L234.422 9.966C234.87 9.294 235.416 8.86 236.27 8.86C237.236 8.86 237.726 9.322 237.726 10.414V16ZM244.695 16.168C246.319 16.168 247.369 15.062 247.369 13.144V8.02H246.221V12.976C246.221 14.404 245.577 15.146 244.387 15.146C243.407 15.146 242.441 14.656 242.441 13.606V8.02H241.293V16H242.413V14.684H242.469C242.777 15.44 243.379 16.168 244.695 16.168ZM251.995 7.852C250.637 7.852 249.685 8.342 249.083 9.266L249.825 9.98C250.259 9.266 250.973 8.86 251.981 8.86C253.437 8.86 254.249 9.728 254.249 11.254V12.598C254.249 14.208 253.535 14.992 252.527 14.992H252.345L251.715 12.584C251.463 11.632 251.183 11.352 250.469 11.352H249.573V12.332H250.525L251.519 16H252.527C254.375 16 255.453 14.656 255.453 11.898C255.453 9.28 254.417 7.852 251.995 7.852ZM259.833 16.168C261.499 16.168 262.591 15.258 262.591 13.69C262.591 12.486 261.919 11.73 260.323 11.506L259.707 11.422C258.797 11.296 258.237 10.904 258.237 10.134C258.237 9.364 258.797 8.86 259.735 8.86C260.659 8.86 261.345 9.378 261.681 9.868L262.521 9.14C261.863 8.328 261.023 7.852 259.819 7.852C258.349 7.852 257.131 8.622 257.131 10.19C257.131 11.674 258.223 12.206 259.553 12.402L260.169 12.486C261.149 12.626 261.485 13.214 261.485 13.83C261.485 14.656 260.855 15.16 259.903 15.16C258.937 15.16 258.251 14.74 257.621 13.9L256.795 14.6C257.509 15.538 258.419 16.168 259.833 16.168ZM256.828 6.9H262.386V5.976H256.828V6.9ZM266.229 16H267.111C268.917 16 269.827 15.174 269.827 12.5V9.98C269.827 8.72 269.309 8.02 268.231 8.02H267.195V9H268.679V12.99C268.679 14.502 268.217 14.992 267.181 14.992H267.055L264.801 8.02H263.639L266.229 16ZM271.425 9H272.363C273.161 8.314 273.637 7.278 273.637 6.522V6.326C273.637 5.836 273.371 5.5 272.783 5.5C272.195 5.5 271.929 5.836 271.929 6.326V6.522C271.929 6.9 272.097 7.18 272.475 7.264C272.321 7.922 271.985 8.412 271.425 9ZM112.758 37H114.158V36.02H112.716V29.552C112.716 27.27 112.212 25.884 110.84 25.352V25.296H114.746V24.344H109.65V25.324C110.812 25.366 111.568 26.654 111.568 28.67V35.81C111.568 36.51 111.988 37 112.758 37ZM118.169 37H118.869V35.978H118.239C117.077 35.978 116.377 35.376 116.377 33.85V32.352C116.377 30.756 117.161 29.86 118.449 29.86C119.709 29.86 120.381 30.644 120.381 32.03V37H121.529V31.876C121.529 29.958 120.465 28.852 118.477 28.852C116.321 28.852 115.173 30.238 115.173 33.052C115.173 35.964 116.111 37 118.169 37ZM126.705 37.168C128.679 37.168 129.729 36.062 129.729 34.144V29.02H128.581V33.976C128.581 35.418 127.937 36.16 126.705 36.16C125.473 36.16 124.829 35.474 124.829 34.34V33.066H126.733V32.058H126.369C125.249 32.058 124.899 31.218 124.899 30.28V30H126.551V29.02H125.277C124.269 29.02 123.779 29.51 123.779 30.364V30.434C123.779 31.372 124.521 31.848 125.235 32.016V32.058H125.109C124.185 32.058 123.681 32.744 123.681 33.906V34.354C123.681 36.118 124.731 37.168 126.705 37.168ZM132.052 37H133.2V35.054C133.2 33.878 134.012 33.584 134.754 33.584H135.776V32.436H135.118C134.054 32.436 133.508 33.094 133.256 33.808H133.2V31.946C133.2 30.602 133.97 29.86 135.23 29.86C136.49 29.86 137.26 30.602 137.26 31.946V37H138.408V31.876C138.408 30.028 137.316 28.852 135.23 28.852C133.144 28.852 132.052 30.028 132.052 31.876V37ZM150.255 29.02V34.606C150.255 35.656 149.289 36.146 148.393 36.146C147.399 36.146 146.755 35.656 146.755 33.99V31.876C146.755 30.028 145.635 28.852 143.591 28.852C141.645 28.852 140.455 29.874 140.455 31.694V32.38H142.107V32.436C141.379 32.604 140.651 33.206 140.651 34.606V35.11C140.651 36.384 141.197 37 142.289 37H143.171V36.02H141.771V34.214C141.771 32.996 142.261 32.45 143.409 32.408V31.568H141.547C141.673 30.42 142.359 29.86 143.591 29.86C144.837 29.86 145.607 30.602 145.607 31.946V34.158C145.607 36.314 146.657 37.168 148.085 37.168C149.317 37.168 149.919 36.44 150.227 35.684H150.283V37H151.403V29.02H150.255ZM154.645 32.114L157.109 32.1V31.064L154.547 31.078V29.79L153.455 29.804V30.924C153.455 31.68 153.945 32.114 154.645 32.114ZM154.645 36.174L157.109 36.16V35.124L154.547 35.138V33.85L153.455 33.864V34.984C153.455 35.74 153.945 36.174 154.645 36.174ZM161.763 28.852C159.915 28.852 158.571 29.874 158.571 31.694V32.38H160.321V32.436C159.593 32.604 158.865 33.206 158.865 34.522V37H160.013V34.214C160.013 32.996 160.503 32.45 161.539 32.408V31.568H159.705C159.831 30.364 160.573 29.86 161.763 29.86C163.093 29.86 163.849 30.616 163.849 31.946V37H164.997V31.876C164.997 30.028 163.919 28.852 161.763 28.852ZM162.177 27.9H165.439V26.976H163.101V26.85C163.101 26.052 162.807 25.786 162.023 25.786H161.197V26.71H162.177V27.9ZM170.392 37H171.54V31.288C171.54 29.734 170.602 28.852 168.964 28.852C167.76 28.852 166.808 29.37 166.318 30.266L167.088 30.966C167.536 30.294 168.082 29.86 168.936 29.86C169.902 29.86 170.392 30.322 170.392 31.414V37ZM176.031 37.168C178.173 37.168 179.195 35.74 179.195 33.01C179.195 30.28 178.173 28.852 176.031 28.852C174.589 28.852 173.665 29.552 173.217 30.546L174.225 31.022C174.519 30.294 175.177 29.86 176.031 29.86C177.193 29.86 177.991 30.728 177.991 32.254V33.766C177.991 35.292 177.193 36.16 176.031 36.16C175.177 36.16 174.519 35.726 174.225 34.998L173.217 35.474C173.665 36.468 174.589 37.168 176.031 37.168ZM181.137 37H182.285V32.744H184.595C185.519 32.744 185.911 33.206 185.911 34.27V37H187.087V34.074C187.087 32.87 186.541 32.086 185.575 31.82V31.764C186.331 31.484 187.031 30.938 187.031 29.944V29.02H185.883V30.308C185.883 30.91 185.589 31.722 184.413 31.722H182.285V29.02H181.137V37ZM192.053 37.168C193.369 37.168 193.971 36.44 194.279 35.684H194.335V37H195.455V29.02H194.307V34.606C194.307 35.656 193.341 36.146 192.361 36.146C191.171 36.146 190.527 35.404 190.527 33.976V29.02H189.379V34.144C189.379 36.062 190.429 37.168 192.053 37.168ZM192.775 27.9H196.037V26.976H193.699V26.85C193.699 26.052 193.405 25.786 192.621 25.786H191.795V26.71H192.775V27.9ZM200.949 37H202.097V31.288C202.097 29.734 201.159 28.852 199.521 28.852C198.317 28.852 197.365 29.37 196.875 30.266L197.645 30.966C198.093 30.294 198.639 29.86 199.493 29.86C200.459 29.86 200.949 30.322 200.949 31.414V37Z" fill="black" fill-opacity="0.5"/>
<path d="M110.92 56H115.69V54.95H114.1V49.02H112.13L110.4 51.06L111.21 51.74L112.74 49.95H112.82V54.95H110.92V56ZM118.996 56.12C120.776 56.12 121.586 54.79 121.586 52.51C121.586 50.23 120.776 48.9 118.996 48.9C117.216 48.9 116.406 50.23 116.406 52.51C116.406 54.79 117.216 56.12 118.996 56.12ZM118.996 55.03C118.096 55.03 117.786 54.3 117.786 53.14V51.88C117.786 50.72 118.096 49.99 118.996 49.99C119.896 49.99 120.206 50.72 120.206 51.88V53.14C120.206 54.3 119.896 55.03 118.996 55.03ZM125.655 56H127.115L128.035 51.72H128.065L128.985 56H130.435L131.245 50.27H130.035L129.625 54.74H129.595L128.645 50.27H127.455L126.495 54.74H126.475L126.065 50.27H124.855L125.655 56ZM133.238 56.11C133.778 56.11 134.028 55.81 134.028 55.39V55.21C134.028 54.79 133.778 54.48 133.238 54.48C132.698 54.48 132.448 54.79 132.448 55.21V55.39C132.448 55.81 132.698 56.11 133.238 56.11ZM135.427 56H136.707V54.62C136.707 53.99 137.137 53.74 137.797 53.74H138.307V52.63H137.957C137.277 52.63 136.897 53 136.747 53.6H136.707V52.47C136.707 51.66 137.117 51.23 137.877 51.23C138.627 51.23 139.047 51.66 139.047 52.47V56H140.317V52.52C140.317 51.03 139.467 50.15 137.877 50.15C136.277 50.15 135.427 51.03 135.427 52.52V56ZM142.515 56.11C143.055 56.11 143.305 55.81 143.305 55.39V55.21C143.305 54.79 143.055 54.48 142.515 54.48C141.975 54.48 141.725 54.79 141.725 55.21V55.39C141.725 55.81 141.975 56.11 142.515 56.11ZM146.987 56H151.807V54.91H148.387L149.877 53.67C150.837 52.88 151.627 52.14 151.627 50.98C151.627 49.77 150.787 48.9 149.327 48.9C147.907 48.9 147.167 49.71 146.867 50.63L147.987 51.06C148.147 50.49 148.497 50.02 149.217 50.02C149.807 50.02 150.267 50.37 150.267 50.98V51.12C150.267 51.73 149.917 52.23 149.177 52.87L146.987 54.8V56ZM155.304 56.12C156.944 56.12 157.874 55.1 157.874 53.7C157.874 52.32 156.944 51.5 155.744 51.5C154.914 51.5 154.564 51.9 154.274 52.5H154.194L154.364 50.14H157.494V49.02H153.404L153.144 52.93L154.204 53.08C154.414 52.83 154.764 52.56 155.334 52.56C156.084 52.56 156.524 53 156.524 53.73V53.82C156.524 54.58 156.104 55.06 155.314 55.06C154.554 55.06 154.174 54.64 153.854 54.1L152.914 54.83C153.334 55.5 154.014 56.12 155.304 56.12ZM161.38 56.12C162.91 56.12 163.9 55.13 163.9 53.72C163.9 52.4 163.02 51.55 161.85 51.55C160.98 51.55 160.54 52.04 160.27 52.59L160.19 52.56C160.5 51.13 161.46 50.2 163.09 49.02H161.35C160.18 49.8 158.85 51.38 158.85 53.38C158.85 55.05 159.79 56.12 161.38 56.12ZM161.38 55.1C160.63 55.1 160.18 54.67 160.18 53.9V53.75C160.18 52.99 160.63 52.56 161.38 52.56C162.12 52.56 162.57 52.99 162.57 53.75V53.9C162.57 54.67 162.12 55.1 161.38 55.1ZM167.066 56.12C168.596 56.12 169.626 55.3 169.626 54.07C169.626 53.08 168.966 52.51 168.166 52.36V52.31C168.896 52.16 169.496 51.61 169.496 50.72C169.496 49.6 168.536 48.9 167.146 48.9C165.976 48.9 165.316 49.41 164.846 50.06L165.676 50.81C166.006 50.28 166.496 49.96 167.106 49.96C167.746 49.96 168.146 50.31 168.146 50.89V50.96C168.146 51.47 167.766 51.85 166.966 51.85H166.276V52.92H166.966C167.806 52.92 168.286 53.27 168.286 53.93V53.99C168.286 54.65 167.846 55.06 167.066 55.06C166.276 55.06 165.866 54.66 165.546 54.1L164.596 54.83C165.036 55.5 165.716 56.12 167.066 56.12Z" fill="black" fill-opacity="0.5"/>
<path d="M114.144 83.852C112.296 83.852 110.952 84.874 110.952 86.694V87.38H112.702V87.436C111.974 87.604 111.246 88.206 111.246 89.522V92H112.394V89.214C112.394 87.996 112.884 87.45 113.92 87.408V86.568H112.086C112.212 85.364 112.954 84.86 114.144 84.86C115.474 84.86 116.23 85.616 116.23 86.946V92H117.378V86.876C117.378 85.028 116.3 83.852 114.144 83.852ZM111.674 82.9H117.232V81.976H111.674V82.9ZM121.975 83.852C120.617 83.852 119.665 84.342 119.063 85.266L119.805 85.98C120.239 85.266 120.953 84.86 121.961 84.86C123.417 84.86 124.229 85.728 124.229 87.254V88.598C124.229 90.208 123.515 90.992 122.507 90.992H122.325L121.695 88.584C121.443 87.632 121.163 87.352 120.449 87.352H119.553V88.332H120.505L121.499 92H122.507C124.355 92 125.433 90.656 125.433 87.898C125.433 85.28 124.397 83.852 121.975 83.852ZM130.332 83.852C128.484 83.852 127.14 84.874 127.14 86.694V87.38H128.89V87.436C128.162 87.604 127.434 88.206 127.434 89.522V92H128.582V89.214C128.582 87.996 129.072 87.45 130.108 87.408V86.568H128.274C128.4 85.364 129.142 84.86 130.332 84.86C131.662 84.86 132.418 85.616 132.418 86.946V92H133.566V86.876C133.566 85.028 132.488 83.852 130.332 83.852ZM138.345 92.168C140.011 92.168 141.103 91.258 141.103 89.69C141.103 88.486 140.431 87.73 138.835 87.506L138.219 87.422C137.309 87.296 136.749 86.904 136.749 86.134C136.749 85.364 137.309 84.86 138.247 84.86C139.171 84.86 139.857 85.378 140.193 85.868L141.033 85.14C140.375 84.328 139.535 83.852 138.331 83.852C136.861 83.852 135.643 84.622 135.643 86.19C135.643 87.674 136.735 88.206 138.065 88.402L138.681 88.486C139.661 88.626 139.997 89.214 139.997 89.83C139.997 90.656 139.367 91.16 138.415 91.16C137.449 91.16 136.763 90.74 136.133 89.9L135.307 90.6C136.021 91.538 136.931 92.168 138.345 92.168ZM145.427 92.168C147.093 92.168 148.185 91.258 148.185 89.69C148.185 88.486 147.513 87.73 145.917 87.506L145.301 87.422C144.391 87.296 143.831 86.904 143.831 86.134C143.831 85.364 144.391 84.86 145.329 84.86C146.253 84.86 146.939 85.378 147.275 85.868L148.115 85.14C147.457 84.328 146.617 83.852 145.413 83.852C143.943 83.852 142.725 84.622 142.725 86.19C142.725 87.674 143.817 88.206 145.147 88.402L145.763 88.486C146.743 88.626 147.079 89.214 147.079 89.83C147.079 90.656 146.449 91.16 145.497 91.16C144.531 91.16 143.845 90.74 143.215 89.9L142.389 90.6C143.103 91.538 144.013 92.168 145.427 92.168ZM153.531 92.168C155.155 92.168 156.205 91.062 156.205 89.144V84.02H155.057V88.976C155.057 90.404 154.413 91.146 153.223 91.146C152.243 91.146 151.277 90.656 151.277 89.606V84.02H150.129V92H151.249V90.684H151.305C151.613 91.44 152.215 92.168 153.531 92.168ZM161.013 92.168C162.679 92.168 163.771 91.258 163.771 89.69C163.771 88.486 163.099 87.73 161.503 87.506L160.887 87.422C159.977 87.296 159.417 86.904 159.417 86.134C159.417 85.364 159.977 84.86 160.915 84.86C161.839 84.86 162.525 85.378 162.861 85.868L163.701 85.14C163.043 84.328 162.203 83.852 160.999 83.852C159.529 83.852 158.311 84.622 158.311 86.19C158.311 87.674 159.403 88.206 160.733 88.402L161.349 88.486C162.329 88.626 162.665 89.214 162.665 89.83C162.665 90.656 162.035 91.16 161.083 91.16C160.117 91.16 159.431 90.74 158.801 89.9L157.975 90.6C158.689 91.538 159.599 92.168 161.013 92.168ZM167.787 92.168C169.929 92.168 170.951 90.74 170.951 88.01C170.951 85.28 169.929 83.852 167.787 83.852C166.345 83.852 165.421 84.552 164.973 85.546L165.981 86.022C166.275 85.294 166.933 84.86 167.787 84.86C168.949 84.86 169.747 85.728 169.747 87.254V88.766C169.747 90.292 168.949 91.16 167.787 91.16C166.933 91.16 166.275 90.726 165.981 89.998L164.973 90.474C165.421 91.468 166.345 92.168 167.787 92.168ZM176.294 92.168C177.918 92.168 178.968 91.062 178.968 89.144V84.02H177.82V88.976C177.82 90.404 177.176 91.146 175.986 91.146C175.006 91.146 174.04 90.656 174.04 89.606V84.02H172.892V92H174.012V90.684H174.068C174.376 91.44 174.978 92.168 176.294 92.168ZM183.93 92H184.784V90.978H184C182.698 90.978 182.138 90.376 182.138 88.85V87.24C182.138 85.882 182.572 84.958 183.3 84.958L184.364 86.078H184.392L185.456 84.958C186.128 85.028 186.296 85.364 186.296 86.764V92H187.444V85.966C187.444 84.37 186.464 83.852 185.288 83.852L184.406 84.888H184.364L183.468 83.852C181.844 83.852 180.934 85.21 180.934 87.884C180.934 90.768 181.816 92 183.93 92ZM186.013 82.9H188.813V81.976H185.495V81.08H184.431V81.486C184.431 82.48 184.893 82.9 186.013 82.9ZM191.972 92.168C194.114 92.168 195.136 90.74 195.136 88.01C195.136 85.28 194.114 83.852 191.972 83.852C190.53 83.852 189.606 84.552 189.158 85.546L190.166 86.022C190.46 85.294 191.118 84.86 191.972 84.86C193.134 84.86 193.932 85.728 193.932 87.254V88.766C193.932 90.292 193.134 91.16 191.972 91.16C191.118 91.16 190.46 90.726 190.166 89.998L189.158 90.474C189.606 91.468 190.53 92.168 191.972 92.168ZM199.458 92.168C201.124 92.168 202.216 91.258 202.216 89.69C202.216 88.486 201.544 87.73 199.948 87.506L199.332 87.422C198.422 87.296 197.862 86.904 197.862 86.134C197.862 85.364 198.422 84.86 199.36 84.86C200.284 84.86 200.97 85.378 201.306 85.868L202.146 85.14C201.488 84.328 200.648 83.852 199.444 83.852C197.974 83.852 196.756 84.622 196.756 86.19C196.756 87.674 197.848 88.206 199.178 88.402L199.794 88.486C200.774 88.626 201.11 89.214 201.11 89.83C201.11 90.656 200.48 91.16 199.528 91.16C198.562 91.16 197.876 90.74 197.246 89.9L196.42 90.6C197.134 91.538 198.044 92.168 199.458 92.168ZM201.367 82.942C202.361 82.942 202.795 82.424 202.795 81.724V81.36C202.795 80.66 202.361 80.142 201.367 80.142C200.373 80.142 199.939 80.66 199.939 81.36V81.724C199.939 82.424 200.373 82.942 201.367 82.942ZM201.367 82.13C201.017 82.13 200.835 81.934 200.835 81.542C200.835 81.15 201.017 80.954 201.367 80.954C201.717 80.954 201.899 81.15 201.899 81.542C201.899 81.934 201.717 82.13 201.367 82.13ZM207.156 92H208.304V86.288C208.304 84.734 207.366 83.852 205.728 83.852C204.524 83.852 203.572 84.37 203.082 85.266L203.852 85.966C204.3 85.294 204.846 84.86 205.7 84.86C206.666 84.86 207.156 85.322 207.156 86.414V92ZM213.285 83.852C211.843 83.852 210.877 84.482 210.303 85.406L211.045 86.12C211.479 85.406 212.193 84.86 213.201 84.86C214.545 84.86 215.189 85.462 215.189 86.876V87.296H213.481C211.227 87.296 210.149 88.094 210.149 89.69C210.149 91.23 211.171 92 212.781 92H213.607V90.978H212.921C211.913 90.978 211.353 90.614 211.353 89.802V89.438C211.353 88.738 211.983 88.318 213.243 88.318H215.189V92H216.337V86.708C216.337 84.888 215.273 83.852 213.285 83.852ZM215.209 80.702C214.425 80.702 214.089 81.108 214.089 81.71V81.906V81.976H210.645V82.9H215.209C216.007 82.9 216.343 82.494 216.343 81.906V81.71C216.343 81.108 216.007 80.702 215.209 80.702ZM215.209 82.27C214.943 82.27 214.803 82.116 214.803 81.808C214.803 81.5 214.943 81.346 215.209 81.346C215.489 81.346 215.629 81.5 215.629 81.808C215.629 82.116 215.489 82.27 215.209 82.27ZM221.632 83.852C219.784 83.852 218.44 84.874 218.44 86.694V87.38H220.19V87.436C219.462 87.604 218.734 88.206 218.734 89.522V92H219.882V89.214C219.882 87.996 220.372 87.45 221.408 87.408V86.568H219.574C219.7 85.364 220.442 84.86 221.632 84.86C222.962 84.86 223.718 85.616 223.718 86.946V92H224.866V86.876C224.866 85.028 223.788 83.852 221.632 83.852ZM114.102 104.852C112.114 104.852 110.924 105.874 110.924 107.694V108.38H112.576V108.436C111.848 108.604 111.12 109.206 111.12 110.606V111.11C111.12 112.384 111.666 113 112.758 113H113.64V112.02H112.24V110.214C112.24 108.996 112.73 108.45 113.878 108.408V107.568H112.016C112.142 106.42 112.828 105.86 114.102 105.86C115.432 105.86 116.202 106.602 116.202 107.946V113H117.35V107.876C117.35 106.028 116.258 104.852 114.102 104.852ZM116.211 101.702C115.427 101.702 115.091 102.108 115.091 102.71V102.906V102.976H111.647V103.9H116.211C117.009 103.9 117.345 103.494 117.345 102.906V102.71C117.345 102.108 117.009 101.702 116.211 101.702ZM116.211 103.27C115.945 103.27 115.805 103.116 115.805 102.808C115.805 102.5 115.945 102.346 116.211 102.346C116.491 102.346 116.631 102.5 116.631 102.808C116.631 103.116 116.491 103.27 116.211 103.27ZM121.444 113H122.326C124.132 113 125.042 112.174 125.042 109.5V106.98C125.042 105.72 124.524 105.02 123.446 105.02H122.41V106H123.894V109.99C123.894 111.502 123.432 111.992 122.396 111.992H122.27L120.016 105.02H118.854L121.444 113ZM127.199 113H128.375L130.321 110.186H130.349L132.295 113H133.471V105.02H132.351V111.572L130.349 108.632H130.321L128.319 111.572V106H129.677V105.02H128.781C127.605 105.02 127.199 105.678 127.199 107.05V113ZM131.458 116.738H132.55C133.138 116.738 133.474 116.402 133.474 115.814V114.022H132.522V115.912H131.486V115.086C131.486 114.4 131.108 114.022 130.436 114.022H129.89V114.862H130.534V115.814C130.534 116.402 130.87 116.738 131.458 116.738ZM130.8 103.9H134.062V102.976H131.724V102.85C131.724 102.052 131.43 101.786 130.646 101.786H129.82V102.71H130.8V103.9ZM137.225 113H138.625V112.02H137.183V105.02H136.035V111.81C136.035 112.51 136.455 113 137.225 113ZM146.618 105.51V104.53H145.33C144.84 104.53 144.518 104.796 144.518 105.202V105.3C144.056 104.992 143.44 104.852 142.726 104.852C141.34 104.852 140.374 105.482 139.8 106.406L140.542 107.12C140.976 106.406 141.69 105.86 142.698 105.86C144.042 105.86 144.686 106.462 144.686 107.876V108.296H142.978C140.724 108.296 139.646 109.094 139.646 110.69C139.646 112.23 140.668 113 142.278 113H143.104V111.978H142.418C141.41 111.978 140.85 111.614 140.85 110.802V110.438C140.85 109.738 141.48 109.318 142.74 109.318H144.686V113H145.834V107.75C145.834 106.98 145.638 106.322 145.176 105.832V105.51H146.618ZM140.346 103.9H144.742C145.512 103.9 145.904 103.522 145.904 102.766V101.786H144.84V102.976H140.346V103.9ZM151.178 113.168C153.152 113.168 154.202 112.062 154.202 110.144V105.02H153.054V109.976C153.054 111.418 152.41 112.16 151.178 112.16C149.946 112.16 149.302 111.474 149.302 110.34V109.066H151.206V108.058H150.842C149.722 108.058 149.372 107.218 149.372 106.28V106H151.024V105.02H149.75C148.742 105.02 148.252 105.51 148.252 106.364V106.434C148.252 107.372 148.994 107.848 149.708 108.016V108.058H149.582C148.658 108.058 148.154 108.744 148.154 109.906V110.354C148.154 112.118 149.204 113.168 151.178 113.168ZM159.241 113.168C161.005 113.168 162.083 112.16 162.083 110.424V109.388C162.083 108.226 161.565 107.442 160.655 107.162V107.106C161.411 106.798 162.111 106.252 162.111 105.258V105.02H160.935V105.622C160.935 106.518 160.403 107.036 159.465 107.036H159.353V107.918H159.591C160.515 107.918 160.907 108.38 160.907 109.444V110.256C160.907 111.516 160.263 112.16 159.241 112.16C158.205 112.16 157.561 111.642 157.561 110.34C157.561 108.296 158.821 108.324 158.821 106.56V106.392C158.821 105.552 158.443 105.02 157.183 105.02H156.301V106H157.701V106.686C157.701 108.198 156.385 107.918 156.385 110.382C156.385 112.104 157.463 113.168 159.241 113.168ZM156.629 103.9H161.025C161.795 103.9 162.187 103.522 162.187 102.766V101.786H161.123V102.976H156.629V103.9ZM166.379 113.168C168.521 113.168 169.543 111.74 169.543 109.01C169.543 106.28 168.521 104.852 166.379 104.852C164.937 104.852 164.013 105.552 163.565 106.546L164.573 107.022C164.867 106.294 165.525 105.86 166.379 105.86C167.541 105.86 168.339 106.728 168.339 108.254V109.766C168.339 111.292 167.541 112.16 166.379 112.16C165.525 112.16 164.867 111.726 164.573 110.998L163.565 111.474C164.013 112.468 164.937 113.168 166.379 113.168ZM163.846 103.9H169.404V102.976H163.846V103.9ZM174.018 113H174.872V111.978H174.088C172.786 111.978 172.226 111.376 172.226 109.85V108.24C172.226 106.882 172.66 105.958 173.388 105.958L174.452 107.078H174.48L175.544 105.958C176.216 106.028 176.384 106.364 176.384 107.764V113H177.532V106.966C177.532 105.37 176.552 104.852 175.376 104.852L174.494 105.888H174.452L173.556 104.852C171.932 104.852 171.022 106.21 171.022 108.884C171.022 111.768 171.904 113 174.018 113Z" fill="black" fill-opacity="0.5"/>
<path d="M110.92 132H115.69V130.95H114.1V125.02H112.13L110.4 127.06L111.21 127.74L112.74 125.95H112.82V130.95H110.92V132ZM118.716 132.12C120.246 132.12 121.276 131.3 121.276 130.07C121.276 129.08 120.616 128.51 119.816 128.36V128.31C120.546 128.16 121.146 127.61 121.146 126.72C121.146 125.6 120.186 124.9 118.796 124.9C117.626 124.9 116.966 125.41 116.496 126.06L117.326 126.81C117.656 126.28 118.146 125.96 118.756 125.96C119.396 125.96 119.796 126.31 119.796 126.89V126.96C119.796 127.47 119.416 127.85 118.616 127.85H117.926V128.92H118.616C119.456 128.92 119.936 129.27 119.936 129.93V129.99C119.936 130.65 119.496 131.06 118.716 131.06C117.926 131.06 117.516 130.66 117.196 130.1L116.246 130.83C116.686 131.5 117.366 132.12 118.716 132.12ZM122.372 133.42H123.262C123.882 132.93 124.282 132.11 124.282 131.39V131.21C124.282 130.79 124.032 130.48 123.492 130.48C122.952 130.48 122.702 130.79 122.702 131.21V131.39C122.702 131.74 122.882 132.02 123.282 132.09C123.132 132.6 122.822 132.99 122.372 133.42ZM128.244 132H133.014V130.95H131.424V125.02H129.454L127.724 127.06L128.534 127.74L130.064 125.95H130.144V130.95H128.244V132ZM134.58 132H136.32C137.49 131.22 138.82 129.64 138.82 127.64C138.82 125.97 137.88 124.9 136.29 124.9C134.76 124.9 133.77 125.89 133.77 127.3C133.77 128.62 134.65 129.47 135.82 129.47C136.69 129.47 137.13 128.98 137.4 128.43L137.48 128.46C137.17 129.89 136.21 130.82 134.58 132ZM136.29 128.46C135.55 128.46 135.1 128.03 135.1 127.27V127.12C135.1 126.35 135.55 125.92 136.29 125.92C137.04 125.92 137.49 126.35 137.49 127.12V127.27C137.49 128.03 137.04 128.46 136.29 128.46ZM142.98 132H144.44L145.36 127.72H145.39L146.31 132H147.76L148.57 126.27H147.36L146.95 130.74H146.92L145.97 126.27H144.78L143.82 130.74H143.8L143.39 126.27H142.18L142.98 132ZM150.562 132.11C151.102 132.11 151.352 131.81 151.352 131.39V131.21C151.352 130.79 151.102 130.48 150.562 130.48C150.022 130.48 149.772 130.79 149.772 131.21V131.39C149.772 131.81 150.022 132.11 150.562 132.11ZM152.751 132H154.031V130.62C154.031 129.99 154.461 129.74 155.121 129.74H155.631V128.63H155.281C154.601 128.63 154.221 129 154.071 129.6H154.031V128.47C154.031 127.66 154.441 127.23 155.201 127.23C155.951 127.23 156.371 127.66 156.371 128.47V132H157.641V128.52C157.641 127.03 156.791 126.15 155.201 126.15C153.601 126.15 152.751 127.03 152.751 128.52V132ZM159.84 132.11C160.38 132.11 160.63 131.81 160.63 131.39V131.21C160.63 130.79 160.38 130.48 159.84 130.48C159.3 130.48 159.05 130.79 159.05 131.21V131.39C159.05 131.81 159.3 132.11 159.84 132.11ZM164.312 132H169.132V130.91H165.712L167.202 129.67C168.162 128.88 168.952 128.14 168.952 126.98C168.952 125.77 168.112 124.9 166.652 124.9C165.232 124.9 164.492 125.71 164.192 126.63L165.312 127.06C165.472 126.49 165.822 126.02 166.542 126.02C167.132 126.02 167.592 126.37 167.592 126.98V127.12C167.592 127.73 167.242 128.23 166.502 128.87L164.312 130.8V132ZM172.628 132.12C174.268 132.12 175.198 131.1 175.198 129.7C175.198 128.32 174.268 127.5 173.068 127.5C172.238 127.5 171.888 127.9 171.598 128.5H171.518L171.688 126.14H174.818V125.02H170.728L170.468 128.93L171.528 129.08C171.738 128.83 172.088 128.56 172.658 128.56C173.408 128.56 173.848 129 173.848 129.73V129.82C173.848 130.58 173.428 131.06 172.638 131.06C171.878 131.06 171.498 130.64 171.178 130.1L170.238 130.83C170.658 131.5 171.338 132.12 172.628 132.12ZM178.704 132.12C180.234 132.12 181.224 131.13 181.224 129.72C181.224 128.4 180.344 127.55 179.174 127.55C178.304 127.55 177.864 128.04 177.594 128.59L177.514 128.56C177.824 127.13 178.784 126.2 180.414 125.02H178.674C177.504 125.8 176.174 127.38 176.174 129.38C176.174 131.05 177.114 132.12 178.704 132.12ZM178.704 131.1C177.954 131.1 177.504 130.67 177.504 129.9V129.75C177.504 128.99 177.954 128.56 178.704 128.56C179.444 128.56 179.894 128.99 179.894 129.75V129.9C179.894 130.67 179.444 131.1 178.704 131.1ZM184.39 132.12C185.92 132.12 186.95 131.3 186.95 130.07C186.95 129.08 186.29 128.51 185.49 128.36V128.31C186.22 128.16 186.82 127.61 186.82 126.72C186.82 125.6 185.86 124.9 184.47 124.9C183.3 124.9 182.64 125.41 182.17 126.06L183 126.81C183.33 126.28 183.82 125.96 184.43 125.96C185.07 125.96 185.47 126.31 185.47 126.89V126.96C185.47 127.47 185.09 127.85 184.29 127.85H183.6V128.92H184.29C185.13 128.92 185.61 129.27 185.61 129.93V129.99C185.61 130.65 185.17 131.06 184.39 131.06C183.6 131.06 183.19 130.66 182.87 130.1L181.92 130.83C182.36 131.5 183.04 132.12 184.39 132.12Z" fill="black" fill-opacity="0.5"/>
<path d="M8.42402e-07 23C29.202 23 45.4368 19.2105 59 15" stroke="#FF7A00" stroke-width="2"/>
<path d="M-7.54979e-07 33C13.8586 33 21.5632 37.7368 28 43" stroke="#C1B1F0" stroke-width="2"/>
<path d="M8.61311e-07 47C9.89899 47 15.4023 55.5263 20 65" stroke="#C1B1F0" stroke-width="2"/>
</svg>
