<svg width="300" height="210" viewBox="0 0 300 210" fill="none" xmlns="http://www.w3.org/2000/svg">
<path d="M105 166C107.761 166 110 163.761 110 161C110 158.239 107.761 156 105 156C102.239 156 100 158.239 100 161C100 163.761 102.239 166 105 166Z" fill="#C1B1F0"/>
<path d="M155 57C157.761 57 160 54.7614 160 52C160 49.2386 157.761 47 155 47C152.239 47 150 49.2386 150 52C150 54.7614 152.239 57 155 57Z" fill="#C1B1F0"/>
<path d="M123 46C125.761 46 128 43.7614 128 41C128 38.2386 125.761 36 123 36C120.239 36 118 38.2386 118 41C118 43.7614 120.239 46 123 46Z" fill="#C1B1F0"/>
<path d="M122.5 81L128.274 71L116.726 71L122.5 81ZM121.5 46L121.5 72L123.5 72L123.5 46L121.5 46Z" fill="#0CC6C6"/>
<path d="M123 91C125.761 91 128 88.7614 128 86C128 83.2386 125.761 81 123 81C120.239 81 118 83.2386 118 86C118 88.7614 120.239 91 123 91Z" fill="#C1B1F0"/>
<path d="M122.5 126L128.274 116L116.726 116L122.5 126ZM121.5 91L121.5 117L123.5 117L123.5 91L121.5 91Z" fill="#0CC6C6"/>
<path d="M123 136C125.761 136 128 133.761 128 131C128 128.239 125.761 126 123 126C120.239 126 118 128.239 118 131C118 133.761 120.239 136 123 136Z" fill="#C1B1F0"/>
<path d="M122.5 171L128.274 161L116.726 161L122.5 171ZM121.5 136L121.5 162L123.5 162L123.5 136L121.5 136Z" fill="#0CC6C6"/>
<path d="M123 181C125.761 181 128 178.761 128 176C128 173.239 125.761 171 123 171C120.239 171 118 173.239 118 176C118 178.761 120.239 181 123 181Z" fill="#C1B1F0"/>
<path d="M105 78C107.761 78 110 75.7614 110 73C110 70.2386 107.761 68 105 68C102.239 68 100 70.2386 100 73C100 75.7614 102.239 78 105 78Z" fill="#C1B1F0"/>
<path d="M104.5 113L110.274 103L98.7265 103L104.5 113ZM103.5 78L103.5 104L105.5 104L105.5 78L103.5 78Z" fill="#0CC6C6"/>
<path d="M105 123C107.761 123 110 120.761 110 118C110 115.239 107.761 113 105 113C102.239 113 100 115.239 100 118C100 120.761 102.239 123 105 123Z" fill="#C1B1F0"/>
<path d="M178.144 100.852C176.296 100.852 174.952 101.874 174.952 103.694V104.38H176.702V104.436C175.974 104.604 175.246 105.206 175.246 106.522V109H176.394V106.214C176.394 104.996 176.884 104.45 177.92 104.408V103.568H176.086C176.212 102.364 176.954 101.86 178.144 101.86C179.474 101.86 180.23 102.616 180.23 103.946V109H181.378V103.876C181.378 102.028 180.3 100.852 178.144 100.852ZM175.674 99.9H181.232V98.976H175.674V99.9ZM185.975 100.852C184.617 100.852 183.665 101.342 183.063 102.266L183.805 102.98C184.239 102.266 184.953 101.86 185.961 101.86C187.417 101.86 188.229 102.728 188.229 104.254V105.598C188.229 107.208 187.515 107.992 186.507 107.992H186.325L185.695 105.584C185.443 104.632 185.163 104.352 184.449 104.352H183.553V105.332H184.505L185.499 109H186.507C188.355 109 189.433 107.656 189.433 104.898C189.433 102.28 188.397 100.852 185.975 100.852ZM194.332 100.852C192.484 100.852 191.14 101.874 191.14 103.694V104.38H192.89V104.436C192.162 104.604 191.434 105.206 191.434 106.522V109H192.582V106.214C192.582 104.996 193.072 104.45 194.108 104.408V103.568H192.274C192.4 102.364 193.142 101.86 194.332 101.86C195.662 101.86 196.418 102.616 196.418 103.946V109H197.566V103.876C197.566 102.028 196.488 100.852 194.332 100.852ZM202.345 109.168C204.011 109.168 205.103 108.258 205.103 106.69C205.103 105.486 204.431 104.73 202.835 104.506L202.219 104.422C201.309 104.296 200.749 103.904 200.749 103.134C200.749 102.364 201.309 101.86 202.247 101.86C203.171 101.86 203.857 102.378 204.193 102.868L205.033 102.14C204.375 101.328 203.535 100.852 202.331 100.852C200.861 100.852 199.643 101.622 199.643 103.19C199.643 104.674 200.735 105.206 202.065 105.402L202.681 105.486C203.661 105.626 203.997 106.214 203.997 106.83C203.997 107.656 203.367 108.16 202.415 108.16C201.449 108.16 200.763 107.74 200.133 106.9L199.307 107.6C200.021 108.538 200.931 109.168 202.345 109.168ZM209.427 109.168C211.093 109.168 212.185 108.258 212.185 106.69C212.185 105.486 211.513 104.73 209.917 104.506L209.301 104.422C208.391 104.296 207.831 103.904 207.831 103.134C207.831 102.364 208.391 101.86 209.329 101.86C210.253 101.86 210.939 102.378 211.275 102.868L212.115 102.14C211.457 101.328 210.617 100.852 209.413 100.852C207.943 100.852 206.725 101.622 206.725 103.19C206.725 104.674 207.817 105.206 209.147 105.402L209.763 105.486C210.743 105.626 211.079 106.214 211.079 106.83C211.079 107.656 210.449 108.16 209.497 108.16C208.531 108.16 207.845 107.74 207.215 106.9L206.389 107.6C207.103 108.538 208.013 109.168 209.427 109.168ZM217.531 109.168C219.155 109.168 220.205 108.062 220.205 106.144V101.02H219.057V105.976C219.057 107.404 218.413 108.146 217.223 108.146C216.243 108.146 215.277 107.656 215.277 106.606V101.02H214.129V109H215.249V107.684H215.305C215.613 108.44 216.215 109.168 217.531 109.168ZM223.893 109H225.293V108.02H223.851V101.02H222.703V107.81C222.703 108.51 223.123 109 223.893 109ZM229.128 109.168C230.794 109.168 231.886 108.258 231.886 106.69C231.886 105.486 231.214 104.73 229.618 104.506L229.002 104.422C228.092 104.296 227.532 103.904 227.532 103.134C227.532 102.364 228.092 101.86 229.03 101.86C229.954 101.86 230.64 102.378 230.976 102.868L231.816 102.14C231.158 101.328 230.318 100.852 229.114 100.852C227.644 100.852 226.426 101.622 226.426 103.19C226.426 104.674 227.518 105.206 228.848 105.402L229.464 105.486C230.444 105.626 230.78 106.214 230.78 106.83C230.78 107.656 230.15 108.16 229.198 108.16C228.232 108.16 227.546 107.74 226.916 106.9L226.09 107.6C226.804 108.538 227.714 109.168 229.128 109.168ZM226.193 99.9H230.589C231.359 99.9 231.751 99.522 231.751 98.766V97.786H230.687V98.976H226.193V99.9ZM236.588 109.168C238.562 109.168 239.612 108.062 239.612 106.144V101.02H238.464V105.976C238.464 107.418 237.82 108.16 236.588 108.16C235.356 108.16 234.712 107.474 234.712 106.34V105.066H236.616V104.058H236.252C235.132 104.058 234.782 103.218 234.782 102.28V102H236.434V101.02H235.16C234.152 101.02 233.662 101.51 233.662 102.364V102.434C233.662 103.372 234.404 103.848 235.118 104.016V104.058H234.992C234.068 104.058 233.564 104.744 233.564 105.906V106.354C233.564 108.118 234.614 109.168 236.588 109.168ZM244.931 100.852C243.083 100.852 241.739 101.874 241.739 103.694V104.38H243.489V104.436C242.761 104.604 242.033 105.206 242.033 106.522V109H243.181V106.214C243.181 104.996 243.671 104.45 244.707 104.408V103.568H242.873C242.999 102.364 243.741 101.86 244.931 101.86C246.261 101.86 247.017 102.616 247.017 103.946V109H248.165V103.876C248.165 102.028 247.087 100.852 244.931 100.852ZM252.944 109.168C254.61 109.168 255.702 108.258 255.702 106.69C255.702 105.486 255.03 104.73 253.434 104.506L252.818 104.422C251.908 104.296 251.348 103.904 251.348 103.134C251.348 102.364 251.908 101.86 252.846 101.86C253.77 101.86 254.456 102.378 254.792 102.868L255.632 102.14C254.974 101.328 254.134 100.852 252.93 100.852C251.46 100.852 250.242 101.622 250.242 103.19C250.242 104.674 251.334 105.206 252.664 105.402L253.28 105.486C254.26 105.626 254.596 106.214 254.596 106.83C254.596 107.656 253.966 108.16 253.014 108.16C252.048 108.16 251.362 107.74 250.732 106.9L249.906 107.6C250.62 108.538 251.53 109.168 252.944 109.168ZM252.824 99.9H256.086V98.976H253.748V98.85C253.748 98.052 253.454 97.786 252.67 97.786H251.844V98.71H252.824V99.9ZM260.292 109.168C262.574 109.168 263.624 107.824 263.624 105.01C263.624 102.28 262.546 100.852 260.25 100.852C258.892 100.852 257.926 101.342 257.296 102.266L258.066 102.952C258.528 102.266 259.214 101.86 260.222 101.86C261.622 101.86 262.42 102.728 262.42 104.254V105.794C262.42 107.376 261.706 108.16 260.292 108.16C258.836 108.16 258.22 107.474 258.22 105.794V105.374H259.676V104.394H258.556C257.632 104.394 257.1 104.856 257.1 105.808V105.92C257.1 107.978 258.262 109.168 260.292 109.168ZM267.27 109H268.152C269.958 109 270.868 108.174 270.868 105.5V102.98C270.868 101.72 270.35 101.02 269.272 101.02H268.236V102H269.72V105.99C269.72 107.502 269.258 107.992 268.222 107.992H268.096L265.842 101.02H264.68L267.27 109ZM274.356 109H275.756V108.02H274.314V101.02H273.166V107.81C273.166 108.51 273.586 109 274.356 109ZM279.591 109.168C281.257 109.168 282.349 108.258 282.349 106.69C282.349 105.486 281.677 104.73 280.081 104.506L279.465 104.422C278.555 104.296 277.995 103.904 277.995 103.134C277.995 102.364 278.555 101.86 279.493 101.86C280.417 101.86 281.103 102.378 281.439 102.868L282.279 102.14C281.621 101.328 280.781 100.852 279.577 100.852C278.107 100.852 276.889 101.622 276.889 103.19C276.889 104.674 277.981 105.206 279.311 105.402L279.927 105.486C280.907 105.626 281.243 106.214 281.243 106.83C281.243 107.656 280.613 108.16 279.661 108.16C278.695 108.16 278.009 107.74 277.379 106.9L276.553 107.6C277.267 108.538 278.177 109.168 279.591 109.168ZM281.192 97.786V98.976H280.604V97.786H279.652V98.976H276.586V99.9H280.982C281.752 99.9 282.144 99.522 282.144 98.766V97.786H281.192ZM281.193 97.24H282.145V95.336H281.193V97.24ZM286.939 109.168C289.221 109.168 290.271 107.824 290.271 105.01C290.271 102.28 289.193 100.852 286.897 100.852C285.539 100.852 284.573 101.342 283.943 102.266L284.713 102.952C285.175 102.266 285.861 101.86 286.869 101.86C288.269 101.86 289.067 102.728 289.067 104.254V105.794C289.067 107.376 288.353 108.16 286.939 108.16C285.483 108.16 284.867 107.474 284.867 105.794V105.374H286.323V104.394H285.203C284.279 104.394 283.747 104.856 283.747 105.808V105.92C283.747 107.978 284.909 109.168 286.939 109.168ZM293.917 109H294.799C296.605 109 297.515 108.174 297.515 105.5V102.98C297.515 101.72 296.997 101.02 295.919 101.02H294.883V102H296.367V105.99C296.367 107.502 295.905 107.992 294.869 107.992H294.743L292.489 101.02H291.327L293.917 109ZM178.214 130.168C180.188 130.168 181.238 129.062 181.238 127.144V119.08H180.09V126.976C180.09 128.418 179.446 129.16 178.214 129.16C176.968 129.16 176.324 128.418 176.324 126.976V122.02H175.176V127.144C175.176 129.062 176.226 130.168 178.214 130.168ZM186.034 130.168C187.7 130.168 188.792 129.258 188.792 127.69C188.792 126.486 188.12 125.73 186.524 125.506L185.908 125.422C184.998 125.296 184.438 124.904 184.438 124.134C184.438 123.364 184.998 122.86 185.936 122.86C186.86 122.86 187.546 123.378 187.882 123.868L188.722 123.14C188.064 122.328 187.224 121.852 186.02 121.852C184.55 121.852 183.332 122.622 183.332 124.19C183.332 125.674 184.424 126.206 185.754 126.402L186.37 126.486C187.35 126.626 187.686 127.214 187.686 127.83C187.686 128.656 187.056 129.16 186.104 129.16C185.138 129.16 184.452 128.74 183.822 127.9L182.996 128.6C183.71 129.538 184.62 130.168 186.034 130.168ZM191.492 125.114L193.956 125.1V124.064L191.394 124.078V122.79L190.302 122.804V123.924C190.302 124.68 190.792 125.114 191.492 125.114ZM191.492 129.174L193.956 129.16V128.124L191.394 128.138V126.85L190.302 126.864V127.984C190.302 128.74 190.792 129.174 191.492 129.174ZM198.611 121.852C196.763 121.852 195.419 122.874 195.419 124.694V125.38H197.169V125.436C196.441 125.604 195.713 126.206 195.713 127.522V130H196.861V127.214C196.861 125.996 197.351 125.45 198.387 125.408V124.568H196.553C196.679 123.364 197.421 122.86 198.611 122.86C199.941 122.86 200.697 123.616 200.697 124.946V130H201.845V124.876C201.845 123.028 200.767 121.852 198.611 121.852ZM200.411 120.9H203.211V119.976H199.893V119.08H198.829V119.486C198.829 120.48 199.291 120.9 200.411 120.9ZM206.848 130.168C208.164 130.168 208.766 129.44 209.074 128.684H209.13V130H210.25V122.02H209.102V127.606C209.102 128.656 208.136 129.146 207.156 129.146C205.966 129.146 205.322 128.404 205.322 126.976V122.02H204.174V127.144C204.174 129.062 205.224 130.168 206.848 130.168ZM219.286 122.51V121.53H217.998C217.508 121.53 217.186 121.796 217.186 122.202V122.3C216.724 121.992 216.108 121.852 215.394 121.852C214.008 121.852 213.042 122.482 212.468 123.406L213.21 124.12C213.644 123.406 214.358 122.86 215.366 122.86C216.71 122.86 217.354 123.462 217.354 124.876V125.296H215.646C213.392 125.296 212.314 126.094 212.314 127.69C212.314 129.23 213.336 130 214.946 130H215.772V128.978H215.086C214.078 128.978 213.518 128.614 213.518 127.802V127.438C213.518 126.738 214.148 126.318 215.408 126.318H217.354V130H218.502V124.75C218.502 123.98 218.306 123.322 217.844 122.832V122.51H219.286ZM217.214 120.9H220.014V119.976H216.696V119.08H215.632V119.486C215.632 120.48 216.094 120.9 217.214 120.9ZM222.782 130H223.664C225.47 130 226.38 129.174 226.38 126.5V123.98C226.38 122.72 225.862 122.02 224.784 122.02H223.748V123H225.232V126.99C225.232 128.502 224.77 128.992 223.734 128.992H223.608L221.354 122.02H220.192L222.782 130ZM228.509 130H229.657V128.054C229.657 126.878 230.469 126.584 231.211 126.584H232.233V125.436H231.575C230.511 125.436 229.965 126.094 229.713 126.808H229.657V124.946C229.657 123.602 230.427 122.86 231.687 122.86C232.947 122.86 233.717 123.602 233.717 124.946V130H234.865V124.876C234.865 123.028 233.773 121.852 231.687 121.852C229.601 121.852 228.509 123.028 228.509 124.876V130ZM240.664 130.168C242.288 130.168 243.338 129.062 243.338 127.144V122.02H242.19V126.976C242.19 128.404 241.546 129.146 240.356 129.146C239.376 129.146 238.41 128.656 238.41 127.606V122.02H237.262V130H238.382V128.684H238.438C238.746 129.44 239.348 130.168 240.664 130.168ZM248.384 130.168C250.148 130.168 251.198 129.16 251.198 127.424V122.02H250.05V127.256C250.05 128.516 249.406 129.16 248.384 129.16C247.348 129.16 246.704 128.642 246.704 127.34C246.704 125.296 247.964 125.324 247.964 123.56V123.392C247.964 122.552 247.586 122.02 246.326 122.02H245.444V123H246.844V123.686C246.844 125.198 245.528 124.918 245.528 127.382C245.528 129.104 246.592 130.168 248.384 130.168ZM256.259 130.168C258.541 130.168 259.591 128.824 259.591 126.01C259.591 123.28 258.513 121.852 256.217 121.852C254.859 121.852 253.893 122.342 253.263 123.266L254.033 123.952C254.495 123.266 255.181 122.86 256.189 122.86C257.589 122.86 258.387 123.728 258.387 125.254V126.794C258.387 128.376 257.673 129.16 256.259 129.16C254.803 129.16 254.187 128.474 254.187 126.794V126.374H255.643V125.394H254.523C253.599 125.394 253.067 125.856 253.067 126.808V126.92C253.067 128.978 254.229 130.168 256.259 130.168ZM263.237 130H264.119C265.925 130 266.835 129.174 266.835 126.5V123.98C266.835 122.72 266.317 122.02 265.239 122.02H264.203V123H265.687V126.99C265.687 128.502 265.225 128.992 264.189 128.992H264.063L261.809 122.02H260.647L263.237 130ZM271.96 121.852C270.112 121.852 268.768 122.874 268.768 124.694V125.38H270.518V125.436C269.79 125.604 269.062 126.206 269.062 127.522V130H270.21V127.214C270.21 125.996 270.7 125.45 271.736 125.408V124.568H269.902C270.028 123.364 270.77 122.86 271.96 122.86C273.29 122.86 274.046 123.616 274.046 124.946V130H275.194V124.876C275.194 123.028 274.116 121.852 271.96 121.852ZM280.156 121.852C278.714 121.852 277.748 122.482 277.174 123.406L277.916 124.12C278.35 123.406 279.064 122.86 280.072 122.86C281.416 122.86 282.06 123.462 282.06 124.876V125.296H280.352C278.098 125.296 277.02 126.094 277.02 127.69C277.02 129.23 278.042 130 279.652 130H280.478V128.978H279.792C278.784 128.978 278.224 128.614 278.224 127.802V127.438C278.224 126.738 278.854 126.318 280.114 126.318H282.06V130H283.208V124.708C283.208 122.888 282.144 121.852 280.156 121.852ZM282.259 133.738H283.211V132.086C283.211 131.4 282.833 131.022 282.161 131.022H281.475V131.862H282.245L282.259 133.738ZM281.968 120.9H283.06V118.576H281.968V120.9ZM289.007 130.168C290.631 130.168 291.681 129.062 291.681 127.144V122.02H290.533V126.976C290.533 128.404 289.889 129.146 288.699 129.146C287.719 129.146 286.753 128.656 286.753 127.606V122.02H285.605V130H286.725V128.684H286.781C287.089 129.44 287.691 130.168 289.007 130.168ZM175.848 144.14C176.436 144.14 176.702 143.804 176.702 143.314V143.118C176.702 142.74 176.534 142.46 176.156 142.376C176.31 141.718 176.646 141.228 177.206 140.64H176.268C175.47 141.326 174.994 142.362 174.994 143.118V143.314C174.994 143.804 175.26 144.14 175.848 144.14ZM181.692 151.168C183.456 151.168 184.506 150.16 184.506 148.424V143.02H183.358V148.256C183.358 149.516 182.714 150.16 181.692 150.16C180.656 150.16 180.012 149.642 180.012 148.34C180.012 146.296 181.272 146.324 181.272 144.56V144.392C181.272 143.552 180.894 143.02 179.634 143.02H178.752V144H180.152V144.686C180.152 146.198 178.836 145.918 178.836 148.382C178.836 150.104 179.9 151.168 181.692 151.168ZM189.568 151.168C191.85 151.168 192.9 149.824 192.9 147.01C192.9 144.28 191.822 142.852 189.526 142.852C188.168 142.852 187.202 143.342 186.572 144.266L187.342 144.952C187.804 144.266 188.49 143.86 189.498 143.86C190.898 143.86 191.696 144.728 191.696 146.254V147.794C191.696 149.376 190.982 150.16 189.568 150.16C188.112 150.16 187.496 149.474 187.496 147.794V147.374H188.952V146.394H187.832C186.908 146.394 186.376 146.856 186.376 147.808V147.92C186.376 149.978 187.538 151.168 189.568 151.168ZM194.753 151H195.901V149.054C195.901 147.878 196.713 147.584 197.455 147.584H198.477V146.436H197.819C196.755 146.436 196.209 147.094 195.957 147.808H195.901V145.946C195.901 144.602 196.671 143.86 197.931 143.86C199.191 143.86 199.961 144.602 199.961 145.946V151H201.109V145.876C201.109 144.028 200.017 142.852 197.931 142.852C195.845 142.852 194.753 144.028 194.753 145.876V151ZM200.022 139.786V140.976H199.434V139.786H198.482V140.976H195.416V141.9H199.812C200.582 141.9 200.974 141.522 200.974 140.766V139.786H200.022ZM206.11 151.168C207.426 151.168 208.028 150.44 208.336 149.684H208.392V151H209.512V143.02H208.364V148.606C208.364 149.656 207.398 150.146 206.418 150.146C205.228 150.146 204.584 149.404 204.584 147.976V143.02H203.436V148.144C203.436 150.062 204.486 151.168 206.11 151.168ZM213.564 151H214.964V150.02H213.522V142.852C213.522 140.864 214.334 139.366 215.72 139.324V138.344H211.254V139.296H214.558V139.352C212.962 139.898 212.374 140.962 212.374 143.174V149.81C212.374 150.51 212.794 151 213.564 151ZM219.814 151.168C221.438 151.168 222.488 150.062 222.488 148.144V143.02H221.34V147.976C221.34 149.404 220.696 150.146 219.506 150.146C218.526 150.146 217.56 149.656 217.56 148.606V143.02H216.412V151H217.532V149.684H217.588C217.896 150.44 218.498 151.168 219.814 151.168ZM221.388 141.9H222.48V139.576H221.388V141.9ZM226.47 151H227.87V150.02H226.428V142.852C226.428 140.864 227.24 139.366 228.626 139.324V138.344H224.16V139.296H227.464V139.352C225.868 139.898 225.28 140.962 225.28 143.174V149.81C225.28 150.51 225.7 151 226.47 151ZM231.852 151H232.552V149.978H231.922C230.76 149.978 230.06 149.376 230.06 147.85V146.352C230.06 144.756 230.844 143.86 232.132 143.86C233.392 143.86 234.064 144.644 234.064 146.03V151H235.212V145.876C235.212 143.958 234.148 142.852 232.16 142.852C230.004 142.852 228.856 144.238 228.856 147.052C228.856 149.964 229.794 151 231.852 151ZM232.398 141.9H235.66V140.976H233.322V140.85C233.322 140.052 233.028 139.786 232.244 139.786H231.418V140.71H232.398V141.9ZM240.249 151.168C242.013 151.168 243.063 150.16 243.063 148.424V143.02H241.915V148.256C241.915 149.516 241.271 150.16 240.249 150.16C239.213 150.16 238.569 149.642 238.569 148.34C238.569 146.296 239.829 146.324 239.829 144.56V144.392C239.829 143.552 239.451 143.02 238.191 143.02H237.309V144H238.709V144.686C238.709 146.198 237.393 145.918 237.393 148.382C237.393 150.104 238.457 151.168 240.249 151.168ZM248.124 151.168C250.406 151.168 251.456 149.824 251.456 147.01C251.456 144.28 250.378 142.852 248.082 142.852C246.724 142.852 245.758 143.342 245.128 144.266L245.898 144.952C246.36 144.266 247.046 143.86 248.054 143.86C249.454 143.86 250.252 144.728 250.252 146.254V147.794C250.252 149.376 249.538 150.16 248.124 150.16C246.668 150.16 246.052 149.474 246.052 147.794V147.374H247.508V146.394H246.388C245.464 146.394 244.932 146.856 244.932 147.808V147.92C244.932 149.978 246.094 151.168 248.124 151.168ZM253.408 151H254.556V145.428C254.556 144.378 255.55 143.888 256.558 143.888C257.734 143.888 258.378 144.63 258.378 146.058V151H259.526V145.876C259.526 143.958 258.476 142.852 256.866 142.852C255.522 142.852 254.906 143.58 254.584 144.336H254.528V143.02H253.408V151ZM264.949 151H266.097V145.288C266.097 143.734 265.159 142.852 263.521 142.852C262.317 142.852 261.365 143.37 260.875 144.266L261.645 144.966C262.093 144.294 262.639 143.86 263.493 143.86C264.459 143.86 264.949 144.322 264.949 145.414V151ZM271.12 151.168C272.436 151.168 273.038 150.44 273.346 149.684H273.402V151H274.522V143.02H273.374V148.606C273.374 149.656 272.408 150.146 271.428 150.146C270.238 150.146 269.594 149.404 269.594 147.976V143.02H268.446V148.144C268.446 150.062 269.496 151.168 271.12 151.168ZM276.389 144H277.327C278.125 143.314 278.601 142.278 278.601 141.522V141.326C278.601 140.836 278.335 140.5 277.747 140.5C277.159 140.5 276.893 140.836 276.893 141.326V141.522C276.893 141.9 277.061 142.18 277.439 142.264C277.285 142.922 276.949 143.412 276.389 144Z" fill="black" fill-opacity="0.5"/>
<path d="M174.92 170H179.69V168.95H178.1V163.02H176.13L174.4 165.06L175.21 165.74L176.74 163.95H176.82V168.95H174.92V170ZM182.946 170.12C184.586 170.12 185.516 169.1 185.516 167.7C185.516 166.32 184.586 165.5 183.386 165.5C182.556 165.5 182.206 165.9 181.916 166.5H181.836L182.006 164.14H185.136V163.02H181.046L180.786 166.93L181.846 167.08C182.056 166.83 182.406 166.56 182.976 166.56C183.726 166.56 184.166 167 184.166 167.73V167.82C184.166 168.58 183.746 169.06 182.956 169.06C182.196 169.06 181.816 168.64 181.496 168.1L180.556 168.83C180.976 169.5 181.656 170.12 182.946 170.12ZM189.655 170H191.115L192.035 165.72H192.065L192.985 170H194.435L195.245 164.27H194.035L193.625 168.74H193.595L192.645 164.27H191.455L190.495 168.74H190.475L190.065 164.27H188.855L189.655 170ZM197.238 170.11C197.778 170.11 198.028 169.81 198.028 169.39V169.21C198.028 168.79 197.778 168.48 197.238 168.48C196.698 168.48 196.448 168.79 196.448 169.21V169.39C196.448 169.81 196.698 170.11 197.238 170.11ZM199.427 170H200.707V168.62C200.707 167.99 201.137 167.74 201.797 167.74H202.307V166.63H201.957C201.277 166.63 200.897 167 200.747 167.6H200.707V166.47C200.707 165.66 201.117 165.23 201.877 165.23C202.627 165.23 203.047 165.66 203.047 166.47V170H204.317V166.52C204.317 165.03 203.467 164.15 201.877 164.15C200.277 164.15 199.427 165.03 199.427 166.52V170ZM206.515 170.11C207.055 170.11 207.305 169.81 207.305 169.39V169.21C207.305 168.79 207.055 168.48 206.515 168.48C205.975 168.48 205.725 168.79 205.725 169.21V169.39C205.725 169.81 205.975 170.11 206.515 170.11ZM210.937 167.58H213.787V166.33H210.937V167.58ZM217.374 170H222.194V168.91H218.774L220.264 167.67C221.224 166.88 222.014 166.14 222.014 164.98C222.014 163.77 221.174 162.9 219.714 162.9C218.294 162.9 217.554 163.71 217.254 164.63L218.374 165.06C218.534 164.49 218.884 164.02 219.604 164.02C220.194 164.02 220.654 164.37 220.654 164.98V165.12C220.654 165.73 220.304 166.23 219.564 166.87L217.374 168.8V170ZM224 170H225.74C226.91 169.22 228.24 167.64 228.24 165.64C228.24 163.97 227.3 162.9 225.71 162.9C224.18 162.9 223.19 163.89 223.19 165.3C223.19 166.62 224.07 167.47 225.24 167.47C226.11 167.47 226.55 166.98 226.82 166.43L226.9 166.46C226.59 167.89 225.63 168.82 224 170ZM225.71 166.46C224.97 166.46 224.52 166.03 224.52 165.27V165.12C224.52 164.35 224.97 163.92 225.71 163.92C226.46 163.92 226.91 164.35 226.91 165.12V165.27C226.91 166.03 226.46 166.46 225.71 166.46ZM233.97 170.12C235.38 170.12 236.16 169.46 236.16 168.15C236.16 167.03 235.62 166.5 234.32 166.3L232.88 166.12V165.89C232.88 165.46 233.22 165.21 233.88 165.21C234.51 165.21 234.92 165.44 235.27 165.83L236.11 165.09C235.65 164.49 234.97 164.15 233.89 164.15C232.51 164.15 231.69 164.82 231.69 165.84V165.95C231.69 166.61 232.12 167.01 232.95 167.14L234.08 167.27C234.74 167.36 234.97 167.58 234.97 168.15C234.97 168.78 234.64 169.05 233.95 169.05C233.56 169.05 233.27 168.98 232.97 168.85V167.57H231.83V169.52C232.35 169.91 233.03 170.12 233.97 170.12ZM238.078 170.11C238.618 170.11 238.868 169.81 238.868 169.39V169.21C238.868 168.79 238.618 168.48 238.078 168.48C237.538 168.48 237.288 168.79 237.288 169.21V169.39C237.288 169.81 237.538 170.11 238.078 170.11ZM240.267 170H241.547V168.62C241.547 167.99 241.977 167.74 242.637 167.74H243.147V166.63H242.797C242.117 166.63 241.737 167 241.587 167.6H241.547V166.47C241.547 165.66 241.957 165.23 242.717 165.23C243.467 165.23 243.887 165.66 243.887 166.47V170H245.157V166.52C245.157 165.03 244.307 164.15 242.717 164.15C241.117 164.15 240.267 165.03 240.267 166.52V170ZM247.355 170.11C247.895 170.11 248.145 169.81 248.145 169.39V169.21C248.145 168.79 247.895 168.48 247.355 168.48C246.815 168.48 246.565 168.79 246.565 169.21V169.39C246.565 169.81 246.815 170.11 247.355 170.11ZM174.63 185H179.45V183.91H176.03L177.52 182.67C178.48 181.88 179.27 181.14 179.27 179.98C179.27 178.77 178.43 177.9 176.97 177.9C175.55 177.9 174.81 178.71 174.51 179.63L175.63 180.06C175.79 179.49 176.14 179.02 176.86 179.02C177.45 179.02 177.91 179.37 177.91 179.98V180.12C177.91 180.73 177.56 181.23 176.82 181.87L174.63 183.8V185ZM182.946 185.12C184.586 185.12 185.516 184.1 185.516 182.7C185.516 181.32 184.586 180.5 183.386 180.5C182.556 180.5 182.206 180.9 181.916 181.5H181.836L182.006 179.14H185.136V178.02H181.046L180.786 181.93L181.846 182.08C182.056 181.83 182.406 181.56 182.976 181.56C183.726 181.56 184.166 182 184.166 182.73V182.82C184.166 183.58 183.746 184.06 182.956 184.06C182.196 184.06 181.816 183.64 181.496 183.1L180.556 183.83C180.976 184.5 181.656 185.12 182.946 185.12ZM189.022 185.12C190.552 185.12 191.542 184.13 191.542 182.72C191.542 181.4 190.662 180.55 189.492 180.55C188.622 180.55 188.182 181.04 187.912 181.59L187.832 181.56C188.142 180.13 189.102 179.2 190.732 178.02H188.992C187.822 178.8 186.492 180.38 186.492 182.38C186.492 184.05 187.432 185.12 189.022 185.12ZM189.022 184.1C188.272 184.1 187.822 183.67 187.822 182.9V182.75C187.822 181.99 188.272 181.56 189.022 181.56C189.762 181.56 190.212 181.99 190.212 182.75V182.9C190.212 183.67 189.762 184.1 189.022 184.1ZM194.708 185.12C196.238 185.12 197.268 184.3 197.268 183.07C197.268 182.08 196.608 181.51 195.808 181.36V181.31C196.538 181.16 197.138 180.61 197.138 179.72C197.138 178.6 196.178 177.9 194.788 177.9C193.618 177.9 192.958 178.41 192.488 179.06L193.318 179.81C193.648 179.28 194.138 178.96 194.748 178.96C195.388 178.96 195.788 179.31 195.788 179.89V179.96C195.788 180.47 195.408 180.85 194.608 180.85H193.918V181.92H194.608C195.448 181.92 195.928 182.27 195.928 182.93V182.99C195.928 183.65 195.488 184.06 194.708 184.06C193.918 184.06 193.508 183.66 193.188 183.1L192.238 183.83C192.678 184.5 193.358 185.12 194.708 185.12Z" fill="black" fill-opacity="0.5"/>
<path d="M178.214 16.168C180.188 16.168 181.238 15.062 181.238 13.144V5.08H180.09V12.976C180.09 14.418 179.446 15.16 178.214 15.16C176.968 15.16 176.324 14.418 176.324 12.976V8.02H175.176V13.144C175.176 15.062 176.226 16.168 178.214 16.168ZM186.034 16.168C187.7 16.168 188.792 15.258 188.792 13.69C188.792 12.486 188.12 11.73 186.524 11.506L185.908 11.422C184.998 11.296 184.438 10.904 184.438 10.134C184.438 9.364 184.998 8.86 185.936 8.86C186.86 8.86 187.546 9.378 187.882 9.868L188.722 9.14C188.064 8.328 187.224 7.852 186.02 7.852C184.55 7.852 183.332 8.622 183.332 10.19C183.332 11.674 184.424 12.206 185.754 12.402L186.37 12.486C187.35 12.626 187.686 13.214 187.686 13.83C187.686 14.656 187.056 15.16 186.104 15.16C185.138 15.16 184.452 14.74 183.822 13.9L182.996 14.6C183.71 15.538 184.62 16.168 186.034 16.168ZM191.492 11.114L193.956 11.1V10.064L191.394 10.078V8.79L190.302 8.804V9.924C190.302 10.68 190.792 11.114 191.492 11.114ZM191.492 15.174L193.956 15.16V14.124L191.394 14.138V12.85L190.302 12.864V13.984C190.302 14.74 190.792 15.174 191.492 15.174ZM198.331 16.168C200.095 16.168 201.173 15.16 201.173 13.424V12.388C201.173 11.226 200.655 10.442 199.745 10.162V10.106C200.501 9.798 201.201 9.252 201.201 8.258V8.02H200.025V8.622C200.025 9.518 199.493 10.036 198.555 10.036H198.443V10.918H198.681C199.605 10.918 199.997 11.38 199.997 12.444V13.256C199.997 14.516 199.353 15.16 198.331 15.16C197.295 15.16 196.651 14.642 196.651 13.34C196.651 11.296 197.911 11.324 197.911 9.56V9.392C197.911 8.552 197.533 8.02 196.273 8.02H195.391V9H196.791V9.686C196.791 11.198 195.475 10.918 195.475 13.382C195.475 15.104 196.553 16.168 198.331 16.168ZM206.392 16H207.54V10.288C207.54 8.734 206.602 7.852 204.964 7.852C203.76 7.852 202.808 8.37 202.318 9.266L203.088 9.966C203.536 9.294 204.082 8.86 204.936 8.86C205.902 8.86 206.392 9.322 206.392 10.414V16ZM212.577 16.168C214.341 16.168 215.419 15.16 215.419 13.424V12.388C215.419 11.226 214.901 10.442 213.991 10.162V10.106C214.747 9.798 215.447 9.252 215.447 8.258V8.02H214.271V8.622C214.271 9.518 213.739 10.036 212.801 10.036H212.689V10.918H212.927C213.851 10.918 214.243 11.38 214.243 12.444V13.256C214.243 14.516 213.599 15.16 212.577 15.16C211.541 15.16 210.897 14.642 210.897 13.34C210.897 11.296 212.157 11.324 212.157 9.56V9.392C212.157 8.552 211.779 8.02 210.519 8.02H209.637V9H211.037V9.686C211.037 11.198 209.721 10.918 209.721 13.382C209.721 15.104 210.799 16.168 212.577 16.168ZM220.246 16.168C221.562 16.168 222.164 15.44 222.472 14.684H222.528V16H223.648V8.02H222.5V13.606C222.5 14.656 221.534 15.146 220.554 15.146C219.364 15.146 218.72 14.404 218.72 12.976V8.02H217.572V13.144C217.572 15.062 218.622 16.168 220.246 16.168ZM227.406 16H228.806V15.02H227.364V8.02H226.216V14.81C226.216 15.51 226.636 16 227.406 16ZM232.796 16H233.496V14.978H232.866C231.704 14.978 231.004 14.376 231.004 12.85V11.352C231.004 9.756 231.788 8.86 233.076 8.86C234.336 8.86 235.008 9.644 235.008 11.03V16H236.156V10.876C236.156 8.958 235.092 7.852 233.104 7.852C230.948 7.852 229.8 9.238 229.8 12.052C229.8 14.964 230.738 16 232.796 16ZM230.457 6.9H236.015V5.976H230.457V6.9ZM241.178 16.168C242.494 16.168 243.096 15.44 243.404 14.684H243.46V16H244.58V8.02H243.432V13.606C243.432 14.656 242.466 15.146 241.486 15.146C240.296 15.146 239.652 14.404 239.652 12.976V8.02H238.504V13.144C238.504 15.062 239.554 16.168 241.178 16.168ZM248.338 16H249.738V15.02H248.296V8.02H247.148V14.81C247.148 15.51 247.568 16 248.338 16ZM251.193 16H252.341V10.428C252.341 9.378 253.335 8.888 254.343 8.888C255.519 8.888 256.163 9.63 256.163 11.058V16H257.311V10.876C257.311 8.958 256.261 7.852 254.651 7.852C253.307 7.852 252.691 8.58 252.369 9.336H252.313V8.02H251.193V16ZM254.492 6.9H257.754V5.976H255.416V5.85C255.416 5.052 255.122 4.786 254.338 4.786H253.512V5.71H254.492V6.9ZM262.734 16H263.882V10.288C263.882 8.734 262.944 7.852 261.306 7.852C260.102 7.852 259.15 8.37 258.66 9.266L259.43 9.966C259.878 9.294 260.424 8.86 261.278 8.86C262.244 8.86 262.734 9.322 262.734 10.414V16ZM176.506 37H177.906V36.02H176.464V29.02H175.316V35.81C175.316 36.51 175.736 37 176.506 37ZM181.741 37.168C183.407 37.168 184.499 36.258 184.499 34.69C184.499 33.486 183.827 32.73 182.231 32.506L181.615 32.422C180.705 32.296 180.145 31.904 180.145 31.134C180.145 30.364 180.705 29.86 181.643 29.86C182.567 29.86 183.253 30.378 183.589 30.868L184.429 30.14C183.771 29.328 182.931 28.852 181.727 28.852C180.257 28.852 179.039 29.622 179.039 31.19C179.039 32.674 180.131 33.206 181.461 33.402L182.077 33.486C183.057 33.626 183.393 34.214 183.393 34.83C183.393 35.656 182.763 36.16 181.811 36.16C180.845 36.16 180.159 35.74 179.529 34.9L178.703 35.6C179.417 36.538 180.327 37.168 181.741 37.168ZM178.807 27.9H183.203C183.973 27.9 184.365 27.522 184.365 26.766V25.786H183.301V26.976H178.807V27.9ZM189.201 37.168C191.175 37.168 192.225 36.062 192.225 34.144V29.02H191.077V33.976C191.077 35.418 190.433 36.16 189.201 36.16C187.969 36.16 187.325 35.474 187.325 34.34V33.066H189.229V32.058H188.865C187.745 32.058 187.395 31.218 187.395 30.28V30H189.047V29.02H187.773C186.765 29.02 186.275 29.51 186.275 30.364V30.434C186.275 31.372 187.017 31.848 187.731 32.016V32.058H187.605C186.681 32.058 186.177 32.744 186.177 33.906V34.354C186.177 36.118 187.227 37.168 189.201 37.168ZM197.544 28.852C195.696 28.852 194.352 29.874 194.352 31.694V32.38H196.102V32.436C195.374 32.604 194.646 33.206 194.646 34.522V37H195.794V34.214C195.794 32.996 196.284 32.45 197.32 32.408V31.568H195.486C195.612 30.364 196.354 29.86 197.544 29.86C198.874 29.86 199.63 30.616 199.63 31.946V37H200.778V31.876C200.778 30.028 199.7 28.852 197.544 28.852ZM205.558 37.168C207.224 37.168 208.316 36.258 208.316 34.69C208.316 33.486 207.644 32.73 206.048 32.506L205.432 32.422C204.522 32.296 203.962 31.904 203.962 31.134C203.962 30.364 204.522 29.86 205.46 29.86C206.384 29.86 207.07 30.378 207.406 30.868L208.246 30.14C207.588 29.328 206.748 28.852 205.544 28.852C204.074 28.852 202.856 29.622 202.856 31.19C202.856 32.674 203.948 33.206 205.278 33.402L205.894 33.486C206.874 33.626 207.21 34.214 207.21 34.83C207.21 35.656 206.58 36.16 205.628 36.16C204.662 36.16 203.976 35.74 203.346 34.9L202.52 35.6C203.234 36.538 204.144 37.168 205.558 37.168ZM205.437 27.9H208.699V26.976H206.361V26.85C206.361 26.052 206.067 25.786 205.283 25.786H204.457V26.71H205.437V27.9ZM212.906 37.168C215.188 37.168 216.238 35.824 216.238 33.01C216.238 30.28 215.16 28.852 212.864 28.852C211.506 28.852 210.54 29.342 209.91 30.266L210.68 30.952C211.142 30.266 211.828 29.86 212.836 29.86C214.236 29.86 215.034 30.728 215.034 32.254V33.794C215.034 35.376 214.32 36.16 212.906 36.16C211.45 36.16 210.834 35.474 210.834 33.794V33.374H212.29V32.394H211.17C210.246 32.394 209.714 32.856 209.714 33.808V33.92C209.714 35.978 210.876 37.168 212.906 37.168ZM219.883 37H220.765C222.571 37 223.481 36.174 223.481 33.5V30.98C223.481 29.72 222.963 29.02 221.885 29.02H220.849V30H222.333V33.99C222.333 35.502 221.871 35.992 220.835 35.992H220.709L218.455 29.02H217.293L219.883 37ZM228.089 37.168C229.755 37.168 230.847 36.258 230.847 34.69C230.847 33.486 230.175 32.73 228.579 32.506L227.963 32.422C227.053 32.296 226.493 31.904 226.493 31.134C226.493 30.364 227.053 29.86 227.991 29.86C228.915 29.86 229.601 30.378 229.937 30.868L230.777 30.14C230.119 29.328 229.279 28.852 228.075 28.852C226.605 28.852 225.387 29.622 225.387 31.19C225.387 32.674 226.479 33.206 227.809 33.402L228.425 33.486C229.405 33.626 229.741 34.214 229.741 34.83C229.741 35.656 229.111 36.16 228.159 36.16C227.193 36.16 226.507 35.74 225.877 34.9L225.051 35.6C225.765 36.538 226.675 37.168 228.089 37.168ZM229.354 27.9H232.154V26.976H228.836V26.08H227.772V26.486C227.772 27.48 228.234 27.9 229.354 27.9ZM238.923 29.51V28.53H237.635C237.145 28.53 236.823 28.796 236.823 29.202V29.3C236.347 28.992 235.703 28.852 234.947 28.852C233.617 28.852 232.679 29.342 232.077 30.266L232.819 30.98C233.253 30.266 233.967 29.86 234.975 29.86C236.431 29.86 237.243 30.728 237.243 32.254V33.598C237.243 35.208 236.529 35.992 235.521 35.992H235.339L234.709 33.584C234.457 32.632 234.177 32.352 233.463 32.352H232.567V33.332H233.519L234.513 37H235.521C237.369 37 238.447 35.656 238.447 32.898C238.447 31.512 238.153 30.462 237.481 29.818V29.51H238.923ZM237.271 38.106C237.271 38.624 237.005 38.89 236.571 38.89C235.983 38.89 235.647 38.498 235.577 37.7H234.457L234.149 38.68H232.581V39.632H233.603C234.569 39.632 235.101 39.268 235.255 38.428L235.297 38.19H235.325C235.423 39.198 236.039 39.772 236.921 39.772C237.719 39.772 238.335 39.31 238.335 38.302V37.7H237.271V38.106ZM242.878 28.852C241.52 28.852 240.568 29.342 239.966 30.266L240.708 30.98C241.142 30.266 241.856 29.86 242.864 29.86C244.32 29.86 245.132 30.728 245.132 32.254V33.598C245.132 35.208 244.418 35.992 243.41 35.992H243.228L242.598 33.584C242.346 32.632 242.066 32.352 241.352 32.352H240.456V33.332H241.408L242.402 37H243.41C245.258 37 246.336 35.656 246.336 32.898C246.336 30.28 245.3 28.852 242.878 28.852ZM245.095 27.9H246.187V25.576H245.095V27.9ZM251.332 37H252.48V31.288C252.48 29.734 251.542 28.852 249.904 28.852C248.7 28.852 247.748 29.37 247.258 30.266L248.028 30.966C248.476 30.294 249.022 29.86 249.876 29.86C250.842 29.86 251.332 30.322 251.332 31.414V37ZM257.656 37.168C259.63 37.168 260.68 36.062 260.68 34.144V29.02H259.532V33.976C259.532 35.418 258.888 36.16 257.656 36.16C256.424 36.16 255.78 35.474 255.78 34.34V33.066H257.684V32.058H257.32C256.2 32.058 255.85 31.218 255.85 30.28V30H257.502V29.02H256.228C255.22 29.02 254.73 29.51 254.73 30.364V30.434C254.73 31.372 255.472 31.848 256.186 32.016V32.058H256.06C255.136 32.058 254.632 32.744 254.632 33.906V34.354C254.632 36.118 255.682 37.168 257.656 37.168ZM264.361 37H265.761V36.02H264.319V29.02H263.171V35.81C263.171 36.51 263.591 37 264.361 37ZM268.911 37H269.793C271.599 37 272.509 36.174 272.509 33.5V30.98C272.509 29.72 271.991 29.02 270.913 29.02H269.877V30H271.361V33.99C271.361 35.502 270.899 35.992 269.863 35.992H269.737L267.483 29.02H266.321L268.911 37ZM266.879 27.9H272.437V26.976H266.879V27.9ZM277.34 37.168C278.656 37.168 279.258 36.44 279.566 35.684H279.622V37H280.742V29.02H279.594V34.606C279.594 35.656 278.628 36.146 277.648 36.146C276.458 36.146 275.814 35.404 275.814 33.976V29.02H274.666V34.144C274.666 36.062 275.716 37.168 277.34 37.168ZM181.784 50.51V49.53H180.496C180.006 49.53 179.684 49.796 179.684 50.202V50.3C179.222 49.992 178.606 49.852 177.892 49.852C176.506 49.852 175.54 50.482 174.966 51.406L175.708 52.12C176.142 51.406 176.856 50.86 177.864 50.86C179.208 50.86 179.852 51.462 179.852 52.876V53.296H178.144C175.89 53.296 174.812 54.094 174.812 55.69C174.812 57.23 175.834 58 177.444 58H178.27V56.978H177.584C176.576 56.978 176.016 56.614 176.016 55.802V55.438C176.016 54.738 176.646 54.318 177.906 54.318H179.852V58H181V52.75C181 51.98 180.804 51.322 180.342 50.832V50.51H181.784ZM184.342 53.114L186.806 53.1V52.064L184.244 52.078V50.79L183.152 50.804V51.924C183.152 52.68 183.642 53.114 184.342 53.114ZM184.342 57.174L186.806 57.16V56.124L184.244 56.138V54.85L183.152 54.864V55.984C183.152 56.74 183.642 57.174 184.342 57.174ZM195.1 50.51V49.53H193.812C193.322 49.53 193 49.796 193 50.202V50.3C192.538 49.992 191.922 49.852 191.208 49.852C189.822 49.852 188.856 50.482 188.282 51.406L189.024 52.12C189.458 51.406 190.172 50.86 191.18 50.86C192.524 50.86 193.168 51.462 193.168 52.876V53.296H191.46C189.206 53.296 188.128 54.094 188.128 55.69C188.128 57.23 189.15 58 190.76 58H191.586V56.978H190.9C189.892 56.978 189.332 56.614 189.332 55.802V55.438C189.332 54.738 189.962 54.318 191.222 54.318H193.168V58H194.316V52.75C194.316 51.98 194.12 51.322 193.658 50.832V50.51H195.1ZM200.304 58.168C201.928 58.168 202.978 57.062 202.978 55.144V50.02H201.83V54.976C201.83 56.404 201.186 57.146 199.996 57.146C199.016 57.146 198.05 56.656 198.05 55.606V50.02H196.902V58H198.022V56.684H198.078C198.386 57.44 198.988 58.168 200.304 58.168ZM208.024 58.168C209.788 58.168 210.866 57.16 210.866 55.424V54.388C210.866 53.226 210.348 52.442 209.438 52.162V52.106C210.194 51.798 210.894 51.252 210.894 50.258V50.02H209.718V50.622C209.718 51.518 209.186 52.036 208.248 52.036H208.136V52.918H208.374C209.298 52.918 209.69 53.38 209.69 54.444V55.256C209.69 56.516 209.046 57.16 208.024 57.16C206.988 57.16 206.344 56.642 206.344 55.34C206.344 53.296 207.604 53.324 207.604 51.56V51.392C207.604 50.552 207.226 50.02 205.966 50.02H205.084V51H206.484V51.686C206.484 53.198 205.168 52.918 205.168 55.382C205.168 57.104 206.246 58.168 208.024 58.168ZM215.47 58.168C217.136 58.168 218.228 57.258 218.228 55.69C218.228 54.486 217.556 53.73 215.96 53.506L215.344 53.422C214.434 53.296 213.874 52.904 213.874 52.134C213.874 51.364 214.434 50.86 215.372 50.86C216.296 50.86 216.982 51.378 217.318 51.868L218.158 51.14C217.5 50.328 216.66 49.852 215.456 49.852C213.986 49.852 212.768 50.622 212.768 52.19C212.768 53.674 213.86 54.206 215.19 54.402L215.806 54.486C216.786 54.626 217.122 55.214 217.122 55.83C217.122 56.656 216.492 57.16 215.54 57.16C214.574 57.16 213.888 56.74 213.258 55.9L212.432 56.6C213.146 57.538 214.056 58.168 215.47 58.168ZM223.168 58H224.316V52.288C224.316 50.734 223.378 49.852 221.74 49.852C220.536 49.852 219.584 50.37 219.094 51.266L219.864 51.966C220.312 51.294 220.858 50.86 221.712 50.86C222.678 50.86 223.168 51.322 223.168 52.414V58ZM229.716 49.852C227.7 49.852 226.482 50.874 226.482 52.694V53.38H228.512V53.436C227.784 53.604 227.056 54.206 227.056 55.522V57.02H226.076V58H226.678C227.84 58 228.176 57.65 228.176 56.278V55.214C228.176 54.234 228.512 53.45 229.576 53.408V52.568H227.602C227.7 51.378 228.344 50.86 229.716 50.86C231.102 50.86 231.9 51.616 231.9 52.946V58H233.048V52.876C233.048 51.028 231.984 49.852 229.716 49.852ZM238.439 58H239.587V52.288C239.587 50.734 238.649 49.852 237.011 49.852C235.807 49.852 234.855 50.37 234.365 51.266L235.135 51.966C235.583 51.294 236.129 50.86 236.983 50.86C237.949 50.86 238.439 51.322 238.439 52.414V58ZM242.678 58H244.218L245.772 51.574H245.8L247.354 58H248.894L249.972 50.02H248.824L248.054 56.824H248.026L246.346 50.02H245.226L243.546 56.824H243.518L242.748 50.02H241.6L242.678 58Z" fill="black" fill-opacity="0.5"/>
<path d="M174.63 77H179.45V75.91H176.03L177.52 74.67C178.48 73.88 179.27 73.14 179.27 71.98C179.27 70.77 178.43 69.9 176.97 69.9C175.55 69.9 174.81 70.71 174.51 71.63L175.63 72.06C175.79 71.49 176.14 71.02 176.86 71.02C177.45 71.02 177.91 71.37 177.91 71.98V72.12C177.91 72.73 177.56 73.23 176.82 73.87L174.63 75.8V77ZM181.256 77H182.996C184.166 76.22 185.496 74.64 185.496 72.64C185.496 70.97 184.556 69.9 182.966 69.9C181.436 69.9 180.446 70.89 180.446 72.3C180.446 73.62 181.326 74.47 182.496 74.47C183.366 74.47 183.806 73.98 184.076 73.43L184.156 73.46C183.846 74.89 182.886 75.82 181.256 77ZM182.966 73.46C182.226 73.46 181.776 73.03 181.776 72.27V72.12C181.776 71.35 182.226 70.92 182.966 70.92C183.716 70.92 184.166 71.35 184.166 72.12V72.27C184.166 73.03 183.716 73.46 182.966 73.46ZM189.655 77H191.115L192.035 72.72H192.065L192.985 77H194.435L195.245 71.27H194.035L193.625 75.74H193.595L192.645 71.27H191.455L190.495 75.74H190.475L190.065 71.27H188.855L189.655 77ZM197.238 77.11C197.778 77.11 198.028 76.81 198.028 76.39V76.21C198.028 75.79 197.778 75.48 197.238 75.48C196.698 75.48 196.448 75.79 196.448 76.21V76.39C196.448 76.81 196.698 77.11 197.238 77.11ZM199.427 77H200.707V75.62C200.707 74.99 201.137 74.74 201.797 74.74H202.307V73.63H201.957C201.277 73.63 200.897 74 200.747 74.6H200.707V73.47C200.707 72.66 201.117 72.23 201.877 72.23C202.627 72.23 203.047 72.66 203.047 73.47V77H204.317V73.52C204.317 72.03 203.467 71.15 201.877 71.15C200.277 71.15 199.427 72.03 199.427 73.52V77ZM206.515 77.11C207.055 77.11 207.305 76.81 207.305 76.39V76.21C207.305 75.79 207.055 75.48 206.515 75.48C205.975 75.48 205.725 75.79 205.725 76.21V76.39C205.725 76.81 205.975 77.11 206.515 77.11ZM210.987 77H215.807V75.91H212.387L213.877 74.67C214.837 73.88 215.627 73.14 215.627 71.98C215.627 70.77 214.787 69.9 213.327 69.9C211.907 69.9 211.167 70.71 210.867 71.63L211.987 72.06C212.147 71.49 212.497 71.02 213.217 71.02C213.807 71.02 214.267 71.37 214.267 71.98V72.12C214.267 72.73 213.917 73.23 213.177 73.87L210.987 75.8V77ZM219.304 77.12C220.944 77.12 221.874 76.1 221.874 74.7C221.874 73.32 220.944 72.5 219.744 72.5C218.914 72.5 218.564 72.9 218.274 73.5H218.194L218.364 71.14H221.494V70.02H217.404L217.144 73.93L218.204 74.08C218.414 73.83 218.764 73.56 219.334 73.56C220.084 73.56 220.524 74 220.524 74.73V74.82C220.524 75.58 220.104 76.06 219.314 76.06C218.554 76.06 218.174 75.64 217.854 75.1L216.914 75.83C217.334 76.5 218.014 77.12 219.304 77.12ZM225.38 77.12C226.91 77.12 227.9 76.13 227.9 74.72C227.9 73.4 227.02 72.55 225.85 72.55C224.98 72.55 224.54 73.04 224.27 73.59L224.19 73.56C224.5 72.13 225.46 71.2 227.09 70.02H225.35C224.18 70.8 222.85 72.38 222.85 74.38C222.85 76.05 223.79 77.12 225.38 77.12ZM225.38 76.1C224.63 76.1 224.18 75.67 224.18 74.9V74.75C224.18 73.99 224.63 73.56 225.38 73.56C226.12 73.56 226.57 73.99 226.57 74.75V74.9C226.57 75.67 226.12 76.1 225.38 76.1ZM231.066 77.12C232.596 77.12 233.626 76.3 233.626 75.07C233.626 74.08 232.966 73.51 232.166 73.36V73.31C232.896 73.16 233.496 72.61 233.496 71.72C233.496 70.6 232.536 69.9 231.146 69.9C229.976 69.9 229.316 70.41 228.846 71.06L229.676 71.81C230.006 71.28 230.496 70.96 231.106 70.96C231.746 70.96 232.146 71.31 232.146 71.89V71.96C232.146 72.47 231.766 72.85 230.966 72.85H230.276V73.92H230.966C231.806 73.92 232.286 74.27 232.286 74.93V74.99C232.286 75.65 231.846 76.06 231.066 76.06C230.276 76.06 229.866 75.66 229.546 75.1L228.596 75.83C229.036 76.5 229.716 77.12 231.066 77.12Z" fill="black" fill-opacity="0.5"/>
<path d="M10.1772 157.852C8.3292 157.852 6.9852 158.874 6.9852 160.694V161.38H8.7352V161.436C8.0072 161.604 7.2792 162.206 7.2792 163.522V166H8.4272V163.214C8.4272 161.996 8.9172 161.45 9.9532 161.408V160.568H8.1192C8.2452 159.364 8.9872 158.86 10.1772 158.86C11.5072 158.86 12.2632 159.616 12.2632 160.946V166H13.4112V160.876C13.4112 159.028 12.3332 157.852 10.1772 157.852ZM18.3725 157.852C16.9305 157.852 15.9645 158.482 15.3905 159.406L16.1325 160.12C16.5665 159.406 17.2805 158.86 18.2885 158.86C19.6325 158.86 20.2765 159.462 20.2765 160.876V161.296H18.5685C16.3145 161.296 15.2365 162.094 15.2365 163.69C15.2365 165.23 16.2585 166 17.8685 166H18.6945V164.978H18.0085C17.0005 164.978 16.4405 164.614 16.4405 163.802V163.438C16.4405 162.738 17.0705 162.318 18.3305 162.318H20.2765V166H21.4245V160.708C21.4245 158.888 20.3605 157.852 18.3725 157.852ZM20.4755 169.738H21.4275V168.086C21.4275 167.4 21.0495 167.022 20.3775 167.022H19.6915V167.862H20.4615L20.4755 169.738ZM20.1848 156.9H21.2768V154.576H20.1848V156.9ZM27.2242 166.168C28.8482 166.168 29.8982 165.062 29.8982 163.144V158.02H28.7502V162.976C28.7502 164.404 28.1062 165.146 26.9162 165.146C25.9362 165.146 24.9702 164.656 24.9702 163.606V158.02H23.8222V166H24.9422V164.684H24.9982C25.3062 165.44 25.9082 166.168 27.2242 166.168ZM32.2561 166H33.4321L35.3781 163.186H35.4061L37.3521 166H38.5281V158.02H37.4081V164.572L35.4061 161.632H35.3781L33.3761 164.572V159H34.7341V158.02H33.8381C32.6621 158.02 32.2561 158.678 32.2561 160.05V166ZM36.515 169.738H37.607C38.195 169.738 38.531 169.402 38.531 168.814V167.022H37.579V168.912H36.543V168.086C36.543 167.4 36.165 167.022 35.493 167.022H34.947V167.862H35.591V168.814C35.591 169.402 35.927 169.738 36.515 169.738ZM35.857 156.9H39.119V155.976H36.781V155.85C36.781 155.052 36.487 154.786 35.703 154.786H34.877V155.71H35.857V156.9ZM41.6934 166H43.2334L44.7874 159.574H44.8154L46.3694 166H47.9094L48.9874 158.02H47.8394L47.0694 164.824H47.0414L45.3614 158.02H44.2414L42.5614 164.824H42.5334L41.7634 158.02H40.6154L41.6934 166ZM42.9672 156.9H48.5252V155.976H42.9672V156.9ZM53.9682 157.852C52.1202 157.852 50.7762 158.874 50.7762 160.694V161.38H52.5262V161.436C51.7982 161.604 51.0702 162.206 51.0702 163.522V166H52.2182V163.214C52.2182 161.996 52.7082 161.45 53.7442 161.408V160.568H51.9102C52.0362 159.364 52.7782 158.86 53.9682 158.86C55.2982 158.86 56.0542 159.616 56.0542 160.946V166H57.2022V160.876C57.2022 159.028 56.1242 157.852 53.9682 157.852ZM62.5975 166H63.7455V160.288C63.7455 158.734 62.8075 157.852 61.1695 157.852C59.9655 157.852 59.0135 158.37 58.5235 159.266L59.2935 159.966C59.7415 159.294 60.2875 158.86 61.1415 158.86C62.1075 158.86 62.5975 159.322 62.5975 160.414V166ZM68.544 166.168C70.21 166.168 71.302 165.258 71.302 163.69C71.302 162.486 70.63 161.73 69.034 161.506L68.418 161.422C67.508 161.296 66.948 160.904 66.948 160.134C66.948 159.364 67.508 158.86 68.446 158.86C69.37 158.86 70.056 159.378 70.392 159.868L71.232 159.14C70.574 158.328 69.734 157.852 68.53 157.852C67.06 157.852 65.842 158.622 65.842 160.19C65.842 161.674 66.934 162.206 68.264 162.402L68.88 162.486C69.86 162.626 70.196 163.214 70.196 163.83C70.196 164.656 69.566 165.16 68.614 165.16C67.648 165.16 66.962 164.74 66.332 163.9L65.506 164.6C66.22 165.538 67.13 166.168 68.544 166.168ZM3.98538 187.168C5.65138 187.168 6.74338 186.258 6.74338 184.69C6.74338 183.486 6.07138 182.73 4.47537 182.506L3.85938 182.422C2.94938 182.296 2.38938 181.904 2.38938 181.134C2.38938 180.364 2.94938 179.86 3.88738 179.86C4.81138 179.86 5.49738 180.378 5.83338 180.868L6.67338 180.14C6.01538 179.328 5.17538 178.852 3.97138 178.852C2.50138 178.852 1.28337 179.622 1.28337 181.19C1.28337 182.674 2.37538 183.206 3.70538 183.402L4.32138 183.486C5.30138 183.626 5.63738 184.214 5.63738 184.83C5.63738 185.656 5.00738 186.16 4.05537 186.16C3.08938 186.16 2.40338 185.74 1.77338 184.9L0.947375 185.6C1.66138 186.538 2.57138 187.168 3.98538 187.168ZM10.7594 187.168C12.9014 187.168 13.9234 185.74 13.9234 183.01C13.9234 180.28 12.9014 178.852 10.7594 178.852C9.31741 178.852 8.39341 179.552 7.94541 180.546L8.95341 181.022C9.24741 180.294 9.90541 179.86 10.7594 179.86C11.9214 179.86 12.7194 180.728 12.7194 182.254V183.766C12.7194 185.292 11.9214 186.16 10.7594 186.16C9.90541 186.16 9.24741 185.726 8.95341 184.998L7.94541 185.474C8.39341 186.468 9.31741 187.168 10.7594 187.168ZM19.2671 187.168C20.8911 187.168 21.9411 186.062 21.9411 184.144V179.02H20.7931V183.976C20.7931 185.404 20.1491 186.146 18.9591 186.146C17.9791 186.146 17.0131 185.656 17.0131 184.606V179.02H15.8651V187H16.9851V185.684H17.0411C17.3491 186.44 17.9511 187.168 19.2671 187.168ZM26.903 187H27.757V185.978H26.973C25.671 185.978 25.111 185.376 25.111 183.85V182.24C25.111 180.882 25.545 179.958 26.273 179.958L27.337 181.078H27.365L28.429 179.958C29.101 180.028 29.269 180.364 29.269 181.764V187H30.417V180.966C30.417 179.37 29.437 178.852 28.261 178.852L27.379 179.888H27.337L26.441 178.852C24.817 178.852 23.907 180.21 23.907 182.884C23.907 185.768 24.789 187 26.903 187ZM28.9852 177.9H31.7852V176.976H28.4672V176.08H27.4032V176.486C27.4032 177.48 27.8652 177.9 28.9852 177.9ZM34.945 187.168C37.087 187.168 38.109 185.74 38.109 183.01C38.109 180.28 37.087 178.852 34.945 178.852C33.503 178.852 32.579 179.552 32.131 180.546L33.139 181.022C33.433 180.294 34.091 179.86 34.945 179.86C36.107 179.86 36.905 180.728 36.905 182.254V183.766C36.905 185.292 36.107 186.16 34.945 186.16C34.091 186.16 33.433 185.726 33.139 184.998L32.131 185.474C32.579 186.468 33.503 187.168 34.945 187.168ZM42.6687 187.168C44.4327 187.168 45.5107 186.16 45.5107 184.424V183.388C45.5107 182.226 44.9927 181.442 44.0827 181.162V181.106C44.8387 180.798 45.5387 180.252 45.5387 179.258V179.02H44.3627V179.622C44.3627 180.518 43.8307 181.036 42.8927 181.036H42.7807V181.918H43.0187C43.9427 181.918 44.3347 182.38 44.3347 183.444V184.256C44.3347 185.516 43.6907 186.16 42.6687 186.16C41.6327 186.16 40.9887 185.642 40.9887 184.34C40.9887 182.296 42.2487 182.324 42.2487 180.56V180.392C42.2487 179.552 41.8707 179.02 40.6107 179.02H39.7287V180H41.1287V180.686C41.1287 182.198 39.8127 181.918 39.8127 184.382C39.8127 186.104 40.8907 187.168 42.6687 187.168ZM44.415 190.738H45.367V189.086C45.367 188.4 44.989 188.022 44.317 188.022H43.631V188.862H44.401L44.415 190.738ZM51.1363 187.168C52.7603 187.168 53.8103 186.062 53.8103 184.144V179.02H52.6623V183.976C52.6623 185.404 52.0183 186.146 50.8283 186.146C49.8483 186.146 48.8823 185.656 48.8823 184.606V179.02H47.7343V187H48.8543V185.684H48.9103C49.2183 186.44 49.8203 187.168 51.1363 187.168ZM58.8422 187.168C60.1582 187.168 60.7602 186.44 61.0682 185.684H61.1242V187H62.2442V179.02H61.0962V184.606C61.0962 185.656 60.1302 186.146 59.1502 186.146C57.9602 186.146 57.3162 185.404 57.3162 183.976V179.02H56.1682V184.144C56.1682 186.062 57.2182 187.168 58.8422 187.168ZM61.2861 190.738H62.2381V189.086C62.2381 188.4 61.8601 188.022 61.1881 188.022H60.5021V188.862H61.2721L61.2861 190.738ZM68.1441 187.168C69.7681 187.168 70.8181 186.062 70.8181 184.144V179.02H69.6701V183.976C69.6701 185.404 69.0261 186.146 67.8361 186.146C66.8561 186.146 65.8901 185.656 65.8901 184.606V179.02H64.7421V187H65.8621V185.684H65.9181C66.2261 186.44 66.8281 187.168 68.1441 187.168Z" fill="black" fill-opacity="0.5"/>
<path d="M14.4825 206H19.2525V204.95H17.6625V199.02H15.6925L13.9625 201.06L14.7725 201.74L16.3025 199.95H16.3825V204.95H14.4825V206ZM22.5586 206.12C24.3386 206.12 25.1486 204.79 25.1486 202.51C25.1486 200.23 24.3386 198.9 22.5586 198.9C20.7786 198.9 19.9686 200.23 19.9686 202.51C19.9686 204.79 20.7786 206.12 22.5586 206.12ZM22.5586 205.03C21.6586 205.03 21.3486 204.3 21.3486 203.14V201.88C21.3486 200.72 21.6586 199.99 22.5586 199.99C23.4586 199.99 23.7686 200.72 23.7686 201.88V203.14C23.7686 204.3 23.4586 205.03 22.5586 205.03ZM30.788 206.12C32.198 206.12 32.978 205.46 32.978 204.15C32.978 203.03 32.438 202.5 31.138 202.3L29.698 202.12V201.89C29.698 201.46 30.038 201.21 30.698 201.21C31.328 201.21 31.738 201.44 32.088 201.83L32.928 201.09C32.468 200.49 31.788 200.15 30.708 200.15C29.328 200.15 28.508 200.82 28.508 201.84V201.95C28.508 202.61 28.938 203.01 29.768 203.14L30.898 203.27C31.558 203.36 31.788 203.58 31.788 204.15C31.788 204.78 31.458 205.05 30.768 205.05C30.378 205.05 30.088 204.98 29.788 204.85V203.57H28.648V205.52C29.168 205.91 29.848 206.12 30.788 206.12ZM34.8963 206.11C35.4363 206.11 35.6863 205.81 35.6863 205.39V205.21C35.6863 204.79 35.4363 204.48 34.8963 204.48C34.3563 204.48 34.1063 204.79 34.1063 205.21V205.39C34.1063 205.81 34.3563 206.11 34.8963 206.11ZM37.085 206H38.365V204.62C38.365 203.99 38.795 203.74 39.455 203.74H39.965V202.63H39.615C38.935 202.63 38.555 203 38.405 203.6H38.365V202.47C38.365 201.66 38.775 201.23 39.535 201.23C40.285 201.23 40.705 201.66 40.705 202.47V206H41.975V202.52C41.975 201.03 41.125 200.15 39.535 200.15C37.935 200.15 37.085 201.03 37.085 202.52V206ZM44.1736 206.11C44.7136 206.11 44.9636 205.81 44.9636 205.39V205.21C44.9636 204.79 44.7136 204.48 44.1736 204.48C43.6336 204.48 43.3836 204.79 43.3836 205.21V205.39C43.3836 205.81 43.6336 206.11 44.1736 206.11ZM48.6456 206H53.4656V204.91H50.0456L51.5356 203.67C52.4956 202.88 53.2856 202.14 53.2856 200.98C53.2856 199.77 52.4456 198.9 50.9856 198.9C49.5656 198.9 48.8256 199.71 48.5256 200.63L49.6456 201.06C49.8056 200.49 50.1556 200.02 50.8756 200.02C51.4656 200.02 51.9256 200.37 51.9256 200.98V201.12C51.9256 201.73 51.5756 202.23 50.8356 202.87L48.6456 204.8V206ZM56.9617 206.12C58.6017 206.12 59.5317 205.1 59.5317 203.7C59.5317 202.32 58.6017 201.5 57.4017 201.5C56.5717 201.5 56.2217 201.9 55.9317 202.5H55.8517L56.0217 200.14H59.1517V199.02H55.0617L54.8017 202.93L55.8617 203.08C56.0717 202.83 56.4217 202.56 56.9917 202.56C57.7417 202.56 58.1817 203 58.1817 203.73V203.82C58.1817 204.58 57.7617 205.06 56.9717 205.06C56.2117 205.06 55.8317 204.64 55.5117 204.1L54.5717 204.83C54.9917 205.5 55.6717 206.12 56.9617 206.12ZM63.0378 206.12C64.5678 206.12 65.5578 205.13 65.5578 203.72C65.5578 202.4 64.6778 201.55 63.5078 201.55C62.6378 201.55 62.1978 202.04 61.9278 202.59L61.8478 202.56C62.1578 201.13 63.1178 200.2 64.7478 199.02H63.0078C61.8378 199.8 60.5078 201.38 60.5078 203.38C60.5078 205.05 61.4478 206.12 63.0378 206.12ZM63.0378 205.1C62.2878 205.1 61.8378 204.67 61.8378 203.9V203.75C61.8378 202.99 62.2878 202.56 63.0378 202.56C63.7778 202.56 64.2278 202.99 64.2278 203.75V203.9C64.2278 204.67 63.7778 205.1 63.0378 205.1ZM68.7239 206.12C70.2539 206.12 71.2839 205.3 71.2839 204.07C71.2839 203.08 70.6239 202.51 69.8239 202.36V202.31C70.5539 202.16 71.1539 201.61 71.1539 200.72C71.1539 199.6 70.1939 198.9 68.8039 198.9C67.6339 198.9 66.9739 199.41 66.5039 200.06L67.3339 200.81C67.6639 200.28 68.1539 199.96 68.7639 199.96C69.4039 199.96 69.8039 200.31 69.8039 200.89V200.96C69.8039 201.47 69.4239 201.85 68.6239 201.85H67.9339V202.92H68.6239C69.4639 202.92 69.9439 203.27 69.9439 203.93V203.99C69.9439 204.65 69.5039 205.06 68.7239 205.06C67.9339 205.06 67.5239 204.66 67.2039 204.1L66.2539 204.83C66.6939 205.5 67.3739 206.12 68.7239 206.12Z" fill="black" fill-opacity="0.5"/>
<path d="M20.7644 75.168C22.5284 75.168 23.6064 74.16 23.6064 72.424V71.388C23.6064 70.226 23.0884 69.442 22.1784 69.162V69.106C22.9344 68.798 23.6344 68.252 23.6344 67.258V67.02H22.4584V67.622C22.4584 68.518 21.9264 69.036 20.9884 69.036H20.8764V69.918H21.1144C22.0384 69.918 22.4304 70.38 22.4304 71.444V72.256C22.4304 73.516 21.7864 74.16 20.7644 74.16C19.7284 74.16 19.0844 73.642 19.0844 72.34C19.0844 70.296 20.3444 70.324 20.3444 68.56V68.392C20.3444 67.552 19.9664 67.02 18.7064 67.02H17.8244V68H19.2244V68.686C19.2244 70.198 17.9084 69.918 17.9084 72.382C17.9084 74.104 18.9864 75.168 20.7644 75.168ZM22.5107 78.738H23.4627V77.086C23.4627 76.4 23.0847 76.022 22.4127 76.022H21.7267V76.862H22.4967L22.5107 78.738ZM28.434 75.168C29.75 75.168 30.352 74.44 30.66 73.684H30.716V75H31.836V67.02H30.688V72.606C30.688 73.656 29.722 74.146 28.742 74.146C27.552 74.146 26.908 73.404 26.908 71.976V67.02H25.76V72.144C25.76 74.062 26.81 75.168 28.434 75.168ZM36.9379 75.168C38.2539 75.168 38.8559 74.44 39.1639 73.684H39.2199V75H40.3399V67.02H39.1919V72.606C39.1919 73.656 38.2259 74.146 37.2459 74.146C36.0559 74.146 35.4119 73.404 35.4119 71.976V67.02H34.2639V72.144C34.2639 74.062 35.3139 75.168 36.9379 75.168ZM39.3818 78.738H40.3338V77.086C40.3338 76.4 39.9558 76.022 39.2838 76.022H38.5978V76.862H39.3678L39.3818 78.738ZM46.2398 75.168C47.8638 75.168 48.9138 74.062 48.9138 72.144V67.02H47.7658V71.976C47.7658 73.404 47.1218 74.146 45.9318 74.146C44.9518 74.146 43.9858 73.656 43.9858 72.606V67.02H42.8378V75H43.9578V73.684H44.0138C44.3218 74.44 44.9238 75.168 46.2398 75.168ZM52.8537 75H54.2537V74.02H52.8117V67.552C52.8117 65.27 52.3077 63.884 50.9357 63.352V63.296H54.8417V62.344H49.7457V63.324C50.9077 63.366 51.6637 64.654 51.6637 66.67V73.81C51.6637 74.51 52.0837 75 52.8537 75ZM58.2644 75H58.9644V73.978H58.3344C57.1724 73.978 56.4724 73.376 56.4724 71.85V70.352C56.4724 68.756 57.2564 67.86 58.5444 67.86C59.8044 67.86 60.4764 68.644 60.4764 70.03V75H61.6244V69.876C61.6244 67.958 60.5604 66.852 58.5724 66.852C56.4164 66.852 55.2684 68.238 55.2684 71.052C55.2684 73.964 56.2064 75 58.2644 75ZM66.8009 75.168C68.7749 75.168 69.8249 74.062 69.8249 72.144V67.02H68.6769V71.976C68.6769 73.418 68.0329 74.16 66.8009 74.16C65.5689 74.16 64.9249 73.474 64.9249 72.34V71.066H66.8289V70.058H66.4649C65.3449 70.058 64.9949 69.218 64.9949 68.28V68H66.6469V67.02H65.3729C64.3649 67.02 63.8749 67.51 63.8749 68.364V68.434C63.8749 69.372 64.6169 69.848 65.3309 70.016V70.058H65.2049C64.2809 70.058 63.7769 70.744 63.7769 71.906V72.354C63.7769 74.118 64.8269 75.168 66.8009 75.168ZM5.00542 96H6.15342V94.054C6.15342 92.878 6.96542 92.584 7.70742 92.584H8.72942V91.436H8.07142C7.00742 91.436 6.46142 92.094 6.20942 92.808H6.15342V90.946C6.15342 89.602 6.92342 88.86 8.18342 88.86C9.44342 88.86 10.2134 89.602 10.2134 90.946V96H11.3614V90.876C11.3614 89.028 10.2694 87.852 8.18342 87.852C6.09742 87.852 5.00542 89.028 5.00542 90.876V96ZM16.3617 96.168C17.6777 96.168 18.2797 95.44 18.5877 94.684H18.6437V96H19.7637V88.02H18.6157V93.606C18.6157 94.656 17.6497 95.146 16.6697 95.146C15.4797 95.146 14.8357 94.404 14.8357 92.976V88.02H13.6877V93.144C13.6877 95.062 14.7377 96.168 16.3617 96.168ZM24.8796 96.168C26.6436 96.168 27.6936 95.16 27.6936 93.424V88.02H26.5456V93.256C26.5456 94.516 25.9016 95.16 24.8796 95.16C23.8436 95.16 23.1996 94.642 23.1996 93.34C23.1996 91.296 24.4596 91.324 24.4596 89.56V89.392C24.4596 88.552 24.0816 88.02 22.8216 88.02H21.9396V89H23.3396V89.686C23.3396 91.198 22.0236 90.918 22.0236 93.382C22.0236 95.104 23.0876 96.168 24.8796 96.168ZM26.4813 86.9H29.2813V85.976H25.9633V85.08H24.8993V85.486C24.8993 86.48 25.3613 86.9 26.4813 86.9ZM33.0773 96.168C35.0513 96.168 36.1013 95.062 36.1013 93.144V88.02H34.9533V92.976C34.9533 94.418 34.3093 95.16 33.0773 95.16C31.8313 95.16 31.1873 94.418 31.1873 92.976V88.02H30.0393V93.144C30.0393 95.062 31.0893 96.168 33.0773 96.168ZM45.4521 96.168C46.9361 96.168 47.9301 95.482 48.1681 94.572H48.2101V96H49.3021V90.974H45.9981V92.01H48.1541V92.976C48.1541 94.418 47.0201 95.118 45.6621 95.118C43.8001 95.118 42.6521 93.83 42.6521 91.898V90.316C42.6521 88.384 43.8281 87.11 45.5501 87.11C46.7821 87.11 47.6921 87.754 48.1401 88.79L49.1061 88.202C48.4761 86.928 47.3001 86.06 45.5501 86.06C43.0441 86.06 41.3921 87.866 41.3921 91.114C41.3921 94.39 43.0581 96.168 45.4521 96.168ZM51.5045 96H52.6245V91.1C52.6245 90.414 53.3525 89.896 54.5565 89.896H55.2145V88.776H54.7805C53.6045 88.776 52.9465 89.42 52.6945 90.106H52.6245V88.776H51.5045V96ZM58.4384 96.168C59.4464 96.168 60.2164 95.706 60.5244 94.824H60.5944L60.6084 94.908C60.7064 95.538 61.0284 96 61.8404 96H62.4704V95.02H61.6444V91.044C61.6444 89.518 60.6084 88.608 58.8724 88.608C57.5704 88.608 56.7024 89.252 56.3104 90.022L56.9824 90.652C57.3744 89.994 57.9484 89.574 58.8164 89.574C59.9644 89.574 60.5244 90.134 60.5244 91.156V91.87H59.0964C56.9964 91.87 56.0164 92.626 56.0164 93.984C56.0164 95.328 56.9124 96.168 58.4384 96.168ZM58.6204 95.216C57.7524 95.216 57.1924 94.81 57.1924 94.096V93.802C57.1924 93.102 57.7664 92.71 59.0404 92.71H60.5244V93.9C60.5244 94.642 59.7264 95.216 58.6204 95.216ZM67.3589 96.168C69.1649 96.168 70.2989 94.698 70.2989 92.388C70.2989 90.078 69.1649 88.608 67.3589 88.608C66.3649 88.608 65.6229 89.042 65.2449 89.952H65.1889V85.64H64.0689V96H65.1889V94.824H65.2449C65.6789 95.72 66.3649 96.168 67.3589 96.168ZM67.0509 95.16C66.0289 95.16 65.1889 94.628 65.1889 93.69V91.002C65.1889 90.204 66.0289 89.616 67.0509 89.616C68.3109 89.616 69.0949 90.484 69.0949 91.772V93.004C69.0949 94.292 68.3109 95.16 67.0509 95.16Z" fill="black" fill-opacity="0.5"/>
<path d="M4.40047 115H9.17047V113.95H7.58047V108.02H5.61047L3.88047 110.06L4.69047 110.74L6.22047 108.95H6.30047V113.95H4.40047V115ZM12.4766 115.12C14.2566 115.12 15.0666 113.79 15.0666 111.51C15.0666 109.23 14.2566 107.9 12.4766 107.9C10.6966 107.9 9.88656 109.23 9.88656 111.51C9.88656 113.79 10.6966 115.12 12.4766 115.12ZM12.4766 114.03C11.5766 114.03 11.2666 113.3 11.2666 112.14V110.88C11.2666 109.72 11.5766 108.99 12.4766 108.99C13.3766 108.99 13.6866 109.72 13.6866 110.88V112.14C13.6866 113.3 13.3766 114.03 12.4766 114.03ZM23.5859 109.92V108.96H22.7459C22.3159 108.96 22.0659 109.16 22.0559 109.59C21.7159 109.3 21.2159 109.18 20.6459 109.18C19.5759 109.18 18.8159 109.64 18.4059 110.3L19.2059 111.02C19.4859 110.62 19.8859 110.26 20.5859 110.26C21.3659 110.26 21.7159 110.64 21.7159 111.36V111.63H20.4359C19.0359 111.63 18.3259 112.22 18.3259 113.3C18.3259 114.41 19.0159 115 20.2059 115H20.8859V113.94H20.3459C19.8559 113.94 19.5859 113.74 19.5859 113.33V113.17C19.5859 112.78 19.8759 112.56 20.4259 112.56H21.7159V115H22.9759V111.47C22.9759 110.82 22.8359 110.37 22.5759 110.09V109.92H23.5859ZM25.4002 115.11C25.9402 115.11 26.1902 114.81 26.1902 114.39V114.21C26.1902 113.79 25.9402 113.48 25.4002 113.48C24.8602 113.48 24.6102 113.79 24.6102 114.21V114.39C24.6102 114.81 24.8602 115.11 25.4002 115.11ZM27.5889 115H28.8689V113.62C28.8689 112.99 29.2989 112.74 29.9589 112.74H30.4689V111.63H30.1189C29.4389 111.63 29.0589 112 28.9089 112.6H28.8689V111.47C28.8689 110.66 29.2789 110.23 30.0389 110.23C30.7889 110.23 31.2089 110.66 31.2089 111.47V115H32.4789V111.52C32.4789 110.03 31.6289 109.15 30.0389 109.15C28.4389 109.15 27.5889 110.03 27.5889 111.52V115ZM34.6775 115.11C35.2175 115.11 35.4675 114.81 35.4675 114.39V114.21C35.4675 113.79 35.2175 113.48 34.6775 113.48C34.1375 113.48 33.8875 113.79 33.8875 114.21V114.39C33.8875 114.81 34.1375 115.11 34.6775 115.11ZM39.0995 112.58H41.9495V111.33H39.0995V112.58ZM47.9063 115.12C49.5363 115.12 50.4463 114.26 50.4463 113.09C50.4463 112.18 49.8963 111.62 49.0663 111.39V111.31C49.7563 111.06 50.2363 110.52 50.2363 109.71C50.2363 108.64 49.3963 107.9 47.9063 107.9C46.4163 107.9 45.5763 108.64 45.5763 109.71C45.5763 110.52 46.0563 111.06 46.7463 111.31V111.39C45.9163 111.62 45.3663 112.18 45.3663 113.09C45.3663 114.26 46.2763 115.12 47.9063 115.12ZM47.9063 110.92C47.1963 110.92 46.8063 110.58 46.8063 109.99V109.84C46.8063 109.25 47.1963 108.91 47.9063 108.91C48.6163 108.91 49.0063 109.25 49.0063 109.84V109.99C49.0063 110.58 48.6163 110.92 47.9063 110.92ZM47.9063 114.11C47.1463 114.11 46.7063 113.73 46.7063 113.1V112.9C46.7063 112.27 47.1463 111.89 47.9063 111.89C48.6663 111.89 49.1063 112.27 49.1063 112.9V113.1C49.1063 113.73 48.6663 114.11 47.9063 114.11ZM56.1356 115.12C57.5456 115.12 58.3256 114.46 58.3256 113.15C58.3256 112.03 57.7856 111.5 56.4856 111.3L55.0456 111.12V110.89C55.0456 110.46 55.3856 110.21 56.0456 110.21C56.6756 110.21 57.0856 110.44 57.4356 110.83L58.2756 110.09C57.8156 109.49 57.1356 109.15 56.0556 109.15C54.6756 109.15 53.8556 109.82 53.8556 110.84V110.95C53.8556 111.61 54.2856 112.01 55.1156 112.14L56.2456 112.27C56.9056 112.36 57.1356 112.58 57.1356 113.15C57.1356 113.78 56.8056 114.05 56.1156 114.05C55.7256 114.05 55.4356 113.98 55.1356 113.85V112.57H53.9956V114.52C54.5156 114.91 55.1956 115.12 56.1356 115.12ZM60.2439 115.11C60.7839 115.11 61.0339 114.81 61.0339 114.39V114.21C61.0339 113.79 60.7839 113.48 60.2439 113.48C59.7039 113.48 59.4539 113.79 59.4539 114.21V114.39C59.4539 114.81 59.7039 115.11 60.2439 115.11ZM62.4327 115H63.7127V113.62C63.7127 112.99 64.1427 112.74 64.8027 112.74H65.3127V111.63H64.9627C64.2827 111.63 63.9027 112 63.7527 112.6H63.7127V111.47C63.7127 110.66 64.1227 110.23 64.8827 110.23C65.6327 110.23 66.0527 110.66 66.0527 111.47V115H67.3227V111.52C67.3227 110.03 66.4727 109.15 64.8827 109.15C63.2827 109.15 62.4327 110.03 62.4327 111.52V115ZM69.5213 115.11C70.0613 115.11 70.3113 114.81 70.3113 114.39V114.21C70.3113 113.79 70.0613 113.48 69.5213 113.48C68.9813 113.48 68.7313 113.79 68.7313 114.21V114.39C68.7313 114.81 68.9813 115.11 69.5213 115.11ZM47.6456 130H52.4656V128.91H49.0456L50.5356 127.67C51.4956 126.88 52.2856 126.14 52.2856 124.98C52.2856 123.77 51.4456 122.9 49.9856 122.9C48.5656 122.9 47.8256 123.71 47.5256 124.63L48.6456 125.06C48.8056 124.49 49.1556 124.02 49.8756 124.02C50.4656 124.02 50.9256 124.37 50.9256 124.98V125.12C50.9256 125.73 50.5756 126.23 49.8356 126.87L47.6456 128.8V130ZM55.9617 130.12C57.6017 130.12 58.5317 129.1 58.5317 127.7C58.5317 126.32 57.6017 125.5 56.4017 125.5C55.5717 125.5 55.2217 125.9 54.9317 126.5H54.8517L55.0217 124.14H58.1517V123.02H54.0617L53.8017 126.93L54.8617 127.08C55.0717 126.83 55.4217 126.56 55.9917 126.56C56.7417 126.56 57.1817 127 57.1817 127.73V127.82C57.1817 128.58 56.7617 129.06 55.9717 129.06C55.2117 129.06 54.8317 128.64 54.5117 128.1L53.5717 128.83C53.9917 129.5 54.6717 130.12 55.9617 130.12ZM62.0378 130.12C63.5678 130.12 64.5578 129.13 64.5578 127.72C64.5578 126.4 63.6778 125.55 62.5078 125.55C61.6378 125.55 61.1978 126.04 60.9278 126.59L60.8478 126.56C61.1578 125.13 62.1178 124.2 63.7478 123.02H62.0078C60.8378 123.8 59.5078 125.38 59.5078 127.38C59.5078 129.05 60.4478 130.12 62.0378 130.12ZM62.0378 129.1C61.2878 129.1 60.8378 128.67 60.8378 127.9V127.75C60.8378 126.99 61.2878 126.56 62.0378 126.56C62.7778 126.56 63.2278 126.99 63.2278 127.75V127.9C63.2278 128.67 62.7778 129.1 62.0378 129.1ZM67.7239 130.12C69.2539 130.12 70.2839 129.3 70.2839 128.07C70.2839 127.08 69.6239 126.51 68.8239 126.36V126.31C69.5539 126.16 70.1539 125.61 70.1539 124.72C70.1539 123.6 69.1939 122.9 67.8039 122.9C66.6339 122.9 65.9739 123.41 65.5039 124.06L66.3339 124.81C66.6639 124.28 67.1539 123.96 67.7639 123.96C68.4039 123.96 68.8039 124.31 68.8039 124.89V124.96C68.8039 125.47 68.4239 125.85 67.6239 125.85H66.9339V126.92H67.6239C68.4639 126.92 68.9439 127.27 68.9439 127.93V127.99C68.9439 128.65 68.5039 129.06 67.7239 129.06C66.9339 129.06 66.5239 128.66 66.2039 128.1L65.2539 128.83C65.6939 129.5 66.3739 130.12 67.7239 130.12Z" fill="black" fill-opacity="0.5"/>
<path opacity="0.2" d="M130 37C133.22 36.9997 136.976 37.3407 136.976 41.7704C136.976 50.7659 136.976 70.5061 136.976 97.6518C136.976 102.081 135.834 107.193 150 107.193C144.634 107.193 136.976 107.397 136.976 115.03C136.976 122.662 136.976 168.867 136.976 170.57C136.976 172.501 135.902 175 131.61 175" stroke="black" stroke-width="2" stroke-dasharray="2 2"/>
<path opacity="0.2" d="M96 68C92.4585 67.9999 88.3268 68.1309 88.3268 69.8321C88.3268 73.2869 88.3268 80.8683 88.3268 91.2938C88.3268 92.995 89.5824 94.958 74 94.958C79.9024 94.958 88.3268 95.0365 88.3268 97.9679C88.3268 100.899 88.3268 118.644 88.3268 119.299C88.3268 120.04 89.5073 121 94.2293 121" stroke="black" stroke-width="2" stroke-dasharray="2 2"/>
<line opacity="0.2" x1="99" y1="161" x2="76" y2="161" stroke="black" stroke-width="2" stroke-dasharray="2 2"/>
<line opacity="0.2" x1="170" y1="52" x2="160" y2="52" stroke="black" stroke-width="2" stroke-dasharray="2 2"/>
<line opacity="0.2" x1="170" y1="107" x2="150" y2="107" stroke="black" stroke-width="2" stroke-dasharray="2 2"/>
</svg>
