<svg width="300" height="200" viewBox="0 0 300 200" fill="none" xmlns="http://www.w3.org/2000/svg">
<path d="M83.5 99C123.591 99 132.591 104 164.5 104" stroke="#C1B1F0" stroke-width="2"/>
<path d="M82.5 99C131.995 99 143.106 100 182.5 100" stroke="#C1B1F0" stroke-width="2"/>
<path d="M83 99C106.758 99 112.091 68 131 68" stroke="#C1B1F0" stroke-width="2"/>
<path d="M83 99C128.535 99 138.758 77 175 77" stroke="#C1B1F0" stroke-width="2"/>
<path d="M83 99C128.535 99 138.758 93 175 93" stroke="white" stroke-width="2"/>
<path d="M83 99C119.626 99 127.848 71 157 71" stroke="white" stroke-width="2"/>
<path d="M82 99C106.253 99 111.697 131 131 131" stroke="white" stroke-width="2"/>
<path d="M82 99C116.646 99 124.424 122 152 122" stroke="#C1B1F0" stroke-width="2"/>
<path d="M82 99C119.616 99 128.061 135 158 135" stroke="#C1B1F0" stroke-width="2"/>
<path d="M82 99C128.03 99 138.364 117 175 117" stroke="white" stroke-width="2"/>
<path d="M82 99C131.99 99 143.212 127 183 127" stroke="#C1B1F0" stroke-width="2"/>
<path d="M82 99C134.465 99 146.242 112 188 112" stroke="#C1B1F0" stroke-width="2"/>
<path d="M169 92C169 89.2386 171.239 87 174 87C176.761 87 179 89.2386 179 92C179 94.7614 176.761 97 174 97C171.239 97 169 94.7614 169 92Z" fill="white"/>
<line opacity="0.2" x1="200" y1="76" x2="180" y2="76" stroke="black" stroke-width="2" stroke-dasharray="2 2"/>
<line opacity="0.2" x1="132" y1="46" x2="132" y2="68" stroke="black" stroke-width="2" stroke-dasharray="2 2"/>
<line opacity="0.2" x1="130" y1="131" x2="130" y2="158" stroke="black" stroke-width="2" stroke-dasharray="2 2"/>
<path d="M152 71C152 68.2386 154.239 66 157 66C159.761 66 162 68.2386 162 71C162 73.7614 159.761 76 157 76C154.239 76 152 73.7614 152 71Z" fill="white"/>
<path d="M147 122C147 119.239 149.239 117 152 117C154.761 117 157 119.239 157 122C157 124.761 154.761 127 152 127C149.239 127 147 124.761 147 122Z" fill="#C1B1F0"/>
<path d="M180.5 100C180.5 97.2386 182.739 95 185.5 95C188.261 95 190.5 97.2386 190.5 100C190.5 102.761 188.261 105 185.5 105C182.739 105 180.5 102.761 180.5 100Z" fill="#C1B1F0"/>
<path d="M178 129C178 126.239 180.239 124 183 124C185.761 124 188 126.239 188 129C188 131.761 185.761 134 183 134C180.239 134 178 131.761 178 129Z" fill="#C1B1F0"/>
<path d="M126 66C126 63.2386 128.239 61 131 61C133.761 61 136 63.2386 136 66C136 68.7614 133.761 71 131 71C128.239 71 126 68.7614 126 66Z" fill="#C1B1F0"/>
<path d="M170 118C170 115.239 172.239 113 175 113C177.761 113 180 115.239 180 118C180 120.761 177.761 123 175 123C172.239 123 170 120.761 170 118Z" fill="white"/>
<path d="M129 126.5C126.515 126.5 124.5 128.515 124.5 131C124.5 133.485 126.515 135.5 129 135.5C131.485 135.5 133.5 133.485 133.5 131C133.5 128.515 131.485 126.5 129 126.5Z" fill="white" stroke="white"/>
<path d="M153 135C153 132.239 155.239 130 158 130C160.761 130 163 132.239 163 135C163 137.761 160.761 140 158 140C155.239 140 153 137.761 153 135Z" fill="#C1B1F0"/>
<path d="M183 113C183 110.239 185.239 108 188 108C190.761 108 193 110.239 193 113C193 115.761 190.761 118 188 118C185.239 118 183 115.761 183 113Z" fill="#C1B1F0"/>
<path d="M169 77C169 74.2386 171.239 72 174 72C176.761 72 179 74.2386 179 77C179 79.7614 176.761 82 174 82C171.239 82 169 79.7614 169 77Z" fill="#C1B1F0"/>
<path d="M161.5 105C161.5 102.239 163.739 100 166.5 100C169.261 100 171.5 102.239 171.5 105C171.5 107.761 169.261 110 166.5 110C163.739 110 161.5 107.761 161.5 105Z" fill="#C1B1F0"/>
<path d="M106.144 7.852C104.296 7.852 102.952 8.874 102.952 10.694V11.38H104.702V11.436C103.974 11.604 103.246 12.206 103.246 13.522V16H104.394V13.214C104.394 11.996 104.884 11.45 105.92 11.408V10.568H104.086C104.212 9.364 104.954 8.86 106.144 8.86C107.474 8.86 108.23 9.616 108.23 10.946V16H109.378V10.876C109.378 9.028 108.3 7.852 106.144 7.852ZM103.674 6.9H109.232V5.976H103.674V6.9ZM113.975 7.852C112.617 7.852 111.665 8.342 111.063 9.266L111.805 9.98C112.239 9.266 112.953 8.86 113.961 8.86C115.417 8.86 116.229 9.728 116.229 11.254V12.598C116.229 14.208 115.515 14.992 114.507 14.992H114.325L113.695 12.584C113.443 11.632 113.163 11.352 112.449 11.352H111.553V12.332H112.505L113.499 16H114.507C116.355 16 117.433 14.656 117.433 11.898C117.433 9.28 116.397 7.852 113.975 7.852ZM122.332 7.852C120.484 7.852 119.14 8.874 119.14 10.694V11.38H120.89V11.436C120.162 11.604 119.434 12.206 119.434 13.522V16H120.582V13.214C120.582 11.996 121.072 11.45 122.108 11.408V10.568H120.274C120.4 9.364 121.142 8.86 122.332 8.86C123.662 8.86 124.418 9.616 124.418 10.946V16H125.566V10.876C125.566 9.028 124.488 7.852 122.332 7.852ZM130.345 16.168C132.011 16.168 133.103 15.258 133.103 13.69C133.103 12.486 132.431 11.73 130.835 11.506L130.219 11.422C129.309 11.296 128.749 10.904 128.749 10.134C128.749 9.364 129.309 8.86 130.247 8.86C131.171 8.86 131.857 9.378 132.193 9.868L133.033 9.14C132.375 8.328 131.535 7.852 130.331 7.852C128.861 7.852 127.643 8.622 127.643 10.19C127.643 11.674 128.735 12.206 130.065 12.402L130.681 12.486C131.661 12.626 131.997 13.214 131.997 13.83C131.997 14.656 131.367 15.16 130.415 15.16C129.449 15.16 128.763 14.74 128.133 13.9L127.307 14.6C128.021 15.538 128.931 16.168 130.345 16.168ZM137.427 16.168C139.093 16.168 140.185 15.258 140.185 13.69C140.185 12.486 139.513 11.73 137.917 11.506L137.301 11.422C136.391 11.296 135.831 10.904 135.831 10.134C135.831 9.364 136.391 8.86 137.329 8.86C138.253 8.86 138.939 9.378 139.275 9.868L140.115 9.14C139.457 8.328 138.617 7.852 137.413 7.852C135.943 7.852 134.725 8.622 134.725 10.19C134.725 11.674 135.817 12.206 137.147 12.402L137.763 12.486C138.743 12.626 139.079 13.214 139.079 13.83C139.079 14.656 138.449 15.16 137.497 15.16C136.531 15.16 135.845 14.74 135.215 13.9L134.389 14.6C135.103 15.538 136.013 16.168 137.427 16.168ZM145.531 16.168C147.155 16.168 148.205 15.062 148.205 13.144V8.02H147.057V12.976C147.057 14.404 146.413 15.146 145.223 15.146C144.243 15.146 143.277 14.656 143.277 13.606V8.02H142.129V16H143.249V14.684H143.305C143.613 15.44 144.215 16.168 145.531 16.168ZM103.848 30.14C104.436 30.14 104.702 29.804 104.702 29.314V29.118C104.702 28.74 104.534 28.46 104.156 28.376C104.31 27.718 104.646 27.228 105.206 26.64H104.268C103.47 27.326 102.994 28.362 102.994 29.118V29.314C102.994 29.804 103.26 30.14 103.848 30.14ZM109.636 28.852C108.194 28.852 107.228 29.482 106.654 30.406L107.396 31.12C107.83 30.406 108.544 29.86 109.552 29.86C110.896 29.86 111.54 30.462 111.54 31.876V32.296H109.832C107.578 32.296 106.5 33.094 106.5 34.69C106.5 36.23 107.522 37 109.132 37H109.958V35.978H109.272C108.264 35.978 107.704 35.614 107.704 34.802V34.438C107.704 33.738 108.334 33.318 109.594 33.318H111.54V37H112.688V31.708C112.688 29.888 111.624 28.852 109.636 28.852ZM118.054 37.168C120.028 37.168 121.078 36.062 121.078 34.144V29.02H119.93V33.976C119.93 35.418 119.286 36.16 118.054 36.16C116.808 36.16 116.164 35.418 116.164 33.976V29.02H115.016V34.144C115.016 36.062 116.066 37.168 118.054 37.168ZM126.252 37.168C128.226 37.168 129.276 36.062 129.276 34.144V29.02H128.128V33.976C128.128 35.418 127.484 36.16 126.252 36.16C125.02 36.16 124.376 35.474 124.376 34.34V33.066H126.28V32.058H125.916C124.796 32.058 124.446 31.218 124.446 30.28V30H126.098V29.02H124.824C123.816 29.02 123.326 29.51 123.326 30.364V30.434C123.326 31.372 124.068 31.848 124.782 32.016V32.058H124.656C123.732 32.058 123.228 32.744 123.228 33.906V34.354C123.228 36.118 124.278 37.168 126.252 37.168ZM127.96 27.9H130.76V26.976H127.442V26.08H126.378V26.486C126.378 27.48 126.84 27.9 127.96 27.9ZM133.391 37H134.273C136.079 37 136.989 36.174 136.989 33.5V30.98C136.989 29.72 136.471 29.02 135.393 29.02H134.357V30H135.841V33.99C135.841 35.502 135.379 35.992 134.343 35.992H134.217L131.963 29.02H130.801L133.391 37ZM140.771 37H142.171V36.02H140.729V28.852C140.729 26.864 141.541 25.366 142.927 25.324V24.344H138.461V25.296H141.765V25.352C140.169 25.898 139.581 26.962 139.581 29.174V35.81C139.581 36.51 140.001 37 140.771 37ZM145.313 37H146.195C148.001 37 148.911 36.174 148.911 33.5V30.98C148.911 29.72 148.393 29.02 147.315 29.02H146.279V30H147.763V33.99C147.763 35.502 147.301 35.992 146.265 35.992H146.139L143.885 29.02H142.723L145.313 37ZM154.037 28.852C152.189 28.852 150.845 29.874 150.845 31.694V32.38H152.595V32.436C151.867 32.604 151.139 33.206 151.139 34.522V37H152.287V34.214C152.287 32.996 152.777 32.45 153.813 32.408V31.568H151.979C152.105 30.364 152.847 29.86 154.037 29.86C155.367 29.86 156.123 30.616 156.123 31.946V37H157.271V31.876C157.271 30.028 156.193 28.852 154.037 28.852ZM153.485 25.842H156.495V25.058H153.401C152.477 25.058 151.861 25.632 151.861 26.514C151.861 27.396 152.393 27.97 153.219 27.97C153.849 27.97 154.143 27.634 154.213 27.144L154.255 26.864H154.269C154.339 27.578 154.689 27.97 155.221 27.97C155.781 27.97 156.229 27.662 156.229 26.948V26.486H155.305V26.808C155.305 27.116 155.137 27.27 154.899 27.27C154.591 27.27 154.437 26.948 154.437 26.57H153.639L153.415 27.298C153.023 27.27 152.813 27.018 152.813 26.57C152.813 26.094 153.051 25.842 153.485 25.842ZM161.224 37H162.624V36.02H161.182V28.852C161.182 26.864 161.994 25.366 163.38 25.324V24.344H158.914V25.296H162.218V25.352C160.622 25.898 160.034 26.962 160.034 29.174V35.81C160.034 36.51 160.454 37 161.224 37ZM167.474 37.168C169.098 37.168 170.148 36.062 170.148 34.144V29.02H169V33.976C169 35.404 168.356 36.146 167.166 36.146C166.186 36.146 165.22 35.656 165.22 34.606V29.02H164.072V37H165.192V35.684H165.248C165.556 36.44 166.158 37.168 167.474 37.168ZM169.048 27.9H170.14V25.576H169.048V27.9ZM175.138 28.852C173.696 28.852 172.73 29.482 172.156 30.406L172.898 31.12C173.332 30.406 174.046 29.86 175.054 29.86C176.398 29.86 177.042 30.462 177.042 31.876V32.296H175.334C173.08 32.296 172.002 33.094 172.002 34.69C172.002 36.23 173.024 37 174.634 37H175.46V35.978H174.774C173.766 35.978 173.206 35.614 173.206 34.802V34.438C173.206 33.738 173.836 33.318 175.096 33.318H177.042V37H178.19V31.708C178.19 29.888 177.126 28.852 175.138 28.852ZM177.104 25.786V26.976H176.516V25.786H175.564V26.976H172.498V27.9H176.894C177.664 27.9 178.056 27.522 178.056 26.766V25.786H177.104ZM183.99 37.168C185.614 37.168 186.664 36.062 186.664 34.144V29.02H185.516V33.976C185.516 35.404 184.872 36.146 183.682 36.146C182.702 36.146 181.736 35.656 181.736 34.606V29.02H180.588V37H181.708V35.684H181.764C182.072 36.44 182.674 37.168 183.99 37.168ZM188.462 30H189.4C190.198 29.314 190.674 28.278 190.674 27.522V27.326C190.674 26.836 190.408 26.5 189.82 26.5C189.232 26.5 188.966 26.836 188.966 27.326V27.522C188.966 27.9 189.134 28.18 189.512 28.264C189.358 28.922 189.022 29.412 188.462 30Z" fill="black" fill-opacity="0.5"/>
<path d="M204.302 82H205.478V77.828H208.194C209.944 77.828 210.924 76.75 210.924 75.028C210.924 73.306 209.944 72.228 208.194 72.228H204.302V82ZM205.478 76.792V73.264H208.194C209.118 73.264 209.664 73.768 209.664 74.664V75.392C209.664 76.288 209.118 76.792 208.194 76.792H205.478ZM215.123 82.168C216.481 82.168 217.517 81.496 217.979 80.516L217.181 79.942C216.803 80.74 216.103 81.188 215.193 81.188C213.849 81.188 213.051 80.25 213.051 79.004V78.668H218.245V78.136C218.245 76.092 217.055 74.608 215.123 74.608C213.163 74.608 211.875 76.092 211.875 78.388C211.875 80.684 213.163 82.168 215.123 82.168ZM213.051 77.828V77.73C213.051 76.47 213.905 75.546 215.123 75.546C216.271 75.546 217.041 76.4 217.041 77.674V77.828H213.051ZM220.09 82H221.21V77.1C221.21 76.414 221.938 75.896 223.142 75.896H223.8V74.776H223.366C222.19 74.776 221.532 75.42 221.28 76.106H221.21V74.776H220.09V82ZM225.678 82H226.798V75.756H228.352V74.776H226.798V72.62H228.352V71.64H227.26C226.196 71.64 225.678 72.326 225.678 73.32V74.776H224.502V75.756H225.678V82ZM232.5 82.168C234.432 82.168 235.762 80.684 235.762 78.388C235.762 76.092 234.432 74.608 232.5 74.608C230.568 74.608 229.238 76.092 229.238 78.388C229.238 80.684 230.568 82.168 232.5 82.168ZM232.5 81.174C231.296 81.174 230.442 80.432 230.442 78.906V77.87C230.442 76.344 231.296 75.602 232.5 75.602C233.704 75.602 234.558 76.344 234.558 77.87V78.906C234.558 80.432 233.704 81.174 232.5 81.174ZM237.604 82H238.724V77.1C238.724 76.414 239.452 75.896 240.656 75.896H241.314V74.776H240.88C239.704 74.776 239.046 75.42 238.794 76.106H238.724V74.776H237.604V82ZM242.745 82H243.865V76.988C243.865 76.064 244.705 75.616 245.587 75.616C246.651 75.616 247.141 76.274 247.141 77.562V82H248.261V76.988C248.261 76.064 249.073 75.616 249.955 75.616C251.047 75.616 251.537 76.288 251.537 77.562V82H252.657V77.366C252.657 75.616 251.775 74.608 250.305 74.608C249.073 74.608 248.373 75.294 248.107 76.078H248.079C247.687 75.042 246.819 74.608 245.867 74.608C244.747 74.608 244.243 75.21 243.921 75.952H243.865V74.776H242.745V82ZM256.815 82.168C257.823 82.168 258.593 81.706 258.901 80.824H258.971L258.985 80.908C259.083 81.538 259.405 82 260.217 82H260.847V81.02H260.021V77.044C260.021 75.518 258.985 74.608 257.249 74.608C255.947 74.608 255.079 75.252 254.687 76.022L255.359 76.652C255.751 75.994 256.325 75.574 257.193 75.574C258.341 75.574 258.901 76.134 258.901 77.156V77.87H257.473C255.373 77.87 254.393 78.626 254.393 79.984C254.393 81.328 255.289 82.168 256.815 82.168ZM256.997 81.216C256.129 81.216 255.569 80.81 255.569 80.096V79.802C255.569 79.102 256.143 78.71 257.417 78.71H258.901V79.9C258.901 80.642 258.103 81.216 256.997 81.216ZM262.446 82H263.566V76.988C263.566 76.064 264.434 75.616 265.33 75.616C266.408 75.616 266.968 76.274 266.968 77.562V82H268.088V77.366C268.088 75.616 267.15 74.608 265.666 74.608C264.588 74.608 263.972 75.14 263.622 75.952H263.566V74.776H262.446V82ZM273.091 82.168C274.463 82.168 275.401 81.496 275.863 80.46L275.051 79.914C274.659 80.74 274.001 81.174 273.091 81.174C271.761 81.174 271.075 80.264 271.075 79.004V77.772C271.075 76.512 271.761 75.602 273.091 75.602C273.973 75.602 274.589 76.036 274.855 76.778L275.793 76.302C275.373 75.308 274.519 74.608 273.091 74.608C271.061 74.608 269.871 76.078 269.871 78.388C269.871 80.698 271.061 82.168 273.091 82.168ZM280.078 82.168C281.436 82.168 282.472 81.496 282.934 80.516L282.136 79.942C281.758 80.74 281.058 81.188 280.148 81.188C278.804 81.188 278.006 80.25 278.006 79.004V78.668H283.2V78.136C283.2 76.092 282.01 74.608 280.078 74.608C278.118 74.608 276.83 76.092 276.83 78.388C276.83 80.684 278.118 82.168 280.078 82.168ZM278.006 77.828V77.73C278.006 76.47 278.86 75.546 280.078 75.546C281.226 75.546 281.996 76.4 281.996 77.674V77.828H278.006ZM203.322 103H204.512L205.492 100.116H209.44L210.42 103H211.652L208.236 93.228H206.738L203.322 103ZM205.772 99.08L207.424 94.32H207.494L209.146 99.08H205.772ZM213.159 103H214.279V98.1C214.279 97.414 215.007 96.896 216.211 96.896H216.869V95.776H216.435C215.259 95.776 214.601 96.42 214.349 97.106H214.279V95.776H213.159V103ZM219.95 103H221.35V102.02H219.88V96.756H221.462V95.776H219.88V93.774H218.872V95.118C218.872 95.608 218.718 95.776 218.242 95.776H217.57V96.756H218.76V101.81C218.76 102.51 219.18 103 219.95 103Z" fill="black" fill-opacity="0.5"/>
<path d="M106.144 165.852C104.296 165.852 102.952 166.874 102.952 168.694V169.38H104.702V169.436C103.974 169.604 103.246 170.206 103.246 171.522V174H104.394V171.214C104.394 169.996 104.884 169.45 105.92 169.408V168.568H104.086C104.212 167.364 104.954 166.86 106.144 166.86C107.474 166.86 108.23 167.616 108.23 168.946V174H109.378V168.876C109.378 167.028 108.3 165.852 106.144 165.852ZM103.674 164.9H109.232V163.976H103.674V164.9ZM113.975 165.852C112.617 165.852 111.665 166.342 111.063 167.266L111.805 167.98C112.239 167.266 112.953 166.86 113.961 166.86C115.417 166.86 116.229 167.728 116.229 169.254V170.598C116.229 172.208 115.515 172.992 114.507 172.992H114.325L113.695 170.584C113.443 169.632 113.163 169.352 112.449 169.352H111.553V170.332H112.505L113.499 174H114.507C116.355 174 117.433 172.656 117.433 169.898C117.433 167.28 116.397 165.852 113.975 165.852ZM122.332 165.852C120.484 165.852 119.14 166.874 119.14 168.694V169.38H120.89V169.436C120.162 169.604 119.434 170.206 119.434 171.522V174H120.582V171.214C120.582 169.996 121.072 169.45 122.108 169.408V168.568H120.274C120.4 167.364 121.142 166.86 122.332 166.86C123.662 166.86 124.418 167.616 124.418 168.946V174H125.566V168.876C125.566 167.028 124.488 165.852 122.332 165.852ZM130.345 174.168C132.011 174.168 133.103 173.258 133.103 171.69C133.103 170.486 132.431 169.73 130.835 169.506L130.219 169.422C129.309 169.296 128.749 168.904 128.749 168.134C128.749 167.364 129.309 166.86 130.247 166.86C131.171 166.86 131.857 167.378 132.193 167.868L133.033 167.14C132.375 166.328 131.535 165.852 130.331 165.852C128.861 165.852 127.643 166.622 127.643 168.19C127.643 169.674 128.735 170.206 130.065 170.402L130.681 170.486C131.661 170.626 131.997 171.214 131.997 171.83C131.997 172.656 131.367 173.16 130.415 173.16C129.449 173.16 128.763 172.74 128.133 171.9L127.307 172.6C128.021 173.538 128.931 174.168 130.345 174.168ZM137.427 174.168C139.093 174.168 140.185 173.258 140.185 171.69C140.185 170.486 139.513 169.73 137.917 169.506L137.301 169.422C136.391 169.296 135.831 168.904 135.831 168.134C135.831 167.364 136.391 166.86 137.329 166.86C138.253 166.86 138.939 167.378 139.275 167.868L140.115 167.14C139.457 166.328 138.617 165.852 137.413 165.852C135.943 165.852 134.725 166.622 134.725 168.19C134.725 169.674 135.817 170.206 137.147 170.402L137.763 170.486C138.743 170.626 139.079 171.214 139.079 171.83C139.079 172.656 138.449 173.16 137.497 173.16C136.531 173.16 135.845 172.74 135.215 171.9L134.389 172.6C135.103 173.538 136.013 174.168 137.427 174.168ZM145.531 174.168C147.155 174.168 148.205 173.062 148.205 171.144V166.02H147.057V170.976C147.057 172.404 146.413 173.146 145.223 173.146C144.243 173.146 143.277 172.656 143.277 171.606V166.02H142.129V174H143.249V172.684H143.305C143.613 173.44 144.215 174.168 145.531 174.168ZM103.848 188.14C104.436 188.14 104.702 187.804 104.702 187.314V187.118C104.702 186.74 104.534 186.46 104.156 186.376C104.31 185.718 104.646 185.228 105.206 184.64H104.268C103.47 185.326 102.994 186.362 102.994 187.118V187.314C102.994 187.804 103.26 188.14 103.848 188.14ZM109.72 195.168C112.002 195.168 113.052 193.824 113.052 191.01C113.052 188.28 111.974 186.852 109.678 186.852C108.32 186.852 107.354 187.342 106.724 188.266L107.494 188.952C107.956 188.266 108.642 187.86 109.65 187.86C111.05 187.86 111.848 188.728 111.848 190.254V191.794C111.848 193.376 111.134 194.16 109.72 194.16C108.264 194.16 107.648 193.474 107.648 191.794V191.374H109.104V190.394H107.984C107.06 190.394 106.528 190.856 106.528 191.808V191.92C106.528 193.978 107.69 195.168 109.72 195.168ZM111.804 185.9H112.896V183.576H111.804V185.9ZM118 195H119.148V189.288C119.148 187.734 118.21 186.852 116.572 186.852C115.368 186.852 114.416 187.37 113.926 188.266L114.696 188.966C115.144 188.294 115.69 187.86 116.544 187.86C117.51 187.86 118 188.322 118 189.414V195ZM124.17 195.168C125.486 195.168 126.088 194.44 126.396 193.684H126.452V195H127.572V187.02H126.424V192.606C126.424 193.656 125.458 194.146 124.478 194.146C123.288 194.146 122.644 193.404 122.644 191.976V187.02H121.496V192.144C121.496 194.062 122.546 195.168 124.17 195.168ZM133.038 195.168C135.012 195.168 136.062 194.062 136.062 192.144V184.08H134.914V191.976C134.914 193.418 134.27 194.16 133.038 194.16C131.792 194.16 131.148 193.418 131.148 191.976V187.02H130V192.144C130 194.062 131.05 195.168 133.038 195.168ZM140.858 195.168C142.524 195.168 143.616 194.258 143.616 192.69C143.616 191.486 142.944 190.73 141.348 190.506L140.732 190.422C139.822 190.296 139.262 189.904 139.262 189.134C139.262 188.364 139.822 187.86 140.76 187.86C141.684 187.86 142.37 188.378 142.706 188.868L143.546 188.14C142.888 187.328 142.048 186.852 140.844 186.852C139.374 186.852 138.156 187.622 138.156 189.19C138.156 190.674 139.248 191.206 140.578 191.402L141.194 191.486C142.174 191.626 142.51 192.214 142.51 192.83C142.51 193.656 141.88 194.16 140.928 194.16C139.962 194.16 139.276 193.74 138.646 192.9L137.82 193.6C138.534 194.538 139.444 195.168 140.858 195.168ZM146.316 190.114L148.78 190.1V189.064L146.218 189.078V187.79L145.126 187.804V188.924C145.126 189.68 145.616 190.114 146.316 190.114ZM146.316 194.174L148.78 194.16V193.124L146.218 193.138V191.85L145.126 191.864V192.984C145.126 193.74 145.616 194.174 146.316 194.174ZM153.435 186.852C151.587 186.852 150.243 187.874 150.243 189.694V190.38H151.993V190.436C151.265 190.604 150.537 191.206 150.537 192.522V195H151.685V192.214C151.685 190.996 152.175 190.45 153.211 190.408V189.568H151.377C151.503 188.364 152.245 187.86 153.435 187.86C154.765 187.86 155.521 188.616 155.521 189.946V195H156.669V189.876C156.669 188.028 155.591 186.852 153.435 186.852ZM162.064 195H163.212V189.288C163.212 187.734 162.274 186.852 160.636 186.852C159.432 186.852 158.48 187.37 157.99 188.266L158.76 188.966C159.208 188.294 159.754 187.86 160.608 187.86C161.574 187.86 162.064 188.322 162.064 189.414V195ZM172.631 187.51V186.53H171.343C170.853 186.53 170.531 186.796 170.531 187.202V187.384C170.027 187.02 169.411 186.852 168.697 186.852C166.625 186.852 165.533 188.028 165.533 189.876V195H166.681V193.054C166.681 191.878 167.493 191.584 168.235 191.584H169.257V190.436H168.599C167.535 190.436 166.989 191.094 166.737 191.808H166.681V189.946C166.681 188.602 167.451 187.86 168.711 187.86C169.971 187.86 170.741 188.602 170.741 189.946V195H171.889V189.876C171.889 189.064 171.637 188.378 171.189 187.944V187.51H172.631ZM174.337 195H175.485V193.054C175.485 191.878 176.297 191.584 177.039 191.584H178.061V190.436H177.403C176.339 190.436 175.793 191.094 175.541 191.808H175.485V189.946C175.485 188.602 176.255 187.86 177.515 187.86C178.775 187.86 179.545 188.602 179.545 189.946V195H180.693V189.876C180.693 188.028 179.601 186.852 177.515 186.852C175.429 186.852 174.337 188.028 174.337 189.876V195ZM192.54 187.02V192.606C192.54 193.656 191.574 194.146 190.678 194.146C189.684 194.146 189.04 193.656 189.04 191.99V189.876C189.04 188.028 187.92 186.852 185.876 186.852C183.93 186.852 182.74 187.874 182.74 189.694V190.38H184.392V190.436C183.664 190.604 182.936 191.206 182.936 192.606V193.11C182.936 194.384 183.482 195 184.574 195H185.456V194.02H184.056V192.214C184.056 190.996 184.546 190.45 185.694 190.408V189.568H183.832C183.958 188.42 184.644 187.86 185.876 187.86C187.122 187.86 187.892 188.602 187.892 189.946V192.158C187.892 194.314 188.942 195.168 190.37 195.168C191.602 195.168 192.204 194.44 192.512 193.684H192.568V195H193.688V187.02H192.54ZM196.93 190.114L199.394 190.1V189.064L196.832 189.078V187.79L195.74 187.804V188.924C195.74 189.68 196.23 190.114 196.93 190.114ZM196.93 194.174L199.394 194.16V193.124L196.832 193.138V191.85L195.74 191.864V192.984C195.74 193.74 196.23 194.174 196.93 194.174ZM203.53 195.168C205.196 195.168 206.288 194.258 206.288 192.69C206.288 191.486 205.616 190.73 204.02 190.506L203.404 190.422C202.494 190.296 201.934 189.904 201.934 189.134C201.934 188.364 202.494 187.86 203.432 187.86C204.356 187.86 205.042 188.378 205.378 188.868L206.218 188.14C205.56 187.328 204.72 186.852 203.516 186.852C202.046 186.852 200.828 187.622 200.828 189.19C200.828 190.674 201.92 191.206 203.25 191.402L203.866 191.486C204.846 191.626 205.182 192.214 205.182 192.83C205.182 193.656 204.552 194.16 203.6 194.16C202.634 194.16 201.948 193.74 201.318 192.9L200.492 193.6C201.206 194.538 202.116 195.168 203.53 195.168ZM211.228 195H212.376V189.288C212.376 187.734 211.438 186.852 209.8 186.852C208.596 186.852 207.644 187.37 207.154 188.266L207.924 188.966C208.372 188.294 208.918 187.86 209.772 187.86C210.738 187.86 211.228 188.322 211.228 189.414V195ZM221.935 190.016H220.941V187.02H219.793V190.002H217.833V191.024H219.793V192.074C219.793 193.418 219.023 194.16 217.833 194.16C216.643 194.16 215.873 193.418 215.873 192.074V187.02H214.725V192.144C214.725 193.992 215.817 195.168 217.833 195.168C219.849 195.168 220.941 193.992 220.941 192.144V191.024H221.935V190.016ZM226.472 186.852C224.456 186.852 223.238 187.874 223.238 189.694V190.38H225.268V190.436C224.54 190.604 223.812 191.206 223.812 192.522V194.02H222.832V195H223.434C224.596 195 224.932 194.65 224.932 193.278V192.214C224.932 191.234 225.268 190.45 226.332 190.408V189.568H224.358C224.456 188.378 225.1 187.86 226.472 187.86C227.858 187.86 228.656 188.616 228.656 189.946V196.96H228.586C228.124 196.246 227.354 195.756 226.332 195.756C225.324 195.756 224.316 196.372 223.826 197.24L224.596 197.926C225.016 197.212 225.646 196.75 226.528 196.75C227.34 196.75 228.04 197.086 228.614 197.8H229.804V189.876C229.804 188.028 228.74 186.852 226.472 186.852ZM234.579 195.168C236.245 195.168 237.337 194.258 237.337 192.69C237.337 191.486 236.665 190.73 235.069 190.506L234.453 190.422C233.543 190.296 232.983 189.904 232.983 189.134C232.983 188.364 233.543 187.86 234.481 187.86C235.405 187.86 236.091 188.378 236.427 188.868L237.267 188.14C236.609 187.328 235.769 186.852 234.565 186.852C233.095 186.852 231.877 187.622 231.877 189.19C231.877 190.674 232.969 191.206 234.299 191.402L234.915 191.486C235.895 191.626 236.231 192.214 236.231 192.83C236.231 193.656 235.601 194.16 234.649 194.16C233.683 194.16 232.997 193.74 232.367 192.9L231.541 193.6C232.255 194.538 233.165 195.168 234.579 195.168ZM238.651 188H239.589C240.387 187.314 240.863 186.278 240.863 185.522V185.326C240.863 184.836 240.597 184.5 240.009 184.5C239.421 184.5 239.155 184.836 239.155 185.326V185.522C239.155 185.9 239.323 186.18 239.701 186.264C239.547 186.922 239.211 187.412 238.651 188Z" fill="black" fill-opacity="0.5"/>
<path d="M16.63 103H21.45V101.91H18.03L19.52 100.67C20.48 99.88 21.27 99.14 21.27 97.98C21.27 96.77 20.43 95.9 18.97 95.9C17.55 95.9 16.81 96.71 16.51 97.63L17.63 98.06C17.79 97.49 18.14 97.02 18.86 97.02C19.45 97.02 19.91 97.37 19.91 97.98V98.12C19.91 98.73 19.56 99.23 18.82 99.87L16.63 101.8V103ZM25.4961 103H26.7161V101.65H27.6361V100.64H26.7161V96.02H25.1061L22.3261 100.55V101.65H25.4961V103ZM23.3861 100.64L25.4061 97.27H25.4961V100.64H23.3861ZM34.0655 103.12C35.2655 103.12 35.8955 102.35 35.8955 101.01V97.27H34.6255V100.73C34.6255 101.59 34.3255 102.01 33.6255 102.01C33.0055 102.01 32.4155 101.71 32.4155 101.06V97.27H31.1455V103H32.4155V102.09H32.4655C32.6655 102.64 33.1055 103.12 34.0655 103.12ZM31.635 96.53H35.885V95.58H31.635V96.53ZM38.1248 103.11C38.6648 103.11 38.9148 102.81 38.9148 102.39V102.21C38.9148 101.79 38.6648 101.48 38.1248 101.48C37.5848 101.48 37.3348 101.79 37.3348 102.21V102.39C37.3348 102.81 37.5848 103.11 38.1248 103.11ZM42.5335 103.12C44.1935 103.12 44.8835 102.31 44.8835 100.63V97.27H43.6135V100.78C43.6135 101.62 43.2735 102.04 42.5335 102.04C41.8035 102.04 41.4335 101.62 41.4335 100.86V100.38H42.5535V99.4H42.3735C41.7835 99.4 41.4535 98.95 41.4535 98.4V98.27H42.4635V97.27H41.4335C40.6635 97.27 40.2635 97.67 40.2635 98.26V98.3C40.2635 98.95 40.7835 99.33 41.4335 99.41V99.46H41.3335C40.6135 99.46 40.1535 100.08 40.1535 100.91V101.08C40.1535 102.37 41.0035 103.12 42.5335 103.12ZM47.0994 103.11C47.6394 103.11 47.8894 102.81 47.8894 102.39V102.21C47.8894 101.79 47.6394 101.48 47.0994 101.48C46.5594 101.48 46.3094 101.79 46.3094 102.21V102.39C46.3094 102.81 46.5594 103.11 47.0994 103.11ZM51.5714 103H56.3914V101.91H52.9714L54.4614 100.67C55.4214 99.88 56.2114 99.14 56.2114 97.98C56.2114 96.77 55.3714 95.9 53.9114 95.9C52.4914 95.9 51.7514 96.71 51.4514 97.63L52.5714 98.06C52.7314 97.49 53.0814 97.02 53.8014 97.02C54.3914 97.02 54.8514 97.37 54.8514 97.98V98.12C54.8514 98.73 54.5014 99.23 53.7614 99.87L51.5714 101.8V103ZM59.8875 103.12C61.5275 103.12 62.4575 102.1 62.4575 100.7C62.4575 99.32 61.5275 98.5 60.3275 98.5C59.4975 98.5 59.1475 98.9 58.8575 99.5H58.7775L58.9475 97.14H62.0775V96.02H57.9875L57.7275 99.93L58.7875 100.08C58.9975 99.83 59.3475 99.56 59.9175 99.56C60.6675 99.56 61.1075 100 61.1075 100.73V100.82C61.1075 101.58 60.6875 102.06 59.8975 102.06C59.1375 102.06 58.7575 101.64 58.4375 101.1L57.4975 101.83C57.9175 102.5 58.5975 103.12 59.8875 103.12ZM65.9636 103.12C67.4936 103.12 68.4836 102.13 68.4836 100.72C68.4836 99.4 67.6036 98.55 66.4336 98.55C65.5636 98.55 65.1236 99.04 64.8536 99.59L64.7736 99.56C65.0836 98.13 66.0436 97.2 67.6736 96.02H65.9336C64.7636 96.8 63.4336 98.38 63.4336 100.38C63.4336 102.05 64.3736 103.12 65.9636 103.12ZM65.9636 102.1C65.2136 102.1 64.7636 101.67 64.7636 100.9V100.75C64.7636 99.99 65.2136 99.56 65.9636 99.56C66.7036 99.56 67.1536 99.99 67.1536 100.75V100.9C67.1536 101.67 66.7036 102.1 65.9636 102.1ZM71.6497 103.12C73.1797 103.12 74.2097 102.3 74.2097 101.07C74.2097 100.08 73.5497 99.51 72.7497 99.36V99.31C73.4797 99.16 74.0797 98.61 74.0797 97.72C74.0797 96.6 73.1197 95.9 71.7297 95.9C70.5597 95.9 69.8997 96.41 69.4297 97.06L70.2597 97.81C70.5897 97.28 71.0797 96.96 71.6897 96.96C72.3297 96.96 72.7297 97.31 72.7297 97.89V97.96C72.7297 98.47 72.3497 98.85 71.5497 98.85H70.8597V99.92H71.5497C72.3897 99.92 72.8697 100.27 72.8697 100.93V100.99C72.8697 101.65 72.4297 102.06 71.6497 102.06C70.8597 102.06 70.4497 101.66 70.1297 101.1L69.1797 101.83C69.6197 102.5 70.2997 103.12 71.6497 103.12Z" fill="black" fill-opacity="0.5"/>
</svg>
