<svg width="300" height="139" viewBox="0 0 300 139" fill="none" xmlns="http://www.w3.org/2000/svg">
<path d="M55 16C57.7614 16 60 13.7614 60 11C60 8.23858 57.7614 6 55 6C52.2386 6 50 8.23858 50 11C50 13.7614 52.2386 16 55 16Z" fill="#C1B1F0"/>
<line opacity="0.2" x1="89" y1="11" x2="60" y2="11" stroke="black" stroke-width="2" stroke-dasharray="2 2"/>
<path d="M55 60C57.7614 60 60 57.7614 60 55C60 52.2386 57.7614 50 55 50C52.2386 50 50 52.2386 50 55C50 57.7614 52.2386 60 55 60Z" fill="#C1B1F0"/>
<path d="M54.5 87L60.2735 77L48.7265 77L54.5 87ZM53.5 60L53.5 78L55.5 78L55.5 60L53.5 60Z" fill="#0CC6C6"/>
<path d="M55 97C57.7614 97 60 94.7614 60 92C60 89.2386 57.7614 87 55 87C52.2386 87 50 89.2386 50 92C50 94.7614 52.2386 97 55 97Z" fill="#C1B1F0"/>
<path d="M54.5 124L60.2735 114L48.7265 114L54.5 124ZM53.5 97L53.5 115L55.5 115L55.5 97L53.5 97Z" fill="#0CC6C6"/>
<path d="M55 134C57.7614 134 60 131.761 60 129C60 126.239 57.7614 124 55 124C52.2386 124 50 126.239 50 129C50 131.761 52.2386 134 55 134Z" fill="#C1B1F0"/>
<path d="M106.144 7.852C104.296 7.852 102.952 8.874 102.952 10.694V11.38H104.702V11.436C103.974 11.604 103.246 12.206 103.246 13.522V16H104.394V13.214C104.394 11.996 104.884 11.45 105.92 11.408V10.568H104.086C104.212 9.364 104.954 8.86 106.144 8.86C107.474 8.86 108.23 9.616 108.23 10.946V16H109.378V10.876C109.378 9.028 108.3 7.852 106.144 7.852ZM103.674 6.9H109.232V5.976H103.674V6.9ZM113.975 7.852C112.617 7.852 111.665 8.342 111.063 9.266L111.805 9.98C112.239 9.266 112.953 8.86 113.961 8.86C115.417 8.86 116.229 9.728 116.229 11.254V12.598C116.229 14.208 115.515 14.992 114.507 14.992H114.325L113.695 12.584C113.443 11.632 113.163 11.352 112.449 11.352H111.553V12.332H112.505L113.499 16H114.507C116.355 16 117.433 14.656 117.433 11.898C117.433 9.28 116.397 7.852 113.975 7.852ZM122.332 7.852C120.484 7.852 119.14 8.874 119.14 10.694V11.38H120.89V11.436C120.162 11.604 119.434 12.206 119.434 13.522V16H120.582V13.214C120.582 11.996 121.072 11.45 122.108 11.408V10.568H120.274C120.4 9.364 121.142 8.86 122.332 8.86C123.662 8.86 124.418 9.616 124.418 10.946V16H125.566V10.876C125.566 9.028 124.488 7.852 122.332 7.852ZM130.345 16.168C132.011 16.168 133.103 15.258 133.103 13.69C133.103 12.486 132.431 11.73 130.835 11.506L130.219 11.422C129.309 11.296 128.749 10.904 128.749 10.134C128.749 9.364 129.309 8.86 130.247 8.86C131.171 8.86 131.857 9.378 132.193 9.868L133.033 9.14C132.375 8.328 131.535 7.852 130.331 7.852C128.861 7.852 127.643 8.622 127.643 10.19C127.643 11.674 128.735 12.206 130.065 12.402L130.681 12.486C131.661 12.626 131.997 13.214 131.997 13.83C131.997 14.656 131.367 15.16 130.415 15.16C129.449 15.16 128.763 14.74 128.133 13.9L127.307 14.6C128.021 15.538 128.931 16.168 130.345 16.168ZM137.427 16.168C139.093 16.168 140.185 15.258 140.185 13.69C140.185 12.486 139.513 11.73 137.917 11.506L137.301 11.422C136.391 11.296 135.831 10.904 135.831 10.134C135.831 9.364 136.391 8.86 137.329 8.86C138.253 8.86 138.939 9.378 139.275 9.868L140.115 9.14C139.457 8.328 138.617 7.852 137.413 7.852C135.943 7.852 134.725 8.622 134.725 10.19C134.725 11.674 135.817 12.206 137.147 12.402L137.763 12.486C138.743 12.626 139.079 13.214 139.079 13.83C139.079 14.656 138.449 15.16 137.497 15.16C136.531 15.16 135.845 14.74 135.215 13.9L134.389 14.6C135.103 15.538 136.013 16.168 137.427 16.168ZM145.531 16.168C147.155 16.168 148.205 15.062 148.205 13.144V8.02H147.057V12.976C147.057 14.404 146.413 15.146 145.223 15.146C144.243 15.146 143.277 14.656 143.277 13.606V8.02H142.129V16H143.249V14.684H143.305C143.613 15.44 144.215 16.168 145.531 16.168ZM151.753 16H153.153V15.02H151.711V8.02H150.563V14.81C150.563 15.51 150.983 16 151.753 16ZM155.463 16H156.863V15.02H155.421V8.02H154.273V14.81C154.273 15.51 154.693 16 155.463 16ZM160.514 7.852C159.156 7.852 158.204 8.342 157.602 9.266L158.344 9.98C158.778 9.266 159.492 8.86 160.5 8.86C161.956 8.86 162.768 9.728 162.768 11.254V12.598C162.768 14.208 162.054 14.992 161.046 14.992H160.864L160.234 12.584C159.982 11.632 159.702 11.352 158.988 11.352H158.092V12.332H159.044L160.038 16H161.046C162.894 16 163.972 14.656 163.972 11.898C163.972 9.28 162.936 7.852 160.514 7.852ZM168.871 7.852C167.023 7.852 165.679 8.874 165.679 10.694V11.38H167.429V11.436C166.701 11.604 165.973 12.206 165.973 13.522V16H167.121V13.214C167.121 11.996 167.611 11.45 168.647 11.408V10.568H166.813C166.939 9.364 167.681 8.86 168.871 8.86C170.201 8.86 170.957 9.616 170.957 10.946V16H172.105V10.876C172.105 9.028 171.027 7.852 168.871 7.852ZM174.406 16H175.554V14.054C175.554 12.878 176.366 12.584 177.108 12.584H178.13V11.436H177.472C176.408 11.436 175.862 12.094 175.61 12.808H175.554V10.946C175.554 9.602 176.324 8.86 177.584 8.86C178.844 8.86 179.614 9.602 179.614 10.946V16H180.762V10.876C180.762 9.028 179.67 7.852 177.584 7.852C175.498 7.852 174.406 9.028 174.406 10.876V16ZM179.811 19.738H180.763V18.086C180.763 17.4 180.385 17.022 179.713 17.022H179.027V17.862H179.797L179.811 19.738ZM186.056 7.852C184.208 7.852 182.864 8.874 182.864 10.694V11.38H184.614V11.436C183.886 11.604 183.158 12.206 183.158 13.522V16H184.306V13.214C184.306 11.996 184.796 11.45 185.832 11.408V10.568H183.998C184.124 9.364 184.866 8.86 186.056 8.86C187.386 8.86 188.142 9.616 188.142 10.946V16H189.29V10.876C189.29 9.028 188.212 7.852 186.056 7.852ZM194.587 7.852C192.739 7.852 191.395 8.874 191.395 10.694V11.38H193.145V11.436C192.417 11.604 191.689 12.206 191.689 13.522V16H192.837V13.214C192.837 11.996 193.327 11.45 194.363 11.408V10.568H192.529C192.655 9.364 193.397 8.86 194.587 8.86C195.917 8.86 196.673 9.616 196.673 10.946V16H197.821V10.876C197.821 9.028 196.743 7.852 194.587 7.852ZM192.188 6.9H196.584C197.354 6.9 197.746 6.522 197.746 5.766V4.786H196.682V5.976H192.188V6.9ZM196.022 4.24H198.374V3.4H196.834V3.12C196.834 2.434 196.54 2.168 195.756 2.168H195.21V3.022H196.022V4.24ZM104.506 37H105.906V36.02H104.464V29.02H103.316V35.81C103.316 36.51 103.736 37 104.506 37ZM107.361 37H108.509V31.428C108.509 30.378 109.503 29.888 110.511 29.888C111.687 29.888 112.331 30.63 112.331 32.058V37H113.479V31.876C113.479 29.958 112.429 28.852 110.819 28.852C109.475 28.852 108.859 29.58 108.537 30.336H108.481V29.02H107.361V37ZM107.846 27.9H112.242C113.012 27.9 113.404 27.522 113.404 26.766V25.786H112.34V26.976H107.846V27.9ZM118.664 37.168C120.638 37.168 121.688 36.062 121.688 34.144V29.02H120.54V33.976C120.54 35.418 119.896 36.16 118.664 36.16C117.432 36.16 116.788 35.474 116.788 34.34V33.066H118.692V32.058H118.328C117.208 32.058 116.858 31.218 116.858 30.28V30H118.51V29.02H117.236C116.228 29.02 115.738 29.51 115.738 30.364V30.434C115.738 31.372 116.48 31.848 117.194 32.016V32.058H117.068C116.144 32.058 115.64 32.744 115.64 33.906V34.354C115.64 36.118 116.69 37.168 118.664 37.168ZM126.713 37.168C128.029 37.168 128.631 36.44 128.939 35.684H128.995V37H130.115V29.02H128.967V34.606C128.967 35.656 128.001 36.146 127.021 36.146C125.831 36.146 125.187 35.404 125.187 33.976V29.02H124.039V34.144C124.039 36.062 125.089 37.168 126.713 37.168ZM135.259 37.168C137.541 37.168 138.591 35.824 138.591 33.01C138.591 30.28 137.513 28.852 135.217 28.852C133.859 28.852 132.893 29.342 132.263 30.266L133.033 30.952C133.495 30.266 134.181 29.86 135.189 29.86C136.589 29.86 137.387 30.728 137.387 32.254V33.794C137.387 35.376 136.673 36.16 135.259 36.16C133.803 36.16 133.187 35.474 133.187 33.794V33.374H134.643V32.394H133.523C132.599 32.394 132.067 32.856 132.067 33.808V33.92C132.067 35.978 133.229 37.168 135.259 37.168ZM137.161 27.9H139.961V26.976H136.643V26.08H135.579V26.486C135.579 27.48 136.041 27.9 137.161 27.9ZM143.147 37.168C144.463 37.168 145.065 36.44 145.373 35.684H145.429V37H146.549V29.02H145.401V34.606C145.401 35.656 144.435 36.146 143.455 36.146C142.265 36.146 141.621 35.404 141.621 33.976V29.02H140.473V34.144C140.473 36.062 141.523 37.168 143.147 37.168ZM150.307 37H151.707V36.02H150.265V29.02H149.117V35.81C149.117 36.51 149.537 37 150.307 37ZM153.162 37H154.31V32.744H156.62C157.544 32.744 157.936 33.206 157.936 34.27V37H159.112V34.074C159.112 32.87 158.566 32.086 157.6 31.82V31.764C158.356 31.484 159.056 30.938 159.056 29.944V29.02H157.908V30.308C157.908 30.91 157.614 31.722 156.438 31.722H154.31V29.02H153.162V37ZM164.877 37.168C166.501 37.168 167.551 36.062 167.551 34.144V29.02H166.403V33.976C166.403 35.404 165.759 36.146 164.569 36.146C163.589 36.146 162.623 35.656 162.623 34.606V29.02H161.475V37H162.595V35.684H162.651C162.959 36.44 163.561 37.168 164.877 37.168ZM161.998 27.9H167.556V26.976H161.998V27.9ZM172.582 37.168C173.898 37.168 174.5 36.44 174.808 35.684H174.864V37H175.984V29.02H174.836V34.606C174.836 35.656 173.87 36.146 172.89 36.146C171.7 36.146 171.056 35.404 171.056 33.976V29.02H169.908V34.144C169.908 36.062 170.958 37.168 172.582 37.168ZM181.777 37H188.203V35.964H185.683V27.228H183.849L181.259 29.65L181.945 30.392L184.409 28.096H184.507V35.964H181.777V37ZM191.403 37H192.915C194.483 35.978 196.401 33.71 196.401 30.812C196.401 28.488 195.155 27.06 193.125 27.06C191.165 27.06 189.877 28.376 189.877 30.294C189.877 32.142 191.081 33.304 192.761 33.304C193.951 33.304 194.651 32.702 195.113 31.904L195.183 31.932C194.651 34.2 193.489 35.474 191.403 37ZM193.139 32.31C191.851 32.31 191.095 31.568 191.095 30.252V30.14C191.095 28.824 191.851 28.082 193.139 28.082C194.427 28.082 195.183 28.824 195.183 30.14V30.252C195.183 31.568 194.427 32.31 193.139 32.31ZM201.534 37.168C203.76 37.168 204.922 35.95 204.922 34.34C204.922 33.01 204.124 32.24 202.948 31.918V31.806C203.97 31.456 204.628 30.63 204.628 29.51C204.628 28.026 203.48 27.06 201.534 27.06C199.588 27.06 198.44 28.026 198.44 29.51C198.44 30.63 199.098 31.456 200.12 31.806V31.918C198.944 32.24 198.146 33.01 198.146 34.34C198.146 35.95 199.308 37.168 201.534 37.168ZM201.534 31.372C200.316 31.372 199.658 30.826 199.658 29.832V29.622C199.658 28.628 200.316 28.082 201.534 28.082C202.752 28.082 203.41 28.628 203.41 29.622V29.832C203.41 30.826 202.752 31.372 201.534 31.372ZM201.534 36.146C200.176 36.146 199.392 35.502 199.392 34.396V34.102C199.392 32.996 200.176 32.352 201.534 32.352C202.892 32.352 203.676 32.996 203.676 34.102V34.396C203.676 35.502 202.892 36.146 201.534 36.146ZM208.193 37H209.705C211.273 35.978 213.191 33.71 213.191 30.812C213.191 28.488 211.945 27.06 209.915 27.06C207.955 27.06 206.667 28.376 206.667 30.294C206.667 32.142 207.871 33.304 209.551 33.304C210.741 33.304 211.441 32.702 211.903 31.904L211.973 31.932C211.441 34.2 210.279 35.474 208.193 37ZM209.929 32.31C208.641 32.31 207.885 31.568 207.885 30.252V30.14C207.885 28.824 208.641 28.082 209.929 28.082C211.217 28.082 211.973 28.824 211.973 30.14V30.252C211.973 31.568 211.217 32.31 209.929 32.31Z" fill="black" fill-opacity="0.5"/>
<path d="M104.72 56.12C106.25 56.12 107.28 55.3 107.28 54.07C107.28 53.08 106.62 52.51 105.82 52.36V52.31C106.55 52.16 107.15 51.61 107.15 50.72C107.15 49.6 106.19 48.9 104.8 48.9C103.63 48.9 102.97 49.41 102.5 50.06L103.33 50.81C103.66 50.28 104.15 49.96 104.76 49.96C105.4 49.96 105.8 50.31 105.8 50.89V50.96C105.8 51.47 105.42 51.85 104.62 51.85H103.93V52.92H104.62C105.46 52.92 105.94 53.27 105.94 53.93V53.99C105.94 54.65 105.5 55.06 104.72 55.06C103.93 55.06 103.52 54.66 103.2 54.1L102.25 54.83C102.69 55.5 103.37 56.12 104.72 56.12ZM114.069 56.12C115.269 56.12 115.899 55.35 115.899 54.01V50.27H114.629V53.73C114.629 54.59 114.329 55.01 113.629 55.01C113.009 55.01 112.419 54.71 112.419 54.06V50.27H111.149V56H112.419V55.09H112.469C112.669 55.64 113.109 56.12 114.069 56.12ZM111.639 49.53H115.889V48.58H111.639V49.53ZM118.129 56.11C118.669 56.11 118.919 55.81 118.919 55.39V55.21C118.919 54.79 118.669 54.48 118.129 54.48C117.589 54.48 117.339 54.79 117.339 55.21V55.39C117.339 55.81 117.589 56.11 118.129 56.11ZM122.537 56.12C124.197 56.12 124.887 55.31 124.887 53.63V50.27H123.617V53.78C123.617 54.62 123.277 55.04 122.537 55.04C121.807 55.04 121.437 54.62 121.437 53.86V53.38H122.557V52.4H122.377C121.787 52.4 121.457 51.95 121.457 51.4V51.27H122.467V50.27H121.437C120.667 50.27 120.267 50.67 120.267 51.26V51.3C120.267 51.95 120.787 52.33 121.437 52.41V52.46H121.337C120.617 52.46 120.157 53.08 120.157 53.91V54.08C120.157 55.37 121.007 56.12 122.537 56.12ZM127.103 56.11C127.643 56.11 127.893 55.81 127.893 55.39V55.21C127.893 54.79 127.643 54.48 127.103 54.48C126.563 54.48 126.313 54.79 126.313 55.21V55.39C126.313 55.81 126.563 56.11 127.103 56.11ZM131.575 56H136.395V54.91H132.975L134.465 53.67C135.425 52.88 136.215 52.14 136.215 50.98C136.215 49.77 135.375 48.9 133.915 48.9C132.495 48.9 131.755 49.71 131.455 50.63L132.575 51.06C132.735 50.49 133.085 50.02 133.805 50.02C134.395 50.02 134.855 50.37 134.855 50.98V51.12C134.855 51.73 134.505 52.23 133.765 52.87L131.575 54.8V56ZM139.891 56.12C141.531 56.12 142.461 55.1 142.461 53.7C142.461 52.32 141.531 51.5 140.331 51.5C139.501 51.5 139.151 51.9 138.861 52.5H138.781L138.951 50.14H142.081V49.02H137.991L137.731 52.93L138.791 53.08C139.001 52.83 139.351 52.56 139.921 52.56C140.671 52.56 141.111 53 141.111 53.73V53.82C141.111 54.58 140.691 55.06 139.901 55.06C139.141 55.06 138.761 54.64 138.441 54.1L137.501 54.83C137.921 55.5 138.601 56.12 139.891 56.12ZM145.968 56.12C147.498 56.12 148.488 55.13 148.488 53.72C148.488 52.4 147.608 51.55 146.438 51.55C145.568 51.55 145.128 52.04 144.858 52.59L144.778 52.56C145.088 51.13 146.048 50.2 147.678 49.02H145.938C144.768 49.8 143.438 51.38 143.438 53.38C143.438 55.05 144.378 56.12 145.968 56.12ZM145.968 55.1C145.218 55.1 144.768 54.67 144.768 53.9V53.75C144.768 52.99 145.218 52.56 145.968 52.56C146.708 52.56 147.158 52.99 147.158 53.75V53.9C147.158 54.67 146.708 55.1 145.968 55.1ZM151.654 56.12C153.184 56.12 154.214 55.3 154.214 54.07C154.214 53.08 153.554 52.51 152.754 52.36V52.31C153.484 52.16 154.084 51.61 154.084 50.72C154.084 49.6 153.124 48.9 151.734 48.9C150.564 48.9 149.904 49.41 149.434 50.06L150.264 50.81C150.594 50.28 151.084 49.96 151.694 49.96C152.334 49.96 152.734 50.31 152.734 50.89V50.96C152.734 51.47 152.354 51.85 151.554 51.85H150.864V52.92H151.554C152.394 52.92 152.874 53.27 152.874 53.93V53.99C152.874 54.65 152.434 55.06 151.654 55.06C150.864 55.06 150.454 54.66 150.134 54.1L149.184 54.83C149.624 55.5 150.304 56.12 151.654 56.12Z" fill="black" fill-opacity="0.5"/>
<path opacity="0.2" d="M68 50C71.0732 49.9998 74.6585 50.2 74.6585 52.8C74.6585 58.08 74.6585 69.6666 74.6585 85.6C74.6585 88.2 75.478 91.2 89 91.2C83.878 91.2 74.6585 91.3199 74.6585 95.7999C74.6585 100.28 74.6585 127.4 74.6585 128.4C74.6585 129.533 73.6341 131 69.5366 131" stroke="black" stroke-width="2" stroke-dasharray="2 2"/>
<path d="M106.144 86.852C104.296 86.852 102.952 87.874 102.952 89.694V90.38H104.702V90.436C103.974 90.604 103.246 91.206 103.246 92.522V95H104.394V92.214C104.394 90.996 104.884 90.45 105.92 90.408V89.568H104.086C104.212 88.364 104.954 87.86 106.144 87.86C107.474 87.86 108.23 88.616 108.23 89.946V95H109.378V89.876C109.378 88.028 108.3 86.852 106.144 86.852ZM103.674 85.9H109.232V84.976H103.674V85.9ZM113.975 86.852C112.617 86.852 111.665 87.342 111.063 88.266L111.805 88.98C112.239 88.266 112.953 87.86 113.961 87.86C115.417 87.86 116.229 88.728 116.229 90.254V91.598C116.229 93.208 115.515 93.992 114.507 93.992H114.325L113.695 91.584C113.443 90.632 113.163 90.352 112.449 90.352H111.553V91.332H112.505L113.499 95H114.507C116.355 95 117.433 93.656 117.433 90.898C117.433 88.28 116.397 86.852 113.975 86.852ZM122.332 86.852C120.484 86.852 119.14 87.874 119.14 89.694V90.38H120.89V90.436C120.162 90.604 119.434 91.206 119.434 92.522V95H120.582V92.214C120.582 90.996 121.072 90.45 122.108 90.408V89.568H120.274C120.4 88.364 121.142 87.86 122.332 87.86C123.662 87.86 124.418 88.616 124.418 89.946V95H125.566V89.876C125.566 88.028 124.488 86.852 122.332 86.852ZM130.345 95.168C132.011 95.168 133.103 94.258 133.103 92.69C133.103 91.486 132.431 90.73 130.835 90.506L130.219 90.422C129.309 90.296 128.749 89.904 128.749 89.134C128.749 88.364 129.309 87.86 130.247 87.86C131.171 87.86 131.857 88.378 132.193 88.868L133.033 88.14C132.375 87.328 131.535 86.852 130.331 86.852C128.861 86.852 127.643 87.622 127.643 89.19C127.643 90.674 128.735 91.206 130.065 91.402L130.681 91.486C131.661 91.626 131.997 92.214 131.997 92.83C131.997 93.656 131.367 94.16 130.415 94.16C129.449 94.16 128.763 93.74 128.133 92.9L127.307 93.6C128.021 94.538 128.931 95.168 130.345 95.168ZM137.427 95.168C139.093 95.168 140.185 94.258 140.185 92.69C140.185 91.486 139.513 90.73 137.917 90.506L137.301 90.422C136.391 90.296 135.831 89.904 135.831 89.134C135.831 88.364 136.391 87.86 137.329 87.86C138.253 87.86 138.939 88.378 139.275 88.868L140.115 88.14C139.457 87.328 138.617 86.852 137.413 86.852C135.943 86.852 134.725 87.622 134.725 89.19C134.725 90.674 135.817 91.206 137.147 91.402L137.763 91.486C138.743 91.626 139.079 92.214 139.079 92.83C139.079 93.656 138.449 94.16 137.497 94.16C136.531 94.16 135.845 93.74 135.215 92.9L134.389 93.6C135.103 94.538 136.013 95.168 137.427 95.168ZM145.531 95.168C147.155 95.168 148.205 94.062 148.205 92.144V87.02H147.057V91.976C147.057 93.404 146.413 94.146 145.223 94.146C144.243 94.146 143.277 93.656 143.277 92.606V87.02H142.129V95H143.249V93.684H143.305C143.613 94.44 144.215 95.168 145.531 95.168ZM151.753 95H153.153V94.02H151.711V87.02H150.563V93.81C150.563 94.51 150.983 95 151.753 95ZM155.463 95H156.863V94.02H155.421V87.02H154.273V93.81C154.273 94.51 154.693 95 155.463 95ZM160.878 86.852C159.436 86.852 158.47 87.482 157.896 88.406L158.638 89.12C159.072 88.406 159.786 87.86 160.794 87.86C162.138 87.86 162.782 88.462 162.782 89.876V90.296H161.074C158.82 90.296 157.742 91.094 157.742 92.69C157.742 94.23 158.764 95 160.374 95H161.2V93.978H160.514C159.506 93.978 158.946 93.614 158.946 92.802V92.438C158.946 91.738 159.576 91.318 160.836 91.318H162.782V95H163.93V89.708C163.93 87.888 162.866 86.852 160.878 86.852ZM167.084 90.114L169.548 90.1V89.064L166.986 89.078V87.79L165.894 87.804V88.924C165.894 89.68 166.384 90.114 167.084 90.114ZM167.084 94.174L169.548 94.16V93.124L166.986 93.138V91.85L165.894 91.864V92.984C165.894 93.74 166.384 94.174 167.084 94.174ZM173.923 95.168C175.687 95.168 176.765 94.16 176.765 92.424V91.388C176.765 90.226 176.247 89.442 175.337 89.162V89.106C176.093 88.798 176.793 88.252 176.793 87.258V87.02H175.617V87.622C175.617 88.518 175.085 89.036 174.147 89.036H174.035V89.918H174.273C175.197 89.918 175.589 90.38 175.589 91.444V92.256C175.589 93.516 174.945 94.16 173.923 94.16C172.887 94.16 172.243 93.642 172.243 92.34C172.243 90.296 173.503 90.324 173.503 88.56V88.392C173.503 87.552 173.125 87.02 171.865 87.02H170.983V88H172.383V88.686C172.383 90.198 171.067 89.918 171.067 92.382C171.067 94.104 172.145 95.168 173.923 95.168ZM175.669 98.738H176.621V97.086C176.621 96.4 176.243 96.022 175.571 96.022H174.885V96.862H175.655L175.669 98.738ZM182.39 95.168C184.014 95.168 185.064 94.062 185.064 92.144V87.02H183.916V91.976C183.916 93.404 183.272 94.146 182.082 94.146C181.102 94.146 180.136 93.656 180.136 92.606V87.02H178.988V95H180.108V93.684H180.164C180.472 94.44 181.074 95.168 182.39 95.168ZM190.096 95.168C191.412 95.168 192.014 94.44 192.322 93.684H192.378V95H193.498V87.02H192.35V92.606C192.35 93.656 191.384 94.146 190.404 94.146C189.214 94.146 188.57 93.404 188.57 91.976V87.02H187.422V92.144C187.422 94.062 188.472 95.168 190.096 95.168ZM192.54 98.738H193.492V97.086C193.492 96.4 193.114 96.022 192.442 96.022H191.756V96.862H192.526L192.54 98.738ZM199.398 95.168C201.022 95.168 202.072 94.062 202.072 92.144V87.02H200.924V91.976C200.924 93.404 200.28 94.146 199.09 94.146C198.11 94.146 197.144 93.656 197.144 92.606V87.02H195.996V95H197.116V93.684H197.172C197.48 94.44 198.082 95.168 199.398 95.168ZM206.012 95H207.412V94.02H205.97V87.552C205.97 85.27 205.466 83.884 204.094 83.352V83.296H208V82.344H202.904V83.324C204.066 83.366 204.822 84.654 204.822 86.67V93.81C204.822 94.51 205.242 95 206.012 95ZM211.423 95H212.123V93.978H211.493C210.331 93.978 209.631 93.376 209.631 91.85V90.352C209.631 88.756 210.415 87.86 211.703 87.86C212.963 87.86 213.635 88.644 213.635 90.03V95H214.783V89.876C214.783 87.958 213.719 86.852 211.731 86.852C209.575 86.852 208.427 88.238 208.427 91.052C208.427 93.964 209.365 95 211.423 95ZM219.959 95.168C221.933 95.168 222.983 94.062 222.983 92.144V87.02H221.835V91.976C221.835 93.418 221.191 94.16 219.959 94.16C218.727 94.16 218.083 93.474 218.083 92.34V91.066H219.987V90.058H219.623C218.503 90.058 218.153 89.218 218.153 88.28V88H219.805V87.02H218.531C217.523 87.02 217.033 87.51 217.033 88.364V88.434C217.033 89.372 217.775 89.848 218.489 90.016V90.058H218.363C217.439 90.058 216.935 90.744 216.935 91.906V92.354C216.935 94.118 217.985 95.168 219.959 95.168ZM228.302 86.852C226.454 86.852 225.11 87.874 225.11 89.694V90.38H226.86V90.436C226.132 90.604 225.404 91.206 225.404 92.522V95H226.552V92.214C226.552 90.996 227.042 90.45 228.078 90.408V89.568H226.244C226.37 88.364 227.112 87.86 228.302 87.86C229.632 87.86 230.388 88.616 230.388 89.946V95H231.536V89.876C231.536 88.028 230.458 86.852 228.302 86.852ZM236.497 86.852C235.055 86.852 234.089 87.482 233.515 88.406L234.257 89.12C234.691 88.406 235.405 87.86 236.413 87.86C237.757 87.86 238.401 88.462 238.401 89.876V90.296H236.693C234.439 90.296 233.361 91.094 233.361 92.69C233.361 94.23 234.383 95 235.993 95H236.819V93.978H236.133C235.125 93.978 234.565 93.614 234.565 92.802V92.438C234.565 91.738 235.195 91.318 236.455 91.318H238.401V95H239.549V89.708C239.549 87.888 238.485 86.852 236.497 86.852ZM238.601 98.738H239.553V97.086C239.553 96.4 239.175 96.022 238.503 96.022H237.817V96.862H238.587L238.601 98.738ZM238.31 85.9H239.402V83.576H238.31V85.9ZM245.349 95.168C246.973 95.168 248.023 94.062 248.023 92.144V87.02H246.875V91.976C246.875 93.404 246.231 94.146 245.041 94.146C244.061 94.146 243.095 93.656 243.095 92.606V87.02H241.947V95H243.067V93.684H243.123C243.431 94.44 244.033 95.168 245.349 95.168ZM102.322 116H103.512L104.492 113.116H108.44L109.42 116H110.652L107.236 106.228H105.738L102.322 116ZM104.772 112.08L106.424 107.32H106.494L108.146 112.08H104.772ZM112.159 116H113.279V110.988C113.279 110.064 114.147 109.616 115.043 109.616C116.121 109.616 116.681 110.274 116.681 111.562V116H117.801V111.366C117.801 109.616 116.863 108.608 115.379 108.608C114.301 108.608 113.685 109.14 113.335 109.952H113.279V108.776H112.159V116ZM121.712 116H123.112V115.02H121.642V109.756H123.224V108.776H121.642V106.774H120.634V108.118C120.634 108.608 120.48 108.776 120.004 108.776H119.332V109.756H120.522V114.81C120.522 115.51 120.942 116 121.712 116ZM125.584 107.082C126.06 107.082 126.27 106.83 126.27 106.452V106.27C126.27 105.892 126.06 105.64 125.584 105.64C125.108 105.64 124.898 105.892 124.898 106.27V106.452C124.898 106.83 125.108 107.082 125.584 107.082ZM125.024 116H126.144V108.776H125.024V116ZM135.599 116.168C138.119 116.168 139.743 114.39 139.743 111.114C139.743 107.838 138.119 106.06 135.599 106.06C133.079 106.06 131.455 107.838 131.455 111.114C131.455 114.39 133.079 116.168 135.599 116.168ZM135.599 115.118C133.905 115.118 132.715 113.858 132.715 111.926V110.302C132.715 108.37 133.905 107.11 135.599 107.11C137.293 107.11 138.483 108.37 138.483 110.302V111.926C138.483 113.858 137.293 115.118 135.599 115.118ZM141.745 116H142.865V110.988C142.865 110.064 143.733 109.616 144.629 109.616C145.707 109.616 146.267 110.274 146.267 111.562V116H147.387V111.366C147.387 109.616 146.449 108.608 144.965 108.608C143.887 108.608 143.271 109.14 142.921 109.952H142.865V108.776H141.745V116ZM152.418 116.168C153.776 116.168 154.812 115.496 155.274 114.516L154.476 113.942C154.098 114.74 153.398 115.188 152.488 115.188C151.144 115.188 150.346 114.25 150.346 113.004V112.668H155.54V112.136C155.54 110.092 154.35 108.608 152.418 108.608C150.458 108.608 149.17 110.092 149.17 112.388C149.17 114.684 150.458 116.168 152.418 116.168ZM150.346 111.828V111.73C150.346 110.47 151.2 109.546 152.418 109.546C153.566 109.546 154.336 110.4 154.336 111.674V111.828H150.346ZM164.25 116.168C165.874 116.168 167.064 115.314 167.68 113.942L166.742 113.354C166.35 114.418 165.496 115.118 164.25 115.118C162.57 115.118 161.576 113.9 161.576 111.898V110.442C161.576 108.44 162.57 107.11 164.25 107.11C165.454 107.11 166.266 107.768 166.658 108.776L167.61 108.202C166.994 106.844 165.874 106.06 164.25 106.06C161.786 106.06 160.316 107.908 160.316 111.17C160.316 114.432 161.786 116.168 164.25 116.168ZM169.389 116H170.509V110.988C170.509 110.064 171.377 109.616 172.273 109.616C173.351 109.616 173.911 110.274 173.911 111.562V116H175.031V111.366C175.031 109.616 174.093 108.608 172.609 108.608C171.531 108.608 170.915 109.14 170.565 109.952H170.509V105.64H169.389V116ZM177.906 107.082C178.382 107.082 178.592 106.83 178.592 106.452V106.27C178.592 105.892 178.382 105.64 177.906 105.64C177.43 105.64 177.22 105.892 177.22 106.27V106.452C177.22 106.83 177.43 107.082 177.906 107.082ZM177.346 116H178.466V108.776H177.346V116ZM180.846 116H181.966V110.988C181.966 110.064 182.834 109.616 183.73 109.616C184.808 109.616 185.368 110.274 185.368 111.562V116H186.488V111.366C186.488 109.616 185.55 108.608 184.066 108.608C182.988 108.608 182.372 109.14 182.022 109.952H181.966V108.776H180.846V116ZM190.651 116.168C191.659 116.168 192.429 115.706 192.737 114.824H192.807L192.821 114.908C192.919 115.538 193.241 116 194.053 116H194.683V115.02H193.857V111.044C193.857 109.518 192.821 108.608 191.085 108.608C189.783 108.608 188.915 109.252 188.523 110.022L189.195 110.652C189.587 109.994 190.161 109.574 191.029 109.574C192.177 109.574 192.737 110.134 192.737 111.156V111.87H191.309C189.209 111.87 188.229 112.626 188.229 113.984C188.229 115.328 189.125 116.168 190.651 116.168ZM190.833 115.216C189.965 115.216 189.405 114.81 189.405 114.096V113.802C189.405 113.102 189.979 112.71 191.253 112.71H192.737V113.9C192.737 114.642 191.939 115.216 190.833 115.216ZM201.816 116H202.992V107.264H206.1V106.228H198.708V107.264H201.816V116ZM207.714 116H208.89V111.576H213.832V116H215.008V106.228H213.832V110.54H208.89V106.228H207.714V116Z" fill="black" fill-opacity="0.5"/>
<path d="M102.92 135H107.69V133.95H106.1V128.02H104.13L102.4 130.06L103.21 130.74L104.74 128.95H104.82V133.95H102.92V135ZM113.039 135H113.619V133.93H113.219C112.409 133.93 112.129 133.59 112.129 132.57V131.59C112.129 130.79 112.369 130.3 112.809 130.3L113.429 131.02H113.449L114.079 130.3C114.439 130.33 114.559 130.56 114.559 131.24V135H115.839V130.99C115.839 129.72 115.079 129.15 114.079 129.15L113.449 129.93H113.429L112.799 129.15C111.539 129.15 110.839 130.05 110.839 132.05C110.839 134.19 111.439 135 113.039 135ZM118.051 135.11C118.591 135.11 118.841 134.81 118.841 134.39V134.21C118.841 133.79 118.591 133.48 118.051 133.48C117.511 133.48 117.261 133.79 117.261 134.21V134.39C117.261 134.81 117.511 135.11 118.051 135.11ZM120.239 135H121.519V133.62C121.519 132.99 121.949 132.74 122.609 132.74H123.119V131.63H122.769C122.089 131.63 121.709 132 121.559 132.6H121.519V131.47C121.519 130.66 121.929 130.23 122.689 130.23C123.439 130.23 123.859 130.66 123.859 131.47V135H125.129V131.52C125.129 130.03 124.279 129.15 122.689 129.15C121.089 129.15 120.239 130.03 120.239 131.52V135ZM127.328 135.11C127.868 135.11 128.118 134.81 128.118 134.39V134.21C128.118 133.79 127.868 133.48 127.328 133.48C126.788 133.48 126.538 133.79 126.538 134.21V134.39C126.538 134.81 126.788 135.11 127.328 135.11ZM131.75 132.58H134.6V131.33H131.75V132.58ZM138.187 135H143.007V133.91H139.587L141.077 132.67C142.037 131.88 142.827 131.14 142.827 129.98C142.827 128.77 141.987 127.9 140.527 127.9C139.107 127.9 138.367 128.71 138.067 129.63L139.187 130.06C139.347 129.49 139.697 129.02 140.417 129.02C141.007 129.02 141.467 129.37 141.467 129.98V130.12C141.467 130.73 141.117 131.23 140.377 131.87L138.187 133.8V135ZM147.053 135H148.273V133.65H149.193V132.64H148.273V128.02H146.663L143.883 132.55V133.65H147.053V135ZM144.943 132.64L146.963 129.27H147.053V132.64H144.943ZM153.212 135H154.672L155.592 130.72H155.622L156.542 135H157.992L158.802 129.27H157.592L157.182 133.74H157.152L156.202 129.27H155.012L154.052 133.74H154.032L153.622 129.27H152.412L153.212 135ZM160.795 135.11C161.335 135.11 161.585 134.81 161.585 134.39V134.21C161.585 133.79 161.335 133.48 160.795 133.48C160.255 133.48 160.005 133.79 160.005 134.21V134.39C160.005 134.81 160.255 135.11 160.795 135.11ZM165.203 135.12C166.863 135.12 167.553 134.31 167.553 132.63V129.27H166.283V132.78C166.283 133.62 165.943 134.04 165.203 134.04C164.473 134.04 164.103 133.62 164.103 132.86V132.38H165.223V131.4H165.043C164.453 131.4 164.123 130.95 164.123 130.4V130.27H165.133V129.27H164.103C163.333 129.27 162.933 129.67 162.933 130.26V130.3C162.933 130.95 163.453 131.33 164.103 131.41V131.46H164.003C163.283 131.46 162.823 132.08 162.823 132.91V133.08C162.823 134.37 163.673 135.12 165.203 135.12ZM169.769 135.11C170.309 135.11 170.559 134.81 170.559 134.39V134.21C170.559 133.79 170.309 133.48 169.769 133.48C169.229 133.48 168.979 133.79 168.979 134.21V134.39C168.979 134.81 169.229 135.11 169.769 135.11ZM174.241 135H179.061V133.91H175.641L177.131 132.67C178.091 131.88 178.881 131.14 178.881 129.98C178.881 128.77 178.041 127.9 176.581 127.9C175.161 127.9 174.421 128.71 174.121 129.63L175.241 130.06C175.401 129.49 175.751 129.02 176.471 129.02C177.061 129.02 177.521 129.37 177.521 129.98V130.12C177.521 130.73 177.171 131.23 176.431 131.87L174.241 133.8V135ZM182.557 135.12C184.197 135.12 185.127 134.1 185.127 132.7C185.127 131.32 184.197 130.5 182.997 130.5C182.167 130.5 181.817 130.9 181.527 131.5H181.447L181.617 129.14H184.747V128.02H180.657L180.397 131.93L181.457 132.08C181.667 131.83 182.017 131.56 182.587 131.56C183.337 131.56 183.777 132 183.777 132.73V132.82C183.777 133.58 183.357 134.06 182.567 134.06C181.807 134.06 181.427 133.64 181.107 133.1L180.167 133.83C180.587 134.5 181.267 135.12 182.557 135.12ZM188.634 135.12C190.164 135.12 191.154 134.13 191.154 132.72C191.154 131.4 190.274 130.55 189.104 130.55C188.234 130.55 187.794 131.04 187.524 131.59L187.444 131.56C187.754 130.13 188.714 129.2 190.344 128.02H188.604C187.434 128.8 186.104 130.38 186.104 132.38C186.104 134.05 187.044 135.12 188.634 135.12ZM188.634 134.1C187.884 134.1 187.434 133.67 187.434 132.9V132.75C187.434 131.99 187.884 131.56 188.634 131.56C189.374 131.56 189.824 131.99 189.824 132.75V132.9C189.824 133.67 189.374 134.1 188.634 134.1ZM194.32 135.12C195.85 135.12 196.88 134.3 196.88 133.07C196.88 132.08 196.22 131.51 195.42 131.36V131.31C196.15 131.16 196.75 130.61 196.75 129.72C196.75 128.6 195.79 127.9 194.4 127.9C193.23 127.9 192.57 128.41 192.1 129.06L192.93 129.81C193.26 129.28 193.75 128.96 194.36 128.96C195 128.96 195.4 129.31 195.4 129.89V129.96C195.4 130.47 195.02 130.85 194.22 130.85H193.53V131.92H194.22C195.06 131.92 195.54 132.27 195.54 132.93V132.99C195.54 133.65 195.1 134.06 194.32 134.06C193.53 134.06 193.12 133.66 192.8 133.1L191.85 133.83C192.29 134.5 192.97 135.12 194.32 135.12Z" fill="black" fill-opacity="0.5"/>
</svg>
