<svg width="205" height="182" viewBox="0 0 205 182" fill="none" xmlns="http://www.w3.org/2000/svg">
<path d="M10 68C12.7614 68 15 65.7614 15 63C15 60.2386 12.7614 58 10 58C7.23858 58 5 60.2386 5 63C5 65.7614 7.23858 68 10 68Z" fill="#FF7A00"/>
<path d="M5 27C7.76142 27 10 24.7614 10 22C10 19.2386 7.76142 17 5 17C2.23858 17 0 19.2386 0 22C0 24.7614 2.23858 27 5 27Z" fill="#FF7A00"/>
<path d="M26 37C28.7614 37 31 34.7614 31 32C31 29.2386 28.7614 27 26 27C23.2386 27 21 29.2386 21 32C21 34.7614 23.2386 37 26 37Z" fill="white"/>
<path d="M26 115C28.7614 115 31 112.761 31 110C31 107.239 28.7614 105 26 105C23.2386 105 21 107.239 21 110C21 112.761 23.2386 115 26 115Z" fill="#FF7A00"/>
<line opacity="0.2" x1="45" y1="32" x2="31" y2="32" stroke="black" stroke-width="2" stroke-dasharray="2 2"/>
<line opacity="0.2" x1="45" y1="111" x2="31" y2="111" stroke="black" stroke-width="2" stroke-dasharray="2 2"/>
<path d="M51.758 16H53.158V15.02H51.716V8.552C51.716 6.27 51.212 4.884 49.84 4.352V4.296H53.746V3.344H48.65V4.324C49.812 4.366 50.568 5.654 50.568 7.67V14.81C50.568 15.51 50.988 16 51.758 16ZM56.8327 7.852C55.4747 7.852 54.5227 8.342 53.9207 9.266L54.6627 9.98C55.0967 9.266 55.8107 8.86 56.8187 8.86C58.2747 8.86 59.0867 9.728 59.0867 11.254V12.598C59.0867 14.208 58.3727 14.992 57.3647 14.992H57.1827L56.5527 12.584C56.3007 11.632 56.0207 11.352 55.3067 11.352H54.4107V12.332H55.3627L56.3567 16H57.3647C59.2127 16 60.2907 14.656 60.2907 11.898C60.2907 9.28 59.2547 7.852 56.8327 7.852ZM64.9089 16.168C66.6729 16.168 67.7509 15.16 67.7509 13.424V12.388C67.7509 11.226 67.2329 10.442 66.3229 10.162V10.106C67.0789 9.798 67.7789 9.252 67.7789 8.258V8.02H66.6029V8.622C66.6029 9.518 66.0709 10.036 65.1329 10.036H65.0209V10.918H65.2589C66.1829 10.918 66.5749 11.38 66.5749 12.444V13.256C66.5749 14.516 65.9309 15.16 64.9089 15.16C63.8729 15.16 63.2289 14.642 63.2289 13.34C63.2289 11.296 64.4889 11.324 64.4889 9.56V9.392C64.4889 8.552 64.1109 8.02 62.8509 8.02H61.9689V9H63.3689V9.686C63.3689 11.198 62.0529 10.918 62.0529 13.382C62.0529 15.104 63.1309 16.168 64.9089 16.168ZM66.4969 6.9H69.2969V5.976H65.9789V5.08H64.9149V5.486C64.9149 6.48 65.3769 6.9 66.4969 6.9ZM72.0465 16.168C74.1885 16.168 75.2105 14.74 75.2105 12.01C75.2105 9.28 74.1885 7.852 72.0465 7.852C70.6045 7.852 69.6805 8.552 69.2325 9.546L70.2405 10.022C70.5345 9.294 71.1925 8.86 72.0465 8.86C73.2085 8.86 74.0065 9.728 74.0065 11.254V12.766C74.0065 14.292 73.2085 15.16 72.0465 15.16C71.1925 15.16 70.5345 14.726 70.2405 13.998L69.2325 14.474C69.6805 15.468 70.6045 16.168 72.0465 16.168ZM80.4608 16H81.6088V11.744H83.9188C84.8428 11.744 85.2348 12.206 85.2348 13.27V16H86.4108V13.074C86.4108 11.87 85.8648 11.086 84.8988 10.82V10.764C85.6548 10.484 86.3548 9.938 86.3548 8.944V8.02H85.2068V9.308C85.2068 9.91 84.9128 10.722 83.7368 10.722H81.6088V8.02H80.4608V16ZM90.8453 16.168C92.9873 16.168 94.0093 14.74 94.0093 12.01C94.0093 9.28 92.9873 7.852 90.8453 7.852C89.4033 7.852 88.4793 8.552 88.0313 9.546L89.0393 10.022C89.3333 9.294 89.9913 8.86 90.8453 8.86C92.0073 8.86 92.8053 9.728 92.8053 11.254V12.766C92.8053 14.292 92.0073 15.16 90.8453 15.16C89.9913 15.16 89.3333 14.726 89.0393 13.998L88.0313 14.474C88.4793 15.468 89.4033 16.168 90.8453 16.168ZM92.7649 6.9H93.8569V4.576H92.7649V6.9ZM98.5971 16.168C100.879 16.168 101.929 14.824 101.929 12.01C101.929 9.28 100.851 7.852 98.5551 7.852C97.1971 7.852 96.2311 8.342 95.6011 9.266L96.3711 9.952C96.8331 9.266 97.5191 8.86 98.5271 8.86C99.9271 8.86 100.725 9.728 100.725 11.254V12.794C100.725 14.376 100.011 15.16 98.5971 15.16C97.1411 15.16 96.5251 14.474 96.5251 12.794V12.374H97.9811V11.394H96.8611C95.9371 11.394 95.4051 11.856 95.4051 12.808V12.92C95.4051 14.978 96.5671 16.168 98.5971 16.168ZM105.575 16H106.457C108.263 16 109.173 15.174 109.173 12.5V9.98C109.173 8.72 108.655 8.02 107.577 8.02H106.541V9H108.025V12.99C108.025 14.502 107.563 14.992 106.527 14.992H106.401L104.147 8.02H102.985L105.575 16ZM117.327 16.168C119.091 16.168 120.169 15.16 120.169 13.424V12.388C120.169 11.226 119.651 10.442 118.741 10.162V10.106C119.497 9.798 120.197 9.252 120.197 8.258V8.02H119.021V8.622C119.021 9.518 118.489 10.036 117.551 10.036H117.439V10.918H117.677C118.601 10.918 118.993 11.38 118.993 12.444V13.256C118.993 14.516 118.349 15.16 117.327 15.16C116.291 15.16 115.647 14.642 115.647 13.34C115.647 11.296 116.907 11.324 116.907 9.56V9.392C116.907 8.552 116.529 8.02 115.269 8.02H114.387V9H115.787V9.686C115.787 11.198 114.471 10.918 114.471 13.382C114.471 15.104 115.549 16.168 117.327 16.168ZM119.073 19.738H120.025V18.086C120.025 17.4 119.647 17.022 118.975 17.022H118.289V17.862H119.059L119.073 19.738ZM125.794 16.168C127.418 16.168 128.468 15.062 128.468 13.144V8.02H127.32V12.976C127.32 14.404 126.676 15.146 125.486 15.146C124.506 15.146 123.54 14.656 123.54 13.606V8.02H122.392V16H123.512V14.684H123.568C123.876 15.44 124.478 16.168 125.794 16.168ZM133.5 16.168C134.816 16.168 135.418 15.44 135.726 14.684H135.782V16H136.902V8.02H135.754V13.606C135.754 14.656 134.788 15.146 133.808 15.146C132.618 15.146 131.974 14.404 131.974 12.976V8.02H130.826V13.144C130.826 15.062 131.876 16.168 133.5 16.168ZM135.944 19.738H136.896V18.086C136.896 17.4 136.518 17.022 135.846 17.022H135.16V17.862H135.93L135.944 19.738ZM142.802 16.168C144.426 16.168 145.476 15.062 145.476 13.144V8.02H144.328V12.976C144.328 14.404 143.684 15.146 142.494 15.146C141.514 15.146 140.548 14.656 140.548 13.606V8.02H139.4V16H140.52V14.684H140.576C140.884 15.44 141.486 16.168 142.802 16.168ZM50.246 37H51.394V32.744H53.704C54.628 32.744 55.02 33.206 55.02 34.27V37H56.196V34.074C56.196 32.87 55.65 32.086 54.684 31.82V31.764C55.44 31.484 56.14 30.938 56.14 29.944V29.02H54.992V30.308C54.992 30.91 54.698 31.722 53.522 31.722H51.394V29.02H50.246V37ZM61.1625 37.168C62.4785 37.168 63.0805 36.44 63.3885 35.684H63.4445V37H64.5645V29.02H63.4165V34.606C63.4165 35.656 62.4505 36.146 61.4705 36.146C60.2805 36.146 59.6365 35.404 59.6365 33.976V29.02H58.4885V34.144C58.4885 36.062 59.5385 37.168 61.1625 37.168ZM61.8844 27.9H65.1464V26.976H62.8084V26.85C62.8084 26.052 62.5144 25.786 61.7304 25.786H60.9044V26.71H61.8844V27.9ZM70.0584 37H71.2064V31.288C71.2064 29.734 70.2684 28.852 68.6304 28.852C67.4264 28.852 66.4744 29.37 65.9844 30.266L66.7544 30.966C67.2024 30.294 67.7484 29.86 68.6024 29.86C69.5684 29.86 70.0584 30.322 70.0584 31.414V37ZM80.1629 29.51V28.53H78.8749C78.3849 28.53 78.0629 28.796 78.0629 29.202V29.3C77.6009 28.992 76.9849 28.852 76.2709 28.852C74.8849 28.852 73.9189 29.482 73.3449 30.406L74.0869 31.12C74.5209 30.406 75.2349 29.86 76.2429 29.86C77.5869 29.86 78.2309 30.462 78.2309 31.876V32.296H76.5229C74.2689 32.296 73.1909 33.094 73.1909 34.69C73.1909 36.23 74.2129 37 75.8229 37H76.6489V35.978H75.9629C74.9549 35.978 74.3949 35.614 74.3949 34.802V34.438C74.3949 33.738 75.0249 33.318 76.2849 33.318H78.2309V37H79.3789V31.75C79.3789 30.98 79.1829 30.322 78.7209 29.832V29.51H80.1629ZM84.8208 28.852C82.8328 28.852 81.6427 29.874 81.6427 31.694V32.38H83.2948V32.436C82.5667 32.604 81.8388 33.206 81.8388 34.606V35.11C81.8388 36.384 82.3848 37 83.4768 37H84.3588V36.02H82.9588V34.214C82.9588 32.996 83.4488 32.45 84.5968 32.408V31.568H82.7348C82.8608 30.42 83.5468 29.86 84.8208 29.86C86.1508 29.86 86.9208 30.602 86.9208 31.946V37H88.0688V31.876C88.0688 30.028 86.9768 28.852 84.8208 28.852ZM93.4647 37H94.6127V31.288C94.6127 29.734 93.6747 28.852 92.0367 28.852C90.8327 28.852 89.8807 29.37 89.3907 30.266L90.1607 30.966C90.6087 30.294 91.1547 29.86 92.0087 29.86C92.9747 29.86 93.4647 30.322 93.4647 31.414V37ZM99.6352 37.168C100.951 37.168 101.553 36.44 101.861 35.684H101.917V37H103.037V29.02H101.889V34.606C101.889 35.656 100.923 36.146 99.9432 36.146C98.7532 36.146 98.1092 35.404 98.1092 33.976V29.02H96.9612V34.144C96.9612 36.062 98.0112 37.168 99.6352 37.168ZM108.433 28.852C106.585 28.852 105.241 29.874 105.241 31.694V32.38H106.991V32.436C106.263 32.604 105.535 33.206 105.535 34.522V37H106.683V34.214C106.683 32.996 107.173 32.45 108.209 32.408V31.568H106.375C106.501 30.364 107.243 29.86 108.433 29.86C109.763 29.86 110.519 30.616 110.519 31.946V37H111.667V31.876C111.667 30.028 110.589 28.852 108.433 28.852ZM115.76 37H116.642C118.448 37 119.358 36.174 119.358 33.5V30.98C119.358 29.72 118.84 29.02 117.762 29.02H116.726V30H118.21V33.99C118.21 35.502 117.748 35.992 116.712 35.992H116.586L114.332 29.02H113.17L115.76 37ZM128.124 29.51V28.53H126.836C126.346 28.53 126.024 28.796 126.024 29.202V29.3C125.562 28.992 124.946 28.852 124.232 28.852C122.846 28.852 121.88 29.482 121.306 30.406L122.048 31.12C122.482 30.406 123.196 29.86 124.204 29.86C125.548 29.86 126.192 30.462 126.192 31.876V32.296H124.484C122.23 32.296 121.152 33.094 121.152 34.69C121.152 36.23 122.174 37 123.784 37H124.61V35.978H123.924C122.916 35.978 122.356 35.614 122.356 34.802V34.438C122.356 33.738 122.986 33.318 124.246 33.318H126.192V37H127.34V31.75C127.34 30.98 127.144 30.322 126.682 29.832V29.51H128.124ZM126.388 40.738H127.34V39.086C127.34 38.4 126.962 38.022 126.29 38.022H125.604V38.862H126.374L126.388 40.738ZM132.488 28.852C131.046 28.852 130.08 29.482 129.506 30.406L130.248 31.12C130.682 30.406 131.396 29.86 132.404 29.86C133.748 29.86 134.392 30.462 134.392 31.876V32.296H132.684C130.43 32.296 129.352 33.094 129.352 34.69C129.352 36.23 130.374 37 131.984 37H132.81V35.978H132.124C131.116 35.978 130.556 35.614 130.556 34.802V34.438C130.556 33.738 131.186 33.318 132.446 33.318H134.392V37H135.54V31.708C135.54 29.888 134.476 28.852 132.488 28.852ZM139.491 37H140.891V36.02H139.449V28.852C139.449 26.864 140.261 25.366 141.647 25.324V24.344H137.181V25.296H140.485V25.352C138.889 25.898 138.301 26.962 138.301 29.174V35.81C138.301 36.51 138.721 37 139.491 37ZM142.34 37H143.488V31.428C143.488 30.378 144.482 29.888 145.49 29.888C146.666 29.888 147.31 30.63 147.31 32.058V37H148.458V31.876C148.458 29.958 147.408 28.852 145.798 28.852C144.454 28.852 143.838 29.58 143.516 30.336H143.46V29.02H142.34V37ZM153.643 37.168C155.617 37.168 156.667 36.062 156.667 34.144V29.02H155.519V33.976C155.519 35.418 154.875 36.16 153.643 36.16C152.411 36.16 151.767 35.474 151.767 34.34V33.066H153.671V32.058H153.307C152.187 32.058 151.837 31.218 151.837 30.28V30H153.489V29.02H152.215C151.207 29.02 150.717 29.51 150.717 30.364V30.434C150.717 31.372 151.459 31.848 152.173 32.016V32.058H152.047C151.123 32.058 150.619 32.744 150.619 33.906V34.354C150.619 36.118 151.669 37.168 153.643 37.168ZM51.87 58H53.27V57.02H51.8V49.418C52.626 49.236 53.578 48.592 53.578 47.22C53.578 45.932 52.696 45.092 51.324 45.092C50.12 45.092 49.266 45.722 48.916 46.786L49.854 47.374C50.106 46.534 50.554 46.086 51.282 46.086C51.982 46.086 52.402 46.506 52.402 47.22V47.374C52.402 48.242 51.758 48.76 50.68 48.802V56.81C50.68 57.51 51.1 58 51.87 58ZM57.4438 58.168C58.7598 58.168 59.3618 57.44 59.6698 56.684H59.7258V58H60.8458V50.02H59.6978V55.606C59.6978 56.656 58.7318 57.146 57.7518 57.146C56.5618 57.146 55.9178 56.404 55.9178 54.976V50.02H54.7698V55.144C54.7698 57.062 55.8198 58.168 57.4438 58.168ZM69.5597 50.51V49.53H68.4817C67.9917 49.53 67.6697 49.796 67.6697 50.202V50.314C67.1937 49.978 66.6057 49.852 65.9057 49.852C64.5477 49.852 63.5957 50.342 62.9657 51.266L63.7357 51.952C64.1977 51.266 64.8837 50.86 65.8917 50.86C67.2917 50.86 68.0897 51.728 68.0897 53.254V54.794C68.0897 56.376 67.3757 57.16 65.9617 57.16C64.5057 57.16 63.8897 56.474 63.8897 54.794V54.374H65.3457V53.394H64.2257C63.2457 53.394 62.7697 53.842 62.7697 54.92V55.032C62.7697 57.02 63.9737 58.168 65.9617 58.168C68.2437 58.168 69.2937 56.824 69.2937 54.01C69.2937 52.54 68.9717 51.434 68.3277 50.846V50.51H69.5597ZM68.0461 48.9H69.1381V46.576H68.0461V48.9ZM73.9604 58.168C76.2424 58.168 77.2924 56.824 77.2924 54.01C77.2924 51.28 76.2144 49.852 73.9184 49.852C72.5604 49.852 71.5944 50.342 70.9644 51.266L71.7344 51.952C72.1964 51.266 72.8824 50.86 73.8904 50.86C75.2904 50.86 76.0884 51.728 76.0884 53.254V54.794C76.0884 56.376 75.3744 57.16 73.9604 57.16C72.5044 57.16 71.8884 56.474 71.8884 54.794V54.374H73.3444V53.394H72.2244C71.3004 53.394 70.7684 53.856 70.7684 54.808V54.92C70.7684 56.978 71.9304 58.168 73.9604 58.168ZM80.938 58H81.82C83.626 58 84.536 57.174 84.536 54.5V51.98C84.536 50.72 84.018 50.02 82.94 50.02H81.904V51H83.388V54.99C83.388 56.502 82.926 56.992 81.89 56.992H81.764L79.51 50.02H78.348L80.938 58ZM89.6616 49.852C87.8136 49.852 86.4696 50.874 86.4696 52.694V53.38H88.2196V53.436C87.4916 53.604 86.7636 54.206 86.7636 55.522V58H87.9116V55.214C87.9116 53.996 88.4016 53.45 89.4376 53.408V52.568H87.6036C87.7296 51.364 88.4716 50.86 89.6616 50.86C90.9916 50.86 91.7476 51.616 91.7476 52.946V58H92.8956V52.876C92.8956 51.028 91.8176 49.852 89.6616 49.852ZM96.9888 58H97.8708C99.6768 58 100.587 57.174 100.587 54.5V51.98C100.587 50.72 100.069 50.02 98.9908 50.02H97.9548V51H99.4388V54.99C99.4388 56.502 98.9768 56.992 97.9408 56.992H97.8148L95.5608 50.02H94.3988L96.9888 58Z" fill="black" fill-opacity="0.5"/>
<path d="M49.92 77H54.69V75.95H53.1V70.02H51.13L49.4 72.06L50.21 72.74L51.74 70.95H51.82V75.95H49.92V77ZM56.2561 77H57.9961C59.1661 76.22 60.4961 74.64 60.4961 72.64C60.4961 70.97 59.5561 69.9 57.9661 69.9C56.4361 69.9 55.4461 70.89 55.4461 72.3C55.4461 73.62 56.3261 74.47 57.4961 74.47C58.3661 74.47 58.8061 73.98 59.0761 73.43L59.1561 73.46C58.8461 74.89 57.8861 75.82 56.2561 77ZM57.9661 73.46C57.2261 73.46 56.7761 73.03 56.7761 72.27V72.12C56.7761 71.35 57.2261 70.92 57.9661 70.92C58.7161 70.92 59.1661 71.35 59.1661 72.12V72.27C59.1661 73.03 58.7161 73.46 57.9661 73.46ZM66.0355 77H66.6155V75.93H66.2155C65.4055 75.93 65.1255 75.59 65.1255 74.57V73.59C65.1255 72.79 65.3655 72.3 65.8055 72.3L66.4255 73.02H66.4455L67.0755 72.3C67.4355 72.33 67.5555 72.56 67.5555 73.24V77H68.8355V72.99C68.8355 71.72 68.0755 71.15 67.0755 71.15L66.4455 71.93H66.4255L65.7955 71.15C64.5355 71.15 63.8355 72.05 63.8355 74.05C63.8355 76.19 64.4355 77 66.0355 77ZM71.0466 77.11C71.5866 77.11 71.8366 76.81 71.8366 76.39V76.21C71.8366 75.79 71.5866 75.48 71.0466 75.48C70.5066 75.48 70.2566 75.79 70.2566 76.21V76.39C70.2566 76.81 70.5066 77.11 71.0466 77.11ZM73.2354 77H74.5154V75.62C74.5154 74.99 74.9454 74.74 75.6054 74.74H76.1154V73.63H75.7654C75.0854 73.63 74.7054 74 74.5554 74.6H74.5154V73.47C74.5154 72.66 74.9254 72.23 75.6854 72.23C76.4354 72.23 76.8554 72.66 76.8554 73.47V77H78.1254V73.52C78.1254 72.03 77.2754 71.15 75.6854 71.15C74.0854 71.15 73.2354 72.03 73.2354 73.52V77ZM80.324 77.11C80.864 77.11 81.114 76.81 81.114 76.39V76.21C81.114 75.79 80.864 75.48 80.324 75.48C79.784 75.48 79.534 75.79 79.534 76.21V76.39C79.534 76.81 79.784 77.11 80.324 77.11ZM84.796 77H89.616V75.91H86.196L87.686 74.67C88.646 73.88 89.436 73.14 89.436 71.98C89.436 70.77 88.596 69.9 87.136 69.9C85.716 69.9 84.976 70.71 84.676 71.63L85.796 72.06C85.956 71.49 86.306 71.02 87.026 71.02C87.616 71.02 88.076 71.37 88.076 71.98V72.12C88.076 72.73 87.726 73.23 86.986 73.87L84.796 75.8V77ZM93.1121 77.12C94.7521 77.12 95.6821 76.1 95.6821 74.7C95.6821 73.32 94.7521 72.5 93.5521 72.5C92.7221 72.5 92.3721 72.9 92.0821 73.5H92.0021L92.1721 71.14H95.3021V70.02H91.2121L90.9521 73.93L92.0121 74.08C92.2221 73.83 92.5721 73.56 93.1421 73.56C93.8921 73.56 94.3321 74 94.3321 74.73V74.82C94.3321 75.58 93.9121 76.06 93.1221 76.06C92.3621 76.06 91.9821 75.64 91.6621 75.1L90.7221 75.83C91.1421 76.5 91.8221 77.12 93.1121 77.12ZM99.1882 77.12C100.718 77.12 101.708 76.13 101.708 74.72C101.708 73.4 100.828 72.55 99.6582 72.55C98.7882 72.55 98.3482 73.04 98.0782 73.59L97.9982 73.56C98.3082 72.13 99.2682 71.2 100.898 70.02H99.1582C97.9882 70.8 96.6582 72.38 96.6582 74.38C96.6582 76.05 97.5982 77.12 99.1882 77.12ZM99.1882 76.1C98.4382 76.1 97.9882 75.67 97.9882 74.9V74.75C97.9882 73.99 98.4382 73.56 99.1882 73.56C99.9282 73.56 100.378 73.99 100.378 74.75V74.9C100.378 75.67 99.9282 76.1 99.1882 76.1ZM104.874 77.12C106.404 77.12 107.434 76.3 107.434 75.07C107.434 74.08 106.774 73.51 105.974 73.36V73.31C106.704 73.16 107.304 72.61 107.304 71.72C107.304 70.6 106.344 69.9 104.954 69.9C103.784 69.9 103.124 70.41 102.654 71.06L103.484 71.81C103.814 71.28 104.304 70.96 104.914 70.96C105.554 70.96 105.954 71.31 105.954 71.89V71.96C105.954 72.47 105.574 72.85 104.774 72.85H104.084V73.92H104.774C105.614 73.92 106.094 74.27 106.094 74.93V74.99C106.094 75.65 105.654 76.06 104.874 76.06C104.084 76.06 103.674 75.66 103.354 75.1L102.404 75.83C102.844 76.5 103.524 77.12 104.874 77.12Z" fill="black" fill-opacity="0.5"/>
<path d="M56.784 109.51V108.53H55.496C55.006 108.53 54.684 108.796 54.684 109.202V109.3C54.222 108.992 53.606 108.852 52.892 108.852C51.506 108.852 50.54 109.482 49.966 110.406L50.708 111.12C51.142 110.406 51.856 109.86 52.864 109.86C54.208 109.86 54.852 110.462 54.852 111.876V112.296H53.144C50.89 112.296 49.812 113.094 49.812 114.69C49.812 116.23 50.834 117 52.444 117H53.27V115.978H52.584C51.576 115.978 51.016 115.614 51.016 114.802V114.438C51.016 113.738 51.646 113.318 52.906 113.318H54.852V117H56V111.75C56 110.98 55.804 110.322 55.342 109.832V109.51H56.784ZM60.6578 117.168C62.7998 117.168 63.8218 115.74 63.8218 113.01C63.8218 110.28 62.7998 108.852 60.6578 108.852C59.2158 108.852 58.2918 109.552 57.8438 110.546L58.8518 111.022C59.1458 110.294 59.8038 109.86 60.6578 109.86C61.8198 109.86 62.6178 110.728 62.6178 112.254V113.766C62.6178 115.292 61.8198 116.16 60.6578 116.16C59.8038 116.16 59.1458 115.726 58.8518 114.998L57.8438 115.474C58.2918 116.468 59.2158 117.168 60.6578 117.168ZM66.4216 117.168C67.0096 117.168 67.2756 116.832 67.2756 116.356V116.174C67.2756 115.698 67.0096 115.362 66.4216 115.362C65.8336 115.362 65.5676 115.698 65.5676 116.174V116.356C65.5676 116.832 65.8336 117.168 66.4216 117.168ZM79.4246 109.51V108.53H78.1366C77.6466 108.53 77.3246 108.796 77.3246 109.202V109.3C76.8626 108.992 76.2466 108.852 75.5326 108.852C74.1466 108.852 73.1806 109.482 72.6066 110.406L73.3486 111.12C73.7826 110.406 74.4966 109.86 75.5046 109.86C76.8486 109.86 77.4926 110.462 77.4926 111.876V112.296H75.7846C73.5306 112.296 72.4526 113.094 72.4526 114.69C72.4526 116.23 73.4746 117 75.0846 117H75.9106V115.978H75.2246C74.2166 115.978 73.6566 115.614 73.6566 114.802V114.438C73.6566 113.738 74.2866 113.318 75.5466 113.318H77.4926V117H78.6406V111.75C78.6406 110.98 78.4446 110.322 77.9826 109.832V109.51H79.4246ZM81.2265 117H82.3745V112.744H84.6845C85.6085 112.744 86.0005 113.206 86.0005 114.27V117H87.1765V114.074C87.1765 112.87 86.6305 112.086 85.6645 111.82V111.764C86.4205 111.484 87.1205 110.938 87.1205 109.944V109.02H85.9725V110.308C85.9725 110.91 85.6785 111.722 84.5025 111.722H82.3745V109.02H81.2265V117ZM91.919 117.168C93.585 117.168 94.677 116.258 94.677 114.69C94.677 113.486 94.005 112.73 92.409 112.506L91.793 112.422C90.883 112.296 90.323 111.904 90.323 111.134C90.323 110.364 90.883 109.86 91.821 109.86C92.745 109.86 93.431 110.378 93.767 110.868L94.607 110.14C93.949 109.328 93.109 108.852 91.905 108.852C90.435 108.852 89.217 109.622 89.217 111.19C89.217 112.674 90.309 113.206 91.639 113.402L92.255 113.486C93.235 113.626 93.571 114.214 93.571 114.83C93.571 115.656 92.941 116.16 91.989 116.16C91.023 116.16 90.337 115.74 89.707 114.9L88.881 115.6C89.595 116.538 90.505 117.168 91.919 117.168ZM93.1844 107.9H95.9844V106.976H92.6664V106.08H91.6024V106.486C91.6024 107.48 92.0644 107.9 93.1844 107.9ZM102.753 109.51V108.53H101.465C100.975 108.53 100.653 108.796 100.653 109.202V109.3C100.177 108.992 99.533 108.852 98.777 108.852C97.447 108.852 96.509 109.342 95.907 110.266L96.649 110.98C97.083 110.266 97.797 109.86 98.805 109.86C100.261 109.86 101.073 110.728 101.073 112.254V113.598C101.073 115.208 100.359 115.992 99.351 115.992H99.169L98.539 113.584C98.287 112.632 98.007 112.352 97.293 112.352H96.397V113.332H97.349L98.343 117H99.351C101.199 117 102.277 115.656 102.277 112.898C102.277 111.512 101.983 110.462 101.311 109.818V109.51H102.753ZM101.101 118.106C101.101 118.624 100.835 118.89 100.401 118.89C99.813 118.89 99.477 118.498 99.407 117.7H98.287L97.979 118.68H96.411V119.632H97.433C98.399 119.632 98.931 119.268 99.085 118.428L99.127 118.19H99.155C99.253 119.198 99.869 119.772 100.751 119.772C101.549 119.772 102.165 119.31 102.165 118.302V117.7H101.101V118.106ZM107.156 117.168C109.438 117.168 110.488 115.824 110.488 113.01C110.488 110.28 109.41 108.852 107.114 108.852C105.756 108.852 104.79 109.342 104.16 110.266L104.93 110.952C105.392 110.266 106.078 109.86 107.086 109.86C108.486 109.86 109.284 110.728 109.284 112.254V113.794C109.284 115.376 108.57 116.16 107.156 116.16C105.7 116.16 105.084 115.474 105.084 113.794V113.374H106.54V112.394H105.42C104.496 112.394 103.964 112.856 103.964 113.808V113.92C103.964 115.978 105.126 117.168 107.156 117.168ZM113.699 117H115.099V116.02H113.657V109.02H112.509V115.81C112.509 116.51 112.929 117 113.699 117ZM119.957 117.168C121.581 117.168 122.631 116.062 122.631 114.144V109.02H121.483V113.976C121.483 115.404 120.839 116.146 119.649 116.146C118.669 116.146 117.703 115.656 117.703 114.606V109.02H116.555V117H117.675V115.684H117.731C118.039 116.44 118.641 117.168 119.957 117.168ZM127.439 117.168C129.105 117.168 130.197 116.258 130.197 114.69C130.197 113.486 129.525 112.73 127.928 112.506L127.312 112.422C126.403 112.296 125.843 111.904 125.843 111.134C125.843 110.364 126.403 109.86 127.341 109.86C128.265 109.86 128.951 110.378 129.287 110.868L130.127 110.14C129.469 109.328 128.629 108.852 127.425 108.852C125.955 108.852 124.736 109.622 124.736 111.19C124.736 112.674 125.829 113.206 127.159 113.402L127.775 113.486C128.755 113.626 129.091 114.214 129.091 114.83C129.091 115.656 128.461 116.16 127.508 116.16C126.543 116.16 125.857 115.74 125.227 114.9L124.401 115.6C125.115 116.538 126.025 117.168 127.439 117.168ZM124.434 107.9H129.992V106.976H124.434V107.9ZM135.039 108.852C133.191 108.852 131.847 109.874 131.847 111.694V112.38H133.597V112.436C132.869 112.604 132.141 113.206 132.141 114.522V117H133.289V114.214C133.289 112.996 133.779 112.45 134.815 112.408V111.568H132.981C133.107 110.364 133.849 109.86 135.039 109.86C136.369 109.86 137.125 110.616 137.125 111.946V117H138.273V111.876C138.273 110.028 137.195 108.852 135.039 108.852ZM143.668 117H144.816V111.288C144.816 109.734 143.878 108.852 142.24 108.852C141.036 108.852 140.084 109.37 139.594 110.266L140.364 110.966C140.812 110.294 141.358 109.86 142.212 109.86C143.178 109.86 143.668 110.322 143.668 111.414V117ZM56.784 130.51V129.53H55.496C55.006 129.53 54.684 129.796 54.684 130.202V130.3C54.222 129.992 53.606 129.852 52.892 129.852C51.506 129.852 50.54 130.482 49.966 131.406L50.708 132.12C51.142 131.406 51.856 130.86 52.864 130.86C54.208 130.86 54.852 131.462 54.852 132.876V133.296H53.144C50.89 133.296 49.812 134.094 49.812 135.69C49.812 137.23 50.834 138 52.444 138H53.27V136.978H52.584C51.576 136.978 51.016 136.614 51.016 135.802V135.438C51.016 134.738 51.646 134.318 52.906 134.318H54.852V138H56V132.75C56 131.98 55.804 131.322 55.342 130.832V130.51H56.784ZM61.1898 138.168C62.5058 138.168 63.1078 137.44 63.4158 136.684H63.4718V138H64.5918V130.02H63.4438V135.606C63.4438 136.656 62.4778 137.146 61.4978 137.146C60.3078 137.146 59.6638 136.404 59.6638 134.976V130.02H58.5158V135.144C58.5158 137.062 59.5658 138.168 61.1898 138.168ZM63.2977 128.9H66.0977V127.976H62.7797V127.08H61.7157V127.486C61.7157 128.48 62.1777 128.9 63.2977 128.9ZM70.0578 138.168C72.0318 138.168 73.0818 137.062 73.0818 135.144V130.02H71.9338V134.976C71.9338 136.418 71.2898 137.16 70.0578 137.16C68.8118 137.16 68.1678 136.418 68.1678 134.976V130.02H67.0198V135.144C67.0198 137.062 68.0698 138.168 70.0578 138.168ZM82.036 130.51V129.53H80.748C80.258 129.53 79.936 129.796 79.936 130.202V130.3C79.474 129.992 78.858 129.852 78.144 129.852C76.758 129.852 75.792 130.482 75.218 131.406L75.96 132.12C76.394 131.406 77.108 130.86 78.116 130.86C79.46 130.86 80.104 131.462 80.104 132.876V133.296H78.396C76.142 133.296 75.064 134.094 75.064 135.69C75.064 137.23 76.086 138 77.696 138H78.522V136.978H77.836C76.828 136.978 76.268 136.614 76.268 135.802V135.438C76.268 134.738 76.898 134.318 78.158 134.318H80.104V138H81.252V132.75C81.252 131.98 81.056 131.322 80.594 130.832V130.51H82.036ZM86.4418 138.168C87.7578 138.168 88.3598 137.44 88.6678 136.684H88.7238V138H89.8438V130.02H88.6958V135.606C88.6958 136.656 87.7298 137.146 86.7498 137.146C85.5598 137.146 84.9158 136.404 84.9158 134.976V130.02H83.7678V135.144C83.7678 137.062 84.8178 138.168 86.4418 138.168ZM88.8857 141.738H89.8377V140.086C89.8377 139.4 89.4597 139.022 88.7877 139.022H88.1017V139.862H88.8717L88.8857 141.738ZM94.9457 138.168C96.2617 138.168 96.8637 137.44 97.1717 136.684H97.2277V138H98.3477V130.02H97.1997V135.606C97.1997 136.656 96.2337 137.146 95.2537 137.146C94.0637 137.146 93.4197 136.404 93.4197 134.976V130.02H92.2717V135.144C92.2717 137.062 93.3217 138.168 94.9457 138.168ZM103.464 138.168C105.228 138.168 106.278 137.16 106.278 135.424V130.02H105.13V135.256C105.13 136.516 104.486 137.16 103.464 137.16C102.428 137.16 101.784 136.642 101.784 135.34C101.784 133.296 103.044 133.324 103.044 131.56V131.392C103.044 130.552 102.666 130.02 101.406 130.02H100.524V131H101.924V131.686C101.924 133.198 100.608 132.918 100.608 135.382C100.608 137.104 101.672 138.168 103.464 138.168ZM111.661 138.168C113.635 138.168 114.685 137.062 114.685 135.144V130.02H113.537V134.976C113.537 136.418 112.893 137.16 111.661 137.16C110.415 137.16 109.771 136.418 109.771 134.976V130.02H108.623V135.144C108.623 137.062 109.673 138.168 111.661 138.168ZM119.173 138.168C121.315 138.168 122.337 136.74 122.337 134.01C122.337 131.28 121.315 129.852 119.173 129.852C117.731 129.852 116.807 130.552 116.359 131.546L117.367 132.022C117.661 131.294 118.319 130.86 119.173 130.86C120.335 130.86 121.133 131.728 121.133 133.254V134.766C121.133 136.292 120.335 137.16 119.173 137.16C118.319 137.16 117.661 136.726 117.367 135.998L116.359 136.474C116.807 137.468 117.731 138.168 119.173 138.168ZM126.883 138.168C128.199 138.168 128.801 137.44 129.109 136.684H129.165V138H130.285V130.02H129.137V135.606C129.137 136.656 128.171 137.146 127.191 137.146C126.001 137.146 125.357 136.404 125.357 134.976V130.02H124.209V135.144C124.209 137.062 125.259 138.168 126.883 138.168ZM135.681 129.852C133.833 129.852 132.489 130.874 132.489 132.694V133.38H134.239V133.436C133.511 133.604 132.783 134.206 132.783 135.522V138H133.931V135.214C133.931 133.996 134.421 133.45 135.457 133.408V132.568H133.623C133.749 131.364 134.491 130.86 135.681 130.86C137.011 130.86 137.767 131.616 137.767 132.946V138H138.915V132.876C138.915 131.028 137.837 129.852 135.681 129.852ZM144.31 138H145.458V132.288C145.458 130.734 144.52 129.852 142.882 129.852C141.678 129.852 140.726 130.37 140.236 131.266L141.006 131.966C141.454 131.294 142 130.86 142.854 130.86C143.82 130.86 144.31 131.322 144.31 132.414V138ZM150.257 138.168C151.923 138.168 153.015 137.258 153.015 135.69C153.015 134.486 152.343 133.73 150.747 133.506L150.131 133.422C149.221 133.296 148.661 132.904 148.661 132.134C148.661 131.364 149.221 130.86 150.159 130.86C151.083 130.86 151.769 131.378 152.105 131.868L152.945 131.14C152.287 130.328 151.447 129.852 150.243 129.852C148.773 129.852 147.555 130.622 147.555 132.19C147.555 133.674 148.647 134.206 149.977 134.402L150.593 134.486C151.573 134.626 151.909 135.214 151.909 135.83C151.909 136.656 151.279 137.16 150.327 137.16C149.361 137.16 148.675 136.74 148.045 135.9L147.219 136.6C147.933 137.538 148.843 138.168 150.257 138.168ZM156.219 138H157.619V137.02H156.177V130.02H155.029V136.81C155.029 137.51 155.449 138 156.219 138ZM161.454 138.168C163.12 138.168 164.212 137.258 164.212 135.69C164.212 134.486 163.54 133.73 161.944 133.506L161.328 133.422C160.418 133.296 159.858 132.904 159.858 132.134C159.858 131.364 160.418 130.86 161.356 130.86C162.28 130.86 162.966 131.378 163.302 131.868L164.142 131.14C163.484 130.328 162.644 129.852 161.44 129.852C159.97 129.852 158.752 130.622 158.752 132.19C158.752 133.674 159.844 134.206 161.174 134.402L161.79 134.486C162.77 134.626 163.106 135.214 163.106 135.83C163.106 136.656 162.476 137.16 161.524 137.16C160.558 137.16 159.872 136.74 159.242 135.9L158.416 136.6C159.13 137.538 160.04 138.168 161.454 138.168ZM158.52 128.9H162.916C163.686 128.9 164.078 128.522 164.078 127.766V126.786H163.014V127.976H158.52V128.9ZM168.914 138.168C170.888 138.168 171.938 137.062 171.938 135.144V130.02H170.79V134.976C170.79 136.418 170.146 137.16 168.914 137.16C167.682 137.16 167.038 136.474 167.038 135.34V134.066H168.942V133.058H168.578C167.458 133.058 167.108 132.218 167.108 131.28V131H168.76V130.02H167.486C166.478 130.02 165.988 130.51 165.988 131.364V131.434C165.988 132.372 166.73 132.848 167.444 133.016V133.058H167.318C166.394 133.058 165.89 133.744 165.89 134.906V135.354C165.89 137.118 166.94 138.168 168.914 138.168ZM177.257 129.852C175.409 129.852 174.065 130.874 174.065 132.694V133.38H175.815V133.436C175.087 133.604 174.359 134.206 174.359 135.522V138H175.507V135.214C175.507 133.996 175.997 133.45 177.033 133.408V132.568H175.199C175.325 131.364 176.067 130.86 177.257 130.86C178.587 130.86 179.343 131.616 179.343 132.946V138H180.491V132.876C180.491 131.028 179.413 129.852 177.257 129.852ZM185.271 138.168C186.937 138.168 188.029 137.258 188.029 135.69C188.029 134.486 187.357 133.73 185.761 133.506L185.145 133.422C184.235 133.296 183.675 132.904 183.675 132.134C183.675 131.364 184.235 130.86 185.173 130.86C186.097 130.86 186.783 131.378 187.119 131.868L187.959 131.14C187.301 130.328 186.461 129.852 185.257 129.852C183.787 129.852 182.569 130.622 182.569 132.19C182.569 133.674 183.661 134.206 184.991 134.402L185.607 134.486C186.587 134.626 186.923 135.214 186.923 135.83C186.923 136.656 186.293 137.16 185.341 137.16C184.375 137.16 183.689 136.74 183.059 135.9L182.233 136.6C182.947 137.538 183.857 138.168 185.271 138.168ZM185.15 128.9H188.412V127.976H186.074V127.85C186.074 127.052 185.78 126.786 184.996 126.786H184.17V127.71H185.15V128.9ZM192.619 138.168C194.901 138.168 195.951 136.824 195.951 134.01C195.951 131.28 194.873 129.852 192.577 129.852C191.219 129.852 190.253 130.342 189.623 131.266L190.393 131.952C190.855 131.266 191.541 130.86 192.549 130.86C193.949 130.86 194.747 131.728 194.747 133.254V134.794C194.747 136.376 194.033 137.16 192.619 137.16C191.163 137.16 190.547 136.474 190.547 134.794V134.374H192.003V133.394H190.883C189.959 133.394 189.427 133.856 189.427 134.808V134.92C189.427 136.978 190.589 138.168 192.619 138.168ZM199.596 138H200.478C202.284 138 203.194 137.174 203.194 134.5V131.98C203.194 130.72 202.676 130.02 201.598 130.02H200.562V131H202.046V134.99C202.046 136.502 201.584 136.992 200.548 136.992H200.422L198.168 130.02H197.006L199.596 138ZM53.214 159.168C55.188 159.168 56.238 158.062 56.238 156.144V148.08H55.09V155.976C55.09 157.418 54.446 158.16 53.214 158.16C51.968 158.16 51.324 157.418 51.324 155.976V151.02H50.176V156.144C50.176 158.062 51.226 159.168 53.214 159.168ZM61.0342 159.168C62.7002 159.168 63.7922 158.258 63.7922 156.69C63.7922 155.486 63.1202 154.73 61.5242 154.506L60.9082 154.422C59.9982 154.296 59.4382 153.904 59.4382 153.134C59.4382 152.364 59.9982 151.86 60.9362 151.86C61.8602 151.86 62.5462 152.378 62.8822 152.868L63.7222 152.14C63.0642 151.328 62.2242 150.852 61.0202 150.852C59.5502 150.852 58.3322 151.622 58.3322 153.19C58.3322 154.674 59.4242 155.206 60.7542 155.402L61.3702 155.486C62.3502 155.626 62.6862 156.214 62.6862 156.83C62.6862 157.656 62.0562 158.16 61.1042 158.16C60.1382 158.16 59.4522 157.74 58.8222 156.9L57.9962 157.6C58.7102 158.538 59.6202 159.168 61.0342 159.168ZM66.4922 154.114L68.9562 154.1V153.064L66.3942 153.078V151.79L65.3022 151.804V152.924C65.3022 153.68 65.7922 154.114 66.4922 154.114ZM66.4922 158.174L68.9562 158.16V157.124L66.3942 157.138V155.85L65.3022 155.864V156.984C65.3022 157.74 65.7922 158.174 66.4922 158.174ZM73.3308 159.168C75.0948 159.168 76.1728 158.16 76.1728 156.424V155.388C76.1728 154.226 75.6548 153.442 74.7448 153.162V153.106C75.5008 152.798 76.2008 152.252 76.2008 151.258V151.02H75.0248V151.622C75.0248 152.518 74.4928 153.036 73.5548 153.036H73.4428V153.918H73.6808C74.6048 153.918 74.9968 154.38 74.9968 155.444V156.256C74.9968 157.516 74.3528 158.16 73.3308 158.16C72.2948 158.16 71.6508 157.642 71.6508 156.34C71.6508 154.296 72.9108 154.324 72.9108 152.56V152.392C72.9108 151.552 72.5328 151.02 71.2728 151.02H70.3908V152H71.7908V152.686C71.7908 154.198 70.4748 153.918 70.4748 156.382C70.4748 158.104 71.5528 159.168 73.3308 159.168ZM81.3924 159H82.5404V153.288C82.5404 151.734 81.6024 150.852 79.9644 150.852C78.7604 150.852 77.8084 151.37 77.3184 152.266L78.0884 152.966C78.5364 152.294 79.0824 151.86 79.9364 151.86C80.9024 151.86 81.3924 152.322 81.3924 153.414V159ZM87.6469 159.168C89.4389 159.168 90.5869 158.328 90.5869 156.34C90.5869 154.716 89.8029 154.156 87.8569 153.89L85.7709 153.624V153.232C85.7709 152.308 86.3589 151.86 87.5349 151.86C88.6689 151.86 89.3549 152.378 89.6909 152.868L90.5309 152.14C89.8729 151.328 89.0329 150.852 87.5769 150.852C85.7289 150.852 84.6369 151.762 84.6369 153.19V153.316C84.6369 154.156 85.2249 154.576 86.2889 154.73L87.9829 154.954C88.9909 155.094 89.4809 155.374 89.4809 156.424C89.4809 157.726 88.7949 158.16 87.7169 158.16C87.0309 158.16 86.5969 158.006 86.0649 157.712V155.444H84.9449V158.258C85.7289 158.86 86.5969 159.168 87.6469 159.168ZM84.9222 149.9H90.4802V148.976H84.9222V149.9ZM95.5558 159.168C97.5298 159.168 98.5798 158.062 98.5798 156.144V148.08H97.4318V155.976C97.4318 157.418 96.7878 158.16 95.5558 158.16C94.3098 158.16 93.6658 157.418 93.6658 155.976V151.02H92.5178V156.144C92.5178 158.062 93.5678 159.168 95.5558 159.168ZM102.55 159H103.95V158.02H102.508V150.852C102.508 148.864 103.32 147.366 104.706 147.324V146.344H100.24V147.296H103.544V147.352C101.948 147.898 101.36 148.962 101.36 151.174V157.81C101.36 158.51 101.78 159 102.55 159ZM107.932 159H108.786V157.978H108.002C106.7 157.978 106.14 157.376 106.14 155.85V154.24C106.14 152.882 106.574 151.958 107.302 151.958L108.366 153.078H108.394L109.458 151.958C110.13 152.028 110.298 152.364 110.298 153.764V159H111.446V152.966C111.446 151.37 110.466 150.852 109.29 150.852L108.408 151.888H108.366L107.47 150.852C105.846 150.852 104.936 152.21 104.936 154.884C104.936 157.768 105.818 159 107.932 159ZM116.66 159.168C118.634 159.168 119.684 158.062 119.684 156.144V151.02H118.536V155.976C118.536 157.418 117.892 158.16 116.66 158.16C115.428 158.16 114.784 157.474 114.784 156.34V155.066H116.688V154.058H116.324C115.204 154.058 114.854 153.218 114.854 152.28V152H116.506V151.02H115.232C114.224 151.02 113.734 151.51 113.734 152.364V152.434C113.734 153.372 114.476 153.848 115.19 154.016V154.058H115.064C114.14 154.058 113.636 154.744 113.636 155.906V156.354C113.636 158.118 114.686 159.168 116.66 159.168ZM124.723 159.168C126.487 159.168 127.537 158.16 127.537 156.424V151.02H126.389V156.256C126.389 157.516 125.745 158.16 124.723 158.16C123.687 158.16 123.043 157.642 123.043 156.34C123.043 154.296 124.303 154.324 124.303 152.56V152.392C124.303 151.552 123.925 151.02 122.665 151.02H121.783V152H123.183V152.686C123.183 154.198 121.867 153.918 121.867 156.382C121.867 158.104 122.931 159.168 124.723 159.168ZM132.599 159.168C134.881 159.168 135.931 157.824 135.931 155.01C135.931 152.28 134.853 150.852 132.557 150.852C131.199 150.852 130.233 151.342 129.603 152.266L130.373 152.952C130.835 152.266 131.521 151.86 132.529 151.86C133.929 151.86 134.727 152.728 134.727 154.254V155.794C134.727 157.376 134.013 158.16 132.599 158.16C131.143 158.16 130.527 157.474 130.527 155.794V155.374H131.983V154.394H130.863C129.939 154.394 129.407 154.856 129.407 155.808V155.92C129.407 157.978 130.569 159.168 132.599 159.168ZM139.577 159H140.459C142.265 159 143.175 158.174 143.175 155.5V152.98C143.175 151.72 142.657 151.02 141.579 151.02H140.543V152H142.027V155.99C142.027 157.502 141.565 157.992 140.529 157.992H140.403L138.149 151.02H136.987L139.577 159ZM146.956 159H148.356V158.02H146.914V150.852C146.914 148.864 147.726 147.366 149.112 147.324V146.344H144.646V147.296H147.95V147.352C146.354 147.898 145.766 148.962 145.766 151.174V157.81C145.766 158.51 146.186 159 146.956 159ZM149.805 159H150.953V153.428C150.953 152.378 151.947 151.888 152.955 151.888C154.131 151.888 154.775 152.63 154.775 154.058V159H155.923V153.876C155.923 151.958 154.873 150.852 153.263 150.852C151.919 150.852 151.303 151.58 150.981 152.336H150.925V151.02H149.805V159ZM161.108 159.168C163.082 159.168 164.132 158.062 164.132 156.144V151.02H162.984V155.976C162.984 157.418 162.34 158.16 161.108 158.16C159.876 158.16 159.232 157.474 159.232 156.34V155.066H161.136V154.058H160.772C159.652 154.058 159.302 153.218 159.302 152.28V152H160.954V151.02H159.68C158.672 151.02 158.182 151.51 158.182 152.364V152.434C158.182 153.372 158.924 153.848 159.638 154.016V154.058H159.512C158.588 154.058 158.084 154.744 158.084 155.906V156.354C158.084 158.118 159.134 159.168 161.108 159.168Z" fill="black" fill-opacity="0.5"/>
<path d="M51.72 178.12C53.25 178.12 54.28 177.3 54.28 176.07C54.28 175.08 53.62 174.51 52.82 174.36V174.31C53.55 174.16 54.15 173.61 54.15 172.72C54.15 171.6 53.19 170.9 51.8 170.9C50.63 170.9 49.97 171.41 49.5 172.06L50.33 172.81C50.66 172.28 51.15 171.96 51.76 171.96C52.4 171.96 52.8 172.31 52.8 172.89V172.96C52.8 173.47 52.42 173.85 51.62 173.85H50.93V174.92H51.62C52.46 174.92 52.94 175.27 52.94 175.93V175.99C52.94 176.65 52.5 177.06 51.72 177.06C50.93 177.06 50.52 176.66 50.2 176.1L49.25 176.83C49.69 177.5 50.37 178.12 51.72 178.12ZM60.2294 178.12C61.6394 178.12 62.4194 177.46 62.4194 176.15C62.4194 175.03 61.8794 174.5 60.5794 174.3L59.1394 174.12V173.89C59.1394 173.46 59.4794 173.21 60.1394 173.21C60.7694 173.21 61.1794 173.44 61.5294 173.83L62.3694 173.09C61.9094 172.49 61.2294 172.15 60.1494 172.15C58.7694 172.15 57.9494 172.82 57.9494 173.84V173.95C57.9494 174.61 58.3794 175.01 59.2094 175.14L60.3394 175.27C60.9994 175.36 61.2294 175.58 61.2294 176.15C61.2294 176.78 60.8994 177.05 60.2094 177.05C59.8194 177.05 59.5294 176.98 59.2294 176.85V175.57H58.0894V177.52C58.6094 177.91 59.2894 178.12 60.2294 178.12ZM64.3377 178.11C64.8777 178.11 65.1277 177.81 65.1277 177.39V177.21C65.1277 176.79 64.8777 176.48 64.3377 176.48C63.7977 176.48 63.5477 176.79 63.5477 177.21V177.39C63.5477 177.81 63.7977 178.11 64.3377 178.11ZM66.5264 178H67.8064V176.62C67.8064 175.99 68.2364 175.74 68.8964 175.74H69.4064V174.63H69.0564C68.3764 174.63 67.9964 175 67.8464 175.6H67.8064V174.47C67.8064 173.66 68.2164 173.23 68.9764 173.23C69.7264 173.23 70.1464 173.66 70.1464 174.47V178H71.4164V174.52C71.4164 173.03 70.5664 172.15 68.9764 172.15C67.3764 172.15 66.5264 173.03 66.5264 174.52V178ZM73.615 178.11C74.155 178.11 74.405 177.81 74.405 177.39V177.21C74.405 176.79 74.155 176.48 73.615 176.48C73.075 176.48 72.825 176.79 72.825 177.21V177.39C72.825 177.81 73.075 178.11 73.615 178.11ZM78.087 178H82.907V176.91H79.487L80.977 175.67C81.937 174.88 82.727 174.14 82.727 172.98C82.727 171.77 81.887 170.9 80.427 170.9C79.007 170.9 78.267 171.71 77.967 172.63L79.087 173.06C79.247 172.49 79.597 172.02 80.317 172.02C80.907 172.02 81.367 172.37 81.367 172.98V173.12C81.367 173.73 81.017 174.23 80.277 174.87L78.087 176.8V178ZM86.4031 178.12C88.0431 178.12 88.9731 177.1 88.9731 175.7C88.9731 174.32 88.0431 173.5 86.8431 173.5C86.0131 173.5 85.6631 173.9 85.3731 174.5H85.2931L85.4631 172.14H88.5931V171.02H84.5031L84.2431 174.93L85.3031 175.08C85.5131 174.83 85.8631 174.56 86.4331 174.56C87.1831 174.56 87.6231 175 87.6231 175.73V175.82C87.6231 176.58 87.2031 177.06 86.4131 177.06C85.6531 177.06 85.2731 176.64 84.9531 176.1L84.0131 176.83C84.4331 177.5 85.1131 178.12 86.4031 178.12ZM92.4792 178.12C94.0092 178.12 94.9992 177.13 94.9992 175.72C94.9992 174.4 94.1192 173.55 92.9492 173.55C92.0792 173.55 91.6392 174.04 91.3692 174.59L91.2892 174.56C91.5992 173.13 92.5592 172.2 94.1892 171.02H92.4492C91.2792 171.8 89.9492 173.38 89.9492 175.38C89.9492 177.05 90.8892 178.12 92.4792 178.12ZM92.4792 177.1C91.7292 177.1 91.2792 176.67 91.2792 175.9V175.75C91.2792 174.99 91.7292 174.56 92.4792 174.56C93.2192 174.56 93.6692 174.99 93.6692 175.75V175.9C93.6692 176.67 93.2192 177.1 92.4792 177.1ZM98.1653 178.12C99.6953 178.12 100.725 177.3 100.725 176.07C100.725 175.08 100.065 174.51 99.2653 174.36V174.31C99.9953 174.16 100.595 173.61 100.595 172.72C100.595 171.6 99.6353 170.9 98.2453 170.9C97.0753 170.9 96.4153 171.41 95.9453 172.06L96.7753 172.81C97.1053 172.28 97.5953 171.96 98.2053 171.96C98.8453 171.96 99.2453 172.31 99.2453 172.89V172.96C99.2453 173.47 98.8653 173.85 98.0653 173.85H97.3753V174.92H98.0653C98.9053 174.92 99.3853 175.27 99.3853 175.93V175.99C99.3853 176.65 98.9453 177.06 98.1653 177.06C97.3753 177.06 96.9653 176.66 96.6453 176.1L95.6953 176.83C96.1353 177.5 96.8153 178.12 98.1653 178.12Z" fill="black" fill-opacity="0.5"/>
</svg>
