<svg width="320" height="558" viewBox="0 0 320 558" fill="none" xmlns="http://www.w3.org/2000/svg">
<path d="M157.848 9.14C158.436 9.14 158.702 8.804 158.702 8.314V8.118C158.702 7.74 158.534 7.46 158.156 7.376C158.31 6.718 158.646 6.228 159.206 5.64H158.268C157.47 6.326 156.994 7.362 156.994 8.118V8.314C156.994 8.804 157.26 9.14 157.848 9.14ZM163.762 16.168C165.554 16.168 166.702 15.328 166.702 13.34C166.702 11.716 165.918 11.156 163.972 10.89L161.886 10.624V10.232C161.886 9.308 162.474 8.86 163.65 8.86C164.784 8.86 165.47 9.378 165.806 9.868L166.646 9.14C165.988 8.328 165.148 7.852 163.692 7.852C161.844 7.852 160.752 8.762 160.752 10.19V10.316C160.752 11.156 161.34 11.576 162.404 11.73L164.098 11.954C165.106 12.094 165.596 12.374 165.596 13.424C165.596 14.726 164.91 15.16 163.832 15.16C163.146 15.16 162.712 15.006 162.18 14.712V12.444H161.06V15.258C161.844 15.86 162.712 16.168 163.762 16.168ZM171.083 16.168C172.749 16.168 173.841 15.258 173.841 13.69C173.841 12.486 173.169 11.73 171.573 11.506L170.957 11.422C170.047 11.296 169.487 10.904 169.487 10.134C169.487 9.364 170.047 8.86 170.985 8.86C171.909 8.86 172.595 9.378 172.931 9.868L173.771 9.14C173.113 8.328 172.273 7.852 171.069 7.852C169.599 7.852 168.381 8.622 168.381 10.19C168.381 11.674 169.473 12.206 170.803 12.402L171.419 12.486C172.399 12.626 172.735 13.214 172.735 13.83C172.735 14.656 172.105 15.16 171.153 15.16C170.187 15.16 169.501 14.74 168.871 13.9L168.045 14.6C168.759 15.538 169.669 16.168 171.083 16.168ZM178.165 16.168C179.831 16.168 180.923 15.258 180.923 13.69C180.923 12.486 180.251 11.73 178.655 11.506L178.039 11.422C177.129 11.296 176.569 10.904 176.569 10.134C176.569 9.364 177.129 8.86 178.067 8.86C178.991 8.86 179.677 9.378 180.013 9.868L180.853 9.14C180.195 8.328 179.355 7.852 178.151 7.852C176.681 7.852 175.463 8.622 175.463 10.19C175.463 11.674 176.555 12.206 177.885 12.402L178.501 12.486C179.481 12.626 179.817 13.214 179.817 13.83C179.817 14.656 179.187 15.16 178.235 15.16C177.269 15.16 176.583 14.74 175.953 13.9L175.127 14.6C175.841 15.538 176.751 16.168 178.165 16.168ZM186.269 16.168C187.893 16.168 188.943 15.062 188.943 13.144V8.02H187.795V12.976C187.795 14.404 187.151 15.146 185.961 15.146C184.981 15.146 184.015 14.656 184.015 13.606V8.02H182.867V16H183.987V14.684H184.043C184.351 15.44 184.953 16.168 186.269 16.168ZM198.371 8.51V7.53H197.083C196.593 7.53 196.271 7.796 196.271 8.202V8.384C195.767 8.02 195.151 7.852 194.437 7.852C192.365 7.852 191.273 9.028 191.273 10.876V16H192.421V14.054C192.421 12.878 193.233 12.584 193.975 12.584H194.997V11.436H194.339C193.275 11.436 192.729 12.094 192.477 12.808H192.421V10.946C192.421 9.602 193.191 8.86 194.451 8.86C195.711 8.86 196.481 9.602 196.481 10.946V16H197.629V10.876C197.629 10.064 197.377 9.378 196.929 8.944V8.51H198.371ZM203.172 16H204.32V10.288C204.32 8.734 203.382 7.852 201.744 7.852C200.54 7.852 199.588 8.37 199.098 9.266L199.868 9.966C200.316 9.294 200.862 8.86 201.716 8.86C202.682 8.86 203.172 9.322 203.172 10.414V16ZM213.276 8.51V7.53H211.988C211.498 7.53 211.176 7.796 211.176 8.202V8.3C210.714 7.992 210.098 7.852 209.384 7.852C207.998 7.852 207.032 8.482 206.458 9.406L207.2 10.12C207.634 9.406 208.348 8.86 209.356 8.86C210.7 8.86 211.344 9.462 211.344 10.876V11.296H209.636C207.382 11.296 206.304 12.094 206.304 13.69C206.304 15.23 207.326 16 208.936 16H209.762V14.978H209.076C208.068 14.978 207.508 14.614 207.508 13.802V13.438C207.508 12.738 208.138 12.318 209.398 12.318H211.344V16H212.492V10.75C212.492 9.98 212.296 9.322 211.834 8.832V8.51H213.276ZM217.612 16H218.466V14.978H217.682C216.38 14.978 215.82 14.376 215.82 12.85V11.24C215.82 9.882 216.254 8.958 216.982 8.958L218.046 10.078H218.074L219.138 8.958C219.81 9.028 219.978 9.364 219.978 10.764V16H221.126V9.966C221.126 8.37 220.146 7.852 218.97 7.852L218.088 8.888H218.046L217.15 7.852C215.526 7.852 214.616 9.21 214.616 11.884C214.616 14.768 215.498 16 217.612 16ZM225.962 16.168C227.628 16.168 228.72 15.258 228.72 13.69C228.72 12.486 228.048 11.73 226.452 11.506L225.836 11.422C224.926 11.296 224.366 10.904 224.366 10.134C224.366 9.364 224.926 8.86 225.864 8.86C226.788 8.86 227.474 9.378 227.81 9.868L228.65 9.14C227.992 8.328 227.152 7.852 225.948 7.852C224.478 7.852 223.26 8.622 223.26 10.19C223.26 11.674 224.352 12.206 225.682 12.402L226.298 12.486C227.278 12.626 227.614 13.214 227.614 13.83C227.614 14.656 226.984 15.16 226.032 15.16C225.066 15.16 224.38 14.74 223.75 13.9L222.924 14.6C223.638 15.538 224.548 16.168 225.962 16.168ZM226.456 6.9H227.52V5.99H229.368V5.066H228.038C226.918 5.066 226.456 5.486 226.456 6.48V6.9ZM232.862 7.852C231.504 7.852 230.552 8.342 229.95 9.266L230.692 9.98C231.126 9.266 231.84 8.86 232.848 8.86C234.304 8.86 235.116 9.728 235.116 11.254V12.598C235.116 14.208 234.402 14.992 233.394 14.992H233.212L232.582 12.584C232.33 11.632 232.05 11.352 231.336 11.352H230.44V12.332H231.392L232.386 16H233.394C235.242 16 236.32 14.656 236.32 11.898C236.32 9.28 235.284 7.852 232.862 7.852ZM239.076 11.114L241.54 11.1V10.064L238.978 10.078V8.79L237.886 8.804V9.924C237.886 10.68 238.376 11.114 239.076 11.114ZM239.076 15.174L241.54 15.16V14.124L238.978 14.138V12.85L237.886 12.864V13.984C237.886 14.74 238.376 15.174 239.076 15.174ZM244.851 16H246.251V15.02H244.809V7.852C244.809 5.864 245.621 4.366 247.007 4.324V3.344H242.541V4.296H245.845V4.352C244.249 4.898 243.661 5.962 243.661 8.174V14.81C243.661 15.51 244.081 16 244.851 16ZM251.101 16.168C252.725 16.168 253.775 15.062 253.775 13.144V8.02H252.627V12.976C252.627 14.404 251.983 15.146 250.793 15.146C249.813 15.146 248.847 14.656 248.847 13.606V8.02H247.699V16H248.819V14.684H248.875C249.183 15.44 249.785 16.168 251.101 16.168ZM252.675 6.9H253.767V4.576H252.675V6.9ZM256.203 16H257.351V10.428C257.351 9.378 258.345 8.888 259.353 8.888C260.529 8.888 261.173 9.63 261.173 11.058V16H262.321V10.876C262.321 8.958 261.271 7.852 259.661 7.852C258.317 7.852 257.701 8.58 257.379 9.336H257.323V8.02H256.203V16ZM267.352 16.168C268.668 16.168 269.27 15.44 269.578 14.684H269.634V16H270.754V8.02H269.606V13.606C269.606 14.656 268.64 15.146 267.66 15.146C266.47 15.146 265.826 14.404 265.826 12.976V8.02H264.678V13.144C264.678 15.062 265.728 16.168 267.352 16.168ZM272.622 9H273.56C274.358 8.314 274.834 7.278 274.834 6.522V6.326C274.834 5.836 274.568 5.5 273.98 5.5C273.392 5.5 273.126 5.836 273.126 6.326V6.522C273.126 6.9 273.294 7.18 273.672 7.264C273.518 7.922 273.182 8.412 272.622 9ZM159.864 37.168C161.628 37.168 162.678 36.16 162.678 34.424V29.02H161.53V34.256C161.53 35.516 160.886 36.16 159.864 36.16C158.828 36.16 158.184 35.642 158.184 34.34C158.184 32.296 159.444 32.324 159.444 30.56V30.392C159.444 29.552 159.066 29.02 157.806 29.02H156.924V30H158.324V30.686C158.324 32.198 157.008 31.918 157.008 34.382C157.008 36.104 158.072 37.168 159.864 37.168ZM167.74 37.168C170.022 37.168 171.072 35.824 171.072 33.01C171.072 30.28 169.994 28.852 167.698 28.852C166.34 28.852 165.374 29.342 164.744 30.266L165.514 30.952C165.976 30.266 166.662 29.86 167.67 29.86C169.07 29.86 169.868 30.728 169.868 32.254V33.794C169.868 35.376 169.154 36.16 167.74 36.16C166.284 36.16 165.668 35.474 165.668 33.794V33.374H167.124V32.394H166.004C165.08 32.394 164.548 32.856 164.548 33.808V33.92C164.548 35.978 165.71 37.168 167.74 37.168ZM174.717 37H175.599C177.405 37 178.315 36.174 178.315 33.5V30.98C178.315 29.72 177.797 29.02 176.719 29.02H175.683V30H177.167V33.99C177.167 35.502 176.705 35.992 175.669 35.992H175.543L173.289 29.02H172.127L174.717 37ZM183.441 28.852C181.593 28.852 180.249 29.874 180.249 31.694V32.38H181.999V32.436C181.271 32.604 180.543 33.206 180.543 34.522V37H181.691V34.214C181.691 32.996 182.181 32.45 183.217 32.408V31.568H181.383C181.509 30.364 182.251 29.86 183.441 29.86C184.771 29.86 185.527 30.616 185.527 31.946V37H186.675V31.876C186.675 30.028 185.597 28.852 183.441 28.852ZM191.636 28.852C190.194 28.852 189.228 29.482 188.654 30.406L189.396 31.12C189.83 30.406 190.544 29.86 191.552 29.86C192.896 29.86 193.54 30.462 193.54 31.876V32.296H191.832C189.578 32.296 188.5 33.094 188.5 34.69C188.5 36.23 189.522 37 191.132 37H191.958V35.978H191.272C190.264 35.978 189.704 35.614 189.704 34.802V34.438C189.704 33.738 190.334 33.318 191.594 33.318H193.54V37H194.688V31.708C194.688 29.888 193.624 28.852 191.636 28.852ZM193.739 40.738H194.691V39.086C194.691 38.4 194.313 38.022 193.641 38.022H192.955V38.862H193.725L193.739 40.738ZM193.448 27.9H194.54V25.576H193.448V27.9ZM200.488 37.168C202.112 37.168 203.162 36.062 203.162 34.144V29.02H202.014V33.976C202.014 35.404 201.37 36.146 200.18 36.146C199.2 36.146 198.234 35.656 198.234 34.606V29.02H197.086V37H198.206V35.684H198.262C198.57 36.44 199.172 37.168 200.488 37.168ZM208.278 37.168C210.07 37.168 211.218 36.328 211.218 34.34C211.218 32.716 210.434 32.156 208.488 31.89L206.402 31.624V31.232C206.402 30.308 206.99 29.86 208.166 29.86C209.3 29.86 209.986 30.378 210.322 30.868L211.162 30.14C210.504 29.328 209.664 28.852 208.208 28.852C206.36 28.852 205.268 29.762 205.268 31.19V31.316C205.268 32.156 205.856 32.576 206.92 32.73L208.614 32.954C209.622 33.094 210.112 33.374 210.112 34.424C210.112 35.726 209.426 36.16 208.348 36.16C207.662 36.16 207.228 36.006 206.696 35.712V33.444H205.576V36.258C206.36 36.86 207.228 37.168 208.278 37.168ZM215.599 37.168C217.265 37.168 218.357 36.258 218.357 34.69C218.357 33.486 217.685 32.73 216.089 32.506L215.473 32.422C214.563 32.296 214.003 31.904 214.003 31.134C214.003 30.364 214.563 29.86 215.501 29.86C216.425 29.86 217.111 30.378 217.447 30.868L218.287 30.14C217.629 29.328 216.789 28.852 215.585 28.852C214.115 28.852 212.897 29.622 212.897 31.19C212.897 32.674 213.989 33.206 215.319 33.402L215.935 33.486C216.915 33.626 217.251 34.214 217.251 34.83C217.251 35.656 216.621 36.16 215.669 36.16C214.703 36.16 214.017 35.74 213.387 34.9L212.561 35.6C213.275 36.538 214.185 37.168 215.599 37.168ZM222.681 37.168C224.347 37.168 225.439 36.258 225.439 34.69C225.439 33.486 224.767 32.73 223.171 32.506L222.555 32.422C221.645 32.296 221.085 31.904 221.085 31.134C221.085 30.364 221.645 29.86 222.583 29.86C223.507 29.86 224.193 30.378 224.529 30.868L225.369 30.14C224.711 29.328 223.871 28.852 222.667 28.852C221.197 28.852 219.979 29.622 219.979 31.19C219.979 32.674 221.071 33.206 222.401 33.402L223.017 33.486C223.997 33.626 224.333 34.214 224.333 34.83C224.333 35.656 223.703 36.16 222.751 36.16C221.785 36.16 221.099 35.74 220.469 34.9L219.643 35.6C220.357 36.538 221.267 37.168 222.681 37.168ZM230.785 37.168C232.409 37.168 233.459 36.062 233.459 34.144V29.02H232.311V33.976C232.311 35.404 231.667 36.146 230.477 36.146C229.497 36.146 228.531 35.656 228.531 34.606V29.02H227.383V37H228.503V35.684H228.559C228.867 36.44 229.469 37.168 230.785 37.168ZM242.887 29.51V28.53H241.599C241.109 28.53 240.787 28.796 240.787 29.202V29.384C240.283 29.02 239.667 28.852 238.953 28.852C236.881 28.852 235.789 30.028 235.789 31.876V37H236.937V35.054C236.937 33.878 237.749 33.584 238.491 33.584H239.513V32.436H238.855C237.791 32.436 237.245 33.094 236.993 33.808H236.937V31.946C236.937 30.602 237.707 29.86 238.967 29.86C240.227 29.86 240.997 30.602 240.997 31.946V37H242.145V31.876C242.145 31.064 241.893 30.378 241.445 29.944V29.51H242.887ZM247.687 37H248.835V31.288C248.835 29.734 247.897 28.852 246.259 28.852C245.055 28.852 244.103 29.37 243.613 30.266L244.383 30.966C244.831 30.294 245.377 29.86 246.231 29.86C247.197 29.86 247.687 30.322 247.687 31.414V37ZM257.792 29.51V28.53H256.504C256.014 28.53 255.692 28.796 255.692 29.202V29.3C255.23 28.992 254.614 28.852 253.9 28.852C252.514 28.852 251.548 29.482 250.974 30.406L251.716 31.12C252.15 30.406 252.864 29.86 253.872 29.86C255.216 29.86 255.86 30.462 255.86 31.876V32.296H254.152C251.898 32.296 250.82 33.094 250.82 34.69C250.82 36.23 251.842 37 253.452 37H254.278V35.978H253.592C252.584 35.978 252.024 35.614 252.024 34.802V34.438C252.024 33.738 252.654 33.318 253.914 33.318H255.86V37H257.008V31.75C257.008 30.98 256.812 30.322 256.35 29.832V29.51H257.792ZM262.128 37H262.982V35.978H262.198C260.896 35.978 260.336 35.376 260.336 33.85V32.24C260.336 30.882 260.77 29.958 261.498 29.958L262.562 31.078H262.59L263.654 29.958C264.326 30.028 264.494 30.364 264.494 31.764V37H265.642V30.966C265.642 29.37 264.662 28.852 263.486 28.852L262.604 29.888H262.562L261.666 28.852C260.042 28.852 259.132 30.21 259.132 32.884C259.132 35.768 260.014 37 262.128 37ZM270.478 37.168C272.144 37.168 273.236 36.258 273.236 34.69C273.236 33.486 272.564 32.73 270.968 32.506L270.352 32.422C269.442 32.296 268.882 31.904 268.882 31.134C268.882 30.364 269.442 29.86 270.38 29.86C271.304 29.86 271.99 30.378 272.326 30.868L273.166 30.14C272.508 29.328 271.668 28.852 270.464 28.852C268.994 28.852 267.776 29.622 267.776 31.19C267.776 32.674 268.868 33.206 270.198 33.402L270.814 33.486C271.794 33.626 272.13 34.214 272.13 34.83C272.13 35.656 271.5 36.16 270.548 36.16C269.582 36.16 268.896 35.74 268.266 34.9L267.44 35.6C268.154 36.538 269.064 37.168 270.478 37.168ZM270.971 27.9H272.035V26.99H273.883V26.066H272.553C271.433 26.066 270.971 26.486 270.971 27.48V27.9ZM158.366 58H159.766V57.02H158.324V50.02H157.176V56.81C157.176 57.51 157.596 58 158.366 58ZM162.076 58H163.476V57.02H162.034V50.02H160.886V56.81C160.886 57.51 161.306 58 162.076 58ZM167.492 49.852C166.05 49.852 165.084 50.482 164.51 51.406L165.252 52.12C165.686 51.406 166.4 50.86 167.408 50.86C168.752 50.86 169.396 51.462 169.396 52.876V53.296H167.688C165.434 53.296 164.356 54.094 164.356 55.69C164.356 57.23 165.378 58 166.988 58H167.814V56.978H167.128C166.12 56.978 165.56 56.614 165.56 55.802V55.438C165.56 54.738 166.19 54.318 167.45 54.318H169.396V58H170.544V52.708C170.544 50.888 169.48 49.852 167.492 49.852ZM173.697 53.114L176.161 53.1V52.064L173.599 52.078V50.79L172.507 50.804V51.924C172.507 52.68 172.997 53.114 173.697 53.114ZM173.697 57.174L176.161 57.16V56.124L173.599 56.138V54.85L172.507 54.864V55.984C172.507 56.74 172.997 57.174 173.697 57.174ZM180.816 49.852C178.968 49.852 177.624 50.874 177.624 52.694V53.38H179.374V53.436C178.646 53.604 177.918 54.206 177.918 55.522V58H179.066V55.214C179.066 53.996 179.556 53.45 180.592 53.408V52.568H178.758C178.884 51.364 179.626 50.86 180.816 50.86C182.146 50.86 182.902 51.616 182.902 52.946V58H184.05V52.876C184.05 51.028 182.972 49.852 180.816 49.852ZM189.445 58H190.593V52.288C190.593 50.734 189.655 49.852 188.017 49.852C186.813 49.852 185.861 50.37 185.371 51.266L186.141 51.966C186.589 51.294 187.135 50.86 187.989 50.86C188.955 50.86 189.445 51.322 189.445 52.414V58ZM195.392 58.168C197.058 58.168 198.15 57.258 198.15 55.69C198.15 54.486 197.478 53.73 195.882 53.506L195.266 53.422C194.356 53.296 193.796 52.904 193.796 52.134C193.796 51.364 194.356 50.86 195.294 50.86C196.218 50.86 196.904 51.378 197.24 51.868L198.08 51.14C197.422 50.328 196.582 49.852 195.378 49.852C193.908 49.852 192.69 50.622 192.69 52.19C192.69 53.674 193.782 54.206 195.112 54.402L195.728 54.486C196.708 54.626 197.044 55.214 197.044 55.83C197.044 56.656 196.414 57.16 195.462 57.16C194.496 57.16 193.81 56.74 193.18 55.9L192.354 56.6C193.068 57.538 193.978 58.168 195.392 58.168ZM202.712 58.168C204.476 58.168 205.554 57.16 205.554 55.424V54.388C205.554 53.226 205.036 52.442 204.126 52.162V52.106C204.882 51.798 205.582 51.252 205.582 50.258V50.02H204.406V50.622C204.406 51.518 203.874 52.036 202.936 52.036H202.824V52.918H203.062C203.986 52.918 204.378 53.38 204.378 54.444V55.256C204.378 56.516 203.734 57.16 202.712 57.16C201.676 57.16 201.032 56.642 201.032 55.34C201.032 53.296 202.292 53.324 202.292 51.56V51.392C202.292 50.552 201.914 50.02 200.654 50.02H199.772V51H201.172V51.686C201.172 53.198 199.856 52.918 199.856 55.382C199.856 57.104 200.934 58.168 202.712 58.168ZM204.458 61.738H205.41V60.086C205.41 59.4 205.032 59.022 204.36 59.022H203.674V59.862H204.444L204.458 61.738ZM211.179 58.168C212.803 58.168 213.853 57.062 213.853 55.144V50.02H212.705V54.976C212.705 56.404 212.061 57.146 210.871 57.146C209.891 57.146 208.925 56.656 208.925 55.606V50.02H207.777V58H208.897V56.684H208.953C209.261 57.44 209.863 58.168 211.179 58.168ZM218.885 58.168C220.201 58.168 220.803 57.44 221.111 56.684H221.167V58H222.287V50.02H221.139V55.606C221.139 56.656 220.173 57.146 219.193 57.146C218.003 57.146 217.359 56.404 217.359 54.976V50.02H216.211V55.144C216.211 57.062 217.261 58.168 218.885 58.168ZM221.329 61.738H222.281V60.086C222.281 59.4 221.903 59.022 221.231 59.022H220.545V59.862H221.315L221.329 61.738ZM228.187 58.168C229.811 58.168 230.861 57.062 230.861 55.144V50.02H229.713V54.976C229.713 56.404 229.069 57.146 227.879 57.146C226.899 57.146 225.933 56.656 225.933 55.606V50.02H224.785V58H225.905V56.684H225.961C226.269 57.44 226.871 58.168 228.187 58.168Z" fill="black" fill-opacity="0.5"/>
<path d="M156.92 77H161.69V75.95H160.1V70.02H158.13L156.4 72.06L157.21 72.74L158.74 70.95H158.82V75.95H156.92V77ZM164.996 77.12C166.776 77.12 167.586 75.79 167.586 73.51C167.586 71.23 166.776 69.9 164.996 69.9C163.216 69.9 162.406 71.23 162.406 73.51C162.406 75.79 163.216 77.12 164.996 77.12ZM164.996 76.03C164.096 76.03 163.786 75.3 163.786 74.14V72.88C163.786 71.72 164.096 70.99 164.996 70.99C165.896 70.99 166.206 71.72 166.206 72.88V74.14C166.206 75.3 165.896 76.03 164.996 76.03ZM176.105 71.92V70.96H175.265C174.835 70.96 174.585 71.16 174.575 71.59C174.235 71.3 173.735 71.18 173.165 71.18C172.095 71.18 171.335 71.64 170.925 72.3L171.725 73.02C172.005 72.62 172.405 72.26 173.105 72.26C173.885 72.26 174.235 72.64 174.235 73.36V73.63H172.955C171.555 73.63 170.845 74.22 170.845 75.3C170.845 76.41 171.535 77 172.725 77H173.405V75.94H172.865C172.375 75.94 172.105 75.74 172.105 75.33V75.17C172.105 74.78 172.395 74.56 172.945 74.56H174.235V77H175.495V73.47C175.495 72.82 175.355 72.37 175.095 72.09V71.92H176.105ZM177.92 77.11C178.46 77.11 178.71 76.81 178.71 76.39V76.21C178.71 75.79 178.46 75.48 177.92 75.48C177.38 75.48 177.13 75.79 177.13 76.21V76.39C177.13 76.81 177.38 77.11 177.92 77.11ZM180.108 77H181.388V75.62C181.388 74.99 181.818 74.74 182.478 74.74H182.988V73.63H182.638C181.958 73.63 181.578 74 181.428 74.6H181.388V73.47C181.388 72.66 181.798 72.23 182.558 72.23C183.308 72.23 183.728 72.66 183.728 73.47V77H184.998V73.52C184.998 72.03 184.148 71.15 182.558 71.15C180.958 71.15 180.108 72.03 180.108 73.52V77ZM187.197 77.11C187.737 77.11 187.987 76.81 187.987 76.39V76.21C187.987 75.79 187.737 75.48 187.197 75.48C186.657 75.48 186.407 75.79 186.407 76.21V76.39C186.407 76.81 186.657 77.11 187.197 77.11ZM191.669 77H196.489V75.91H193.069L194.559 74.67C195.519 73.88 196.309 73.14 196.309 71.98C196.309 70.77 195.469 69.9 194.009 69.9C192.589 69.9 191.849 70.71 191.549 71.63L192.669 72.06C192.829 71.49 193.179 71.02 193.899 71.02C194.489 71.02 194.949 71.37 194.949 71.98V72.12C194.949 72.73 194.599 73.23 193.859 73.87L191.669 75.8V77ZM199.985 77.12C201.625 77.12 202.555 76.1 202.555 74.7C202.555 73.32 201.625 72.5 200.425 72.5C199.595 72.5 199.245 72.9 198.955 73.5H198.875L199.045 71.14H202.175V70.02H198.085L197.825 73.93L198.885 74.08C199.095 73.83 199.445 73.56 200.015 73.56C200.765 73.56 201.205 74 201.205 74.73V74.82C201.205 75.58 200.785 76.06 199.995 76.06C199.235 76.06 198.855 75.64 198.535 75.1L197.595 75.83C198.015 76.5 198.695 77.12 199.985 77.12ZM206.061 77.12C207.591 77.12 208.581 76.13 208.581 74.72C208.581 73.4 207.701 72.55 206.531 72.55C205.661 72.55 205.221 73.04 204.951 73.59L204.871 73.56C205.181 72.13 206.141 71.2 207.771 70.02H206.031C204.861 70.8 203.531 72.38 203.531 74.38C203.531 76.05 204.471 77.12 206.061 77.12ZM206.061 76.1C205.311 76.1 204.861 75.67 204.861 74.9V74.75C204.861 73.99 205.311 73.56 206.061 73.56C206.801 73.56 207.251 73.99 207.251 74.75V74.9C207.251 75.67 206.801 76.1 206.061 76.1ZM211.747 77.12C213.277 77.12 214.307 76.3 214.307 75.07C214.307 74.08 213.647 73.51 212.847 73.36V73.31C213.577 73.16 214.177 72.61 214.177 71.72C214.177 70.6 213.217 69.9 211.827 69.9C210.657 69.9 209.997 70.41 209.527 71.06L210.357 71.81C210.687 71.28 211.177 70.96 211.787 70.96C212.427 70.96 212.827 71.31 212.827 71.89V71.96C212.827 72.47 212.447 72.85 211.647 72.85H210.957V73.92H211.647C212.487 73.92 212.967 74.27 212.967 74.93V74.99C212.967 75.65 212.527 76.06 211.747 76.06C210.957 76.06 210.547 75.66 210.227 75.1L209.277 75.83C209.717 76.5 210.397 77.12 211.747 77.12Z" fill="black" fill-opacity="0.5"/>
<path d="M158.366 125H159.766V124.02H158.324V117.02H157.176V123.81C157.176 124.51 157.596 125 158.366 125ZM162.076 125H163.476V124.02H162.034V117.02H160.886V123.81C160.886 124.51 161.306 125 162.076 125ZM167.786 116.852C165.798 116.852 164.608 117.874 164.608 119.694V120.38H166.26V120.436C165.532 120.604 164.804 121.206 164.804 122.606V123.11C164.804 124.384 165.35 125 166.442 125H167.324V124.02H165.924V122.214C165.924 120.996 166.414 120.45 167.562 120.408V119.568H165.7C165.826 118.42 166.512 117.86 167.786 117.86C169.116 117.86 169.886 118.602 169.886 119.946V125H171.034V119.876C171.034 118.028 169.942 116.852 167.786 116.852ZM175.996 116.852C174.554 116.852 173.588 117.482 173.014 118.406L173.756 119.12C174.19 118.406 174.904 117.86 175.912 117.86C177.256 117.86 177.9 118.462 177.9 119.876V120.296H176.192C173.938 120.296 172.86 121.094 172.86 122.69C172.86 124.23 173.882 125 175.492 125H176.318V123.978H175.632C174.624 123.978 174.064 123.614 174.064 122.802V122.438C174.064 121.738 174.694 121.318 175.954 121.318H177.9V125H179.048V119.708C179.048 117.888 177.984 116.852 175.996 116.852ZM183.139 125H184.021C185.827 125 186.737 124.174 186.737 121.5V118.98C186.737 117.72 186.219 117.02 185.141 117.02H184.105V118H185.589V121.99C185.589 123.502 185.127 123.992 184.091 123.992H183.965L181.711 117.02H180.549L183.139 125ZM191.583 125.168C193.347 125.168 194.397 124.16 194.397 122.424V117.02H193.249V122.256C193.249 123.516 192.605 124.16 191.583 124.16C190.547 124.16 189.903 123.642 189.903 122.34C189.903 120.296 191.163 120.324 191.163 118.56V118.392C191.163 117.552 190.785 117.02 189.525 117.02H188.643V118H190.043V118.686C190.043 120.198 188.727 119.918 188.727 122.382C188.727 124.104 189.791 125.168 191.583 125.168ZM193.366 115.9H194.458V113.576H193.366V115.9ZM199.808 125H200.956V119.288C200.956 117.734 200.018 116.852 198.38 116.852C197.176 116.852 196.224 117.37 195.734 118.266L196.504 118.966C196.952 118.294 197.498 117.86 198.352 117.86C199.318 117.86 199.808 118.322 199.808 119.414V125ZM205.447 125.168C207.589 125.168 208.611 123.74 208.611 121.01C208.611 118.28 207.589 116.852 205.447 116.852C204.005 116.852 203.081 117.552 202.633 118.546L203.641 119.022C203.935 118.294 204.593 117.86 205.447 117.86C206.609 117.86 207.407 118.728 207.407 120.254V121.766C207.407 123.292 206.609 124.16 205.447 124.16C204.593 124.16 203.935 123.726 203.641 122.998L202.633 123.474C203.081 124.468 204.005 125.168 205.447 125.168ZM213.451 116.852C211.603 116.852 210.259 117.874 210.259 119.694V120.38H212.009V120.436C211.281 120.604 210.553 121.206 210.553 122.522V125H211.701V122.214C211.701 120.996 212.191 120.45 213.227 120.408V119.568H211.393C211.519 118.364 212.261 117.86 213.451 117.86C214.781 117.86 215.537 118.616 215.537 119.946V125H216.685V119.876C216.685 118.028 215.607 116.852 213.451 116.852ZM222.08 125H223.228V119.288C223.228 117.734 222.29 116.852 220.652 116.852C219.448 116.852 218.496 117.37 218.006 118.266L218.776 118.966C219.224 118.294 219.77 117.86 220.624 117.86C221.59 117.86 222.08 118.322 222.08 119.414V125ZM228.026 125.168C229.692 125.168 230.784 124.258 230.784 122.69C230.784 121.486 230.112 120.73 228.516 120.506L227.9 120.422C226.99 120.296 226.43 119.904 226.43 119.134C226.43 118.364 226.99 117.86 227.928 117.86C228.852 117.86 229.538 118.378 229.874 118.868L230.714 118.14C230.056 117.328 229.216 116.852 228.012 116.852C226.542 116.852 225.324 117.622 225.324 119.19C225.324 120.674 226.416 121.206 227.746 121.402L228.362 121.486C229.342 121.626 229.678 122.214 229.678 122.83C229.678 123.656 229.048 124.16 228.096 124.16C227.13 124.16 226.444 123.74 225.814 122.9L224.988 123.6C225.702 124.538 226.612 125.168 228.026 125.168ZM234.926 116.852C233.568 116.852 232.616 117.342 232.014 118.266L232.756 118.98C233.19 118.266 233.904 117.86 234.912 117.86C236.368 117.86 237.18 118.728 237.18 120.254V121.598C237.18 123.208 236.466 123.992 235.458 123.992H235.276L234.646 121.584C234.394 120.632 234.114 120.352 233.4 120.352H232.504V121.332H233.456L234.45 125H235.458C237.306 125 238.384 123.656 238.384 120.898C238.384 118.28 237.348 116.852 234.926 116.852ZM236.962 115.9H239.762V114.976H236.444V114.08H235.38V114.486C235.38 115.48 235.842 115.9 236.962 115.9ZM242.919 125H243.619V123.978H242.989C241.827 123.978 241.127 123.376 241.127 121.85V120.352C241.127 118.756 241.911 117.86 243.199 117.86C244.459 117.86 245.131 118.644 245.131 120.03V125H246.279V119.876C246.279 117.958 245.215 116.852 243.227 116.852C241.071 116.852 239.923 118.238 239.923 121.052C239.923 123.964 240.861 125 242.919 125ZM251.315 125.168C253.079 125.168 254.157 124.16 254.157 122.424V121.388C254.157 120.226 253.639 119.442 252.729 119.162V119.106C253.485 118.798 254.185 118.252 254.185 117.258V117.02H253.009V117.622C253.009 118.518 252.477 119.036 251.539 119.036H251.427V119.918H251.665C252.589 119.918 252.981 120.38 252.981 121.444V122.256C252.981 123.516 252.337 124.16 251.315 124.16C250.279 124.16 249.635 123.642 249.635 122.34C249.635 120.296 250.895 120.324 250.895 118.56V118.392C250.895 117.552 250.517 117.02 249.257 117.02H248.375V118H249.775V118.686C249.775 120.198 248.459 119.918 248.459 122.382C248.459 124.104 249.537 125.168 251.315 125.168ZM253.061 128.738H254.013V127.086C254.013 126.4 253.635 126.022 252.963 126.022H252.277V126.862H253.047L253.061 128.738ZM259.783 125.168C261.407 125.168 262.457 124.062 262.457 122.144V117.02H261.309V121.976C261.309 123.404 260.665 124.146 259.475 124.146C258.495 124.146 257.529 123.656 257.529 122.606V117.02H256.381V125H257.501V123.684H257.557C257.865 124.44 258.467 125.168 259.783 125.168ZM267.489 125.168C268.805 125.168 269.407 124.44 269.715 123.684H269.771V125H270.891V117.02H269.743V122.606C269.743 123.656 268.777 124.146 267.797 124.146C266.607 124.146 265.963 123.404 265.963 121.976V117.02H264.815V122.144C264.815 124.062 265.865 125.168 267.489 125.168ZM269.933 128.738H270.885V127.086C270.885 126.4 270.507 126.022 269.835 126.022H269.149V126.862H269.919L269.933 128.738ZM276.791 125.168C278.415 125.168 279.465 124.062 279.465 122.144V117.02H278.317V121.976C278.317 123.404 277.673 124.146 276.483 124.146C275.503 124.146 274.537 123.656 274.537 122.606V117.02H273.389V125H274.509V123.684H274.565C274.873 124.44 275.475 125.168 276.791 125.168ZM283.516 125H284.916V124.02H283.446V116.418C284.272 116.236 285.224 115.592 285.224 114.22C285.224 112.932 284.342 112.092 282.97 112.092C281.766 112.092 280.912 112.722 280.562 113.786L281.5 114.374C281.752 113.534 282.2 113.086 282.928 113.086C283.628 113.086 284.048 113.506 284.048 114.22V114.374C284.048 115.242 283.404 115.76 282.326 115.802V123.81C282.326 124.51 282.746 125 283.516 125ZM286.486 125H287.634V120.744H289.944C290.868 120.744 291.26 121.206 291.26 122.27V125H292.436V122.074C292.436 120.87 291.89 120.086 290.924 119.82V119.764C291.68 119.484 292.38 118.938 292.38 117.944V117.02H291.232V118.308C291.232 118.91 290.938 119.722 289.762 119.722H287.634V117.02H286.486V125ZM304.249 117.02V122.466C304.249 123.516 303.283 124.006 302.387 124.006C301.393 124.006 300.749 123.516 300.749 121.85V119.876C300.749 118.028 299.629 116.852 297.599 116.852C295.639 116.852 294.449 117.874 294.449 119.694V120.38H296.101V120.436C295.373 120.604 294.645 121.206 294.645 122.606V123.11C294.645 124.384 295.191 125 296.283 125H297.165V124.02H295.765V122.214C295.765 120.996 296.255 120.45 297.403 120.408V119.568H295.541C295.667 118.42 296.353 117.86 297.599 117.86C298.845 117.86 299.601 118.602 299.601 119.946V122.018C299.601 124.174 300.651 125.028 302.079 125.028C303.311 125.028 303.913 124.3 304.221 123.544H304.277V124.608C304.277 126.008 303.577 126.61 302.359 126.61C301.477 126.61 300.763 126.204 300.329 125.504L299.587 126.218C300.161 127.142 301.127 127.632 302.457 127.632C304.277 127.632 305.397 126.596 305.397 124.776V117.02H304.249ZM304.286 115.9H305.378V113.576H304.286V115.9Z" fill="black" fill-opacity="0.5"/>
<path d="M157.26 144H159C160.17 143.22 161.5 141.64 161.5 139.64C161.5 137.97 160.56 136.9 158.97 136.9C157.44 136.9 156.45 137.89 156.45 139.3C156.45 140.62 157.33 141.47 158.5 141.47C159.37 141.47 159.81 140.98 160.08 140.43L160.16 140.46C159.85 141.89 158.89 142.82 157.26 144ZM158.97 140.46C158.23 140.46 157.78 140.03 157.78 139.27V139.12C157.78 138.35 158.23 137.92 158.97 137.92C159.72 137.92 160.17 138.35 160.17 139.12V139.27C160.17 140.03 159.72 140.46 158.97 140.46ZM167.429 138.15C165.909 138.15 164.969 138.99 164.969 140.48V140.94H166.319V140.99C165.719 141.11 165.139 141.55 165.139 142.46V144H166.419V142.33C166.419 141.37 166.709 141.01 167.359 140.97V140.09H166.209C166.299 139.5 166.709 139.2 167.389 139.2C168.169 139.2 168.599 139.64 168.599 140.46V144H169.879V140.52C169.879 139.03 169.059 138.15 167.429 138.15ZM172.08 144.11C172.62 144.11 172.87 143.81 172.87 143.39V143.21C172.87 142.79 172.62 142.48 172.08 142.48C171.54 142.48 171.29 142.79 171.29 143.21V143.39C171.29 143.81 171.54 144.11 172.08 144.11ZM176.489 144.12C178.149 144.12 178.839 143.31 178.839 141.63V138.27H177.569V141.78C177.569 142.62 177.229 143.04 176.489 143.04C175.759 143.04 175.389 142.62 175.389 141.86V141.38H176.509V140.4H176.329C175.739 140.4 175.409 139.95 175.409 139.4V139.27H176.419V138.27H175.389C174.619 138.27 174.219 138.67 174.219 139.26V139.3C174.219 139.95 174.739 140.33 175.389 140.41V140.46H175.289C174.569 140.46 174.109 141.08 174.109 141.91V142.08C174.109 143.37 174.959 144.12 176.489 144.12ZM181.054 144.11C181.594 144.11 181.844 143.81 181.844 143.39V143.21C181.844 142.79 181.594 142.48 181.054 142.48C180.514 142.48 180.264 142.79 180.264 143.21V143.39C180.264 143.81 180.514 144.11 181.054 144.11ZM185.526 144H190.346V142.91H186.926L188.416 141.67C189.376 140.88 190.166 140.14 190.166 138.98C190.166 137.77 189.326 136.9 187.866 136.9C186.446 136.9 185.706 137.71 185.406 138.63L186.526 139.06C186.686 138.49 187.036 138.02 187.756 138.02C188.346 138.02 188.806 138.37 188.806 138.98V139.12C188.806 139.73 188.456 140.23 187.716 140.87L185.526 142.8V144ZM193.843 144.12C195.483 144.12 196.413 143.1 196.413 141.7C196.413 140.32 195.483 139.5 194.283 139.5C193.453 139.5 193.103 139.9 192.813 140.5H192.733L192.903 138.14H196.033V137.02H191.943L191.683 140.93L192.743 141.08C192.953 140.83 193.303 140.56 193.873 140.56C194.623 140.56 195.063 141 195.063 141.73V141.82C195.063 142.58 194.643 143.06 193.853 143.06C193.093 143.06 192.713 142.64 192.393 142.1L191.453 142.83C191.873 143.5 192.553 144.12 193.843 144.12ZM199.919 144.12C201.449 144.12 202.439 143.13 202.439 141.72C202.439 140.4 201.559 139.55 200.389 139.55C199.519 139.55 199.079 140.04 198.809 140.59L198.729 140.56C199.039 139.13 199.999 138.2 201.629 137.02H199.889C198.719 137.8 197.389 139.38 197.389 141.38C197.389 143.05 198.329 144.12 199.919 144.12ZM199.919 143.1C199.169 143.1 198.719 142.67 198.719 141.9V141.75C198.719 140.99 199.169 140.56 199.919 140.56C200.659 140.56 201.109 140.99 201.109 141.75V141.9C201.109 142.67 200.659 143.1 199.919 143.1ZM205.605 144.12C207.135 144.12 208.165 143.3 208.165 142.07C208.165 141.08 207.505 140.51 206.705 140.36V140.31C207.435 140.16 208.035 139.61 208.035 138.72C208.035 137.6 207.075 136.9 205.685 136.9C204.515 136.9 203.855 137.41 203.385 138.06L204.215 138.81C204.545 138.28 205.035 137.96 205.645 137.96C206.285 137.96 206.685 138.31 206.685 138.89V138.96C206.685 139.47 206.305 139.85 205.505 139.85H204.815V140.92H205.505C206.345 140.92 206.825 141.27 206.825 141.93V141.99C206.825 142.65 206.385 143.06 205.605 143.06C204.815 143.06 204.405 142.66 204.085 142.1L203.135 142.83C203.575 143.5 204.255 144.12 205.605 144.12Z" fill="black" fill-opacity="0.5"/>
<path d="M159.864 338.168C161.628 338.168 162.706 337.16 162.706 335.424V334.388C162.706 333.226 162.188 332.442 161.278 332.162V332.106C162.034 331.798 162.734 331.252 162.734 330.258V330.02H161.558V330.622C161.558 331.518 161.026 332.036 160.088 332.036H159.976V332.918H160.214C161.138 332.918 161.53 333.38 161.53 334.444V335.256C161.53 336.516 160.886 337.16 159.864 337.16C158.828 337.16 158.184 336.642 158.184 335.34C158.184 333.296 159.444 333.324 159.444 331.56V331.392C159.444 330.552 159.066 330.02 157.806 330.02H156.924V331H158.324V331.686C158.324 333.198 157.008 332.918 157.008 335.382C157.008 337.104 158.086 338.168 159.864 338.168ZM161.61 341.738H162.562V340.086C162.562 339.4 162.184 339.022 161.512 339.022H160.826V339.862H161.596L161.61 341.738ZM168.332 338.168C169.956 338.168 171.006 337.062 171.006 335.144V330.02H169.858V334.976C169.858 336.404 169.214 337.146 168.024 337.146C167.044 337.146 166.078 336.656 166.078 335.606V330.02H164.93V338H166.05V336.684H166.106C166.414 337.44 167.016 338.168 168.332 338.168ZM176.038 338.168C177.354 338.168 177.956 337.44 178.264 336.684H178.32V338H179.44V330.02H178.292V335.606C178.292 336.656 177.326 337.146 176.346 337.146C175.156 337.146 174.512 336.404 174.512 334.976V330.02H173.364V335.144C173.364 337.062 174.414 338.168 176.038 338.168ZM178.481 341.738H179.433V340.086C179.433 339.4 179.055 339.022 178.383 339.022H177.697V339.862H178.467L178.481 341.738ZM185.339 338.168C186.963 338.168 188.013 337.062 188.013 335.144V330.02H186.865V334.976C186.865 336.404 186.221 337.146 185.031 337.146C184.051 337.146 183.085 336.656 183.085 335.606V330.02H181.937V338H183.057V336.684H183.113C183.421 337.44 184.023 338.168 185.339 338.168ZM157.848 352.14C158.436 352.14 158.702 351.804 158.702 351.314V351.118C158.702 350.74 158.534 350.46 158.156 350.376C158.31 349.718 158.646 349.228 159.206 348.64H158.268C157.47 349.326 156.994 350.362 156.994 351.118V351.314C156.994 351.804 157.26 352.14 157.848 352.14ZM161.06 359H167.486V357.964H164.966V349.228H163.132L160.542 351.65L161.228 352.392L163.692 350.096H163.79V357.964H161.06V359ZM170.687 359H172.199C173.767 357.978 175.685 355.71 175.685 352.812C175.685 350.488 174.439 349.06 172.409 349.06C170.449 349.06 169.161 350.376 169.161 352.294C169.161 354.142 170.365 355.304 172.045 355.304C173.235 355.304 173.935 354.702 174.397 353.904L174.467 353.932C173.935 356.2 172.773 357.474 170.687 359ZM172.423 354.31C171.135 354.31 170.379 353.568 170.379 352.252V352.14C170.379 350.824 171.135 350.082 172.423 350.082C173.711 350.082 174.467 350.824 174.467 352.14V352.252C174.467 353.568 173.711 354.31 172.423 354.31ZM184.07 350.852C182.222 350.852 180.878 351.874 180.878 353.694V354.38H182.628V354.436C181.9 354.604 181.172 355.206 181.172 356.522V359H182.32V356.214C182.32 354.996 182.81 354.45 183.846 354.408V353.568H182.012C182.138 352.364 182.88 351.86 184.07 351.86C185.4 351.86 186.156 352.616 186.156 353.946V359H187.304V353.876C187.304 352.028 186.226 350.852 184.07 350.852ZM185.87 349.9H188.67V348.976H185.352V348.08H184.288V348.486C184.288 349.48 184.75 349.9 185.87 349.9ZM192.307 359.168C193.623 359.168 194.225 358.44 194.533 357.684H194.589V359H195.709V351.02H194.561V356.606C194.561 357.656 193.595 358.146 192.615 358.146C191.425 358.146 190.781 357.404 190.781 355.976V351.02H189.633V356.144C189.633 358.062 190.683 359.168 192.307 359.168ZM200.965 359.168C202.939 359.168 203.989 358.062 203.989 356.144V351.02H202.841V355.976C202.841 357.418 202.197 358.16 200.965 358.16C199.733 358.16 199.089 357.474 199.089 356.34V355.066H200.993V354.058H200.629C199.509 354.058 199.159 353.218 199.159 352.28V352H200.811V351.02H199.537C198.529 351.02 198.039 351.51 198.039 352.364V352.434C198.039 353.372 198.781 353.848 199.495 354.016V354.058H199.369C198.445 354.058 197.941 354.744 197.941 355.906V356.354C197.941 358.118 198.991 359.168 200.965 359.168ZM209.406 359H210.554V353.288C210.554 351.734 209.616 350.852 207.978 350.852C206.774 350.852 205.822 351.37 205.332 352.266L206.102 352.966C206.55 352.294 207.096 351.86 207.95 351.86C208.916 351.86 209.406 352.322 209.406 353.414V359ZM157.246 380H158.394V374.428C158.394 373.378 159.388 372.888 160.396 372.888C161.572 372.888 162.216 373.63 162.216 375.058V380H163.364V374.876C163.364 372.958 162.314 371.852 160.704 371.852C159.36 371.852 158.744 372.58 158.422 373.336H158.366V372.02H157.246V380ZM167.863 380.168C170.005 380.168 171.027 378.74 171.027 376.01C171.027 373.28 170.005 371.852 167.863 371.852C166.421 371.852 165.497 372.552 165.049 373.546L166.057 374.022C166.351 373.294 167.009 372.86 167.863 372.86C169.025 372.86 169.823 373.728 169.823 375.254V376.766C169.823 378.292 169.025 379.16 167.863 379.16C167.009 379.16 166.351 378.726 166.057 377.998L165.049 378.474C165.497 379.468 166.421 380.168 167.863 380.168ZM174.663 380H175.545C177.351 380 178.261 379.174 178.261 376.5V373.98C178.261 372.72 177.743 372.02 176.665 372.02H175.629V373H177.113V376.99C177.113 378.502 176.651 378.992 175.615 378.992H175.489L173.235 372.02H172.073L174.663 380ZM183.134 380.168C185.416 380.168 186.466 378.824 186.466 376.01C186.466 373.28 185.388 371.852 183.092 371.852C181.734 371.852 180.768 372.342 180.138 373.266L180.908 373.952C181.37 373.266 182.056 372.86 183.064 372.86C184.464 372.86 185.262 373.728 185.262 375.254V376.794C185.262 378.376 184.548 379.16 183.134 379.16C181.678 379.16 181.062 378.474 181.062 376.794V376.374H182.518V375.394H181.398C180.474 375.394 179.942 375.856 179.942 376.808V376.92C179.942 378.978 181.104 380.168 183.134 380.168ZM185.68 370.942C186.674 370.942 187.108 370.424 187.108 369.724V369.36C187.108 368.66 186.674 368.142 185.68 368.142C184.686 368.142 184.252 368.66 184.252 369.36V369.724C184.252 370.424 184.686 370.942 185.68 370.942ZM185.68 370.13C185.33 370.13 185.148 369.934 185.148 369.542C185.148 369.15 185.33 368.954 185.68 368.954C186.03 368.954 186.212 369.15 186.212 369.542C186.212 369.934 186.03 370.13 185.68 370.13ZM191.414 380H192.562V374.288C192.562 372.734 191.624 371.852 189.986 371.852C188.782 371.852 187.83 372.37 187.34 373.266L188.11 373.966C188.558 373.294 189.104 372.86 189.958 372.86C190.924 372.86 191.414 373.322 191.414 374.414V380ZM197.584 380.168C198.9 380.168 199.502 379.44 199.81 378.684H199.866V380H200.986V372.02H199.838V377.606C199.838 378.656 198.872 379.146 197.892 379.146C196.702 379.146 196.058 378.404 196.058 376.976V372.02H194.91V377.144C194.91 379.062 195.96 380.168 197.584 380.168ZM206.48 380H207.628V374.288C207.628 372.734 206.69 371.852 205.052 371.852C203.848 371.852 202.896 372.37 202.406 373.266L203.176 373.966C203.624 373.294 204.17 372.86 205.024 372.86C205.99 372.86 206.48 373.322 206.48 374.414V380ZM212.245 371.852C210.887 371.852 209.935 372.342 209.333 373.266L210.075 373.98C210.509 373.266 211.223 372.86 212.231 372.86C213.687 372.86 214.499 373.728 214.499 375.254V376.598C214.499 378.208 213.785 378.992 212.777 378.992H212.595L211.965 376.584C211.713 375.632 211.433 375.352 210.719 375.352H209.823V376.332H210.775L211.769 380H212.777C214.625 380 215.703 378.656 215.703 375.898C215.703 373.28 214.667 371.852 212.245 371.852ZM217.605 380H218.753V378.054C218.753 376.878 219.565 376.584 220.307 376.584H221.329V375.436H220.671C219.607 375.436 219.061 376.094 218.809 376.808H218.753V374.946C218.753 373.602 219.523 372.86 220.783 372.86C222.043 372.86 222.813 373.602 222.813 374.946V380H223.961V374.876C223.961 373.028 222.869 371.852 220.783 371.852C218.697 371.852 217.605 373.028 217.605 374.876V380ZM222.874 368.786V369.976H222.286V368.786H221.334V369.976H218.268V370.9H222.664C223.434 370.9 223.826 370.522 223.826 369.766V368.786H222.874ZM228.961 380.168C230.277 380.168 230.879 379.44 231.187 378.684H231.243V380H232.363V372.02H231.215V377.606C231.215 378.656 230.249 379.146 229.269 379.146C228.079 379.146 227.435 378.404 227.435 376.976V372.02H226.287V377.144C226.287 379.062 227.337 380.168 228.961 380.168ZM237.241 380.168C238.907 380.168 239.999 379.258 239.999 377.69C239.999 376.486 239.327 375.73 237.731 375.506L237.115 375.422C236.205 375.296 235.645 374.904 235.645 374.134C235.645 373.364 236.205 372.86 237.143 372.86C238.067 372.86 238.753 373.378 239.089 373.868L239.929 373.14C239.271 372.328 238.431 371.852 237.227 371.852C235.757 371.852 234.539 372.622 234.539 374.19C234.539 375.674 235.631 376.206 236.961 376.402L237.577 376.486C238.557 376.626 238.893 377.214 238.893 377.83C238.893 378.656 238.263 379.16 237.311 379.16C236.345 379.16 235.659 378.74 235.029 377.9L234.203 378.6C234.917 379.538 235.827 380.168 237.241 380.168ZM244.939 380H246.087V374.288C246.087 372.734 245.149 371.852 243.511 371.852C242.307 371.852 241.355 372.37 240.865 373.266L241.635 373.966C242.083 373.294 242.629 372.86 243.483 372.86C244.449 372.86 244.939 373.322 244.939 374.414V380ZM255.646 375.016H254.652V372.02H253.504V375.002H251.544V376.024H253.504V377.074C253.504 378.418 252.734 379.16 251.544 379.16C250.354 379.16 249.584 378.418 249.584 377.074V372.02H248.436V377.144C248.436 378.992 249.528 380.168 251.544 380.168C253.56 380.168 254.652 378.992 254.652 377.144V376.024H255.646V375.016ZM260.183 371.852C258.167 371.852 256.949 372.874 256.949 374.694V375.38H258.979V375.436C258.251 375.604 257.523 376.206 257.523 377.522V379.02H256.543V380H257.145C258.307 380 258.643 379.65 258.643 378.278V377.214C258.643 376.234 258.979 375.45 260.043 375.408V374.568H258.069C258.167 373.378 258.811 372.86 260.183 372.86C261.569 372.86 262.367 373.616 262.367 374.946V381.96H262.297C261.835 381.246 261.065 380.756 260.043 380.756C259.035 380.756 258.027 381.372 257.537 382.24L258.307 382.926C258.727 382.212 259.357 381.75 260.239 381.75C261.051 381.75 261.751 382.086 262.325 382.8H263.515V374.876C263.515 373.028 262.451 371.852 260.183 371.852ZM268.29 380.168C269.956 380.168 271.048 379.258 271.048 377.69C271.048 376.486 270.376 375.73 268.78 375.506L268.164 375.422C267.254 375.296 266.694 374.904 266.694 374.134C266.694 373.364 267.254 372.86 268.192 372.86C269.116 372.86 269.802 373.378 270.138 373.868L270.978 373.14C270.32 372.328 269.48 371.852 268.276 371.852C266.806 371.852 265.588 372.622 265.588 374.19C265.588 375.674 266.68 376.206 268.01 376.402L268.626 376.486C269.606 376.626 269.942 377.214 269.942 377.83C269.942 378.656 269.312 379.16 268.36 379.16C267.394 379.16 266.708 378.74 266.078 377.9L265.252 378.6C265.966 379.538 266.876 380.168 268.29 380.168ZM272.362 373H273.3C274.098 372.314 274.574 371.278 274.574 370.522V370.326C274.574 369.836 274.308 369.5 273.72 369.5C273.132 369.5 272.866 369.836 272.866 370.326V370.522C272.866 370.9 273.034 371.18 273.412 371.264C273.258 371.922 272.922 372.412 272.362 373Z" fill="black" fill-opacity="0.5"/>
<path d="M156.92 399H161.69V397.95H160.1V392.02H158.13L156.4 394.06L157.21 394.74L158.74 392.95H158.82V397.95H156.92V399ZM163.256 399H164.996C166.166 398.22 167.496 396.64 167.496 394.64C167.496 392.97 166.556 391.9 164.966 391.9C163.436 391.9 162.446 392.89 162.446 394.3C162.446 395.62 163.326 396.47 164.496 396.47C165.366 396.47 165.806 395.98 166.076 395.43L166.156 395.46C165.846 396.89 164.886 397.82 163.256 399ZM164.966 395.46C164.226 395.46 163.776 395.03 163.776 394.27V394.12C163.776 393.35 164.226 392.92 164.966 392.92C165.716 392.92 166.166 393.35 166.166 394.12V394.27C166.166 395.03 165.716 395.46 164.966 395.46ZM173.425 393.15C171.905 393.15 170.965 393.99 170.965 395.48V395.94H172.315V395.99C171.715 396.11 171.135 396.55 171.135 397.46V399H172.415V397.33C172.415 396.37 172.705 396.01 173.355 395.97V395.09H172.205C172.295 394.5 172.705 394.2 173.385 394.2C174.165 394.2 174.595 394.64 174.595 395.46V399H175.875V395.52C175.875 394.03 175.055 393.15 173.425 393.15ZM178.076 399.11C178.616 399.11 178.866 398.81 178.866 398.39V398.21C178.866 397.79 178.616 397.48 178.076 397.48C177.536 397.48 177.286 397.79 177.286 398.21V398.39C177.286 398.81 177.536 399.11 178.076 399.11ZM182.485 399.12C184.145 399.12 184.835 398.31 184.835 396.63V393.27H183.565V396.78C183.565 397.62 183.225 398.04 182.485 398.04C181.755 398.04 181.385 397.62 181.385 396.86V396.38H182.505V395.4H182.325C181.735 395.4 181.405 394.95 181.405 394.4V394.27H182.415V393.27H181.385C180.615 393.27 180.215 393.67 180.215 394.26V394.3C180.215 394.95 180.735 395.33 181.385 395.41V395.46H181.285C180.565 395.46 180.105 396.08 180.105 396.91V397.08C180.105 398.37 180.955 399.12 182.485 399.12ZM187.051 399.11C187.591 399.11 187.841 398.81 187.841 398.39V398.21C187.841 397.79 187.591 397.48 187.051 397.48C186.511 397.48 186.261 397.79 186.261 398.21V398.39C186.261 398.81 186.511 399.11 187.051 399.11ZM191.523 399H196.343V397.91H192.923L194.413 396.67C195.373 395.88 196.163 395.14 196.163 393.98C196.163 392.77 195.323 391.9 193.863 391.9C192.443 391.9 191.703 392.71 191.403 393.63L192.523 394.06C192.683 393.49 193.033 393.02 193.753 393.02C194.343 393.02 194.803 393.37 194.803 393.98V394.12C194.803 394.73 194.453 395.23 193.713 395.87L191.523 397.8V399ZM199.839 399.12C201.479 399.12 202.409 398.1 202.409 396.7C202.409 395.32 201.479 394.5 200.279 394.5C199.449 394.5 199.099 394.9 198.809 395.5H198.729L198.899 393.14H202.029V392.02H197.939L197.679 395.93L198.739 396.08C198.949 395.83 199.299 395.56 199.869 395.56C200.619 395.56 201.059 396 201.059 396.73V396.82C201.059 397.58 200.639 398.06 199.849 398.06C199.089 398.06 198.709 397.64 198.389 397.1L197.449 397.83C197.869 398.5 198.549 399.12 199.839 399.12ZM205.915 399.12C207.445 399.12 208.435 398.13 208.435 396.72C208.435 395.4 207.555 394.55 206.385 394.55C205.515 394.55 205.075 395.04 204.805 395.59L204.725 395.56C205.035 394.13 205.995 393.2 207.625 392.02H205.885C204.715 392.8 203.385 394.38 203.385 396.38C203.385 398.05 204.325 399.12 205.915 399.12ZM205.915 398.1C205.165 398.1 204.715 397.67 204.715 396.9V396.75C204.715 395.99 205.165 395.56 205.915 395.56C206.655 395.56 207.105 395.99 207.105 396.75V396.9C207.105 397.67 206.655 398.1 205.915 398.1ZM211.601 399.12C213.131 399.12 214.161 398.3 214.161 397.07C214.161 396.08 213.501 395.51 212.701 395.36V395.31C213.431 395.16 214.031 394.61 214.031 393.72C214.031 392.6 213.071 391.9 211.681 391.9C210.511 391.9 209.851 392.41 209.381 393.06L210.211 393.81C210.541 393.28 211.031 392.96 211.641 392.96C212.281 392.96 212.681 393.31 212.681 393.89V393.96C212.681 394.47 212.301 394.85 211.501 394.85H210.811V395.92H211.501C212.341 395.92 212.821 396.27 212.821 396.93V396.99C212.821 397.65 212.381 398.06 211.601 398.06C210.811 398.06 210.401 397.66 210.081 397.1L209.131 397.83C209.571 398.5 210.251 399.12 211.601 399.12Z" fill="black" fill-opacity="0.5"/>
<path d="M159.864 444.168C161.628 444.168 162.706 443.16 162.706 441.424V440.388C162.706 439.226 162.188 438.442 161.278 438.162V438.106C162.034 437.798 162.734 437.252 162.734 436.258V436.02H161.558V436.622C161.558 437.518 161.026 438.036 160.088 438.036H159.976V438.918H160.214C161.138 438.918 161.53 439.38 161.53 440.444V441.256C161.53 442.516 160.886 443.16 159.864 443.16C158.828 443.16 158.184 442.642 158.184 441.34C158.184 439.296 159.444 439.324 159.444 437.56V437.392C159.444 436.552 159.066 436.02 157.806 436.02H156.924V437H158.324V437.686C158.324 439.198 157.008 438.918 157.008 441.382C157.008 443.104 158.086 444.168 159.864 444.168ZM161.61 447.738H162.562V446.086C162.562 445.4 162.184 445.022 161.512 445.022H160.826V445.862H161.596L161.61 447.738ZM168.332 444.168C169.956 444.168 171.006 443.062 171.006 441.144V436.02H169.858V440.976C169.858 442.404 169.214 443.146 168.024 443.146C167.044 443.146 166.078 442.656 166.078 441.606V436.02H164.93V444H166.05V442.684H166.106C166.414 443.44 167.016 444.168 168.332 444.168ZM176.038 444.168C177.354 444.168 177.956 443.44 178.264 442.684H178.32V444H179.44V436.02H178.292V441.606C178.292 442.656 177.326 443.146 176.346 443.146C175.156 443.146 174.512 442.404 174.512 440.976V436.02H173.364V441.144C173.364 443.062 174.414 444.168 176.038 444.168ZM178.481 447.738H179.433V446.086C179.433 445.4 179.055 445.022 178.383 445.022H177.697V445.862H178.467L178.481 447.738ZM185.339 444.168C186.963 444.168 188.013 443.062 188.013 441.144V436.02H186.865V440.976C186.865 442.404 186.221 443.146 185.031 443.146C184.051 443.146 183.085 442.656 183.085 441.606V436.02H181.937V444H183.057V442.684H183.113C183.421 443.44 184.023 444.168 185.339 444.168ZM192.975 444H193.829V442.978H193.045C191.743 442.978 191.183 442.376 191.183 440.85V439.24C191.183 437.882 191.617 436.958 192.345 436.958L193.409 438.078H193.437L194.501 436.958C195.173 437.028 195.341 437.364 195.341 438.764V444H196.489V437.966C196.489 436.37 195.509 435.852 194.333 435.852L193.451 436.888H193.409L192.513 435.852C190.889 435.852 189.979 437.21 189.979 439.884C189.979 442.768 190.861 444 192.975 444ZM195.239 434.9H196.331V432.576H195.239V434.9ZM201.591 444.168C203.873 444.168 204.923 442.824 204.923 440.01C204.923 437.28 203.845 435.852 201.549 435.852C200.191 435.852 199.225 436.342 198.595 437.266L199.365 437.952C199.827 437.266 200.513 436.86 201.521 436.86C202.921 436.86 203.719 437.728 203.719 439.254V440.794C203.719 442.376 203.005 443.16 201.591 443.16C200.135 443.16 199.519 442.474 199.519 440.794V440.374H200.975V439.394H199.855C198.931 439.394 198.399 439.856 198.399 440.808V440.92C198.399 442.978 199.561 444.168 201.591 444.168ZM208.135 444H209.535V443.02H208.093V436.02H206.945V442.81C206.945 443.51 207.365 444 208.135 444ZM213.594 444.168C214.91 444.168 215.512 443.44 215.82 442.684H215.876V444H216.996V436.02H215.848V441.606C215.848 442.656 214.882 443.146 213.902 443.146C212.712 443.146 212.068 442.404 212.068 440.976V436.02H210.92V441.144C210.92 443.062 211.97 444.168 213.594 444.168ZM216.038 432.786V433.976H215.45V432.786H214.498V433.976H211.432V434.9H215.828C216.598 434.9 216.99 434.522 216.99 433.766V432.786H216.038ZM216.038 432.24H216.99V430.336H216.038V432.24ZM222.14 444.168C224.422 444.168 225.472 442.824 225.472 440.01C225.472 437.28 224.394 435.852 222.098 435.852C220.74 435.852 219.774 436.342 219.144 437.266L219.914 437.952C220.376 437.266 221.062 436.86 222.07 436.86C223.47 436.86 224.268 437.728 224.268 439.254V440.794C224.268 442.376 223.554 443.16 222.14 443.16C220.684 443.16 220.068 442.474 220.068 440.794V440.374H221.524V439.394H220.404C219.48 439.394 218.948 439.856 218.948 440.808V440.92C218.948 442.978 220.11 444.168 222.14 444.168ZM229.118 444H230C231.806 444 232.716 443.174 232.716 440.5V437.98C232.716 436.72 232.198 436.02 231.12 436.02H230.084V437H231.568V440.99C231.568 442.502 231.106 442.992 230.07 442.992H229.944L227.69 436.02H226.528L229.118 444ZM237.141 435.852C235.783 435.852 234.831 436.342 234.229 437.266L234.971 437.98C235.405 437.266 236.119 436.86 237.127 436.86C238.583 436.86 239.395 437.728 239.395 439.254V440.598C239.395 442.208 238.681 442.992 237.673 442.992H237.491L236.861 440.584C236.609 439.632 236.329 439.352 235.615 439.352H234.719V440.332H235.671L236.665 444H237.673C239.521 444 240.599 442.656 240.599 439.898C240.599 437.28 239.563 435.852 237.141 435.852ZM245.596 444H246.744V438.288C246.744 436.734 245.806 435.852 244.168 435.852C242.964 435.852 242.012 436.37 241.522 437.266L242.292 437.966C242.74 437.294 243.286 436.86 244.14 436.86C245.106 436.86 245.596 437.322 245.596 438.414V444ZM252.06 435.852C250.212 435.852 248.868 436.874 248.868 438.694V439.38H250.618V439.436C249.89 439.604 249.162 440.206 249.162 441.522V444H250.31V441.214C250.31 439.996 250.8 439.45 251.836 439.408V438.568H250.002C250.128 437.364 250.87 436.86 252.06 436.86C253.39 436.86 254.146 437.616 254.146 438.946V444H255.294V438.876C255.294 437.028 254.216 435.852 252.06 435.852ZM157.848 458.14C158.436 458.14 158.702 457.804 158.702 457.314V457.118C158.702 456.74 158.534 456.46 158.156 456.376C158.31 455.718 158.646 455.228 159.206 454.64H158.268C157.47 455.326 156.994 456.362 156.994 457.118V457.314C156.994 457.804 157.26 458.14 157.848 458.14ZM161.06 465H167.486V463.964H164.966V455.228H163.132L160.542 457.65L161.228 458.392L163.692 456.096H163.79V463.964H161.06V465ZM170.687 465H172.199C173.767 463.978 175.685 461.71 175.685 458.812C175.685 456.488 174.439 455.06 172.409 455.06C170.449 455.06 169.161 456.376 169.161 458.294C169.161 460.142 170.365 461.304 172.045 461.304C173.235 461.304 173.935 460.702 174.397 459.904L174.467 459.932C173.935 462.2 172.773 463.474 170.687 465ZM172.423 460.31C171.135 460.31 170.379 459.568 170.379 458.252V458.14C170.379 456.824 171.135 456.082 172.423 456.082C173.711 456.082 174.467 456.824 174.467 458.14V458.252C174.467 459.568 173.711 460.31 172.423 460.31ZM184.07 456.852C182.222 456.852 180.878 457.874 180.878 459.694V460.38H182.628V460.436C181.9 460.604 181.172 461.206 181.172 462.522V465H182.32V462.214C182.32 460.996 182.81 460.45 183.846 460.408V459.568H182.012C182.138 458.364 182.88 457.86 184.07 457.86C185.4 457.86 186.156 458.616 186.156 459.946V465H187.304V459.876C187.304 458.028 186.226 456.852 184.07 456.852ZM185.87 455.9H188.67V454.976H185.352V454.08H184.288V454.486C184.288 455.48 184.75 455.9 185.87 455.9ZM192.307 465.168C193.623 465.168 194.225 464.44 194.533 463.684H194.589V465H195.709V457.02H194.561V462.606C194.561 463.656 193.595 464.146 192.615 464.146C191.425 464.146 190.781 463.404 190.781 461.976V457.02H189.633V462.144C189.633 464.062 190.683 465.168 192.307 465.168ZM200.965 465.168C202.939 465.168 203.989 464.062 203.989 462.144V457.02H202.841V461.976C202.841 463.418 202.197 464.16 200.965 464.16C199.733 464.16 199.089 463.474 199.089 462.34V461.066H200.993V460.058H200.629C199.509 460.058 199.159 459.218 199.159 458.28V458H200.811V457.02H199.537C198.529 457.02 198.039 457.51 198.039 458.364V458.434C198.039 459.372 198.781 459.848 199.495 460.016V460.058H199.369C198.445 460.058 197.941 460.744 197.941 461.906V462.354C197.941 464.118 198.991 465.168 200.965 465.168ZM209.406 465H210.554V459.288C210.554 457.734 209.616 456.852 207.978 456.852C206.774 456.852 205.822 457.37 205.332 458.266L206.102 458.966C206.55 458.294 207.096 457.86 207.95 457.86C208.916 457.86 209.406 458.322 209.406 459.414V465ZM216.907 465H218.055V457.02H216.907V458.938C216.907 460.184 215.941 461.01 214.905 461.01C213.911 461.01 213.351 460.422 213.351 459.554C213.351 458.602 213.967 458.028 214.905 458.028H215.689V457.02H214.835C213.267 457.02 212.175 458.042 212.175 459.61C212.175 461.038 213.085 462.032 214.499 462.032C215.913 462.032 216.711 460.898 216.851 460.212H216.907V465ZM219.917 458H220.855C221.653 457.314 222.129 456.278 222.129 455.522V455.326C222.129 454.836 221.863 454.5 221.275 454.5C220.687 454.5 220.421 454.836 220.421 455.326V455.522C220.421 455.9 220.589 456.18 220.967 456.264C220.813 456.922 220.477 457.412 219.917 458Z" fill="black" fill-opacity="0.5"/>
<path d="M156.63 484H161.45V482.91H158.03L159.52 481.67C160.48 480.88 161.27 480.14 161.27 478.98C161.27 477.77 160.43 476.9 158.97 476.9C157.55 476.9 156.81 477.71 156.51 478.63L157.63 479.06C157.79 478.49 158.14 478.02 158.86 478.02C159.45 478.02 159.91 478.37 159.91 478.98V479.12C159.91 479.73 159.56 480.23 158.82 480.87L156.63 482.8V484ZM164.996 484.12C166.776 484.12 167.586 482.79 167.586 480.51C167.586 478.23 166.776 476.9 164.996 476.9C163.216 476.9 162.406 478.23 162.406 480.51C162.406 482.79 163.216 484.12 164.996 484.12ZM164.996 483.03C164.096 483.03 163.786 482.3 163.786 481.14V479.88C163.786 478.72 164.096 477.99 164.996 477.99C165.896 477.99 166.206 478.72 166.206 479.88V481.14C166.206 482.3 165.896 483.03 164.996 483.03ZM173.425 478.15C171.905 478.15 170.965 478.99 170.965 480.48V480.94H172.315V480.99C171.715 481.11 171.135 481.55 171.135 482.46V484H172.415V482.33C172.415 481.37 172.705 481.01 173.355 480.97V480.09H172.205C172.295 479.5 172.705 479.2 173.385 479.2C174.165 479.2 174.595 479.64 174.595 480.46V484H175.875V480.52C175.875 479.03 175.055 478.15 173.425 478.15ZM178.076 484.11C178.616 484.11 178.866 483.81 178.866 483.39V483.21C178.866 482.79 178.616 482.48 178.076 482.48C177.536 482.48 177.286 482.79 177.286 483.21V483.39C177.286 483.81 177.536 484.11 178.076 484.11ZM182.485 484.12C184.145 484.12 184.835 483.31 184.835 481.63V478.27H183.565V481.78C183.565 482.62 183.225 483.04 182.485 483.04C181.755 483.04 181.385 482.62 181.385 481.86V481.38H182.505V480.4H182.325C181.735 480.4 181.405 479.95 181.405 479.4V479.27H182.415V478.27H181.385C180.615 478.27 180.215 478.67 180.215 479.26V479.3C180.215 479.95 180.735 480.33 181.385 480.41V480.46H181.285C180.565 480.46 180.105 481.08 180.105 481.91V482.08C180.105 483.37 180.955 484.12 182.485 484.12ZM187.051 484.11C187.591 484.11 187.841 483.81 187.841 483.39V483.21C187.841 482.79 187.591 482.48 187.051 482.48C186.511 482.48 186.261 482.79 186.261 483.21V483.39C186.261 483.81 186.511 484.11 187.051 484.11ZM191.523 484H196.343V482.91H192.923L194.413 481.67C195.373 480.88 196.163 480.14 196.163 478.98C196.163 477.77 195.323 476.9 193.863 476.9C192.443 476.9 191.703 477.71 191.403 478.63L192.523 479.06C192.683 478.49 193.033 478.02 193.753 478.02C194.343 478.02 194.803 478.37 194.803 478.98V479.12C194.803 479.73 194.453 480.23 193.713 480.87L191.523 482.8V484ZM199.839 484.12C201.479 484.12 202.409 483.1 202.409 481.7C202.409 480.32 201.479 479.5 200.279 479.5C199.449 479.5 199.099 479.9 198.809 480.5H198.729L198.899 478.14H202.029V477.02H197.939L197.679 480.93L198.739 481.08C198.949 480.83 199.299 480.56 199.869 480.56C200.619 480.56 201.059 481 201.059 481.73V481.82C201.059 482.58 200.639 483.06 199.849 483.06C199.089 483.06 198.709 482.64 198.389 482.1L197.449 482.83C197.869 483.5 198.549 484.12 199.839 484.12ZM205.915 484.12C207.445 484.12 208.435 483.13 208.435 481.72C208.435 480.4 207.555 479.55 206.385 479.55C205.515 479.55 205.075 480.04 204.805 480.59L204.725 480.56C205.035 479.13 205.995 478.2 207.625 477.02H205.885C204.715 477.8 203.385 479.38 203.385 481.38C203.385 483.05 204.325 484.12 205.915 484.12ZM205.915 483.1C205.165 483.1 204.715 482.67 204.715 481.9V481.75C204.715 480.99 205.165 480.56 205.915 480.56C206.655 480.56 207.105 480.99 207.105 481.75V481.9C207.105 482.67 206.655 483.1 205.915 483.1ZM211.601 484.12C213.131 484.12 214.161 483.3 214.161 482.07C214.161 481.08 213.501 480.51 212.701 480.36V480.31C213.431 480.16 214.031 479.61 214.031 478.72C214.031 477.6 213.071 476.9 211.681 476.9C210.511 476.9 209.851 477.41 209.381 478.06L210.211 478.81C210.541 478.28 211.031 477.96 211.641 477.96C212.281 477.96 212.681 478.31 212.681 478.89V478.96C212.681 479.47 212.301 479.85 211.501 479.85H210.811V480.92H211.501C212.341 480.92 212.821 481.27 212.821 481.93V481.99C212.821 482.65 212.381 483.06 211.601 483.06C210.811 483.06 210.401 482.66 210.081 482.1L209.131 482.83C209.571 483.5 210.251 484.12 211.601 484.12Z" fill="black" fill-opacity="0.5"/>
<line opacity="0.2" x1="152" y1="10" x2="69" y2="10" stroke="black" stroke-width="2" stroke-dasharray="2 2"/>
<line opacity="0.2" x1="152" y1="119" x2="66" y2="119" stroke="black" stroke-width="2" stroke-dasharray="2 2"/>
<line opacity="0.2" x1="152" y1="364" x2="66" y2="364" stroke="black" stroke-width="2" stroke-dasharray="2 2"/>
<line opacity="0.2" x1="152" y1="438" x2="66" y2="438" stroke="black" stroke-width="2" stroke-dasharray="2 2"/>
<path d="M97 88L91.2265 78L102.774 78L97 88ZM98 67L98 79L96 79L96 67L98 67Z" fill="#FF655D"/>
<path d="M97 67C97 43.2263 58 41.7404 58 30.7028C58 19.6654 58 26.033 58 22" stroke="#FF655D" stroke-width="2"/>
<circle cx="96.5" cy="95.5" r="7.5" fill="#1A171B"/>
<circle cx="58" cy="8.5" r="7.5" fill="white"/>
<path d="M58 111L63.7735 101L52.2265 101L58 111ZM57 16L57 102L59 102L59 16L57 16Z" fill="#0CC6C6"/>
<circle cx="58" cy="118.5" r="7.5" fill="#C1B1F0"/>
<path d="M58 206L63.7735 196L52.2265 196L58 206ZM57 126L57 197L59 197L59 126L57 126Z" fill="#0CC6C6"/>
<circle cx="58" cy="213.5" r="7.5" fill="white"/>
<path d="M58 281L63.7735 271L52.2265 271L58 281ZM57 221L57 272L59 272L59 221L57 221Z" fill="#0CC6C6"/>
<circle cx="58" cy="288.5" r="7.5" fill="white"/>
<path d="M58 356L63.7735 346L52.2265 346L58 356ZM57 296L57 347L59 347L59 296L57 296Z" fill="#0CC6C6"/>
<circle cx="58" cy="363.5" r="7.5" fill="#C1B1F0"/>
<path d="M58 431L63.7735 421L52.2265 421L58 431ZM57 371L57 422L59 422L59 371L57 371Z" fill="#0CC6C6"/>
<circle cx="58" cy="438.5" r="7.5" fill="#C1B1F0"/>
<path d="M58 476L63.7735 466L52.2265 466L58 476ZM57 446L57 467L59 467L59 446L57 446Z" fill="#0CC6C6"/>
<path d="M58 473C58 490.239 44.5 516.761 21 534" stroke="url(#paint0_linear)" stroke-width="2"/>
<path d="M58 473C58 495.043 50.3378 528.957 37 551" stroke="url(#paint1_linear)" stroke-width="2"/>
<path d="M58 473C58 495.043 63.473 528.957 73 551" stroke="url(#paint2_linear)" stroke-width="2"/>
<path d="M58 473C58 483.457 64.9324 499.543 77 510" stroke="url(#paint3_linear)" stroke-width="2"/>
<circle cx="36.5" cy="550.5" r="7.5" fill="#C1B1F0"/>
<circle cx="24.5" cy="528.5" r="7.5" fill="white"/>
<circle cx="72.5" cy="550.5" r="7.5" fill="white"/>
<circle cx="76.5" cy="509.5" r="7.5" fill="#C1B1F0"/>
<path d="M58 28C58 45.2391 44.5 71.7609 21 89" stroke="url(#paint4_linear)" stroke-width="2"/>
<circle cx="20.5" cy="90.5" r="7.5" fill="white"/>
<defs>
<linearGradient id="paint0_linear" x1="39.5" y1="473" x2="39.5" y2="534" gradientUnits="userSpaceOnUse">
<stop stop-color="#0CC6C6"/>
<stop offset="1" stop-color="#0CC6C6" stop-opacity="0.15"/>
</linearGradient>
<linearGradient id="paint1_linear" x1="47.5" y1="473" x2="47.5" y2="551" gradientUnits="userSpaceOnUse">
<stop stop-color="#0CC6C6"/>
<stop offset="1" stop-color="#0CC6C6" stop-opacity="0.15"/>
</linearGradient>
<linearGradient id="paint2_linear" x1="65.5" y1="473" x2="65.5" y2="551" gradientUnits="userSpaceOnUse">
<stop stop-color="#0CC6C6"/>
<stop offset="1" stop-color="#0CC6C6" stop-opacity="0.15"/>
</linearGradient>
<linearGradient id="paint3_linear" x1="67.5" y1="473" x2="67.5" y2="510" gradientUnits="userSpaceOnUse">
<stop stop-color="#0CC6C6"/>
<stop offset="1" stop-color="#0CC6C6" stop-opacity="0.15"/>
</linearGradient>
<linearGradient id="paint4_linear" x1="39.5" y1="28" x2="39.5" y2="89" gradientUnits="userSpaceOnUse">
<stop stop-color="#0CC6C6"/>
<stop offset="1" stop-color="#0CC6C6" stop-opacity="0.15"/>
</linearGradient>
</defs>
</svg>
