<svg width="300" height="201" viewBox="0 0 300 201" fill="none" xmlns="http://www.w3.org/2000/svg">
<path d="M24 16C26.7614 16 29 13.7614 29 11C29 8.23858 26.7614 6 24 6C21.2386 6 19 8.23858 19 11C19 13.7614 21.2386 16 24 16Z" fill="#C1B1F0"/>
<path d="M23.5 43L29.2735 33L17.7265 33L23.5 43ZM22.5 16L22.5 34L24.5 34L24.5 16L22.5 16Z" fill="#0CC6C6"/>
<path d="M24 53C26.7614 53 29 50.7614 29 48C29 45.2386 26.7614 43 24 43C21.2386 43 19 45.2386 19 48C19 50.7614 21.2386 53 24 53Z" fill="#C1B1F0"/>
<path d="M23.5 80L29.2735 70L17.7265 70L23.5 80ZM22.5 53L22.5 71L24.5 71L24.5 53L22.5 53Z" fill="#0CC6C6"/>
<path d="M24 90C26.7614 90 29 87.7614 29 85C29 82.2386 26.7614 80 24 80C21.2386 80 19 82.2386 19 85C19 87.7614 21.2386 90 24 90Z" fill="#C1B1F0"/>
<path d="M23.5 117L29.2735 107L17.7265 107L23.5 117ZM22.5 90L22.5 108L24.5 108L24.5 90L22.5 90Z" fill="#0CC6C6"/>
<path d="M24 127C26.7614 127 29 124.761 29 122C29 119.239 26.7614 117 24 117C21.2386 117 19 119.239 19 122C19 124.761 21.2386 127 24 127Z" fill="#C1B1F0"/>
<path d="M23.5 154L29.2735 144L17.7265 144L23.5 154ZM22.5 127L22.5 145L24.5 145L24.5 127L22.5 127Z" fill="#FF655D"/>
<path d="M24 164C26.7614 164 29 161.761 29 159C29 156.239 26.7614 154 24 154C21.2386 154 19 156.239 19 159C19 161.761 21.2386 164 24 164Z" fill="#1A171B"/>
<path d="M23.5 191L29.2735 181L17.7265 181L23.5 191ZM22.5 164L22.5 182L24.5 182L24.5 164L22.5 164Z" fill="#FF655D"/>
<path d="M24 201C26.7614 201 29 198.761 29 196C29 193.239 26.7614 191 24 191C21.2386 191 19 193.239 19 196C19 198.761 21.2386 201 24 201Z" fill="#C1B1F0"/>
<line opacity="0.2" x1="53" y1="11" x2="29" y2="11" stroke="black" stroke-width="2" stroke-dasharray="2 2"/>
<line opacity="0.2" x1="53" y1="121" x2="29" y2="121" stroke="black" stroke-width="2" stroke-dasharray="2 2"/>
<line opacity="0.2" x1="53" y1="160" x2="29" y2="160" stroke="black" stroke-width="2" stroke-dasharray="2 2"/>
<path d="M63.75 7.082C64.226 7.082 64.436 6.83 64.436 6.452V6.27C64.436 5.892 64.226 5.64 63.75 5.64C63.274 5.64 63.064 5.892 63.064 6.27V6.452C63.064 6.83 63.274 7.082 63.75 7.082ZM63.19 16H64.31V8.776H63.19V16ZM66.802 16H72.136V14.964H67.978V6.228H66.802V16ZM75.538 16.168C76.546 16.168 77.316 15.706 77.624 14.824H77.694L77.708 14.908C77.806 15.538 78.128 16 78.94 16H79.57V15.02H78.744V11.044C78.744 9.518 77.708 8.608 75.972 8.608C74.67 8.608 73.802 9.252 73.41 10.022L74.082 10.652C74.474 9.994 75.048 9.574 75.916 9.574C77.064 9.574 77.624 10.134 77.624 11.156V11.87H76.196C74.096 11.87 73.116 12.626 73.116 13.984C73.116 15.328 74.012 16.168 75.538 16.168ZM75.72 15.216C74.852 15.216 74.292 14.81 74.292 14.096V13.802C74.292 13.102 74.866 12.71 76.14 12.71H77.624V13.9C77.624 14.642 76.826 15.216 75.72 15.216ZM82.3035 16H83.6615L84.6695 12.528L85.2855 10.33H85.3135L85.9435 12.528L86.9515 16H88.3375L90.2555 8.776H89.2055L88.4215 11.898L87.6795 15.062H87.6515L86.7555 11.898L85.8175 8.776H84.8235L83.9135 11.898L83.0315 15.062H83.0035L82.2335 11.898L81.4635 8.776H80.3715L82.3035 16ZM96.3582 16H97.7582V15.02H96.3162V8.02H95.1682V14.81C95.1682 15.51 95.5882 16 96.3582 16ZM100.068 16H101.468V15.02H100.026V8.02H98.8782V14.81C98.8782 15.51 99.2982 16 100.068 16ZM105.778 7.852C103.79 7.852 102.6 8.874 102.6 10.694V11.38H104.252V11.436C103.524 11.604 102.796 12.206 102.796 13.606V14.11C102.796 15.384 103.342 16 104.434 16H105.316V15.02H103.916V13.214C103.916 11.996 104.406 11.45 105.554 11.408V10.568H103.692C103.818 9.42 104.504 8.86 105.778 8.86C107.108 8.86 107.878 9.602 107.878 10.946V16H109.026V10.876C109.026 9.028 107.934 7.852 105.778 7.852ZM113.988 7.852C112.546 7.852 111.58 8.482 111.006 9.406L111.748 10.12C112.182 9.406 112.896 8.86 113.904 8.86C115.248 8.86 115.892 9.462 115.892 10.876V11.296H114.184C111.93 11.296 110.852 12.094 110.852 13.69C110.852 15.23 111.874 16 113.484 16H114.31V14.978H113.624C112.616 14.978 112.056 14.614 112.056 13.802V13.438C112.056 12.738 112.686 12.318 113.946 12.318H115.892V16H117.04V10.708C117.04 8.888 115.976 7.852 113.988 7.852ZM121.131 16H122.013C123.819 16 124.729 15.174 124.729 12.5V9.98C124.729 8.72 124.211 8.02 123.133 8.02H122.097V9H123.581V12.99C123.581 14.502 123.119 14.992 122.083 14.992H121.957L119.703 8.02H118.541L121.131 16ZM129.575 16.168C131.339 16.168 132.389 15.16 132.389 13.424V8.02H131.241V13.256C131.241 14.516 130.597 15.16 129.575 15.16C128.539 15.16 127.895 14.642 127.895 13.34C127.895 11.296 129.155 11.324 129.155 9.56V9.392C129.155 8.552 128.777 8.02 127.517 8.02H126.635V9H128.035V9.686C128.035 11.198 126.719 10.918 126.719 13.382C126.719 15.104 127.783 16.168 129.575 16.168ZM131.359 6.9H132.451V4.576H131.359V6.9ZM137.801 16H138.949V10.288C138.949 8.734 138.011 7.852 136.373 7.852C135.169 7.852 134.217 8.37 133.727 9.266L134.497 9.966C134.945 9.294 135.491 8.86 136.345 8.86C137.311 8.86 137.801 9.322 137.801 10.414V16ZM143.439 16.168C145.581 16.168 146.603 14.74 146.603 12.01C146.603 9.28 145.581 7.852 143.439 7.852C141.997 7.852 141.073 8.552 140.625 9.546L141.633 10.022C141.927 9.294 142.585 8.86 143.439 8.86C144.601 8.86 145.399 9.728 145.399 11.254V12.766C145.399 14.292 144.601 15.16 143.439 15.16C142.585 15.16 141.927 14.726 141.633 13.998L140.625 14.474C141.073 15.468 141.997 16.168 143.439 16.168ZM149.805 16H151.205V15.02H149.763V8.02H148.615V14.81C148.615 15.51 149.035 16 149.805 16ZM155.278 16.168C157.042 16.168 158.092 15.16 158.092 13.424V8.02H156.944V13.256C156.944 14.516 156.3 15.16 155.278 15.16C154.242 15.16 153.598 14.642 153.598 13.34C153.598 11.296 154.858 11.324 154.858 9.56V9.392C154.858 8.552 154.48 8.02 153.22 8.02H152.338V9H153.738V9.686C153.738 11.198 152.422 10.918 152.422 13.382C152.422 15.104 153.486 16.168 155.278 16.168ZM155.494 6.9H158.756V5.976H156.418V5.85C156.418 5.052 156.124 4.786 155.34 4.786H154.514V5.71H155.494V6.9ZM163.504 16H164.652V10.288C164.652 8.734 163.714 7.852 162.076 7.852C160.872 7.852 159.92 8.37 159.43 9.266L160.2 9.966C160.648 9.294 161.194 8.86 162.048 8.86C163.014 8.86 163.504 9.322 163.504 10.414V16ZM169.688 16.168C171.452 16.168 172.53 15.16 172.53 13.424V12.388C172.53 11.226 172.012 10.442 171.102 10.162V10.106C171.858 9.798 172.558 9.252 172.558 8.258V8.02H171.382V8.622C171.382 9.518 170.85 10.036 169.912 10.036H169.8V10.918H170.038C170.962 10.918 171.354 11.38 171.354 12.444V13.256C171.354 14.516 170.71 15.16 169.688 15.16C168.652 15.16 168.008 14.642 168.008 13.34C168.008 11.296 169.268 11.324 169.268 9.56V9.392C169.268 8.552 168.89 8.02 167.63 8.02H166.748V9H168.148V9.686C168.148 11.198 166.832 10.918 166.832 13.382C166.832 15.104 167.91 16.168 169.688 16.168ZM171.612 4.786V5.976H171.024V4.786H170.072V5.976H167.006V6.9H171.402C172.172 6.9 172.564 6.522 172.564 5.766V4.786H171.612ZM171.458 9.9H172.55V7.576H171.458V9.9ZM177.4 16.168C179.682 16.168 180.732 14.824 180.732 12.01C180.732 9.28 179.654 7.852 177.358 7.852C176 7.852 175.034 8.342 174.404 9.266L175.174 9.952C175.636 9.266 176.322 8.86 177.33 8.86C178.73 8.86 179.528 9.728 179.528 11.254V12.794C179.528 14.376 178.814 15.16 177.4 15.16C175.944 15.16 175.328 14.474 175.328 12.794V12.374H176.784V11.394H175.664C174.74 11.394 174.208 11.856 174.208 12.808V12.92C174.208 14.978 175.37 16.168 177.4 16.168ZM188.876 16.168C190.934 16.168 192.166 14.838 192.166 12.934C192.166 11.044 190.934 9.91 189.254 9.91C188.232 9.91 187.714 10.33 187.252 10.988H187.154L187.434 7.264H191.718V6.228H186.482L186.132 11.604L187.126 11.744C187.532 11.296 187.98 10.918 188.876 10.918C190.206 10.918 190.92 11.66 190.92 12.948V13.088C190.92 14.376 190.206 15.118 188.876 15.118C187.7 15.118 187.21 14.6 186.706 13.83L185.824 14.502C186.412 15.342 187.252 16.168 188.876 16.168ZM197.341 16.168C199.679 16.168 200.701 14.306 200.701 11.114C200.701 7.922 199.679 6.06 197.341 6.06C195.003 6.06 193.981 7.922 193.981 11.114C193.981 14.306 195.003 16.168 197.341 16.168ZM197.341 15.146C195.815 15.146 195.213 13.802 195.213 11.912V10.316C195.213 8.426 195.815 7.082 197.341 7.082C198.867 7.082 199.469 8.426 199.469 10.316V11.912C199.469 13.802 198.867 15.146 197.341 15.146ZM202.081 17.862H203.019C203.817 17.176 204.293 16.14 204.293 15.384V15.188C204.293 14.698 204.027 14.362 203.439 14.362C202.851 14.362 202.585 14.698 202.585 15.188V15.384C202.585 15.762 202.753 16.042 203.131 16.126C202.977 16.784 202.641 17.274 202.081 17.862ZM209.55 16.168C211.888 16.168 212.91 14.306 212.91 11.114C212.91 7.922 211.888 6.06 209.55 6.06C207.212 6.06 206.19 7.922 206.19 11.114C206.19 14.306 207.212 16.168 209.55 16.168ZM209.55 15.146C208.024 15.146 207.422 13.802 207.422 11.912V10.316C207.422 8.426 208.024 7.082 209.55 7.082C211.076 7.082 211.678 8.426 211.678 10.316V11.912C211.678 13.802 211.076 15.146 209.55 15.146ZM217.944 16.168C220.282 16.168 221.304 14.306 221.304 11.114C221.304 7.922 220.282 6.06 217.944 6.06C215.606 6.06 214.584 7.922 214.584 11.114C214.584 14.306 215.606 16.168 217.944 16.168ZM217.944 15.146C216.418 15.146 215.816 13.802 215.816 11.912V10.316C215.816 8.426 216.418 7.082 217.944 7.082C219.47 7.082 220.072 8.426 220.072 10.316V11.912C220.072 13.802 219.47 15.146 217.944 15.146ZM226.339 16.168C228.677 16.168 229.699 14.306 229.699 11.114C229.699 7.922 228.677 6.06 226.339 6.06C224.001 6.06 222.979 7.922 222.979 11.114C222.979 14.306 224.001 16.168 226.339 16.168ZM226.339 15.146C224.813 15.146 224.211 13.802 224.211 11.912V10.316C224.211 8.426 224.813 7.082 226.339 7.082C227.865 7.082 228.467 8.426 228.467 10.316V11.912C228.467 13.802 227.865 15.146 226.339 15.146ZM237.706 16.168C239.47 16.168 240.548 15.16 240.548 13.424V12.388C240.548 11.226 240.03 10.442 239.12 10.162V10.106C239.876 9.798 240.576 9.252 240.576 8.258V8.02H239.4V8.622C239.4 9.518 238.868 10.036 237.93 10.036H237.818V10.918H238.056C238.98 10.918 239.372 11.38 239.372 12.444V13.256C239.372 14.516 238.728 15.16 237.706 15.16C236.67 15.16 236.026 14.642 236.026 13.34C236.026 11.296 237.286 11.324 237.286 9.56V9.392C237.286 8.552 236.908 8.02 235.648 8.02H234.766V9H236.166V9.686C236.166 11.198 234.85 10.918 234.85 13.382C234.85 15.104 235.928 16.168 237.706 16.168ZM239.63 4.786V5.976H239.042V4.786H238.09V5.976H235.024V6.9H239.42C240.19 6.9 240.582 6.522 240.582 5.766V4.786H239.63ZM239.476 9.9H240.568V7.576H239.476V9.9ZM245.417 16.168C247.699 16.168 248.749 14.824 248.749 12.01C248.749 9.28 247.671 7.852 245.375 7.852C244.017 7.852 243.051 8.342 242.421 9.266L243.191 9.952C243.653 9.266 244.339 8.86 245.347 8.86C246.747 8.86 247.545 9.728 247.545 11.254V12.794C247.545 14.376 246.831 15.16 245.417 15.16C243.961 15.16 243.345 14.474 243.345 12.794V12.374H244.801V11.394H243.681C242.757 11.394 242.225 11.856 242.225 12.808V12.92C242.225 14.978 243.387 16.168 245.417 16.168ZM63.848 30.14C64.436 30.14 64.702 29.804 64.702 29.314V29.118C64.702 28.74 64.534 28.46 64.156 28.376C64.31 27.718 64.646 27.228 65.206 26.64H64.268C63.47 27.326 62.994 28.362 62.994 29.118V29.314C62.994 29.804 63.26 30.14 63.848 30.14ZM69.4541 37.168C71.1201 37.168 72.2121 36.258 72.2121 34.69C72.2121 33.486 71.5401 32.73 69.9441 32.506L69.3281 32.422C68.4181 32.296 67.8581 31.904 67.8581 31.134C67.8581 30.364 68.4181 29.86 69.3561 29.86C70.2801 29.86 70.9661 30.378 71.3021 30.868L72.1421 30.14C71.4841 29.328 70.6441 28.852 69.4401 28.852C67.9701 28.852 66.7521 29.622 66.7521 31.19C66.7521 32.674 67.8441 33.206 69.1741 33.402L69.7901 33.486C70.7701 33.626 71.1061 34.214 71.1061 34.83C71.1061 35.656 70.4761 36.16 69.5241 36.16C68.5581 36.16 67.8721 35.74 67.2421 34.9L66.4161 35.6C67.1301 36.538 68.0401 37.168 69.4541 37.168ZM70.9016 27.9H71.9936V25.576H70.9016V27.9ZM76.2282 37.168C78.3702 37.168 79.3922 35.74 79.3922 33.01C79.3922 30.28 78.3702 28.852 76.2282 28.852C74.7862 28.852 73.8622 29.552 73.4142 30.546L74.4222 31.022C74.7162 30.294 75.3742 29.86 76.2282 29.86C77.3902 29.86 78.1882 30.728 78.1882 32.254V33.766C78.1882 35.292 77.3902 36.16 76.2282 36.16C75.3742 36.16 74.7162 35.726 74.4222 34.998L73.4142 35.474C73.8622 36.468 74.7862 37.168 76.2282 37.168ZM84.7359 37.168C86.3599 37.168 87.4099 36.062 87.4099 34.144V29.02H86.2619V33.976C86.2619 35.404 85.6179 36.146 84.4279 36.146C83.4479 36.146 82.4819 35.656 82.4819 34.606V29.02H81.3339V37H82.4539V35.684H82.5099C82.8179 36.44 83.4199 37.168 84.7359 37.168ZM92.2178 37.168C93.8838 37.168 94.9758 36.258 94.9758 34.69C94.9758 33.486 94.3038 32.73 92.7078 32.506L92.0918 32.422C91.1818 32.296 90.6218 31.904 90.6218 31.134C90.6218 30.364 91.1818 29.86 92.1198 29.86C93.0438 29.86 93.7298 30.378 94.0658 30.868L94.9058 30.14C94.2478 29.328 93.4078 28.852 92.2038 28.852C90.7338 28.852 89.5158 29.622 89.5158 31.19C89.5158 32.674 90.6078 33.206 91.9378 33.402L92.5538 33.486C93.5338 33.626 93.8698 34.214 93.8698 34.83C93.8698 35.656 93.2398 36.16 92.2878 36.16C91.3218 36.16 90.6358 35.74 90.0058 34.9L89.1798 35.6C89.8938 36.538 90.8038 37.168 92.2178 37.168ZM93.8193 25.786V26.976H93.2313V25.786H92.2793V26.976H89.2133V27.9H93.6093C94.3793 27.9 94.7713 27.522 94.7713 26.766V25.786H93.8193ZM92.0973 30.9H95.3593V29.976H93.0213V29.85C93.0213 29.052 92.7273 28.786 91.9433 28.786H91.1173V29.71H92.0973V30.9ZM99.5658 37.168C101.848 37.168 102.898 35.824 102.898 33.01C102.898 30.28 101.82 28.852 99.5238 28.852C98.1658 28.852 97.1998 29.342 96.5698 30.266L97.3398 30.952C97.8018 30.266 98.4878 29.86 99.4958 29.86C100.896 29.86 101.694 30.728 101.694 32.254V33.794C101.694 35.376 100.98 36.16 99.5658 36.16C98.1098 36.16 97.4938 35.474 97.4938 33.794V33.374H98.9498V32.394H97.8298C96.9058 32.394 96.3738 32.856 96.3738 33.808V33.92C96.3738 35.978 97.5358 37.168 99.5658 37.168ZM110.538 37.168C112.204 37.168 113.296 36.258 113.296 34.69C113.296 33.486 112.624 32.73 111.028 32.506L110.412 32.422C109.502 32.296 108.942 31.904 108.942 31.134C108.942 30.364 109.502 29.86 110.44 29.86C111.364 29.86 112.05 30.378 112.386 30.868L113.226 30.14C112.568 29.328 111.728 28.852 110.524 28.852C109.054 28.852 107.836 29.622 107.836 31.19C107.836 32.674 108.928 33.206 110.258 33.402L110.874 33.486C111.854 33.626 112.19 34.214 112.19 34.83C112.19 35.656 111.56 36.16 110.608 36.16C109.642 36.16 108.956 35.74 108.326 34.9L107.5 35.6C108.214 36.538 109.124 37.168 110.538 37.168ZM111.986 27.9H113.078V25.576H111.986V27.9ZM117.312 37.168C119.454 37.168 120.476 35.74 120.476 33.01C120.476 30.28 119.454 28.852 117.312 28.852C115.87 28.852 114.946 29.552 114.498 30.546L115.506 31.022C115.8 30.294 116.458 29.86 117.312 29.86C118.474 29.86 119.272 30.728 119.272 32.254V33.766C119.272 35.292 118.474 36.16 117.312 36.16C116.458 36.16 115.8 35.726 115.506 34.998L114.498 35.474C114.946 36.468 115.87 37.168 117.312 37.168ZM125.82 37.168C127.444 37.168 128.494 36.062 128.494 34.144V29.02H127.346V33.976C127.346 35.404 126.702 36.146 125.512 36.146C124.532 36.146 123.566 35.656 123.566 34.606V29.02H122.418V37H123.538V35.684H123.594C123.902 36.44 124.504 37.168 125.82 37.168ZM137.46 29.51V28.53H136.172C135.682 28.53 135.36 28.796 135.36 29.202V29.3C134.898 28.992 134.282 28.852 133.568 28.852C132.182 28.852 131.216 29.482 130.642 30.406L131.384 31.12C131.818 30.406 132.532 29.86 133.54 29.86C134.884 29.86 135.528 30.462 135.528 31.876V32.296H133.82C131.566 32.296 130.488 33.094 130.488 34.69C130.488 36.23 131.51 37 133.12 37H133.946V35.978H133.26C132.252 35.978 131.692 35.614 131.692 34.802V34.438C131.692 33.738 132.322 33.318 133.582 33.318H135.528V37H136.676V31.75C136.676 30.98 136.48 30.322 136.018 29.832V29.51H137.46ZM141.642 37.168C143.308 37.168 144.4 36.258 144.4 34.69C144.4 33.486 143.728 32.73 142.132 32.506L141.516 32.422C140.606 32.296 140.046 31.904 140.046 31.134C140.046 30.364 140.606 29.86 141.544 29.86C142.468 29.86 143.154 30.378 143.49 30.868L144.33 30.14C143.672 29.328 142.832 28.852 141.628 28.852C140.158 28.852 138.94 29.622 138.94 31.19C138.94 32.674 140.032 33.206 141.362 33.402L141.978 33.486C142.958 33.626 143.294 34.214 143.294 34.83C143.294 35.656 142.664 36.16 141.712 36.16C140.746 36.16 140.06 35.74 139.43 34.9L138.604 35.6C139.318 36.538 140.228 37.168 141.642 37.168ZM141.521 27.9H144.783V26.976H142.445V26.85C142.445 26.052 142.151 25.786 141.367 25.786H140.541V26.71H141.521V27.9ZM149.34 37H150.488V31.288C150.488 29.734 149.55 28.852 147.912 28.852C146.708 28.852 145.756 29.37 145.266 30.266L146.036 30.966C146.484 30.294 147.03 29.86 147.884 29.86C148.85 29.86 149.34 30.322 149.34 31.414V37ZM154.6 37H155.482C157.288 37 158.198 36.174 158.198 33.5V30.98C158.198 29.72 157.68 29.02 156.602 29.02H155.566V30H157.05V33.99C157.05 35.502 156.588 35.992 155.552 35.992H155.426L153.172 29.02H152.01L154.6 37ZM169.409 37.168C171.075 37.168 172.167 36.258 172.167 34.69C172.167 33.486 171.495 32.73 169.899 32.506L169.283 32.422C168.373 32.296 167.813 31.904 167.813 31.134C167.813 30.364 168.373 29.86 169.311 29.86C170.235 29.86 170.921 30.378 171.257 30.868L172.097 30.14C171.439 29.328 170.599 28.852 169.395 28.852C167.925 28.852 166.707 29.622 166.707 31.19C166.707 32.674 167.799 33.206 169.129 33.402L169.745 33.486C170.725 33.626 171.061 34.214 171.061 34.83C171.061 35.656 170.431 36.16 169.479 36.16C168.513 36.16 167.827 35.74 167.197 34.9L166.371 35.6C167.085 36.538 167.995 37.168 169.409 37.168ZM170.857 27.9H171.949V25.576H170.857V27.9ZM176.183 37.168C178.325 37.168 179.347 35.74 179.347 33.01C179.347 30.28 178.325 28.852 176.183 28.852C174.741 28.852 173.817 29.552 173.369 30.546L174.377 31.022C174.671 30.294 175.329 29.86 176.183 29.86C177.345 29.86 178.143 30.728 178.143 32.254V33.766C178.143 35.292 177.345 36.16 176.183 36.16C175.329 36.16 174.671 35.726 174.377 34.998L173.369 35.474C173.817 36.468 174.741 37.168 176.183 37.168ZM184.691 37.168C186.315 37.168 187.365 36.062 187.365 34.144V29.02H186.217V33.976C186.217 35.404 185.573 36.146 184.383 36.146C183.403 36.146 182.437 35.656 182.437 34.606V29.02H181.289V37H182.409V35.684H182.465C182.773 36.44 183.375 37.168 184.691 37.168ZM192.173 37.168C193.839 37.168 194.931 36.258 194.931 34.69C194.931 33.486 194.259 32.73 192.663 32.506L192.047 32.422C191.137 32.296 190.577 31.904 190.577 31.134C190.577 30.364 191.137 29.86 192.075 29.86C192.999 29.86 193.685 30.378 194.021 30.868L194.861 30.14C194.203 29.328 193.363 28.852 192.159 28.852C190.689 28.852 189.471 29.622 189.471 31.19C189.471 32.674 190.563 33.206 191.893 33.402L192.509 33.486C193.489 33.626 193.825 34.214 193.825 34.83C193.825 35.656 193.195 36.16 192.243 36.16C191.277 36.16 190.591 35.74 189.961 34.9L189.135 35.6C189.849 36.538 190.759 37.168 192.173 37.168ZM193.62 27.9H194.712V25.576H193.62V27.9ZM199.871 37H201.019V31.288C201.019 29.734 200.081 28.852 198.443 28.852C197.239 28.852 196.287 29.37 195.797 30.266L196.567 30.966C197.015 30.294 197.561 29.86 198.415 29.86C199.381 29.86 199.871 30.322 199.871 31.414V37ZM205.131 37H206.013C207.819 37 208.729 36.174 208.729 33.5V30.98C208.729 29.72 208.211 29.02 207.133 29.02H206.097V30H207.581V33.99C207.581 35.502 207.119 35.992 206.083 35.992H205.957L203.703 29.02H202.541L205.131 37ZM213.337 37.168C215.003 37.168 216.095 36.258 216.095 34.69C216.095 33.486 215.423 32.73 213.827 32.506L213.211 32.422C212.301 32.296 211.741 31.904 211.741 31.134C211.741 30.364 212.301 29.86 213.239 29.86C214.163 29.86 214.849 30.378 215.185 30.868L216.025 30.14C215.367 29.328 214.527 28.852 213.323 28.852C211.853 28.852 210.635 29.622 210.635 31.19C210.635 32.674 211.727 33.206 213.057 33.402L213.673 33.486C214.653 33.626 214.989 34.214 214.989 34.83C214.989 35.656 214.359 36.16 213.407 36.16C212.441 36.16 211.755 35.74 211.125 34.9L210.299 35.6C211.013 36.538 211.923 37.168 213.337 37.168ZM214.602 27.9H217.402V26.976H214.084V26.08H213.02V26.486C213.02 27.48 213.482 27.9 214.602 27.9ZM224.171 29.51V28.53H222.883C222.393 28.53 222.071 28.796 222.071 29.202V29.3C221.595 28.992 220.951 28.852 220.195 28.852C218.865 28.852 217.927 29.342 217.325 30.266L218.067 30.98C218.501 30.266 219.215 29.86 220.223 29.86C221.679 29.86 222.491 30.728 222.491 32.254V33.598C222.491 35.208 221.777 35.992 220.769 35.992H220.587L219.957 33.584C219.705 32.632 219.425 32.352 218.711 32.352H217.815V33.332H218.767L219.761 37H220.769C222.617 37 223.695 35.656 223.695 32.898C223.695 31.512 223.401 30.462 222.729 29.818V29.51H224.171ZM222.519 38.106C222.519 38.624 222.253 38.89 221.819 38.89C221.231 38.89 220.895 38.498 220.825 37.7H219.705L219.397 38.68H217.829V39.632H218.851C219.817 39.632 220.349 39.268 220.503 38.428L220.545 38.19H220.573C220.671 39.198 221.287 39.772 222.169 39.772C222.967 39.772 223.583 39.31 223.583 38.302V37.7H222.519V38.106ZM228.616 37.168C230.408 37.168 231.556 36.328 231.556 34.34C231.556 32.716 230.772 32.156 228.826 31.89L226.74 31.624V31.232C226.74 30.308 227.328 29.86 228.504 29.86C229.638 29.86 230.324 30.378 230.66 30.868L231.5 30.14C230.842 29.328 230.002 28.852 228.546 28.852C226.698 28.852 225.606 29.762 225.606 31.19V31.316C225.606 32.156 226.194 32.576 227.258 32.73L228.952 32.954C229.96 33.094 230.45 33.374 230.45 34.424C230.45 35.726 229.764 36.16 228.686 36.16C228 36.16 227.566 36.006 227.034 35.712V33.444H225.914V36.258C226.698 36.86 227.566 37.168 228.616 37.168ZM235.937 37.168C237.603 37.168 238.695 36.258 238.695 34.69C238.695 33.486 238.023 32.73 236.427 32.506L235.811 32.422C234.901 32.296 234.341 31.904 234.341 31.134C234.341 30.364 234.901 29.86 235.839 29.86C236.763 29.86 237.449 30.378 237.785 30.868L238.625 30.14C237.967 29.328 237.127 28.852 235.923 28.852C234.453 28.852 233.235 29.622 233.235 31.19C233.235 32.674 234.327 33.206 235.657 33.402L236.273 33.486C237.253 33.626 237.589 34.214 237.589 34.83C237.589 35.656 236.959 36.16 236.007 36.16C235.041 36.16 234.355 35.74 233.725 34.9L232.899 35.6C233.613 36.538 234.523 37.168 235.937 37.168ZM243.019 37.168C244.685 37.168 245.777 36.258 245.777 34.69C245.777 33.486 245.105 32.73 243.509 32.506L242.893 32.422C241.983 32.296 241.423 31.904 241.423 31.134C241.423 30.364 241.983 29.86 242.921 29.86C243.845 29.86 244.531 30.378 244.867 30.868L245.707 30.14C245.049 29.328 244.209 28.852 243.005 28.852C241.535 28.852 240.317 29.622 240.317 31.19C240.317 32.674 241.409 33.206 242.739 33.402L243.355 33.486C244.335 33.626 244.671 34.214 244.671 34.83C244.671 35.656 244.041 36.16 243.089 36.16C242.123 36.16 241.437 35.74 240.807 34.9L239.981 35.6C240.695 36.538 241.605 37.168 243.019 37.168ZM251.123 37.168C252.747 37.168 253.797 36.062 253.797 34.144V29.02H252.649V33.976C252.649 35.404 252.005 36.146 250.815 36.146C249.835 36.146 248.869 35.656 248.869 34.606V29.02H247.721V37H248.841V35.684H248.897C249.205 36.44 249.807 37.168 251.123 37.168ZM258.829 37.168C260.145 37.168 260.747 36.44 261.055 35.684H261.111V37H262.231V29.02H261.083V34.606C261.083 35.656 260.117 36.146 259.137 36.146C257.947 36.146 257.303 35.404 257.303 33.976V29.02H256.155V34.144C256.155 36.062 257.205 37.168 258.829 37.168ZM260.208 40.738H261.3C261.888 40.738 262.224 40.402 262.224 39.814V38.022H261.272V39.912H260.236V39.086C260.236 38.4 259.858 38.022 259.186 38.022H258.64V38.862H259.284V39.814C259.284 40.402 259.62 40.738 260.208 40.738ZM274.178 29.02V34.466C274.178 35.516 273.212 36.006 272.316 36.006C271.322 36.006 270.678 35.516 270.678 33.85V31.876C270.678 30.028 269.558 28.852 267.528 28.852C265.568 28.852 264.378 29.874 264.378 31.694V32.38H266.03V32.436C265.302 32.604 264.574 33.206 264.574 34.606V35.11C264.574 36.384 265.12 37 266.212 37H267.094V36.02H265.694V34.214C265.694 32.996 266.184 32.45 267.332 32.408V31.568H265.47C265.596 30.42 266.282 29.86 267.528 29.86C268.774 29.86 269.53 30.602 269.53 31.946V34.018C269.53 36.174 270.58 37.028 272.008 37.028C273.24 37.028 273.842 36.3 274.15 35.544H274.206V36.608C274.206 38.008 273.506 38.61 272.288 38.61C271.406 38.61 270.692 38.204 270.258 37.504L269.516 38.218C270.09 39.142 271.056 39.632 272.386 39.632C274.206 39.632 275.326 38.596 275.326 36.776V29.02H274.178ZM277.114 30H278.052C278.85 29.314 279.326 28.278 279.326 27.522V27.326C279.326 26.836 279.06 26.5 278.472 26.5C277.884 26.5 277.618 26.836 277.618 27.326V27.522C277.618 27.9 277.786 28.18 278.164 28.264C278.01 28.922 277.674 29.412 277.114 30Z" fill="black" fill-opacity="0.5"/>
<path d="M63.69 56H65.04L67.42 50.13V49.02H62.6V51.35H63.69V50.07H66.14L63.69 56ZM76.1094 50.92V49.96H75.2694C74.8394 49.96 74.5894 50.16 74.5794 50.59C74.2394 50.3 73.7394 50.18 73.1694 50.18C72.0994 50.18 71.3394 50.64 70.9294 51.3L71.7294 52.02C72.0094 51.62 72.4094 51.26 73.1094 51.26C73.8894 51.26 74.2394 51.64 74.2394 52.36V52.63H72.9594C71.5594 52.63 70.8494 53.22 70.8494 54.3C70.8494 55.41 71.5394 56 72.7294 56H73.4094V54.94H72.8694C72.3794 54.94 72.1094 54.74 72.1094 54.33V54.17C72.1094 53.78 72.3994 53.56 72.9494 53.56H74.2394V56H75.4994V52.47C75.4994 51.82 75.3594 51.37 75.0994 51.09V50.92H76.1094ZM77.9236 56.11C78.4636 56.11 78.7136 55.81 78.7136 55.39V55.21C78.7136 54.79 78.4636 54.48 77.9236 54.48C77.3836 54.48 77.1336 54.79 77.1336 55.21V55.39C77.1336 55.81 77.3836 56.11 77.9236 56.11ZM80.1123 56H81.3923V54.62C81.3923 53.99 81.8223 53.74 82.4823 53.74H82.9923V52.63H82.6423C81.9623 52.63 81.5823 53 81.4323 53.6H81.3923V52.47C81.3923 51.66 81.8023 51.23 82.5623 51.23C83.3123 51.23 83.7323 51.66 83.7323 52.47V56H85.0023V52.52C85.0023 51.03 84.1523 50.15 82.5623 50.15C80.9623 50.15 80.1123 51.03 80.1123 52.52V56ZM87.2009 56.11C87.7409 56.11 87.9909 55.81 87.9909 55.39V55.21C87.9909 54.79 87.7409 54.48 87.2009 54.48C86.6609 54.48 86.4109 54.79 86.4109 55.21V55.39C86.4109 55.81 86.6609 56.11 87.2009 56.11ZM91.673 56H96.493V54.91H93.073L94.563 53.67C95.523 52.88 96.313 52.14 96.313 50.98C96.313 49.77 95.473 48.9 94.013 48.9C92.593 48.9 91.853 49.71 91.553 50.63L92.673 51.06C92.833 50.49 93.183 50.02 93.903 50.02C94.493 50.02 94.953 50.37 94.953 50.98V51.12C94.953 51.73 94.603 52.23 93.863 52.87L91.673 54.8V56ZM99.9891 56.12C101.629 56.12 102.559 55.1 102.559 53.7C102.559 52.32 101.629 51.5 100.429 51.5C99.5991 51.5 99.2491 51.9 98.9591 52.5H98.8791L99.0491 50.14H102.179V49.02H98.0891L97.8291 52.93L98.8891 53.08C99.0991 52.83 99.4491 52.56 100.019 52.56C100.769 52.56 101.209 53 101.209 53.73V53.82C101.209 54.58 100.789 55.06 99.9991 55.06C99.2391 55.06 98.8591 54.64 98.5391 54.1L97.5991 54.83C98.0191 55.5 98.6991 56.12 99.9891 56.12ZM106.065 56.12C107.595 56.12 108.585 55.13 108.585 53.72C108.585 52.4 107.705 51.55 106.535 51.55C105.665 51.55 105.225 52.04 104.955 52.59L104.875 52.56C105.185 51.13 106.145 50.2 107.775 49.02H106.035C104.865 49.8 103.535 51.38 103.535 53.38C103.535 55.05 104.475 56.12 106.065 56.12ZM106.065 55.1C105.315 55.1 104.865 54.67 104.865 53.9V53.75C104.865 52.99 105.315 52.56 106.065 52.56C106.805 52.56 107.255 52.99 107.255 53.75V53.9C107.255 54.67 106.805 55.1 106.065 55.1ZM111.751 56.12C113.281 56.12 114.311 55.3 114.311 54.07C114.311 53.08 113.651 52.51 112.851 52.36V52.31C113.581 52.16 114.181 51.61 114.181 50.72C114.181 49.6 113.221 48.9 111.831 48.9C110.661 48.9 110.001 49.41 109.531 50.06L110.361 50.81C110.691 50.28 111.181 49.96 111.791 49.96C112.431 49.96 112.831 50.31 112.831 50.89V50.96C112.831 51.47 112.451 51.85 111.651 51.85H110.961V52.92H111.651C112.491 52.92 112.971 53.27 112.971 53.93V53.99C112.971 54.65 112.531 55.06 111.751 55.06C110.961 55.06 110.551 54.66 110.231 54.1L109.281 54.83C109.721 55.5 110.401 56.12 111.751 56.12Z" fill="black" fill-opacity="0.5"/>
<path d="M63.75 89.082C64.226 89.082 64.436 88.83 64.436 88.452V88.27C64.436 87.892 64.226 87.64 63.75 87.64C63.274 87.64 63.064 87.892 63.064 88.27V88.452C63.064 88.83 63.274 89.082 63.75 89.082ZM63.19 98H64.31V90.776H63.19V98ZM66.802 98H72.136V96.964H67.978V88.228H66.802V98ZM75.538 98.168C76.546 98.168 77.316 97.706 77.624 96.824H77.694L77.708 96.908C77.806 97.538 78.128 98 78.94 98H79.57V97.02H78.744V93.044C78.744 91.518 77.708 90.608 75.972 90.608C74.67 90.608 73.802 91.252 73.41 92.022L74.082 92.652C74.474 91.994 75.048 91.574 75.916 91.574C77.064 91.574 77.624 92.134 77.624 93.156V93.87H76.196C74.096 93.87 73.116 94.626 73.116 95.984C73.116 97.328 74.012 98.168 75.538 98.168ZM75.72 97.216C74.852 97.216 74.292 96.81 74.292 96.096V95.802C74.292 95.102 74.866 94.71 76.14 94.71H77.624V95.9C77.624 96.642 76.826 97.216 75.72 97.216ZM82.3035 98H83.6615L84.6695 94.528L85.2855 92.33H85.3135L85.9435 94.528L86.9515 98H88.3375L90.2555 90.776H89.2055L88.4215 93.898L87.6795 97.062H87.6515L86.7555 93.898L85.8175 90.776H84.8235L83.9135 93.898L83.0315 97.062H83.0035L82.2335 93.898L81.4635 90.776H80.3715L82.3035 98ZM96.4982 98H97.8982V97.02H96.4562V90.02H95.3082V96.81C95.3082 97.51 95.7282 98 96.4982 98ZM101.971 98.168C103.735 98.168 104.785 97.16 104.785 95.424V90.02H103.637V95.256C103.637 96.516 102.993 97.16 101.971 97.16C100.935 97.16 100.291 96.642 100.291 95.34C100.291 93.296 101.551 93.324 101.551 91.56V91.392C101.551 90.552 101.173 90.02 99.9134 90.02H99.0314V91H100.431V91.686C100.431 93.198 99.1154 92.918 99.1154 95.382C99.1154 97.104 100.179 98.168 101.971 98.168ZM102.187 88.9H105.449V87.976H103.111V87.85C103.111 87.052 102.817 86.786 102.033 86.786H101.207V87.71H102.187V88.9ZM110.197 98H111.345V92.288C111.345 90.734 110.407 89.852 108.769 89.852C107.565 89.852 106.613 90.37 106.123 91.266L106.893 91.966C107.341 91.294 107.887 90.86 108.741 90.86C109.707 90.86 110.197 91.322 110.197 92.414V98ZM116.382 98.168C118.146 98.168 119.224 97.16 119.224 95.424V94.388C119.224 93.226 118.706 92.442 117.796 92.162V92.106C118.552 91.798 119.252 91.252 119.252 90.258V90.02H118.076V90.622C118.076 91.518 117.544 92.036 116.606 92.036H116.494V92.918H116.732C117.656 92.918 118.048 93.38 118.048 94.444V95.256C118.048 96.516 117.404 97.16 116.382 97.16C115.346 97.16 114.702 96.642 114.702 95.34C114.702 93.296 115.962 93.324 115.962 91.56V91.392C115.962 90.552 115.584 90.02 114.324 90.02H113.442V91H114.842V91.686C114.842 93.198 113.526 92.918 113.526 95.382C113.526 97.104 114.604 98.168 116.382 98.168ZM113.77 88.9H118.166C118.936 88.9 119.328 88.522 119.328 87.766V86.786H118.264V87.976H113.77V88.9ZM116.652 91.9H119.914V90.976H117.576V90.85C117.576 90.052 117.282 89.786 116.498 89.786H115.672V90.71H116.652V91.9ZM122.567 98H123.967V97.02H122.525V90.02H121.377V96.81C121.377 97.51 121.797 98 122.567 98ZM126.277 98H127.677V97.02H126.235V90.02H125.087V96.81C125.087 97.51 125.507 98 126.277 98ZM131.329 89.852C129.971 89.852 129.019 90.342 128.417 91.266L129.159 91.98C129.593 91.266 130.307 90.86 131.315 90.86C132.771 90.86 133.583 91.728 133.583 93.254V94.598C133.583 96.208 132.869 96.992 131.861 96.992H131.679L131.049 94.584C130.797 93.632 130.517 93.352 129.803 93.352H128.907V94.332H129.859L130.853 98H131.861C133.709 98 134.787 96.656 134.787 93.898C134.787 91.28 133.751 89.852 131.329 89.852ZM138.481 98H139.363C141.169 98 142.079 97.174 142.079 94.5V91.98C142.079 90.72 141.561 90.02 140.483 90.02H139.447V91H140.931V94.99C140.931 96.502 140.469 96.992 139.433 96.992H139.307L137.053 90.02H135.891L138.481 98ZM64.87 119H66.27V118.02H64.8V110.418C65.626 110.236 66.578 109.592 66.578 108.22C66.578 106.932 65.696 106.092 64.324 106.092C63.12 106.092 62.266 106.722 61.916 107.786L62.854 108.374C63.106 107.534 63.554 107.086 64.282 107.086C64.982 107.086 65.402 107.506 65.402 108.22V108.374C65.402 109.242 64.758 109.76 63.68 109.802V117.81C63.68 118.51 64.1 119 64.87 119ZM70.4438 119.168C71.7598 119.168 72.3618 118.44 72.6698 117.684H72.7258V119H73.8458V111.02H72.6978V116.606C72.6978 117.656 71.7318 118.146 70.7518 118.146C69.5618 118.146 68.9178 117.404 68.9178 115.976V111.02H67.7698V116.144C67.7698 118.062 68.8198 119.168 70.4438 119.168ZM79.2417 110.852C77.3937 110.852 76.0497 111.874 76.0497 113.694V114.38H77.7997V114.436C77.0717 114.604 76.3437 115.206 76.3437 116.522V119H77.4917V116.214C77.4917 114.996 77.9817 114.45 79.0177 114.408V113.568H77.1837C77.3097 112.364 78.0517 111.86 79.2417 111.86C80.5717 111.86 81.3277 112.616 81.3277 113.946V119H82.4757V113.876C82.4757 112.028 81.3977 110.852 79.2417 110.852ZM87.8709 119H89.0189V113.288C89.0189 111.734 88.0809 110.852 86.4429 110.852C85.2389 110.852 84.2869 111.37 83.7969 112.266L84.5669 112.966C85.0149 112.294 85.5609 111.86 86.4149 111.86C87.3809 111.86 87.8709 112.322 87.8709 113.414V119ZM93.8174 119.168C95.4834 119.168 96.5754 118.258 96.5754 116.69C96.5754 115.486 95.9034 114.73 94.3074 114.506L93.6914 114.422C92.7814 114.296 92.2214 113.904 92.2214 113.134C92.2214 112.364 92.7814 111.86 93.7194 111.86C94.6434 111.86 95.3294 112.378 95.6654 112.868L96.5054 112.14C95.8474 111.328 95.0074 110.852 93.8034 110.852C92.3334 110.852 91.1154 111.622 91.1154 113.19C91.1154 114.674 92.2074 115.206 93.5374 115.402L94.1534 115.486C95.1334 115.626 95.4694 116.214 95.4694 116.83C95.4694 117.656 94.8394 118.16 93.8874 118.16C92.9214 118.16 92.2354 117.74 91.6054 116.9L90.7794 117.6C91.4934 118.538 92.4034 119.168 93.8174 119.168ZM101.487 119.168C103.461 119.168 104.511 118.062 104.511 116.144V108.08H103.363V115.976C103.363 117.418 102.719 118.16 101.487 118.16C100.241 118.16 99.5974 117.418 99.5974 115.976V111.02H98.4494V116.144C98.4494 118.062 99.4994 119.168 101.487 119.168ZM109.308 119.168C110.974 119.168 112.066 118.258 112.066 116.69C112.066 115.486 111.394 114.73 109.798 114.506L109.182 114.422C108.272 114.296 107.712 113.904 107.712 113.134C107.712 112.364 108.272 111.86 109.21 111.86C110.134 111.86 110.82 112.378 111.156 112.868L111.996 112.14C111.338 111.328 110.498 110.852 109.294 110.852C107.824 110.852 106.606 111.622 106.606 113.19C106.606 114.674 107.698 115.206 109.028 115.402L109.644 115.486C110.624 115.626 110.96 116.214 110.96 116.83C110.96 117.656 110.33 118.16 109.378 118.16C108.412 118.16 107.726 117.74 107.096 116.9L106.27 117.6C106.984 118.538 107.894 119.168 109.308 119.168ZM114.766 114.114L117.23 114.1V113.064L114.668 113.078V111.79L113.576 111.804V112.924C113.576 113.68 114.066 114.114 114.766 114.114ZM114.766 118.174L117.23 118.16V117.124L114.668 117.138V115.85L113.576 115.864V116.984C113.576 117.74 114.066 118.174 114.766 118.174ZM121.604 119.168C123.368 119.168 124.446 118.16 124.446 116.424V115.388C124.446 114.226 123.928 113.442 123.018 113.162V113.106C123.774 112.798 124.474 112.252 124.474 111.258V111.02H123.298V111.622C123.298 112.518 122.766 113.036 121.828 113.036H121.716V113.918H121.954C122.878 113.918 123.27 114.38 123.27 115.444V116.256C123.27 117.516 122.626 118.16 121.604 118.16C120.568 118.16 119.924 117.642 119.924 116.34C119.924 114.296 121.184 114.324 121.184 112.56V112.392C121.184 111.552 120.806 111.02 119.546 111.02H118.664V112H120.064V112.686C120.064 114.198 118.748 113.918 118.748 116.382C118.748 118.104 119.826 119.168 121.604 119.168ZM123.351 122.738H124.303V121.086C124.303 120.4 123.925 120.022 123.253 120.022H122.567V120.862H123.337L123.351 122.738ZM130.072 119.168C131.696 119.168 132.746 118.062 132.746 116.144V111.02H131.598V115.976C131.598 117.404 130.954 118.146 129.764 118.146C128.784 118.146 127.818 117.656 127.818 116.606V111.02H126.67V119H127.79V117.684H127.846C128.154 118.44 128.756 119.168 130.072 119.168ZM137.554 119.168C139.22 119.168 140.312 118.258 140.312 116.69C140.312 115.486 139.64 114.73 138.044 114.506L137.428 114.422C136.518 114.296 135.958 113.904 135.958 113.134C135.958 112.364 136.518 111.86 137.456 111.86C138.38 111.86 139.066 112.378 139.402 112.868L140.242 112.14C139.584 111.328 138.744 110.852 137.54 110.852C136.07 110.852 134.852 111.622 134.852 113.19C134.852 114.674 135.944 115.206 137.274 115.402L137.89 115.486C138.87 115.626 139.206 116.214 139.206 116.83C139.206 117.656 138.576 118.16 137.624 118.16C136.658 118.16 135.972 117.74 135.342 116.9L134.516 117.6C135.23 118.538 136.14 119.168 137.554 119.168ZM139.001 109.9H140.093V107.576H139.001V109.9ZM144.328 119.168C146.47 119.168 147.492 117.74 147.492 115.01C147.492 112.28 146.47 110.852 144.328 110.852C142.886 110.852 141.962 111.552 141.514 112.546L142.522 113.022C142.816 112.294 143.474 111.86 144.328 111.86C145.49 111.86 146.288 112.728 146.288 114.254V115.766C146.288 117.292 145.49 118.16 144.328 118.16C143.474 118.16 142.816 117.726 142.522 116.998L141.514 117.474C141.962 118.468 142.886 119.168 144.328 119.168ZM152.836 119.168C154.46 119.168 155.51 118.062 155.51 116.144V111.02H154.362V115.976C154.362 117.404 153.718 118.146 152.528 118.146C151.548 118.146 150.582 117.656 150.582 116.606V111.02H149.434V119H150.554V117.684H150.61C150.918 118.44 151.52 119.168 152.836 119.168ZM160.835 110.852C158.987 110.852 157.643 111.874 157.643 113.694V114.38H159.393V114.436C158.665 114.604 157.937 115.206 157.937 116.522V119H159.085V116.214C159.085 114.996 159.575 114.45 160.611 114.408V113.568H158.777C158.903 112.364 159.645 111.86 160.835 111.86C162.165 111.86 162.921 112.616 162.921 113.946V119H164.069V113.876C164.069 112.028 162.991 110.852 160.835 110.852ZM162.636 109.9H165.436V108.976H162.118V108.08H161.054V108.486C161.054 109.48 161.516 109.9 162.636 109.9ZM169.073 119.168C170.389 119.168 170.991 118.44 171.299 117.684H171.355V119H172.475V111.02H171.327V116.606C171.327 117.656 170.361 118.146 169.381 118.146C168.191 118.146 167.547 117.404 167.547 115.976V111.02H166.399V116.144C166.399 118.062 167.449 119.168 169.073 119.168ZM177.591 119.168C179.355 119.168 180.405 118.16 180.405 116.424V111.02H179.257V116.256C179.257 117.516 178.613 118.16 177.591 118.16C176.555 118.16 175.911 117.642 175.911 116.34C175.911 114.296 177.171 114.324 177.171 112.56V112.392C177.171 111.552 176.793 111.02 175.533 111.02H174.651V112H176.051V112.686C176.051 114.198 174.735 113.918 174.735 116.382C174.735 118.104 175.799 119.168 177.591 119.168ZM185.466 119.168C187.748 119.168 188.798 117.824 188.798 115.01C188.798 112.28 187.72 110.852 185.424 110.852C184.066 110.852 183.1 111.342 182.47 112.266L183.24 112.952C183.702 112.266 184.388 111.86 185.396 111.86C186.796 111.86 187.594 112.728 187.594 114.254V115.794C187.594 117.376 186.88 118.16 185.466 118.16C184.01 118.16 183.394 117.474 183.394 115.794V115.374H184.85V114.394H183.73C182.806 114.394 182.274 114.856 182.274 115.808V115.92C182.274 117.978 183.436 119.168 185.466 119.168ZM192.444 119H193.326C195.132 119 196.042 118.174 196.042 115.5V112.98C196.042 111.72 195.524 111.02 194.446 111.02H193.41V112H194.894V115.99C194.894 117.502 194.432 117.992 193.396 117.992H193.27L191.016 111.02H189.854L192.444 119ZM200.649 119.168C202.315 119.168 203.407 118.258 203.407 116.69C203.407 115.486 202.735 114.73 201.139 114.506L200.523 114.422C199.613 114.296 199.053 113.904 199.053 113.134C199.053 112.364 199.613 111.86 200.551 111.86C201.475 111.86 202.161 112.378 202.497 112.868L203.337 112.14C202.679 111.328 201.839 110.852 200.635 110.852C199.165 110.852 197.947 111.622 197.947 113.19C197.947 114.674 199.039 115.206 200.369 115.402L200.985 115.486C201.965 115.626 202.301 116.214 202.301 116.83C202.301 117.656 201.671 118.16 200.719 118.16C199.753 118.16 199.067 117.74 198.437 116.9L197.611 117.6C198.325 118.538 199.235 119.168 200.649 119.168ZM201.915 109.9H204.715V108.976H201.397V108.08H200.333V108.486C200.333 109.48 200.795 109.9 201.915 109.9ZM211.483 111.51V110.53H210.195C209.705 110.53 209.383 110.796 209.383 111.202V111.3C208.907 110.992 208.263 110.852 207.507 110.852C206.177 110.852 205.239 111.342 204.637 112.266L205.379 112.98C205.813 112.266 206.527 111.86 207.535 111.86C208.991 111.86 209.803 112.728 209.803 114.254V115.598C209.803 117.208 209.089 117.992 208.081 117.992H207.899L207.269 115.584C207.017 114.632 206.737 114.352 206.023 114.352H205.127V115.332H206.079L207.073 119H208.081C209.929 119 211.007 117.656 211.007 114.898C211.007 113.512 210.713 112.462 210.041 111.818V111.51H211.483ZM209.831 120.106C209.831 120.624 209.565 120.89 209.131 120.89C208.543 120.89 208.207 120.498 208.137 119.7H207.017L206.709 120.68H205.141V121.632H206.163C207.129 121.632 207.661 121.268 207.815 120.428L207.857 120.19H207.885C207.983 121.198 208.599 121.772 209.481 121.772C210.279 121.772 210.895 121.31 210.895 120.302V119.7H209.831V120.106ZM219.778 111.51V110.53H218.49C218 110.53 217.678 110.796 217.678 111.202V111.3C217.216 110.992 216.6 110.852 215.886 110.852C214.5 110.852 213.534 111.482 212.96 112.406L213.702 113.12C214.136 112.406 214.85 111.86 215.858 111.86C217.202 111.86 217.846 112.462 217.846 113.876V114.296H216.138C213.884 114.296 212.806 115.094 212.806 116.69C212.806 118.23 213.828 119 215.438 119H216.264V117.978H215.578C214.57 117.978 214.01 117.614 214.01 116.802V116.438C214.01 115.738 214.64 115.318 215.9 115.318H217.846V119H218.994V113.75C218.994 112.98 218.798 112.322 218.336 111.832V111.51H219.778ZM224.562 110.852C222.546 110.852 221.328 111.874 221.328 113.694V114.38H223.358V114.436C222.63 114.604 221.902 115.206 221.902 116.522V118.02H220.922V119H221.524C222.686 119 223.022 118.65 223.022 117.278V116.214C223.022 115.234 223.358 114.45 224.422 114.408V113.568H222.448C222.546 112.378 223.19 111.86 224.562 111.86C225.948 111.86 226.746 112.616 226.746 113.946V119H227.894V113.876C227.894 112.028 226.83 110.852 224.562 110.852ZM233.285 119H234.433V113.288C234.433 111.734 233.495 110.852 231.857 110.852C230.653 110.852 229.701 111.37 229.211 112.266L229.981 112.966C230.429 112.294 230.975 111.86 231.829 111.86C232.795 111.86 233.285 112.322 233.285 113.414V119Z" fill="black" fill-opacity="0.5"/>
<path d="M62.92 138H67.69V136.95H66.1V131.02H64.13L62.4 133.06L63.21 133.74L64.74 131.95H64.82V136.95H62.92V138ZM69.6861 138H71.0361L73.4161 132.13V131.02H68.5961V133.35H69.6861V132.07H72.1361L69.6861 138ZM77.6555 138H79.1155L80.0355 133.72H80.0655L80.9855 138H82.4355L83.2455 132.27H82.0355L81.6255 136.74H81.5955L80.6455 132.27H79.4555L78.4955 136.74H78.4755L78.0655 132.27H76.8555L77.6555 138ZM85.238 138.11C85.778 138.11 86.028 137.81 86.028 137.39V137.21C86.028 136.79 85.778 136.48 85.238 136.48C84.698 136.48 84.448 136.79 84.448 137.21V137.39C84.448 137.81 84.698 138.11 85.238 138.11ZM89.6468 138.12C91.3068 138.12 91.9968 137.31 91.9968 135.63V132.27H90.7268V135.78C90.7268 136.62 90.3868 137.04 89.6468 137.04C88.9168 137.04 88.5468 136.62 88.5468 135.86V135.38H89.6668V134.4H89.4868C88.8968 134.4 88.5668 133.95 88.5668 133.4V133.27H89.5768V132.27H88.5468C87.7768 132.27 87.3768 132.67 87.3768 133.26V133.3C87.3768 133.95 87.8968 134.33 88.5468 134.41V134.46H88.4468C87.7268 134.46 87.2668 135.08 87.2668 135.91V136.08C87.2668 137.37 88.1168 138.12 89.6468 138.12ZM94.2127 138.11C94.7527 138.11 95.0027 137.81 95.0027 137.39V137.21C95.0027 136.79 94.7527 136.48 94.2127 136.48C93.6727 136.48 93.4227 136.79 93.4227 137.21V137.39C93.4227 137.81 93.6727 138.11 94.2127 138.11ZM98.6847 138H103.505V136.91H100.085L101.575 135.67C102.535 134.88 103.325 134.14 103.325 132.98C103.325 131.77 102.485 130.9 101.025 130.9C99.6047 130.9 98.8647 131.71 98.5647 132.63L99.6847 133.06C99.8447 132.49 100.195 132.02 100.915 132.02C101.505 132.02 101.965 132.37 101.965 132.98V133.12C101.965 133.73 101.615 134.23 100.875 134.87L98.6847 136.8V138ZM107.001 138.12C108.641 138.12 109.571 137.1 109.571 135.7C109.571 134.32 108.641 133.5 107.441 133.5C106.611 133.5 106.261 133.9 105.971 134.5H105.891L106.061 132.14H109.191V131.02H105.101L104.841 134.93L105.901 135.08C106.111 134.83 106.461 134.56 107.031 134.56C107.781 134.56 108.221 135 108.221 135.73V135.82C108.221 136.58 107.801 137.06 107.011 137.06C106.251 137.06 105.871 136.64 105.551 136.1L104.611 136.83C105.031 137.5 105.711 138.12 107.001 138.12ZM113.077 138.12C114.607 138.12 115.597 137.13 115.597 135.72C115.597 134.4 114.717 133.55 113.547 133.55C112.677 133.55 112.237 134.04 111.967 134.59L111.887 134.56C112.197 133.13 113.157 132.2 114.787 131.02H113.047C111.877 131.8 110.547 133.38 110.547 135.38C110.547 137.05 111.487 138.12 113.077 138.12ZM113.077 137.1C112.327 137.1 111.877 136.67 111.877 135.9V135.75C111.877 134.99 112.327 134.56 113.077 134.56C113.817 134.56 114.267 134.99 114.267 135.75V135.9C114.267 136.67 113.817 137.1 113.077 137.1ZM118.763 138.12C120.293 138.12 121.323 137.3 121.323 136.07C121.323 135.08 120.663 134.51 119.863 134.36V134.31C120.593 134.16 121.193 133.61 121.193 132.72C121.193 131.6 120.233 130.9 118.843 130.9C117.673 130.9 117.013 131.41 116.543 132.06L117.373 132.81C117.703 132.28 118.193 131.96 118.803 131.96C119.443 131.96 119.843 132.31 119.843 132.89V132.96C119.843 133.47 119.463 133.85 118.663 133.85H117.973V134.92H118.663C119.503 134.92 119.983 135.27 119.983 135.93V135.99C119.983 136.65 119.543 137.06 118.763 137.06C117.973 137.06 117.563 136.66 117.243 136.1L116.293 136.83C116.733 137.5 117.413 138.12 118.763 138.12Z" fill="black" fill-opacity="0.5"/>
<path d="M65.626 165.168C67.292 165.168 68.384 164.258 68.384 162.69C68.384 161.486 67.712 160.73 66.116 160.506L65.5 160.422C64.59 160.296 64.03 159.904 64.03 159.134C64.03 158.364 64.59 157.86 65.528 157.86C66.452 157.86 67.138 158.378 67.474 158.868L68.314 158.14C67.656 157.328 66.816 156.852 65.612 156.852C64.142 156.852 62.924 157.622 62.924 159.19C62.924 160.674 64.016 161.206 65.346 161.402L65.962 161.486C66.942 161.626 67.278 162.214 67.278 162.83C67.278 163.656 66.648 164.16 65.696 164.16C64.73 164.16 64.044 163.74 63.414 162.9L62.588 163.6C63.302 164.538 64.212 165.168 65.626 165.168ZM66.8915 155.9H69.6915V154.976H66.3735V154.08H65.3095V154.486C65.3095 155.48 65.7715 155.9 66.8915 155.9ZM76.46 157.51V156.53H75.172C74.682 156.53 74.36 156.796 74.36 157.202V157.3C73.884 156.992 73.24 156.852 72.484 156.852C71.154 156.852 70.216 157.342 69.614 158.266L70.356 158.98C70.79 158.266 71.504 157.86 72.512 157.86C73.968 157.86 74.78 158.728 74.78 160.254V161.598C74.78 163.208 74.066 163.992 73.058 163.992H72.876L72.246 161.584C71.994 160.632 71.714 160.352 71 160.352H70.104V161.332H71.056L72.05 165H73.058C74.906 165 75.984 163.656 75.984 160.898C75.984 159.512 75.69 158.462 75.018 157.818V157.51H76.46ZM74.808 166.106C74.808 166.624 74.542 166.89 74.108 166.89C73.52 166.89 73.184 166.498 73.114 165.7H71.994L71.686 166.68H70.118V167.632H71.14C72.106 167.632 72.638 167.268 72.792 166.428L72.834 166.19H72.862C72.96 167.198 73.576 167.772 74.458 167.772C75.256 167.772 75.872 167.31 75.872 166.302V165.7H74.808V166.106ZM84.7547 157.51V156.53H83.4667C82.9767 156.53 82.6547 156.796 82.6547 157.202V157.3C82.1927 156.992 81.5767 156.852 80.8627 156.852C79.4767 156.852 78.5107 157.482 77.9367 158.406L78.6787 159.12C79.1127 158.406 79.8267 157.86 80.8347 157.86C82.1787 157.86 82.8227 158.462 82.8227 159.876V160.296H81.1147C78.8607 160.296 77.7827 161.094 77.7827 162.69C77.7827 164.23 78.8047 165 80.4147 165H81.2407V163.978H80.5547C79.5467 163.978 78.9867 163.614 78.9867 162.802V162.438C78.9867 161.738 79.6167 161.318 80.8767 161.318H82.8227V165H83.9707V159.75C83.9707 158.98 83.7747 158.322 83.3127 157.832V157.51H84.7547ZM89.5385 156.852C87.5225 156.852 86.3045 157.874 86.3045 159.694V160.38H88.3345V160.436C87.6065 160.604 86.8785 161.206 86.8785 162.522V164.02H85.8985V165H86.5005C87.6625 165 87.9985 164.65 87.9985 163.278V162.214C87.9985 161.234 88.3345 160.45 89.3985 160.408V159.568H87.4245C87.5225 158.378 88.1665 157.86 89.5385 157.86C90.9245 157.86 91.7225 158.616 91.7225 159.946V165H92.8705V159.876C92.8705 158.028 91.8065 156.852 89.5385 156.852ZM98.2615 165H99.4095V159.288C99.4095 157.734 98.4715 156.852 96.8335 156.852C95.6295 156.852 94.6775 157.37 94.1875 158.266L94.9575 158.966C95.4055 158.294 95.9515 157.86 96.8055 157.86C97.7715 157.86 98.2615 158.322 98.2615 159.414V165ZM101.73 165H102.878V163.054C102.878 161.878 103.69 161.584 104.432 161.584H105.454V160.436H104.796C103.732 160.436 103.186 161.094 102.934 161.808H102.878V159.946C102.878 158.602 103.648 157.86 104.908 157.86C106.168 157.86 106.938 158.602 106.938 159.946V165H108.086V159.876C108.086 158.028 106.994 156.852 104.908 156.852C102.822 156.852 101.73 158.028 101.73 159.876V165ZM112.554 165.168C114.696 165.168 115.718 163.74 115.718 161.01C115.718 158.28 114.696 156.852 112.554 156.852C111.112 156.852 110.188 157.552 109.74 158.546L110.748 159.022C111.042 158.294 111.7 157.86 112.554 157.86C113.716 157.86 114.514 158.728 114.514 160.254V161.766C114.514 163.292 113.716 164.16 112.554 164.16C111.7 164.16 111.042 163.726 110.748 162.998L109.74 163.474C110.188 164.468 111.112 165.168 112.554 165.168ZM114.062 152.162H115.154V149.838H114.062V152.162ZM114.594 155.942C115.588 155.942 116.022 155.424 116.022 154.724V154.36C116.022 153.66 115.588 153.142 114.594 153.142C113.6 153.142 113.166 153.66 113.166 154.36V154.724C113.166 155.424 113.6 155.942 114.594 155.942ZM114.594 155.13C114.244 155.13 114.062 154.934 114.062 154.542C114.062 154.15 114.244 153.954 114.594 153.954C114.944 153.954 115.126 154.15 115.126 154.542C115.126 154.934 114.944 155.13 114.594 155.13ZM120.656 165H121.804V159.288C121.804 157.734 120.866 156.852 119.228 156.852C118.024 156.852 117.072 157.37 116.582 158.266L117.352 158.966C117.8 158.294 118.346 157.86 119.2 157.86C120.166 157.86 120.656 158.322 120.656 159.414V165ZM126.603 165.168C128.269 165.168 129.361 164.258 129.361 162.69C129.361 161.486 128.689 160.73 127.093 160.506L126.477 160.422C125.567 160.296 125.007 159.904 125.007 159.134C125.007 158.364 125.567 157.86 126.505 157.86C127.429 157.86 128.115 158.378 128.451 158.868L129.291 158.14C128.633 157.328 127.793 156.852 126.589 156.852C125.119 156.852 123.901 157.622 123.901 159.19C123.901 160.674 124.993 161.206 126.323 161.402L126.939 161.486C127.919 161.626 128.255 162.214 128.255 162.83C128.255 163.656 127.625 164.16 126.673 164.16C125.707 164.16 125.021 163.74 124.391 162.9L123.565 163.6C124.279 164.538 125.189 165.168 126.603 165.168ZM128.05 155.9H129.142V153.576H128.05V155.9ZM134.301 165H135.449V159.288C135.449 157.734 134.511 156.852 132.873 156.852C131.669 156.852 130.717 157.37 130.227 158.266L130.997 158.966C131.445 158.294 131.991 157.86 132.845 157.86C133.811 157.86 134.301 158.322 134.301 159.414V165ZM139.561 165H140.443C142.249 165 143.159 164.174 143.159 161.5V158.98C143.159 157.72 142.641 157.02 141.563 157.02H140.527V158H142.011V161.99C142.011 163.502 141.549 163.992 140.513 163.992H140.387L138.133 157.02H136.971L139.561 165Z" fill="black" fill-opacity="0.5"/>
<path d="M62.92 184H67.69V182.95H66.1V177.02H64.13L62.4 179.06L63.21 179.74L64.74 177.95H64.82V182.95H62.92V184ZM70.9961 184.12C72.6261 184.12 73.5361 183.26 73.5361 182.09C73.5361 181.18 72.9861 180.62 72.1561 180.39V180.31C72.8461 180.06 73.3261 179.52 73.3261 178.71C73.3261 177.64 72.4861 176.9 70.9961 176.9C69.5061 176.9 68.6661 177.64 68.6661 178.71C68.6661 179.52 69.1461 180.06 69.8361 180.31V180.39C69.0061 180.62 68.4561 181.18 68.4561 182.09C68.4561 183.26 69.3661 184.12 70.9961 184.12ZM70.9961 179.92C70.2861 179.92 69.8961 179.58 69.8961 178.99V178.84C69.8961 178.25 70.2861 177.91 70.9961 177.91C71.7061 177.91 72.0961 178.25 72.0961 178.84V178.99C72.0961 179.58 71.7061 179.92 70.9961 179.92ZM70.9961 183.11C70.2361 183.11 69.7961 182.73 69.7961 182.1V181.9C69.7961 181.27 70.2361 180.89 70.9961 180.89C71.7561 180.89 72.1961 181.27 72.1961 181.9V182.1C72.1961 182.73 71.7561 183.11 70.9961 183.11ZM77.6555 184H79.1155L80.0355 179.72H80.0655L80.9855 184H82.4355L83.2455 178.27H82.0355L81.6255 182.74H81.5955L80.6455 178.27H79.4555L78.4955 182.74H78.4755L78.0655 178.27H76.8555L77.6555 184ZM85.238 184.11C85.778 184.11 86.028 183.81 86.028 183.39V183.21C86.028 182.79 85.778 182.48 85.238 182.48C84.698 182.48 84.448 182.79 84.448 183.21V183.39C84.448 183.81 84.698 184.11 85.238 184.11ZM89.6468 184.12C91.3068 184.12 91.9968 183.31 91.9968 181.63V178.27H90.7268V181.78C90.7268 182.62 90.3868 183.04 89.6468 183.04C88.9168 183.04 88.5468 182.62 88.5468 181.86V181.38H89.6668V180.4H89.4868C88.8968 180.4 88.5668 179.95 88.5668 179.4V179.27H89.5768V178.27H88.5468C87.7768 178.27 87.3768 178.67 87.3768 179.26V179.3C87.3768 179.95 87.8968 180.33 88.5468 180.41V180.46H88.4468C87.7268 180.46 87.2668 181.08 87.2668 181.91V182.08C87.2668 183.37 88.1168 184.12 89.6468 184.12ZM94.2127 184.11C94.7527 184.11 95.0027 183.81 95.0027 183.39V183.21C95.0027 182.79 94.7527 182.48 94.2127 182.48C93.6727 182.48 93.4227 182.79 93.4227 183.21V183.39C93.4227 183.81 93.6727 184.11 94.2127 184.11ZM98.6847 184H103.505V182.91H100.085L101.575 181.67C102.535 180.88 103.325 180.14 103.325 178.98C103.325 177.77 102.485 176.9 101.025 176.9C99.6047 176.9 98.8647 177.71 98.5647 178.63L99.6847 179.06C99.8447 178.49 100.195 178.02 100.915 178.02C101.505 178.02 101.965 178.37 101.965 178.98V179.12C101.965 179.73 101.615 180.23 100.875 180.87L98.6847 182.8V184ZM107.001 184.12C108.641 184.12 109.571 183.1 109.571 181.7C109.571 180.32 108.641 179.5 107.441 179.5C106.611 179.5 106.261 179.9 105.971 180.5H105.891L106.061 178.14H109.191V177.02H105.101L104.841 180.93L105.901 181.08C106.111 180.83 106.461 180.56 107.031 180.56C107.781 180.56 108.221 181 108.221 181.73V181.82C108.221 182.58 107.801 183.06 107.011 183.06C106.251 183.06 105.871 182.64 105.551 182.1L104.611 182.83C105.031 183.5 105.711 184.12 107.001 184.12ZM113.077 184.12C114.607 184.12 115.597 183.13 115.597 181.72C115.597 180.4 114.717 179.55 113.547 179.55C112.677 179.55 112.237 180.04 111.967 180.59L111.887 180.56C112.197 179.13 113.157 178.2 114.787 177.02H113.047C111.877 177.8 110.547 179.38 110.547 181.38C110.547 183.05 111.487 184.12 113.077 184.12ZM113.077 183.1C112.327 183.1 111.877 182.67 111.877 181.9V181.75C111.877 180.99 112.327 180.56 113.077 180.56C113.817 180.56 114.267 180.99 114.267 181.75V181.9C114.267 182.67 113.817 183.1 113.077 183.1ZM118.763 184.12C120.293 184.12 121.323 183.3 121.323 182.07C121.323 181.08 120.663 180.51 119.863 180.36V180.31C120.593 180.16 121.193 179.61 121.193 178.72C121.193 177.6 120.233 176.9 118.843 176.9C117.673 176.9 117.013 177.41 116.543 178.06L117.373 178.81C117.703 178.28 118.193 177.96 118.803 177.96C119.443 177.96 119.843 178.31 119.843 178.89V178.96C119.843 179.47 119.463 179.85 118.663 179.85H117.973V180.92H118.663C119.503 180.92 119.983 181.27 119.983 181.93V181.99C119.983 182.65 119.543 183.06 118.763 183.06C117.973 183.06 117.563 182.66 117.243 182.1L116.293 182.83C116.733 183.5 117.413 184.12 118.763 184.12Z" fill="black" fill-opacity="0.5"/>
</svg>
