<svg width="300" height="261" viewBox="0 0 300 261" fill="none" xmlns="http://www.w3.org/2000/svg">
<path d="M162 63C164.761 63 167 60.7614 167 58C167 55.2386 164.761 53 162 53C159.239 53 157 55.2386 157 58C157 60.7614 159.239 63 162 63Z" fill="#C1B1F0"/>
<path d="M158 93C160.761 93 163 90.7614 163 88C163 85.2386 160.761 83 158 83C155.239 83 153 85.2386 153 88C153 90.7614 155.239 93 158 93Z" fill="#C1B1F0"/>
<path d="M143 106C145.761 106 148 103.761 148 101C148 98.2386 145.761 96 143 96C140.239 96 138 98.2386 138 101C138 103.761 140.239 106 143 106Z" fill="#C1B1F0"/>
<path d="M162 39C164.761 39 167 36.7614 167 34C167 31.2386 164.761 29 162 29C159.239 29 157 31.2386 157 34C157 36.7614 159.239 39 162 39Z" fill="white"/>
<path d="M137 60C139.761 60 142 57.7614 142 55C142 52.2386 139.761 50 137 50C134.239 50 132 52.2386 132 55C132 57.7614 134.239 60 137 60Z" fill="#C1B1F0"/>
<path d="M144 79C146.761 79 149 76.7614 149 74C149 71.2386 146.761 69 144 69C141.239 69 139 71.2386 139 74C139 76.7614 141.239 79 144 79Z" fill="#C1B1F0"/>
<line opacity="0.2" x1="196" y1="33" x2="167" y2="33" stroke="black" stroke-width="2" stroke-dasharray="2 2"/>
<path d="M203.366 16H204.766V15.02H203.324V8.02H202.176V14.81C202.176 15.51 202.596 16 203.366 16ZM207.076 16H208.476V15.02H207.034V8.02H205.886V14.81C205.886 15.51 206.306 16 207.076 16ZM210.504 16H212.044L213.5 9.574H213.528L214.956 16H216.496L217.812 5.08H216.664L215.656 14.824H215.628L214.074 8.02H212.954L211.372 14.824H211.344L210.532 8.02H209.384L210.504 16ZM222.007 7.852C220.565 7.852 219.599 8.482 219.025 9.406L219.767 10.12C220.201 9.406 220.915 8.86 221.923 8.86C223.267 8.86 223.911 9.462 223.911 10.876V11.296H222.203C219.949 11.296 218.871 12.094 218.871 13.69C218.871 15.23 219.893 16 221.503 16H222.329V14.978H221.643C220.635 14.978 220.075 14.614 220.075 13.802V13.438C220.075 12.738 220.705 12.318 221.965 12.318H223.911V16H225.059V10.708C225.059 8.888 223.995 7.852 222.007 7.852ZM230.075 16.168C231.839 16.168 232.917 15.16 232.917 13.424V12.388C232.917 11.226 232.399 10.442 231.489 10.162V10.106C232.245 9.798 232.945 9.252 232.945 8.258V8.02H231.769V8.622C231.769 9.518 231.237 10.036 230.299 10.036H230.187V10.918H230.425C231.349 10.918 231.741 11.38 231.741 12.444V13.256C231.741 14.516 231.097 15.16 230.075 15.16C229.039 15.16 228.395 14.642 228.395 13.34C228.395 11.296 229.655 11.324 229.655 9.56V9.392C229.655 8.552 229.277 8.02 228.017 8.02H227.135V9H228.535V9.686C228.535 11.198 227.219 10.918 227.219 13.382C227.219 15.104 228.297 16.168 230.075 16.168ZM238.543 16.168C240.167 16.168 241.217 15.062 241.217 13.144V8.02H240.069V12.976C240.069 14.404 239.425 15.146 238.235 15.146C237.255 15.146 236.289 14.656 236.289 13.606V8.02H235.141V16H236.261V14.684H236.317C236.625 15.44 237.227 16.168 238.543 16.168ZM237.583 4.842H240.593V4.058H237.499C236.575 4.058 235.959 4.632 235.959 5.514C235.959 6.396 236.491 6.97 237.317 6.97C237.947 6.97 238.241 6.634 238.311 6.144L238.353 5.864H238.367C238.437 6.578 238.787 6.97 239.319 6.97C239.879 6.97 240.327 6.662 240.327 5.948V5.486H239.403V5.808C239.403 6.116 239.235 6.27 238.997 6.27C238.689 6.27 238.535 5.948 238.535 5.57H237.737L237.513 6.298C237.121 6.27 236.911 6.018 236.911 5.57C236.911 5.094 237.149 4.842 237.583 4.842ZM246.29 16.168C248.572 16.168 249.622 14.824 249.622 12.01C249.622 9.28 248.544 7.852 246.248 7.852C244.89 7.852 243.924 8.342 243.294 9.266L244.064 9.952C244.526 9.266 245.212 8.86 246.22 8.86C247.62 8.86 248.418 9.728 248.418 11.254V12.794C248.418 14.376 247.704 15.16 246.29 15.16C244.834 15.16 244.218 14.474 244.218 12.794V12.374H245.674V11.394H244.554C243.63 11.394 243.098 11.856 243.098 12.808V12.92C243.098 14.978 244.26 16.168 246.29 16.168ZM254.542 16.168C256.516 16.168 257.566 15.062 257.566 13.144V8.02H256.418V12.976C256.418 14.418 255.774 15.16 254.542 15.16C253.296 15.16 252.652 14.418 252.652 12.976V8.02H251.504V13.144C251.504 15.062 252.554 16.168 254.542 16.168ZM203.506 37H204.906V36.02H203.464V29.02H202.316V35.81C202.316 36.51 202.736 37 203.506 37ZM208.741 37.168C210.407 37.168 211.499 36.258 211.499 34.69C211.499 33.486 210.827 32.73 209.231 32.506L208.615 32.422C207.705 32.296 207.145 31.904 207.145 31.134C207.145 30.364 207.705 29.86 208.643 29.86C209.567 29.86 210.253 30.378 210.589 30.868L211.429 30.14C210.771 29.328 209.931 28.852 208.727 28.852C207.257 28.852 206.039 29.622 206.039 31.19C206.039 32.674 207.131 33.206 208.461 33.402L209.077 33.486C210.057 33.626 210.393 34.214 210.393 34.83C210.393 35.656 209.763 36.16 208.811 36.16C207.845 36.16 207.159 35.74 206.529 34.9L205.703 35.6C206.417 36.538 207.327 37.168 208.741 37.168ZM205.807 27.9H210.203C210.973 27.9 211.365 27.522 211.365 26.766V25.786H210.301V26.976H205.807V27.9ZM216.201 37.168C218.175 37.168 219.225 36.062 219.225 34.144V29.02H218.077V33.976C218.077 35.418 217.433 36.16 216.201 36.16C214.969 36.16 214.325 35.474 214.325 34.34V33.066H216.229V32.058H215.865C214.745 32.058 214.395 31.218 214.395 30.28V30H216.047V29.02H214.773C213.765 29.02 213.275 29.51 213.275 30.364V30.434C213.275 31.372 214.017 31.848 214.731 32.016V32.058H214.605C213.681 32.058 213.177 32.744 213.177 33.906V34.354C213.177 36.118 214.227 37.168 216.201 37.168ZM224.544 28.852C222.696 28.852 221.352 29.874 221.352 31.694V32.38H223.102V32.436C222.374 32.604 221.646 33.206 221.646 34.522V37H222.794V34.214C222.794 32.996 223.284 32.45 224.32 32.408V31.568H222.486C222.612 30.364 223.354 29.86 224.544 29.86C225.874 29.86 226.63 30.616 226.63 31.946V37H227.778V31.876C227.778 30.028 226.7 28.852 224.544 28.852ZM232.558 37.168C234.224 37.168 235.316 36.258 235.316 34.69C235.316 33.486 234.644 32.73 233.048 32.506L232.432 32.422C231.522 32.296 230.962 31.904 230.962 31.134C230.962 30.364 231.522 29.86 232.46 29.86C233.384 29.86 234.07 30.378 234.406 30.868L235.246 30.14C234.588 29.328 233.748 28.852 232.544 28.852C231.074 28.852 229.856 29.622 229.856 31.19C229.856 32.674 230.948 33.206 232.278 33.402L232.894 33.486C233.874 33.626 234.21 34.214 234.21 34.83C234.21 35.656 233.58 36.16 232.628 36.16C231.662 36.16 230.976 35.74 230.346 34.9L229.52 35.6C230.234 36.538 231.144 37.168 232.558 37.168ZM232.437 27.9H235.699V26.976H233.361V26.85C233.361 26.052 233.067 25.786 232.283 25.786H231.457V26.71H232.437V27.9ZM239.906 37.168C242.188 37.168 243.238 35.824 243.238 33.01C243.238 30.28 242.16 28.852 239.864 28.852C238.506 28.852 237.54 29.342 236.91 30.266L237.68 30.952C238.142 30.266 238.828 29.86 239.836 29.86C241.236 29.86 242.034 30.728 242.034 32.254V33.794C242.034 35.376 241.32 36.16 239.906 36.16C238.45 36.16 237.834 35.474 237.834 33.794V33.374H239.29V32.394H238.17C237.246 32.394 236.714 32.856 236.714 33.808V33.92C236.714 35.978 237.876 37.168 239.906 37.168ZM246.883 37H247.765C249.571 37 250.481 36.174 250.481 33.5V30.98C250.481 29.72 249.963 29.02 248.885 29.02H247.849V30H249.333V33.99C249.333 35.502 248.871 35.992 247.835 35.992H247.709L245.455 29.02H244.293L246.883 37ZM204.626 58.168C206.292 58.168 207.384 57.258 207.384 55.69C207.384 54.486 206.712 53.73 205.116 53.506L204.5 53.422C203.59 53.296 203.03 52.904 203.03 52.134C203.03 51.364 203.59 50.86 204.528 50.86C205.452 50.86 206.138 51.378 206.474 51.868L207.314 51.14C206.656 50.328 205.816 49.852 204.612 49.852C203.142 49.852 201.924 50.622 201.924 52.19C201.924 53.674 203.016 54.206 204.346 54.402L204.962 54.486C205.942 54.626 206.278 55.214 206.278 55.83C206.278 56.656 205.648 57.16 204.696 57.16C203.73 57.16 203.044 56.74 202.414 55.9L201.588 56.6C202.302 57.538 203.212 58.168 204.626 58.168ZM205.891 48.9H208.691V47.976H205.373V47.08H204.309V47.486C204.309 48.48 204.771 48.9 205.891 48.9ZM215.46 50.51V49.53H214.172C213.682 49.53 213.36 49.796 213.36 50.202V50.3C212.884 49.992 212.24 49.852 211.484 49.852C210.154 49.852 209.216 50.342 208.614 51.266L209.356 51.98C209.79 51.266 210.504 50.86 211.512 50.86C212.968 50.86 213.78 51.728 213.78 53.254V54.598C213.78 56.208 213.066 56.992 212.058 56.992H211.876L211.246 54.584C210.994 53.632 210.714 53.352 210 53.352H209.104V54.332H210.056L211.05 58H212.058C213.906 58 214.984 56.656 214.984 53.898C214.984 52.512 214.69 51.462 214.018 50.818V50.51H215.46ZM213.808 59.106C213.808 59.624 213.542 59.89 213.108 59.89C212.52 59.89 212.184 59.498 212.114 58.7H210.994L210.686 59.68H209.118V60.632H210.14C211.106 60.632 211.638 60.268 211.792 59.428L211.834 59.19H211.862C211.96 60.198 212.576 60.772 213.458 60.772C214.256 60.772 214.872 60.31 214.872 59.302V58.7H213.808V59.106ZM220.185 58.168C222.159 58.168 223.209 57.062 223.209 55.144V50.02H222.061V54.976C222.061 56.418 221.417 57.16 220.185 57.16C218.939 57.16 218.295 56.418 218.295 54.976V50.02H217.147V55.144C217.147 57.062 218.197 58.168 220.185 58.168ZM228.621 58H229.769V52.288C229.769 50.734 228.831 49.852 227.193 49.852C225.989 49.852 225.037 50.37 224.547 51.266L225.317 51.966C225.765 51.294 226.311 50.86 227.165 50.86C228.131 50.86 228.621 51.322 228.621 52.414V58ZM234.749 49.852C233.307 49.852 232.341 50.482 231.767 51.406L232.509 52.12C232.943 51.406 233.657 50.86 234.665 50.86C236.009 50.86 236.653 51.462 236.653 52.876V53.296H234.945C232.691 53.296 231.613 54.094 231.613 55.69C231.613 57.23 232.635 58 234.245 58H235.071V56.978H234.385C233.377 56.978 232.817 56.614 232.817 55.802V55.438C232.817 54.738 233.447 54.318 234.707 54.318H236.653V58H237.801V52.708C237.801 50.888 236.737 49.852 234.749 49.852ZM241.319 58H242.719V57.02H241.277V50.02H240.129V56.81C240.129 57.51 240.549 58 241.319 58ZM245.029 58H246.429V57.02H244.987V50.02H243.839V56.81C243.839 57.51 244.259 58 245.029 58ZM250.781 49.852C248.933 49.852 247.589 50.874 247.589 52.694V53.38H249.339V53.436C248.611 53.604 247.883 54.206 247.883 55.522V58H249.031V55.214C249.031 53.996 249.521 53.45 250.557 53.408V52.568H248.723C248.849 51.364 249.591 50.86 250.781 50.86C252.111 50.86 252.867 51.616 252.867 52.946V58H254.015V52.876C254.015 51.028 252.937 49.852 250.781 49.852ZM251.195 48.9H254.457V47.976H252.119V47.85C252.119 47.052 251.825 46.786 251.041 46.786H250.215V47.71H251.195V48.9ZM259.382 58.168C261.356 58.168 262.406 57.062 262.406 55.144V47.08H261.258V54.976C261.258 56.418 260.614 57.16 259.382 57.16C258.136 57.16 257.492 56.418 257.492 54.976V50.02H256.344V55.144C256.344 57.062 257.394 58.168 259.382 58.168ZM258.494 48.9H260.412V47.976H257.976V47.066H256.912V47.486C256.912 48.48 257.374 48.9 258.494 48.9ZM274.272 50.02V55.466C274.272 56.516 273.306 57.006 272.41 57.006C271.416 57.006 270.772 56.516 270.772 54.85V52.876C270.772 51.028 269.652 49.852 267.622 49.852C265.662 49.852 264.472 50.874 264.472 52.694V53.38H266.124V53.436C265.396 53.604 264.668 54.206 264.668 55.606V56.11C264.668 57.384 265.214 58 266.306 58H267.188V57.02H265.788V55.214C265.788 53.996 266.278 53.45 267.426 53.408V52.568H265.564C265.69 51.42 266.376 50.86 267.622 50.86C268.868 50.86 269.624 51.602 269.624 52.946V55.018C269.624 57.174 270.674 58.028 272.102 58.028C273.334 58.028 273.936 57.3 274.244 56.544H274.3V57.608C274.3 59.008 273.6 59.61 272.382 59.61C271.5 59.61 270.786 59.204 270.352 58.504L269.61 59.218C270.184 60.142 271.15 60.632 272.48 60.632C274.3 60.632 275.42 59.596 275.42 57.776V50.02H274.272ZM277.838 58H278.986V53.744H281.296C282.22 53.744 282.612 54.206 282.612 55.27V58H283.788V55.074C283.788 53.87 283.242 53.086 282.276 52.82V52.764C283.032 52.484 283.732 51.938 283.732 50.944V50.02H282.584V51.308C282.584 51.91 282.29 52.722 281.114 52.722H278.986V50.02H277.838V58ZM289.146 58H290.294V52.288C290.294 50.734 289.356 49.852 287.718 49.852C286.514 49.852 285.562 50.37 285.072 51.266L285.842 51.966C286.29 51.294 286.836 50.86 287.69 50.86C288.656 50.86 289.146 51.322 289.146 52.414V58ZM202.302 79H203.478V74.828H206.194C207.944 74.828 208.924 73.75 208.924 72.028C208.924 70.306 207.944 69.228 206.194 69.228H202.302V79ZM203.478 73.792V70.264H206.194C207.118 70.264 207.664 70.768 207.664 71.664V72.392C207.664 73.288 207.118 73.792 206.194 73.792H203.478ZM210.792 79H211.94V70.768H212.01L212.836 72.406L215.174 76.662L217.512 72.406L218.338 70.768H218.408V79H219.556V69.228H218.044L215.23 74.492H215.16L212.36 69.228H210.792V79ZM225.21 79H231.622V77.964H226.484L229.116 75.598C230.362 74.478 231.258 73.414 231.258 71.902C231.258 70.236 230.166 69.06 228.262 69.06C226.372 69.06 225.504 70.208 225.126 71.356L226.176 71.762C226.442 70.838 227.002 70.11 228.206 70.11C229.41 70.11 230.012 70.852 230.012 71.93V72.098C230.012 73.036 229.312 74.016 228.402 74.856L225.21 77.796V79ZM234.459 79.168C235.047 79.168 235.313 78.832 235.313 78.356V78.174C235.313 77.698 235.047 77.362 234.459 77.362C233.871 77.362 233.605 77.698 233.605 78.174V78.356C233.605 78.832 233.871 79.168 234.459 79.168ZM240.499 79.168C242.557 79.168 243.789 77.838 243.789 75.934C243.789 74.044 242.557 72.91 240.877 72.91C239.855 72.91 239.337 73.33 238.875 73.988H238.777L239.057 70.264H243.341V69.228H238.105L237.755 74.604L238.749 74.744C239.155 74.296 239.603 73.918 240.499 73.918C241.829 73.918 242.543 74.66 242.543 75.948V76.088C242.543 77.376 241.829 78.118 240.499 78.118C239.323 78.118 238.833 77.6 238.329 76.83L237.447 77.502C238.035 78.342 238.875 79.168 240.499 79.168Z" fill="black" fill-opacity="0.5"/>
<path d="M201.92 98H206.69V96.95H205.1V91.02H203.13L201.4 93.06L202.21 93.74L203.74 91.95H203.82V96.95H201.92V98ZM210.496 98H211.716V96.65H212.636V95.64H211.716V91.02H210.106L207.326 95.55V96.65H210.496V98ZM208.386 95.64L210.406 92.27H210.496V95.64H208.386ZM219.065 98.12C220.265 98.12 220.895 97.35 220.895 96.01V92.27H219.625V95.73C219.625 96.59 219.325 97.01 218.625 97.01C218.005 97.01 217.415 96.71 217.415 96.06V92.27H216.145V98H217.415V97.09H217.465C217.665 97.64 218.105 98.12 219.065 98.12ZM223.125 98.11C223.665 98.11 223.915 97.81 223.915 97.39V97.21C223.915 96.79 223.665 96.48 223.125 96.48C222.585 96.48 222.335 96.79 222.335 97.21V97.39C222.335 97.81 222.585 98.11 223.125 98.11ZM225.314 98H226.594V96.62C226.594 95.99 227.024 95.74 227.684 95.74H228.194V94.63H227.844C227.164 94.63 226.784 95 226.634 95.6H226.594V94.47C226.594 93.66 227.004 93.23 227.764 93.23C228.514 93.23 228.934 93.66 228.934 94.47V98H230.204V94.52C230.204 93.03 229.354 92.15 227.764 92.15C226.164 92.15 225.314 93.03 225.314 94.52V98ZM232.402 98.11C232.942 98.11 233.192 97.81 233.192 97.39V97.21C233.192 96.79 232.942 96.48 232.402 96.48C231.862 96.48 231.612 96.79 231.612 97.21V97.39C231.612 97.81 231.862 98.11 232.402 98.11ZM236.874 98H241.694V96.91H238.274L239.764 95.67C240.724 94.88 241.514 94.14 241.514 92.98C241.514 91.77 240.674 90.9 239.214 90.9C237.794 90.9 237.054 91.71 236.754 92.63L237.874 93.06C238.034 92.49 238.384 92.02 239.104 92.02C239.694 92.02 240.154 92.37 240.154 92.98V93.12C240.154 93.73 239.804 94.23 239.064 94.87L236.874 96.8V98ZM245.19 98.12C246.83 98.12 247.76 97.1 247.76 95.7C247.76 94.32 246.83 93.5 245.63 93.5C244.8 93.5 244.45 93.9 244.16 94.5H244.08L244.25 92.14H247.38V91.02H243.29L243.03 94.93L244.09 95.08C244.3 94.83 244.65 94.56 245.22 94.56C245.97 94.56 246.41 95 246.41 95.73V95.82C246.41 96.58 245.99 97.06 245.2 97.06C244.44 97.06 244.06 96.64 243.74 96.1L242.8 96.83C243.22 97.5 243.9 98.12 245.19 98.12ZM251.266 98.12C252.796 98.12 253.786 97.13 253.786 95.72C253.786 94.4 252.906 93.55 251.736 93.55C250.866 93.55 250.426 94.04 250.156 94.59L250.076 94.56C250.386 93.13 251.346 92.2 252.976 91.02H251.236C250.066 91.8 248.736 93.38 248.736 95.38C248.736 97.05 249.676 98.12 251.266 98.12ZM251.266 97.1C250.516 97.1 250.066 96.67 250.066 95.9V95.75C250.066 94.99 250.516 94.56 251.266 94.56C252.006 94.56 252.456 94.99 252.456 95.75V95.9C252.456 96.67 252.006 97.1 251.266 97.1ZM256.952 98.12C258.482 98.12 259.512 97.3 259.512 96.07C259.512 95.08 258.852 94.51 258.052 94.36V94.31C258.782 94.16 259.382 93.61 259.382 92.72C259.382 91.6 258.422 90.9 257.032 90.9C255.862 90.9 255.202 91.41 254.732 92.06L255.562 92.81C255.892 92.28 256.382 91.96 256.992 91.96C257.632 91.96 258.032 92.31 258.032 92.89V92.96C258.032 93.47 257.652 93.85 256.852 93.85H256.162V94.92H256.852C257.692 94.92 258.172 95.27 258.172 95.93V95.99C258.172 96.65 257.732 97.06 256.952 97.06C256.162 97.06 255.752 96.66 255.432 96.1L254.482 96.83C254.922 97.5 255.602 98.12 256.952 98.12Z" fill="black" fill-opacity="0.5"/>
<path d="M56.6687 139.168C58.4327 139.168 59.5107 138.16 59.5107 136.424V135.388C59.5107 134.226 58.9927 133.442 58.0827 133.162V133.106C58.8387 132.798 59.5387 132.252 59.5387 131.258V131.02H58.3627V131.622C58.3627 132.518 57.8307 133.036 56.8927 133.036H56.7807V133.918H57.0187C57.9427 133.918 58.3347 134.38 58.3347 135.444V136.256C58.3347 137.516 57.6907 138.16 56.6687 138.16C55.6327 138.16 54.9887 137.642 54.9887 136.34C54.9887 134.296 56.2487 134.324 56.2487 132.56V132.392C56.2487 131.552 55.8707 131.02 54.6107 131.02H53.7287V132H55.1287V132.686C55.1287 134.198 53.8127 133.918 53.8127 136.382C53.8127 138.104 54.8907 139.168 56.6687 139.168ZM58.415 142.738H59.367V141.086C59.367 140.4 58.989 140.022 58.317 140.022H57.631V140.862H58.401L58.415 142.738ZM65.1363 139.168C66.7603 139.168 67.8103 138.062 67.8103 136.144V131.02H66.6623V135.976C66.6623 137.404 66.0183 138.146 64.8283 138.146C63.8483 138.146 62.8823 137.656 62.8823 136.606V131.02H61.7343V139H62.8543V137.684H62.9103C63.2183 138.44 63.8203 139.168 65.1363 139.168ZM72.8422 139.168C74.1582 139.168 74.7602 138.44 75.0682 137.684H75.1242V139H76.2442V131.02H75.0962V136.606C75.0962 137.656 74.1302 138.146 73.1502 138.146C71.9602 138.146 71.3162 137.404 71.3162 135.976V131.02H70.1682V136.144C70.1682 138.062 71.2182 139.168 72.8422 139.168ZM75.2861 142.738H76.2381V141.086C76.2381 140.4 75.8601 140.022 75.1881 140.022H74.5021V140.862H75.2721L75.2861 142.738ZM82.1441 139.168C83.7681 139.168 84.8181 138.062 84.8181 136.144V131.02H83.6701V135.976C83.6701 137.404 83.0261 138.146 81.8361 138.146C80.8561 138.146 79.8901 137.656 79.8901 136.606V131.02H78.7421V139H79.8621V137.684H79.9181C80.2261 138.44 80.8281 139.168 82.1441 139.168ZM21.3361 160H22.7361V159.02H21.2941V152.02H20.1461V158.81C20.1461 159.51 20.5661 160 21.3361 160ZM26.5713 160.168C28.2373 160.168 29.3293 159.258 29.3293 157.69C29.3293 156.486 28.6573 155.73 27.0613 155.506L26.4453 155.422C25.5353 155.296 24.9753 154.904 24.9753 154.134C24.9753 153.364 25.5353 152.86 26.4733 152.86C27.3973 152.86 28.0833 153.378 28.4193 153.868L29.2593 153.14C28.6013 152.328 27.7613 151.852 26.5573 151.852C25.0873 151.852 23.8693 152.622 23.8693 154.19C23.8693 155.674 24.9613 156.206 26.2913 156.402L26.9073 156.486C27.8873 156.626 28.2233 157.214 28.2233 157.83C28.2233 158.656 27.5933 159.16 26.6413 159.16C25.6753 159.16 24.9893 158.74 24.3593 157.9L23.5333 158.6C24.2473 159.538 25.1573 160.168 26.5713 160.168ZM23.6368 150.9H28.0328C28.8028 150.9 29.1948 150.522 29.1948 149.766V148.786H28.1308V149.976H23.6368V150.9ZM34.0313 160.168C36.0053 160.168 37.0553 159.062 37.0553 157.144V152.02H35.9073V156.976C35.9073 158.418 35.2633 159.16 34.0313 159.16C32.7993 159.16 32.1553 158.474 32.1553 157.34V156.066H34.0593V155.058H33.6953C32.5753 155.058 32.2253 154.218 32.2253 153.28V153H33.8773V152.02H32.6033C31.5953 152.02 31.1053 152.51 31.1053 153.364V153.434C31.1053 154.372 31.8473 154.848 32.5613 155.016V155.058H32.4353C31.5113 155.058 31.0073 155.744 31.0073 156.906V157.354C31.0073 159.118 32.0573 160.168 34.0313 160.168ZM42.3745 151.852C40.5265 151.852 39.1825 152.874 39.1825 154.694V155.38H40.9325V155.436C40.2045 155.604 39.4765 156.206 39.4765 157.522V160H40.6245V157.214C40.6245 155.996 41.1145 155.45 42.1505 155.408V154.568H40.3165C40.4425 153.364 41.1845 152.86 42.3745 152.86C43.7045 152.86 44.4605 153.616 44.4605 154.946V160H45.6085V154.876C45.6085 153.028 44.5305 151.852 42.3745 151.852ZM50.3877 160.168C52.0537 160.168 53.1457 159.258 53.1457 157.69C53.1457 156.486 52.4737 155.73 50.8777 155.506L50.2617 155.422C49.3517 155.296 48.7917 154.904 48.7917 154.134C48.7917 153.364 49.3517 152.86 50.2897 152.86C51.2137 152.86 51.8997 153.378 52.2357 153.868L53.0757 153.14C52.4177 152.328 51.5777 151.852 50.3737 151.852C48.9037 151.852 47.6857 152.622 47.6857 154.19C47.6857 155.674 48.7777 156.206 50.1077 156.402L50.7237 156.486C51.7037 156.626 52.0397 157.214 52.0397 157.83C52.0397 158.656 51.4097 159.16 50.4577 159.16C49.4917 159.16 48.8057 158.74 48.1757 157.9L47.3497 158.6C48.0637 159.538 48.9737 160.168 50.3877 160.168ZM50.2672 150.9H53.5292V149.976H51.1912V149.85C51.1912 149.052 50.8972 148.786 50.1132 148.786H49.2872V149.71H50.2672V150.9ZM57.7358 160.168C60.0178 160.168 61.0678 158.824 61.0678 156.01C61.0678 153.28 59.9898 151.852 57.6938 151.852C56.3358 151.852 55.3698 152.342 54.7398 153.266L55.5098 153.952C55.9718 153.266 56.6578 152.86 57.6658 152.86C59.0658 152.86 59.8638 153.728 59.8638 155.254V156.794C59.8638 158.376 59.1498 159.16 57.7358 159.16C56.2798 159.16 55.6638 158.474 55.6638 156.794V156.374H57.1198V155.394H55.9998C55.0758 155.394 54.5438 155.856 54.5438 156.808V156.92C54.5438 158.978 55.7058 160.168 57.7358 160.168ZM64.7134 160H65.5954C67.4014 160 68.3114 159.174 68.3114 156.5V153.98C68.3114 152.72 67.7934 152.02 66.7154 152.02H65.6794V153H67.1634V156.99C67.1634 158.502 66.7014 158.992 65.6654 158.992H65.5394L63.2854 152.02H62.1234L64.7134 160ZM73.297 160.168C75.271 160.168 76.321 159.062 76.321 157.144V152.02H75.173V156.976C75.173 158.418 74.529 159.16 73.297 159.16C72.065 159.16 71.421 158.474 71.421 157.34V156.066H73.325V155.058H72.961C71.841 155.058 71.491 154.218 71.491 153.28V153H73.143V152.02H71.869C70.861 152.02 70.371 152.51 70.371 153.364V153.434C70.371 154.372 71.113 154.848 71.827 155.016V155.058H71.701C70.777 155.058 70.273 155.744 70.273 156.906V157.354C70.273 159.118 71.323 160.168 73.297 160.168ZM75.2314 163.738H76.1834V162.086C76.1834 161.4 75.8054 161.022 75.1334 161.022H74.4474V161.862H75.2174L75.2314 163.738ZM81.2761 160H82.1301V158.978H81.3461C80.0441 158.978 79.4841 158.376 79.4841 156.85V155.24C79.4841 153.882 79.9181 152.958 80.6461 152.958L81.7101 154.078H81.7381L82.8021 152.958C83.4741 153.028 83.6421 153.364 83.6421 154.764V160H84.7901V153.966C84.7901 152.37 83.8101 151.852 82.6341 151.852L81.7521 152.888H81.7101L80.8141 151.852C79.1901 151.852 78.2801 153.21 78.2801 155.884C78.2801 158.768 79.1621 160 81.2761 160ZM79.0883 150.9H84.6463V149.976H79.0883V150.9ZM10.5412 181H11.9412V180.02H10.4992V173.552C10.4992 171.27 9.9952 169.884 8.6232 169.352V169.296H12.5292V168.344H7.4332V169.324C8.5952 169.366 9.3512 170.654 9.3512 172.67V179.81C9.3512 180.51 9.7712 181 10.5412 181ZM13.3199 181H14.4679V179.054C14.4679 177.878 15.2799 177.584 16.0219 177.584H17.0439V176.436H16.3859C15.3219 176.436 14.7759 177.094 14.5239 177.808H14.4679V175.946C14.4679 174.602 15.2379 173.86 16.4979 173.86C17.7579 173.86 18.5279 174.602 18.5279 175.946V181H19.6759V175.876C19.6759 174.028 18.5839 172.852 16.4979 172.852C14.4119 172.852 13.3199 174.028 13.3199 175.876V181ZM24.4522 181.168C26.1182 181.168 27.2102 180.258 27.2102 178.69C27.2102 177.486 26.5382 176.73 24.9422 176.506L24.3262 176.422C23.4162 176.296 22.8562 175.904 22.8562 175.134C22.8562 174.364 23.4162 173.86 24.3542 173.86C25.2782 173.86 25.9642 174.378 26.3002 174.868L27.1402 174.14C26.4822 173.328 25.6422 172.852 24.4382 172.852C22.9682 172.852 21.7502 173.622 21.7502 175.19C21.7502 176.674 22.8422 177.206 24.1722 177.402L24.7882 177.486C25.7682 177.626 26.1042 178.214 26.1042 178.83C26.1042 179.656 25.4742 180.16 24.5222 180.16C23.5562 180.16 22.8702 179.74 22.2402 178.9L21.4142 179.6C22.1282 180.538 23.0382 181.168 24.4522 181.168ZM30.8482 181H31.7302C33.5362 181 34.4462 180.174 34.4462 177.5V174.98C34.4462 173.72 33.9282 173.02 32.8502 173.02H31.8142V174H33.2982V177.99C33.2982 179.502 32.8362 179.992 31.8002 179.992H31.6742L29.4202 173.02H28.2582L30.8482 181ZM39.5717 172.852C37.7237 172.852 36.3797 173.874 36.3797 175.694V176.38H38.1297V176.436C37.4017 176.604 36.6737 177.206 36.6737 178.522V181H37.8217V178.214C37.8217 176.996 38.3117 176.45 39.3477 176.408V175.568H37.5137C37.6397 174.364 38.3817 173.86 39.5717 173.86C40.9017 173.86 41.6577 174.616 41.6577 175.946V181H42.8057V175.876C42.8057 174.028 41.7277 172.852 39.5717 172.852ZM48.201 181H49.349V175.288C49.349 173.734 48.411 172.852 46.773 172.852C45.569 172.852 44.617 173.37 44.127 174.266L44.897 174.966C45.345 174.294 45.891 173.86 46.745 173.86C47.711 173.86 48.201 174.322 48.201 175.414V181ZM54.1475 181.168C55.8135 181.168 56.9055 180.258 56.9055 178.69C56.9055 177.486 56.2335 176.73 54.6375 176.506L54.0215 176.422C53.1115 176.296 52.5515 175.904 52.5515 175.134C52.5515 174.364 53.1115 173.86 54.0495 173.86C54.9735 173.86 55.6595 174.378 55.9955 174.868L56.8355 174.14C56.1775 173.328 55.3375 172.852 54.1335 172.852C52.6635 172.852 51.4455 173.622 51.4455 175.19C51.4455 176.674 52.5375 177.206 53.8675 177.402L54.4835 177.486C55.4635 177.626 55.7995 178.214 55.7995 178.83C55.7995 179.656 55.1695 180.16 54.2175 180.16C53.2515 180.16 52.5655 179.74 51.9355 178.9L51.1095 179.6C51.8235 180.538 52.7335 181.168 54.1475 181.168ZM60.1095 181H61.5095V180.02H60.0675V173.02H58.9195V179.81C58.9195 180.51 59.3395 181 60.1095 181ZM65.5828 181.168C67.3468 181.168 68.3968 180.16 68.3968 178.424V173.02H67.2488V178.256C67.2488 179.516 66.6048 180.16 65.5828 180.16C64.5468 180.16 63.9028 179.642 63.9028 178.34C63.9028 176.296 65.1628 176.324 65.1628 174.56V174.392C65.1628 173.552 64.7848 173.02 63.5248 173.02H62.6427V174H64.0428V174.686C64.0428 176.198 62.7268 175.918 62.7268 178.382C62.7268 180.104 63.7908 181.168 65.5828 181.168ZM67.5204 169.786V170.976H66.9324V169.786H65.9804V170.976H62.9144V171.9H67.3104C68.0804 171.9 68.4724 171.522 68.4724 170.766V169.786H67.5204ZM67.5208 169.24H68.4728V167.336H67.5208V169.24ZM73.4584 181.168C75.7404 181.168 76.7904 179.824 76.7904 177.01C76.7904 174.28 75.7124 172.852 73.4164 172.852C72.0584 172.852 71.0924 173.342 70.4624 174.266L71.2324 174.952C71.6944 174.266 72.3804 173.86 73.3884 173.86C74.7884 173.86 75.5864 174.728 75.5864 176.254V177.794C75.5864 179.376 74.8724 180.16 73.4584 180.16C72.0024 180.16 71.3864 179.474 71.3864 177.794V177.374H72.8424V176.394H71.7224C70.7984 176.394 70.2664 176.856 70.2664 177.808V177.92C70.2664 179.978 71.4284 181.168 73.4584 181.168ZM81.3461 181.168C82.6621 181.168 83.2641 180.44 83.5721 179.684H83.6281V181H84.7481V173.02H83.6001V178.606C83.6001 179.656 82.6341 180.146 81.6541 180.146C80.4641 180.146 79.8201 179.404 79.8201 177.976V173.02H78.6721V178.144C78.6721 180.062 79.7221 181.168 81.3461 181.168ZM22.9357 202H24.3357V201.02H22.8937V194.02H21.7457V200.81C21.7457 201.51 22.1657 202 22.9357 202ZM25.7909 202H26.9389V197.744H29.2489C30.1729 197.744 30.5649 198.206 30.5649 199.27V202H31.7409V199.074C31.7409 197.87 31.1949 197.086 30.2289 196.82V196.764C30.9849 196.484 31.6849 195.938 31.6849 194.944V194.02H30.5369V195.308C30.5369 195.91 30.2429 196.722 29.0669 196.722H26.9389V194.02H25.7909V202ZM37.5054 202.168C39.1294 202.168 40.1794 201.062 40.1794 199.144V194.02H39.0314V198.976C39.0314 200.404 38.3874 201.146 37.1974 201.146C36.2174 201.146 35.2514 200.656 35.2514 199.606V194.02H34.1034V202H35.2234V200.684H35.2794C35.5874 201.44 36.1894 202.168 37.5054 202.168ZM39.2333 190.786V191.976H38.6453V190.786H37.6933V191.976H34.6273V192.9H39.0233C39.7933 192.9 40.1853 192.522 40.1853 191.766V190.786H39.2333ZM45.2533 202.168C47.5353 202.168 48.5853 200.824 48.5853 198.01C48.5853 195.28 47.5073 193.852 45.2113 193.852C43.8533 193.852 42.8873 194.342 42.2573 195.266L43.0273 195.952C43.4893 195.266 44.1753 194.86 45.1833 194.86C46.5833 194.86 47.3813 195.728 47.3813 197.254V198.794C47.3813 200.376 46.6673 201.16 45.2533 201.16C43.7973 201.16 43.1813 200.474 43.1813 198.794V198.374H44.6373V197.394H43.5173C42.5933 197.394 42.0613 197.856 42.0613 198.808V198.92C42.0613 200.978 43.2233 202.168 45.2533 202.168ZM52.231 202H53.113C54.919 202 55.829 201.174 55.829 198.5V195.98C55.829 194.72 55.311 194.02 54.233 194.02H53.197V195H54.681V198.99C54.681 200.502 54.219 200.992 53.183 200.992H53.057L50.803 194.02H49.641L52.231 202ZM60.5905 202H61.4445V200.978H60.6605C59.3585 200.978 58.7985 200.376 58.7985 198.85V197.24C58.7985 195.882 59.2325 194.958 59.9605 194.958L61.0245 196.078H61.0525L62.1165 194.958C62.7885 195.028 62.9565 195.364 62.9565 196.764V202H64.1045V195.966C64.1045 194.37 63.1245 193.852 61.9485 193.852L61.0665 194.888H61.0245L60.1285 193.852C58.5045 193.852 57.5945 195.21 57.5945 197.884C57.5945 200.768 58.4765 202 60.5905 202ZM67.3165 197.114L69.7805 197.1V196.064L67.2185 196.078V194.79L66.1265 194.804V195.924C66.1265 196.68 66.6165 197.114 67.3165 197.114ZM67.3165 201.174L69.7805 201.16V200.124L67.2185 200.138V198.85L66.1265 198.864V199.984C66.1265 200.74 66.6165 201.174 67.3165 201.174ZM74.435 193.852C72.587 193.852 71.243 194.874 71.243 196.694V197.38H72.993V197.436C72.265 197.604 71.537 198.206 71.537 199.522V202H72.685V199.214C72.685 197.996 73.175 197.45 74.211 197.408V196.568H72.377C72.503 195.364 73.245 194.86 74.435 194.86C75.765 194.86 76.521 195.616 76.521 196.946V202H77.669V196.876C77.669 195.028 76.591 193.852 74.435 193.852ZM76.2352 192.9H79.0352V191.976H75.7172V191.08H74.6532V191.486C74.6532 192.48 75.1152 192.9 76.2352 192.9ZM76.9954 189.24H77.9474V187.336H76.9954V189.24ZM82.1403 202.168C84.2823 202.168 85.3043 200.74 85.3043 198.01C85.3043 195.28 84.2823 193.852 82.1403 193.852C80.6983 193.852 79.7743 194.552 79.3263 195.546L80.3343 196.022C80.6283 195.294 81.2863 194.86 82.1403 194.86C83.3023 194.86 84.1003 195.728 84.1003 197.254V198.766C84.1003 200.292 83.3023 201.16 82.1403 201.16C81.2863 201.16 80.6283 200.726 80.3343 199.998L79.3263 200.474C79.7743 201.468 80.6983 202.168 82.1403 202.168ZM43.8483 214.852C42.4903 214.852 41.5383 215.342 40.9363 216.266L41.6783 216.98C42.1123 216.266 42.8263 215.86 43.8343 215.86C45.2903 215.86 46.1023 216.728 46.1023 218.254V219.598C46.1023 221.208 45.3883 221.992 44.3803 221.992H44.1983L43.5683 219.584C43.3163 218.632 43.0363 218.352 42.3223 218.352H41.4263V219.332H42.3783L43.3723 223H44.3803C46.2283 223 47.3063 221.656 47.3063 218.898C47.3063 216.28 46.2703 214.852 43.8483 214.852ZM49.9645 223.168C50.5525 223.168 50.8185 222.832 50.8185 222.356V222.174C50.8185 221.698 50.5525 221.362 49.9645 221.362C49.3765 221.362 49.1105 221.698 49.1105 222.174V222.356C49.1105 222.832 49.3765 223.168 49.9645 223.168ZM53.793 223H55.333L56.887 216.574H56.915L58.469 223H60.009L61.087 215.02H59.939L59.169 221.824H59.141L57.461 215.02H56.341L54.661 221.824H54.633L53.863 215.02H52.715L53.793 223ZM59.3368 213.9H62.1368V212.976H58.8188V212.08H57.7548V212.486C57.7548 213.48 58.2168 213.9 59.3368 213.9ZM63.1698 223H64.3178V217.428C64.3178 216.378 65.3118 215.888 66.3198 215.888C67.4958 215.888 68.1398 216.63 68.1398 218.058V223H69.2878V217.876C69.2878 215.958 68.2378 214.852 66.6278 214.852C65.2838 214.852 64.6678 215.58 64.3458 216.336H64.2898V215.02H63.1698V223ZM74.2768 214.852C72.8348 214.852 71.8688 215.482 71.2948 216.406L72.0368 217.12C72.4708 216.406 73.1848 215.86 74.1928 215.86C75.5368 215.86 76.1808 216.462 76.1808 217.876V218.296H74.4728C72.2188 218.296 71.1408 219.094 71.1408 220.69C71.1408 222.23 72.1628 223 73.7728 223H74.5988V221.978H73.9128C72.9048 221.978 72.3448 221.614 72.3448 220.802V220.438C72.3448 219.738 72.9748 219.318 74.2348 219.318H76.1808V223H77.3288V217.708C77.3288 215.888 76.2648 214.852 74.2768 214.852ZM76.3798 226.738H77.3318V225.086C77.3318 224.4 76.9538 224.022 76.2818 224.022H75.5958V224.862H76.3658L76.3798 226.738ZM81.4205 223H82.3025C84.1085 223 85.0185 222.174 85.0185 219.5V216.98C85.0185 215.72 84.5005 215.02 83.4225 215.02H82.3865V216H83.8705V219.99C83.8705 221.502 83.4085 221.992 82.3725 221.992H82.2465L79.9925 215.02H78.8305L81.4205 223Z" fill="black" fill-opacity="0.5"/>
<path d="M18.671 242H23.491V240.91H20.071L21.561 239.67C22.521 238.88 23.311 238.14 23.311 236.98C23.311 235.77 22.471 234.9 21.011 234.9C19.591 234.9 18.851 235.71 18.551 236.63L19.671 237.06C19.831 236.49 20.181 236.02 20.901 236.02C21.491 236.02 21.951 236.37 21.951 236.98V237.12C21.951 237.73 21.601 238.23 20.861 238.87L18.671 240.8V242ZM27.5371 242H28.7571V240.65H29.6771V239.64H28.7571V235.02H27.1471L24.3671 239.55V240.65H27.5371V242ZM25.4271 239.64L27.4471 236.27H27.5371V239.64H25.4271ZM38.1465 236.92V235.96H37.3065C36.8765 235.96 36.6265 236.16 36.6165 236.59C36.2765 236.3 35.7765 236.18 35.2065 236.18C34.1365 236.18 33.3765 236.64 32.9665 237.3L33.7665 238.02C34.0465 237.62 34.4465 237.26 35.1465 237.26C35.9265 237.26 36.2765 237.64 36.2765 238.36V238.63H34.9965C33.5965 238.63 32.8865 239.22 32.8865 240.3C32.8865 241.41 33.5765 242 34.7665 242H35.4465V240.94H34.9065C34.4165 240.94 34.1465 240.74 34.1465 240.33V240.17C34.1465 239.78 34.4365 239.56 34.9865 239.56H36.2765V242H37.5365V238.47C37.5365 237.82 37.3965 237.37 37.1365 237.09V236.92H38.1465ZM39.9607 242.11C40.5007 242.11 40.7507 241.81 40.7507 241.39V241.21C40.7507 240.79 40.5007 240.48 39.9607 240.48C39.4207 240.48 39.1707 240.79 39.1707 241.21V241.39C39.1707 241.81 39.4207 242.11 39.9607 242.11ZM42.1495 242H43.4295V240.62C43.4295 239.99 43.8595 239.74 44.5195 239.74H45.0295V238.63H44.6795C43.9995 238.63 43.6195 239 43.4695 239.6H43.4295V238.47C43.4295 237.66 43.8395 237.23 44.5995 237.23C45.3495 237.23 45.7695 237.66 45.7695 238.47V242H47.0395V238.52C47.0395 237.03 46.1895 236.15 44.5995 236.15C42.9995 236.15 42.1495 237.03 42.1495 238.52V242ZM49.238 242.11C49.778 242.11 50.028 241.81 50.028 241.39V241.21C50.028 240.79 49.778 240.48 49.238 240.48C48.698 240.48 48.448 240.79 48.448 241.21V241.39C48.448 241.81 48.698 242.11 49.238 242.11ZM53.6601 239.58H56.5101V238.33H53.6601V239.58ZM62.1868 242.12C63.7168 242.12 64.7468 241.3 64.7468 240.07C64.7468 239.08 64.0868 238.51 63.2868 238.36V238.31C64.0168 238.16 64.6168 237.61 64.6168 236.72C64.6168 235.6 63.6568 234.9 62.2668 234.9C61.0968 234.9 60.4368 235.41 59.9668 236.06L60.7968 236.81C61.1268 236.28 61.6168 235.96 62.2268 235.96C62.8668 235.96 63.2668 236.31 63.2668 236.89V236.96C63.2668 237.47 62.8868 237.85 62.0868 237.85H61.3968V238.92H62.0868C62.9268 238.92 63.4068 239.27 63.4068 239.93V239.99C63.4068 240.65 62.9668 241.06 62.1868 241.06C61.3968 241.06 60.9868 240.66 60.6668 240.1L59.7168 240.83C60.1568 241.5 60.8368 242.12 62.1868 242.12ZM70.8962 236.15C69.3762 236.15 68.4362 236.99 68.4362 238.48V238.94H69.7862V238.99C69.1862 239.11 68.6062 239.55 68.6062 240.46V242H69.8862V240.33C69.8862 239.37 70.1762 239.01 70.8262 238.97V238.09H69.6762C69.7662 237.5 70.1762 237.2 70.8562 237.2C71.6362 237.2 72.0662 237.64 72.0662 238.46V242H73.3462V238.52C73.3462 237.03 72.5262 236.15 70.8962 236.15ZM75.5466 242.11C76.0866 242.11 76.3366 241.81 76.3366 241.39V241.21C76.3366 240.79 76.0866 240.48 75.5466 240.48C75.0066 240.48 74.7566 240.79 74.7566 241.21V241.39C74.7566 241.81 75.0066 242.11 75.5466 242.11ZM79.9554 242.12C81.6154 242.12 82.3054 241.31 82.3054 239.63V236.27H81.0354V239.78C81.0354 240.62 80.6954 241.04 79.9554 241.04C79.2254 241.04 78.8554 240.62 78.8554 239.86V239.38H79.9754V238.4H79.7954C79.2054 238.4 78.8754 237.95 78.8754 237.4V237.27H79.8854V236.27H78.8554C78.0854 236.27 77.6854 236.67 77.6854 237.26V237.3C77.6854 237.95 78.2054 238.33 78.8554 238.41V238.46H78.7554C78.0354 238.46 77.5754 239.08 77.5754 239.91V240.08C77.5754 241.37 78.4254 242.12 79.9554 242.12ZM84.5213 242.11C85.0613 242.11 85.3113 241.81 85.3113 241.39V241.21C85.3113 240.79 85.0613 240.48 84.5213 240.48C83.9813 240.48 83.7313 240.79 83.7313 241.21V241.39C83.7313 241.81 83.9813 242.11 84.5213 242.11ZM62.6456 257H67.4656V255.91H64.0456L65.5356 254.67C66.4956 253.88 67.2856 253.14 67.2856 251.98C67.2856 250.77 66.4456 249.9 64.9856 249.9C63.5656 249.9 62.8256 250.71 62.5256 251.63L63.6456 252.06C63.8056 251.49 64.1556 251.02 64.8756 251.02C65.4656 251.02 65.9256 251.37 65.9256 251.98V252.12C65.9256 252.73 65.5756 253.23 64.8356 253.87L62.6456 255.8V257ZM70.9617 257.12C72.6017 257.12 73.5317 256.1 73.5317 254.7C73.5317 253.32 72.6017 252.5 71.4017 252.5C70.5717 252.5 70.2217 252.9 69.9317 253.5H69.8517L70.0217 251.14H73.1517V250.02H69.0617L68.8017 253.93L69.8617 254.08C70.0717 253.83 70.4217 253.56 70.9917 253.56C71.7417 253.56 72.1817 254 72.1817 254.73V254.82C72.1817 255.58 71.7617 256.06 70.9717 256.06C70.2117 256.06 69.8317 255.64 69.5117 255.1L68.5717 255.83C68.9917 256.5 69.6717 257.12 70.9617 257.12ZM77.0378 257.12C78.5678 257.12 79.5578 256.13 79.5578 254.72C79.5578 253.4 78.6778 252.55 77.5078 252.55C76.6378 252.55 76.1978 253.04 75.9278 253.59L75.8478 253.56C76.1578 252.13 77.1178 251.2 78.7478 250.02H77.0078C75.8378 250.8 74.5078 252.38 74.5078 254.38C74.5078 256.05 75.4478 257.12 77.0378 257.12ZM77.0378 256.1C76.2878 256.1 75.8378 255.67 75.8378 254.9V254.75C75.8378 253.99 76.2878 253.56 77.0378 253.56C77.7778 253.56 78.2278 253.99 78.2278 254.75V254.9C78.2278 255.67 77.7778 256.1 77.0378 256.1ZM82.7239 257.12C84.2539 257.12 85.2839 256.3 85.2839 255.07C85.2839 254.08 84.6239 253.51 83.8239 253.36V253.31C84.5539 253.16 85.1539 252.61 85.1539 251.72C85.1539 250.6 84.1939 249.9 82.8039 249.9C81.6339 249.9 80.9739 250.41 80.5039 251.06L81.3339 251.81C81.6639 251.28 82.1539 250.96 82.7639 250.96C83.4039 250.96 83.8039 251.31 83.8039 251.89V251.96C83.8039 252.47 83.4239 252.85 82.6239 252.85H81.9339V253.92H82.6239C83.4639 253.92 83.9439 254.27 83.9439 254.93V254.99C83.9439 255.65 83.5039 256.06 82.7239 256.06C81.9339 256.06 81.5239 255.66 81.2039 255.1L80.2539 255.83C80.6939 256.5 81.3739 257.12 82.7239 257.12Z" fill="black" fill-opacity="0.5"/>
<path d="M204.864 157.168C206.628 157.168 207.706 156.16 207.706 154.424V153.388C207.706 152.226 207.188 151.442 206.278 151.162V151.106C207.034 150.798 207.734 150.252 207.734 149.258V149.02H206.558V149.622C206.558 150.518 206.026 151.036 205.088 151.036H204.976V151.918H205.214C206.138 151.918 206.53 152.38 206.53 153.444V154.256C206.53 155.516 205.886 156.16 204.864 156.16C203.828 156.16 203.184 155.642 203.184 154.34C203.184 152.296 204.444 152.324 204.444 150.56V150.392C204.444 149.552 204.066 149.02 202.806 149.02H201.924V150H203.324V150.686C203.324 152.198 202.008 151.918 202.008 154.382C202.008 156.104 203.086 157.168 204.864 157.168ZM206.61 160.738H207.562V159.086C207.562 158.4 207.184 158.022 206.512 158.022H205.826V158.862H206.596L206.61 160.738ZM213.332 157.168C214.956 157.168 216.006 156.062 216.006 154.144V149.02H214.858V153.976C214.858 155.404 214.214 156.146 213.024 156.146C212.044 156.146 211.078 155.656 211.078 154.606V149.02H209.93V157H211.05V155.684H211.106C211.414 156.44 212.016 157.168 213.332 157.168ZM221.038 157.168C222.354 157.168 222.956 156.44 223.264 155.684H223.32V157H224.44V149.02H223.292V154.606C223.292 155.656 222.326 156.146 221.346 156.146C220.156 156.146 219.512 155.404 219.512 153.976V149.02H218.364V154.144C218.364 156.062 219.414 157.168 221.038 157.168ZM223.481 160.738H224.433V159.086C224.433 158.4 224.055 158.022 223.383 158.022H222.697V158.862H223.467L223.481 160.738ZM230.339 157.168C231.963 157.168 233.013 156.062 233.013 154.144V149.02H231.865V153.976C231.865 155.404 231.221 156.146 230.031 156.146C229.051 156.146 228.085 155.656 228.085 154.606V149.02H226.937V157H228.057V155.684H228.113C228.421 156.44 229.023 157.168 230.339 157.168ZM235.343 157H236.491V155.054C236.491 153.878 237.303 153.584 238.045 153.584H239.067V152.436H238.409C237.345 152.436 236.799 153.094 236.547 153.808H236.491V151.946C236.491 150.602 237.261 149.86 238.521 149.86C239.781 149.86 240.551 150.602 240.551 151.946V157H241.699V151.876C241.699 150.028 240.607 148.852 238.521 148.852C236.435 148.852 235.343 150.028 235.343 151.876V157ZM240.276 147.9H243.076V146.976H239.758V146.08H238.694V146.486C238.694 147.48 239.156 147.9 240.276 147.9ZM246.63 157H247.33V155.978H246.7C245.538 155.978 244.838 155.376 244.838 153.85V152.352C244.838 150.756 245.622 149.86 246.91 149.86C248.17 149.86 248.842 150.644 248.842 152.03V157H249.99V151.876C249.99 149.958 248.926 148.852 246.938 148.852C244.782 148.852 243.634 150.238 243.634 153.052C243.634 155.964 244.572 157 246.63 157ZM252.31 157H253.458V155.054C253.458 153.878 254.27 153.584 255.012 153.584H256.034V152.436H255.376C254.312 152.436 253.766 153.094 253.514 153.808H253.458V151.946C253.458 150.602 254.228 149.86 255.488 149.86C256.748 149.86 257.518 150.602 257.518 151.946V157H258.666V151.876C258.666 150.028 257.574 148.852 255.488 148.852C253.402 148.852 252.31 150.028 252.31 151.876V157ZM255.857 147.9H259.119V146.976H256.781V146.85C256.781 146.052 256.487 145.786 255.703 145.786H254.877V146.71H255.857V147.9ZM264.058 157H265.206V151.288C265.206 149.734 264.268 148.852 262.63 148.852C261.426 148.852 260.474 149.37 259.984 150.266L260.754 150.966C261.202 150.294 261.748 149.86 262.602 149.86C263.568 149.86 264.058 150.322 264.058 151.414V157ZM270.229 157.168C271.545 157.168 272.147 156.44 272.455 155.684H272.511V157H273.631V149.02H272.483V154.606C272.483 155.656 271.517 156.146 270.537 156.146C269.347 156.146 268.703 155.404 268.703 153.976V149.02H267.555V154.144C267.555 156.062 268.605 157.168 270.229 157.168ZM203.506 178H204.906V177.02H203.464V170.02H202.316V176.81C202.316 177.51 202.736 178 203.506 178ZM208.979 178.168C210.743 178.168 211.793 177.16 211.793 175.424V170.02H210.645V175.256C210.645 176.516 210.001 177.16 208.979 177.16C207.943 177.16 207.299 176.642 207.299 175.34C207.299 173.296 208.559 173.324 208.559 171.56V171.392C208.559 170.552 208.181 170.02 206.921 170.02H206.039V171H207.439V171.686C207.439 173.198 206.123 172.918 206.123 175.382C206.123 177.104 207.187 178.168 208.979 178.168ZM216.743 178H217.597V176.978H216.813C215.511 176.978 214.951 176.376 214.951 174.85V173.24C214.951 171.882 215.385 170.958 216.113 170.958L217.177 172.078H217.205L218.269 170.958C218.941 171.028 219.109 171.364 219.109 172.764V178H220.257V171.966C220.257 170.37 219.277 169.852 218.101 169.852L217.219 170.888H217.177L216.281 169.852C214.657 169.852 213.747 171.21 213.747 173.884C213.747 176.768 214.629 178 216.743 178ZM225.359 178.168C227.641 178.168 228.691 176.824 228.691 174.01C228.691 171.28 227.613 169.852 225.317 169.852C223.959 169.852 222.993 170.342 222.363 171.266L223.133 171.952C223.595 171.266 224.281 170.86 225.289 170.86C226.689 170.86 227.487 171.728 227.487 173.254V174.794C227.487 176.376 226.773 177.16 225.359 177.16C223.903 177.16 223.287 176.474 223.287 174.794V174.374H224.743V173.394H223.623C222.699 173.394 222.167 173.856 222.167 174.808V174.92C222.167 176.978 223.329 178.168 225.359 178.168ZM227.46 181.738H228.412V180.086C228.412 179.4 228.034 179.022 227.362 179.022H226.676V179.862H227.446L227.46 181.738ZM233.176 178H234.03V176.978H233.246C231.944 176.978 231.384 176.376 231.384 174.85V173.24C231.384 171.882 231.818 170.958 232.546 170.958L233.61 172.078H233.638L234.702 170.958C235.374 171.028 235.542 171.364 235.542 172.764V178H236.69V171.966C236.69 170.37 235.71 169.852 234.534 169.852L233.652 170.888H233.61L232.714 169.852C231.09 169.852 230.18 171.21 230.18 173.884C230.18 176.768 231.062 178 233.176 178ZM245.684 170.51V169.53H244.396C243.906 169.53 243.584 169.796 243.584 170.202V170.3C243.122 169.992 242.506 169.852 241.792 169.852C240.406 169.852 239.44 170.482 238.866 171.406L239.608 172.12C240.042 171.406 240.756 170.86 241.764 170.86C243.108 170.86 243.752 171.462 243.752 172.876V173.296H242.044C239.79 173.296 238.712 174.094 238.712 175.69C238.712 177.23 239.734 178 241.344 178H242.17V176.978H241.484C240.476 176.978 239.916 176.614 239.916 175.802V175.438C239.916 174.738 240.546 174.318 241.806 174.318H243.752V178H244.9V172.75C244.9 171.98 244.704 171.322 244.242 170.832V170.51H245.684ZM250.482 178H251.63V172.288C251.63 170.734 250.692 169.852 249.054 169.852C247.85 169.852 246.898 170.37 246.408 171.266L247.178 171.966C247.626 171.294 248.172 170.86 249.026 170.86C249.992 170.86 250.482 171.322 250.482 172.414V178ZM254.049 178H255.197V173.744H257.507C258.431 173.744 258.823 174.206 258.823 175.27V178H259.999V175.074C259.999 173.87 259.453 173.086 258.487 172.82V172.764C259.243 172.484 259.943 171.938 259.943 170.944V170.02H258.795V171.308C258.795 171.91 258.501 172.722 257.325 172.722H255.197V170.02H254.049V178ZM265.259 169.852C263.411 169.852 262.067 170.874 262.067 172.694V173.38H263.817V173.436C263.089 173.604 262.361 174.206 262.361 175.522V178H263.509V175.214C263.509 173.996 263.999 173.45 265.035 173.408V172.568H263.201C263.327 171.364 264.069 170.86 265.259 170.86C266.589 170.86 267.345 171.616 267.345 172.946V178H268.493V172.876C268.493 171.028 267.415 169.852 265.259 169.852ZM273.272 178.168C274.938 178.168 276.03 177.258 276.03 175.69C276.03 174.486 275.358 173.73 273.762 173.506L273.146 173.422C272.236 173.296 271.676 172.904 271.676 172.134C271.676 171.364 272.236 170.86 273.174 170.86C274.098 170.86 274.784 171.378 275.12 171.868L275.96 171.14C275.302 170.328 274.462 169.852 273.258 169.852C271.788 169.852 270.57 170.622 270.57 172.19C270.57 173.674 271.662 174.206 272.992 174.402L273.608 174.486C274.588 174.626 274.924 175.214 274.924 175.83C274.924 176.656 274.294 177.16 273.342 177.16C272.376 177.16 271.69 176.74 271.06 175.9L270.234 176.6C270.948 177.538 271.858 178.168 273.272 178.168ZM280.355 178.168C282.021 178.168 283.113 177.258 283.113 175.69C283.113 174.486 282.441 173.73 280.845 173.506L280.229 173.422C279.319 173.296 278.759 172.904 278.759 172.134C278.759 171.364 279.319 170.86 280.257 170.86C281.181 170.86 281.867 171.378 282.203 171.868L283.043 171.14C282.385 170.328 281.545 169.852 280.341 169.852C278.871 169.852 277.653 170.622 277.653 172.19C277.653 173.674 278.745 174.206 280.075 174.402L280.691 174.486C281.671 174.626 282.007 175.214 282.007 175.83C282.007 176.656 281.377 177.16 280.425 177.16C279.459 177.16 278.773 176.74 278.143 175.9L277.317 176.6C278.031 177.538 278.941 178.168 280.355 178.168ZM288.459 178.168C290.083 178.168 291.133 177.062 291.133 175.144V170.02H289.985V174.976C289.985 176.404 289.341 177.146 288.151 177.146C287.171 177.146 286.205 176.656 286.205 175.606V170.02H285.057V178H286.177V176.684H286.233C286.541 177.44 287.143 178.168 288.459 178.168ZM202.918 199H204.458L206.012 192.574H206.04L207.594 199H209.134L210.212 191.02H209.064L208.294 197.824H208.266L206.586 191.02H205.466L203.786 197.824H203.758L202.988 191.02H201.84L202.918 199ZM204.192 189.9H209.75V188.976H204.192V189.9ZM213.555 199H214.955V198.02H213.513V191.02H212.365V197.81C212.365 198.51 212.785 199 213.555 199ZM223.41 191.51V190.53H222.122C221.632 190.53 221.31 190.796 221.31 191.202V191.384C220.806 191.02 220.19 190.852 219.476 190.852C217.404 190.852 216.312 192.028 216.312 193.876V199H217.46V197.054C217.46 195.878 218.272 195.584 219.014 195.584H220.036V194.436H219.378C218.314 194.436 217.768 195.094 217.516 195.808H217.46V193.946C217.46 192.602 218.23 191.86 219.49 191.86C220.75 191.86 221.52 192.602 221.52 193.946V199H222.668V193.876C222.668 193.064 222.416 192.378 221.968 191.944V191.51H223.41ZM232.355 194.016H231.361V191.02H230.213V194.002H228.253V195.024H230.213V196.074C230.213 197.418 229.443 198.16 228.253 198.16C227.063 198.16 226.293 197.418 226.293 196.074V191.02H225.145V196.144C225.145 197.992 226.237 199.168 228.253 199.168C230.269 199.168 231.361 197.992 231.361 196.144V195.024H232.355V194.016ZM204.892 220.168C207.174 220.168 208.224 218.824 208.224 216.01C208.224 213.28 207.146 211.852 204.85 211.852C203.492 211.852 202.526 212.342 201.896 213.266L202.666 213.952C203.128 213.266 203.814 212.86 204.822 212.86C206.222 212.86 207.02 213.728 207.02 215.254V216.794C207.02 218.376 206.306 219.16 204.892 219.16C203.436 219.16 202.82 218.474 202.82 216.794V216.374H204.276V215.394H203.156C202.232 215.394 201.7 215.856 201.7 216.808V216.92C201.7 218.978 202.862 220.168 204.892 220.168ZM210.834 220.168C211.422 220.168 211.688 219.832 211.688 219.356V219.174C211.688 218.698 211.422 218.362 210.834 218.362C210.246 218.362 209.98 218.698 209.98 219.174V219.356C209.98 219.832 210.246 220.168 210.834 220.168ZM219.497 211.852C218.139 211.852 217.187 212.342 216.585 213.266L217.327 213.98C217.761 213.266 218.475 212.86 219.483 212.86C220.939 212.86 221.751 213.728 221.751 215.254V216.598C221.751 218.208 221.037 218.992 220.029 218.992H219.847L219.217 216.584C218.965 215.632 218.685 215.352 217.971 215.352H217.075V216.332H218.027L219.021 220H220.029C221.877 220 222.955 218.656 222.955 215.898C222.955 213.28 221.919 211.852 219.497 211.852ZM225.711 215.114L228.175 215.1V214.064L225.613 214.078V212.79L224.521 212.804V213.924C224.521 214.68 225.011 215.114 225.711 215.114ZM225.711 219.174L228.175 219.16V218.124L225.613 218.138V216.85L224.521 216.864V217.984C224.521 218.74 225.011 219.174 225.711 219.174ZM232.536 220.168C233.852 220.168 234.454 219.44 234.762 218.684H234.818V220H235.938V212.02H234.79V217.606C234.79 218.656 233.824 219.146 232.844 219.146C231.654 219.146 231.01 218.404 231.01 216.976V212.02H229.862V217.144C229.862 219.062 230.912 220.168 232.536 220.168ZM239.191 215.114L241.655 215.1V214.064L239.093 214.078V212.79L238.001 212.804V213.924C238.001 214.68 238.491 215.114 239.191 215.114ZM239.191 219.174L241.655 219.16V218.124L239.093 218.138V216.85L238.001 216.864V217.984C238.001 218.74 238.491 219.174 239.191 219.174Z" fill="black" fill-opacity="0.5"/>
<path d="M201.92 239H206.69V237.95H205.1V232.02H203.13L201.4 234.06L202.21 234.74L203.74 232.95H203.82V237.95H201.92V239ZM207.916 239H212.686V237.95H211.096V232.02H209.126L207.396 234.06L208.206 234.74L209.736 232.95H209.816V237.95H207.916V239ZM221.105 233.92V232.96H220.265C219.835 232.96 219.585 233.16 219.575 233.59C219.235 233.3 218.735 233.18 218.165 233.18C217.095 233.18 216.335 233.64 215.925 234.3L216.725 235.02C217.005 234.62 217.405 234.26 218.105 234.26C218.885 234.26 219.235 234.64 219.235 235.36V235.63H217.955C216.555 235.63 215.845 236.22 215.845 237.3C215.845 238.41 216.535 239 217.725 239H218.405V237.94H217.865C217.375 237.94 217.105 237.74 217.105 237.33V237.17C217.105 236.78 217.395 236.56 217.945 236.56H219.235V239H220.495V235.47C220.495 234.82 220.355 234.37 220.095 234.09V233.92H221.105ZM222.92 239.11C223.46 239.11 223.71 238.81 223.71 238.39V238.21C223.71 237.79 223.46 237.48 222.92 237.48C222.38 237.48 222.13 237.79 222.13 238.21V238.39C222.13 238.81 222.38 239.11 222.92 239.11ZM225.108 239H226.388V237.62C226.388 236.99 226.818 236.74 227.478 236.74H227.988V235.63H227.638C226.958 235.63 226.578 236 226.428 236.6H226.388V235.47C226.388 234.66 226.798 234.23 227.558 234.23C228.308 234.23 228.728 234.66 228.728 235.47V239H229.998V235.52C229.998 234.03 229.148 233.15 227.558 233.15C225.958 233.15 225.108 234.03 225.108 235.52V239ZM232.197 239.11C232.737 239.11 232.987 238.81 232.987 238.39V238.21C232.987 237.79 232.737 237.48 232.197 237.48C231.657 237.48 231.407 237.79 231.407 238.21V238.39C231.407 238.81 231.657 239.11 232.197 239.11ZM236.619 236.58H239.469V235.33H236.619V236.58ZM243.346 239H248.116V237.95H246.526V232.02H244.556L242.826 234.06L243.636 234.74L245.166 232.95H245.246V237.95H243.346V239ZM251.372 239.12C253.012 239.12 253.942 238.1 253.942 236.7C253.942 235.32 253.012 234.5 251.812 234.5C250.982 234.5 250.632 234.9 250.342 235.5H250.262L250.432 233.14H253.562V232.02H249.472L249.212 235.93L250.272 236.08C250.482 235.83 250.832 235.56 251.402 235.56C252.152 235.56 252.592 236 252.592 236.73V236.82C252.592 237.58 252.172 238.06 251.382 238.06C250.622 238.06 250.242 237.64 249.922 237.1L248.982 237.83C249.402 238.5 250.082 239.12 251.372 239.12ZM259.651 239.12C261.061 239.12 261.841 238.46 261.841 237.15C261.841 236.03 261.301 235.5 260.001 235.3L258.561 235.12V234.89C258.561 234.46 258.901 234.21 259.561 234.21C260.191 234.21 260.601 234.44 260.951 234.83L261.791 234.09C261.331 233.49 260.651 233.15 259.571 233.15C258.191 233.15 257.371 233.82 257.371 234.84V234.95C257.371 235.61 257.801 236.01 258.631 236.14L259.761 236.27C260.421 236.36 260.651 236.58 260.651 237.15C260.651 237.78 260.321 238.05 259.631 238.05C259.241 238.05 258.951 237.98 258.651 237.85V236.57H257.511V238.52C258.031 238.91 258.711 239.12 259.651 239.12ZM263.76 239.11C264.3 239.11 264.55 238.81 264.55 238.39V238.21C264.55 237.79 264.3 237.48 263.76 237.48C263.22 237.48 262.97 237.79 262.97 238.21V238.39C262.97 238.81 263.22 239.11 263.76 239.11ZM265.948 239H267.228V237.62C267.228 236.99 267.658 236.74 268.318 236.74H268.828V235.63H268.478C267.798 235.63 267.418 236 267.268 236.6H267.228V235.47C267.228 234.66 267.638 234.23 268.398 234.23C269.148 234.23 269.568 234.66 269.568 235.47V239H270.838V235.52C270.838 234.03 269.988 233.15 268.398 233.15C266.798 233.15 265.948 234.03 265.948 235.52V239ZM273.037 239.11C273.577 239.11 273.827 238.81 273.827 238.39V238.21C273.827 237.79 273.577 237.48 273.037 237.48C272.497 237.48 272.247 237.79 272.247 238.21V238.39C272.247 238.81 272.497 239.11 273.037 239.11ZM201.63 254H206.45V252.91H203.03L204.52 251.67C205.48 250.88 206.27 250.14 206.27 248.98C206.27 247.77 205.43 246.9 203.97 246.9C202.55 246.9 201.81 247.71 201.51 248.63L202.63 249.06C202.79 248.49 203.14 248.02 203.86 248.02C204.45 248.02 204.91 248.37 204.91 248.98V249.12C204.91 249.73 204.56 250.23 203.82 250.87L201.63 252.8V254ZM209.946 254.12C211.586 254.12 212.516 253.1 212.516 251.7C212.516 250.32 211.586 249.5 210.386 249.5C209.556 249.5 209.206 249.9 208.916 250.5H208.836L209.006 248.14H212.136V247.02H208.046L207.786 250.93L208.846 251.08C209.056 250.83 209.406 250.56 209.976 250.56C210.726 250.56 211.166 251 211.166 251.73V251.82C211.166 252.58 210.746 253.06 209.956 253.06C209.196 253.06 208.816 252.64 208.496 252.1L207.556 252.83C207.976 253.5 208.656 254.12 209.946 254.12ZM216.022 254.12C217.552 254.12 218.542 253.13 218.542 251.72C218.542 250.4 217.662 249.55 216.492 249.55C215.622 249.55 215.182 250.04 214.912 250.59L214.832 250.56C215.142 249.13 216.102 248.2 217.732 247.02H215.992C214.822 247.8 213.492 249.38 213.492 251.38C213.492 253.05 214.432 254.12 216.022 254.12ZM216.022 253.1C215.272 253.1 214.822 252.67 214.822 251.9V251.75C214.822 250.99 215.272 250.56 216.022 250.56C216.762 250.56 217.212 250.99 217.212 251.75V251.9C217.212 252.67 216.762 253.1 216.022 253.1ZM221.708 254.12C223.238 254.12 224.268 253.3 224.268 252.07C224.268 251.08 223.608 250.51 222.808 250.36V250.31C223.538 250.16 224.138 249.61 224.138 248.72C224.138 247.6 223.178 246.9 221.788 246.9C220.618 246.9 219.958 247.41 219.488 248.06L220.318 248.81C220.648 248.28 221.138 247.96 221.748 247.96C222.388 247.96 222.788 248.31 222.788 248.89V248.96C222.788 249.47 222.408 249.85 221.608 249.85H220.918V250.92H221.608C222.448 250.92 222.928 251.27 222.928 251.93V251.99C222.928 252.65 222.488 253.06 221.708 253.06C220.918 253.06 220.508 252.66 220.188 252.1L219.238 252.83C219.678 253.5 220.358 254.12 221.708 254.12Z" fill="black" fill-opacity="0.5"/>
<path opacity="0.2" d="M174 115C177.22 115 180.976 115.291 180.976 119.079C180.976 126.771 180.976 143.65 180.976 166.862C180.976 170.649 179.834 175.02 194 175.02C188.634 175.02 180.976 175.194 180.976 181.721C180.976 188.247 180.976 227.756 180.976 229.212C180.976 230.863 179.902 233 175.61 233" stroke="black" stroke-width="2" stroke-dasharray="2 2"/>
<path opacity="0.2" d="M115 84C111.78 83.9998 108.024 84.2914 108.024 88.079C108.024 95.7709 108.024 112.65 108.024 135.862C108.024 139.649 109.166 144.02 95 144.02C100.366 144.02 108.024 144.194 108.024 150.721C108.024 157.247 108.024 196.756 108.024 198.212C108.024 199.863 109.098 202 113.39 202" stroke="black" stroke-width="2" stroke-dasharray="2 2"/>
<path d="M162 123C164.761 123 167 120.761 167 118C167 115.239 164.761 113 162 113C159.239 113 157 115.239 157 118C157 120.761 159.239 123 162 123Z" fill="#C1B1F0"/>
<path d="M161.5 150L167.274 140L155.726 140L161.5 150ZM160.5 123L160.5 141L162.5 141L162.5 123L160.5 123Z" fill="#0CC6C6"/>
<path d="M162 160C164.761 160 167 157.761 167 155C167 152.239 164.761 150 162 150C159.239 150 157 152.239 157 155C157 157.761 159.239 160 162 160Z" fill="#C1B1F0"/>
<path d="M161.5 187L167.274 177L155.726 177L161.5 187ZM160.5 160L160.5 178L162.5 178L162.5 160L160.5 160Z" fill="#0CC6C6"/>
<path d="M162 197C164.761 197 167 194.761 167 192C167 189.239 164.761 187 162 187C159.239 187 157 189.239 157 192C157 194.761 159.239 197 162 197Z" fill="#C1B1F0"/>
<path d="M161.5 224L167.274 214L155.726 214L161.5 224ZM160.5 197L160.5 215L162.5 215L162.5 197L160.5 197Z" fill="#0CC6C6"/>
<path d="M162 234C164.761 234 167 231.761 167 229C167 226.239 164.761 224 162 224C159.239 224 157 226.239 157 229C157 231.761 159.239 234 162 234Z" fill="#C1B1F0"/>
<path d="M127 93C129.761 93 132 90.7614 132 88C132 85.2386 129.761 83 127 83C124.239 83 122 85.2386 122 88C122 90.7614 124.239 93 127 93Z" fill="#C1B1F0"/>
<path d="M126.5 120L132.274 110L120.726 110L126.5 120ZM125.5 93L125.5 111L127.5 111L127.5 93L125.5 93Z" fill="#0CC6C6"/>
<path d="M127 130C129.761 130 132 127.761 132 125C132 122.239 129.761 120 127 120C124.239 120 122 122.239 122 125C122 127.761 124.239 130 127 130Z" fill="#C1B1F0"/>
<path d="M126.5 157L132.274 147L120.726 147L126.5 157ZM125.5 130L125.5 148L127.5 148L127.5 130L125.5 130Z" fill="#0CC6C6"/>
<path d="M127 167C129.761 167 132 164.761 132 162C132 159.239 129.761 157 127 157C124.239 157 122 159.239 122 162C122 164.761 124.239 167 127 167Z" fill="#C1B1F0"/>
<path d="M126.5 194L132.274 184L120.726 184L126.5 194ZM125.5 167L125.5 185L127.5 185L127.5 167L125.5 167Z" fill="#0CC6C6"/>
<path d="M127 204C129.761 204 132 201.761 132 199C132 196.239 129.761 194 127 194C124.239 194 122 196.239 122 199C122 201.761 124.239 204 127 204Z" fill="#C1B1F0"/>
</svg>
