<svg width="300" height="293" viewBox="0 0 300 293" fill="none" xmlns="http://www.w3.org/2000/svg">
<path d="M70 57C70 68.587 63.0676 86.413 51 98" stroke="url(#paint0_linear)" stroke-width="2"/>
<path d="M70 57C70 75.087 59.0541 102.913 40 121" stroke="url(#paint1_linear)" stroke-width="2"/>
<path d="M71 57C71 80.5231 73.7228 114.616 75.9966 141.917L74.0034 142.083C71.7317 114.805 69 80.6231 69 57H71Z" fill="url(#paint2_linear)"/>
<path d="M69.9999 61C69.9999 84.7391 57 125 47 141" stroke="url(#paint3_linear)" stroke-width="2"/>
<path d="M70 65C70 76.8696 73.2838 95.1304 79 107" stroke="url(#paint4_linear)" stroke-width="2"/>
<path d="M70 61C70 75.9783 78.7568 99.0217 94 114" stroke="url(#paint5_linear)" stroke-width="2"/>
<path d="M47 174L55.9233 166.671L45.1149 162.608L47 174ZM69 57C69 68.5563 66.1933 117.706 49.227 165.235L51.1106 165.908C68.1781 118.095 71 68.7006 71 57H69Z" fill="#FF655D"/>
<circle cx="69.5" cy="12.5" r="7.5" fill="#1A171B"/>
<circle cx="77.5" cy="105.5" r="7.5" fill="#C1B1F0"/>
<circle cx="46.5" cy="142.5" r="7.5" fill="#C1B1F0"/>
<circle cx="50.5" cy="98.5" r="7.5" fill="#C1B1F0"/>
<circle cx="39.5" cy="121.5" r="7.5" fill="#C1B1F0"/>
<circle cx="42.5" cy="180.5" r="7.5" fill="#FF7A00"/>
<circle cx="75.5" cy="129.5" r="7.5" fill="white"/>
<path d="M75.5 161L81.2735 151L69.7265 151L75.5 161ZM74.5 137L74.5 152L76.5 152L76.5 137L74.5 137Z" fill="#0CC6C6"/>
<circle cx="75.5" cy="168.5" r="7.5" fill="white"/>
<path d="M75.5 200L81.2735 190L69.7265 190L75.5 200ZM74.5 176L74.5 191L76.5 191L76.5 176L74.5 176Z" fill="#0CC6C6"/>
<circle cx="75.5" cy="207.5" r="7.5" fill="white"/>
<path d="M69.5 60L75.2735 50L63.7265 50L69.5 60ZM68.5 20L68.5 51L70.5 51L70.5 20L68.5 20Z" fill="#FF655D"/>
<circle cx="94.5" cy="115.5" r="7.5" fill="#C1B1F0"/>
<path d="M94.5 147L100.274 137L88.7265 137L94.5 147ZM93.5 123L93.5 138L95.5 138L95.5 123L93.5 123Z" fill="#0CC6C6"/>
<circle cx="94.5" cy="154.5" r="7.5" fill="#C1B1F0"/>
<path d="M133.318 16.168C135.46 16.168 136.482 14.74 136.482 12.01C136.482 9.28 135.46 7.852 133.318 7.852C131.876 7.852 130.952 8.552 130.504 9.546L131.512 10.022C131.806 9.294 132.464 8.86 133.318 8.86C134.48 8.86 135.278 9.728 135.278 11.254V12.766C135.278 14.292 134.48 15.16 133.318 15.16C132.464 15.16 131.806 14.726 131.512 13.998L130.504 14.474C130.952 15.468 131.876 16.168 133.318 16.168ZM135.056 6.9H137.856V5.976H134.538V5.08H133.474V5.486C133.474 6.48 133.936 6.9 135.056 6.9ZM141.028 16.168C142.344 16.168 142.946 15.44 143.254 14.684H143.31V16H144.43V8.02H143.282V13.606C143.282 14.656 142.316 15.146 141.336 15.146C140.146 15.146 139.502 14.404 139.502 12.976V8.02H138.354V13.144C138.354 15.062 139.404 16.168 141.028 16.168ZM148.188 16H149.588V15.02H148.146V8.02H146.998V14.81C146.998 15.51 147.418 16 148.188 16ZM153.367 16.168C154.585 16.168 155.327 15.538 155.747 14.628H155.817C155.873 15.44 156.237 16 157.063 16H157.749V15.02H156.923V10.708C156.923 8.888 155.719 7.852 153.731 7.852C152.149 7.852 151.183 8.342 150.609 9.266L151.351 9.98C151.799 9.266 152.513 8.86 153.605 8.86C154.991 8.86 155.775 9.462 155.775 10.876V13.144C155.775 14.586 154.599 15.146 153.633 15.146C152.863 15.146 152.429 14.768 152.429 13.83V12.584C152.429 11.842 152.261 11.52 151.561 11.52H150.525V12.5H151.351V13.844C151.351 15.328 152.009 16.168 153.367 16.168ZM161.876 7.852C160.434 7.852 159.468 8.482 158.894 9.406L159.636 10.12C160.07 9.406 160.784 8.86 161.792 8.86C163.136 8.86 163.78 9.462 163.78 10.876V11.296H162.072C159.818 11.296 158.74 12.094 158.74 13.69C158.74 15.23 159.762 16 161.372 16H162.198V14.978H161.512C160.504 14.978 159.944 14.614 159.944 13.802V13.438C159.944 12.738 160.574 12.318 161.834 12.318H163.78V16H164.928V10.708C164.928 8.888 163.864 7.852 161.876 7.852ZM159.237 6.9H164.795V5.976H159.237V6.9ZM170.728 16.168C172.352 16.168 173.402 15.062 173.402 13.144V8.02H172.254V12.976C172.254 14.404 171.61 15.146 170.42 15.146C169.44 15.146 168.474 14.656 168.474 13.606V8.02H167.326V16H168.446V14.684H168.502C168.81 15.44 169.412 16.168 170.728 16.168ZM185.677 8.51V7.53H184.389C183.899 7.53 183.577 7.796 183.577 8.202V8.3C183.115 7.992 182.499 7.852 181.785 7.852C180.399 7.852 179.433 8.482 178.859 9.406L179.601 10.12C180.035 9.406 180.749 8.86 181.757 8.86C183.101 8.86 183.745 9.462 183.745 10.876V11.296H182.037C179.783 11.296 178.705 12.094 178.705 13.69C178.705 15.23 179.727 16 181.337 16H182.163V14.978H181.477C180.469 14.978 179.909 14.614 179.909 13.802V13.438C179.909 12.738 180.539 12.318 181.799 12.318H183.745V16H184.893V10.75C184.893 9.98 184.697 9.322 184.235 8.832V8.51H185.677ZM183.604 6.9H186.404V5.976H183.086V5.08H182.022V5.486C182.022 6.48 182.484 6.9 183.604 6.9ZM190.012 16H190.866V14.978H190.082C188.78 14.978 188.22 14.376 188.22 12.85V11.24C188.22 9.882 188.654 8.958 189.382 8.958L190.446 10.078H190.474L191.538 8.958C192.21 9.028 192.378 9.364 192.378 10.764V16H193.526V9.966C193.526 8.37 192.546 7.852 191.37 7.852L190.488 8.888H190.446L189.55 7.852C187.926 7.852 187.016 9.21 187.016 11.884C187.016 14.768 187.898 16 190.012 16ZM198.74 16.168C200.714 16.168 201.764 15.062 201.764 13.144V8.02H200.616V12.976C200.616 14.418 199.972 15.16 198.74 15.16C197.508 15.16 196.864 14.474 196.864 13.34V12.066H198.768V11.058H198.404C197.284 11.058 196.934 10.218 196.934 9.28V9H198.586V8.02H197.312C196.304 8.02 195.814 8.51 195.814 9.364V9.434C195.814 10.372 196.556 10.848 197.27 11.016V11.058H197.144C196.22 11.058 195.716 11.744 195.716 12.906V13.354C195.716 15.118 196.766 16.168 198.74 16.168ZM199.676 6.9H200.74V5.99H202.588V5.066H201.258C200.138 5.066 199.676 5.486 199.676 6.48V6.9ZM211.185 8.51V7.53H209.897C209.407 7.53 209.085 7.796 209.085 8.202V8.384C208.581 8.02 207.965 7.852 207.251 7.852C205.179 7.852 204.087 9.028 204.087 10.876V16H205.235V14.054C205.235 12.878 206.047 12.584 206.789 12.584H207.811V11.436H207.153C206.089 11.436 205.543 12.094 205.291 12.808H205.235V10.946C205.235 9.602 206.005 8.86 207.265 8.86C208.525 8.86 209.295 9.602 209.295 10.946V16H210.443V10.876C210.443 10.064 210.191 9.378 209.743 8.944V8.51H211.185ZM209.157 6.9H211.957V5.976H208.639V5.08H207.575V5.486C207.575 6.48 208.037 6.9 209.157 6.9ZM215.888 7.852C214.04 7.852 212.696 8.874 212.696 10.694V11.38H214.446V11.436C213.718 11.604 212.99 12.206 212.99 13.522V16H214.138V13.214C214.138 11.996 214.628 11.45 215.664 11.408V10.568H213.83C213.956 9.364 214.698 8.86 215.888 8.86C217.218 8.86 217.974 9.616 217.974 10.946V16H219.122V10.876C219.122 9.028 218.044 7.852 215.888 7.852ZM224.055 16H224.755V14.978H224.125C222.963 14.978 222.263 14.376 222.263 12.85V11.352C222.263 9.756 223.047 8.86 224.335 8.86C225.595 8.86 226.267 9.644 226.267 11.03V16H227.415V10.876C227.415 8.958 226.351 7.852 224.363 7.852C222.207 7.852 221.059 9.238 221.059 12.052C221.059 14.964 221.997 16 224.055 16ZM221.717 6.9H227.275V5.976H221.717V6.9ZM224.517 3.24H225.469V2.246H227.639V1.406H226.099C224.979 1.406 224.517 1.826 224.517 2.82V3.24ZM236.372 8.51V7.53H235.084C234.594 7.53 234.272 7.796 234.272 8.202V8.3C233.81 7.992 233.194 7.852 232.48 7.852C231.094 7.852 230.128 8.482 229.554 9.406L230.296 10.12C230.73 9.406 231.444 8.86 232.452 8.86C233.796 8.86 234.44 9.462 234.44 10.876V11.296H232.732C230.478 11.296 229.4 12.094 229.4 13.69C229.4 15.23 230.422 16 232.032 16H232.858V14.978H232.172C231.164 14.978 230.604 14.614 230.604 13.802V13.438C230.604 12.738 231.234 12.318 232.494 12.318H234.44V16H235.588V10.75C235.588 9.98 235.392 9.322 234.93 8.832V8.51H236.372ZM230.03 6.9H235.588V5.976H230.03V6.9ZM238.174 16H239.322V10.428C239.322 9.378 240.316 8.888 241.324 8.888C242.5 8.888 243.144 9.63 243.144 11.058V16H244.292V10.876C244.292 8.958 243.242 7.852 241.632 7.852C240.288 7.852 239.672 8.58 239.35 9.336H239.294V8.02H238.174V16ZM249.407 16.168C251.199 16.168 252.347 15.328 252.347 13.34C252.347 11.716 251.563 11.156 249.617 10.89L247.531 10.624V10.232C247.531 9.308 248.119 8.86 249.295 8.86C250.429 8.86 251.115 9.378 251.451 9.868L252.291 9.14C251.633 8.328 250.793 7.852 249.337 7.852C247.489 7.852 246.397 8.762 246.397 10.19V10.316C246.397 11.156 246.985 11.576 248.049 11.73L249.743 11.954C250.751 12.094 251.241 12.374 251.241 13.424C251.241 14.726 250.555 15.16 249.477 15.16C248.791 15.16 248.357 15.006 247.825 14.712V12.444H246.705V15.258C247.489 15.86 248.357 16.168 249.407 16.168ZM246.682 6.9H252.24V5.976H246.682V6.9ZM249.482 3.24H250.434V2.246H252.604V1.406H251.064C249.944 1.406 249.482 1.826 249.482 2.82V3.24ZM134.102 28.852C132.114 28.852 130.924 29.874 130.924 31.694V32.38H132.576V32.436C131.848 32.604 131.12 33.206 131.12 34.606V35.11C131.12 36.384 131.666 37 132.758 37H133.64V36.02H132.24V34.214C132.24 32.996 132.73 32.45 133.878 32.408V31.568H132.016C132.142 30.42 132.828 29.86 134.102 29.86C135.432 29.86 136.202 30.602 136.202 31.946V37H137.35V31.876C137.35 30.028 136.258 28.852 134.102 28.852ZM135.339 40.738H136.431C137.019 40.738 137.355 40.402 137.355 39.814V38.022H136.403V39.912H135.367V39.086C135.367 38.4 134.989 38.022 134.317 38.022H133.771V38.862H134.415V39.814C134.415 40.402 134.751 40.738 135.339 40.738ZM142.648 28.852C140.8 28.852 139.456 29.874 139.456 31.694V32.38H141.206V32.436C140.478 32.604 139.75 33.206 139.75 34.522V37H140.898V34.214C140.898 32.996 141.388 32.45 142.424 32.408V31.568H140.59C140.716 30.364 141.458 29.86 142.648 29.86C143.978 29.86 144.734 30.616 144.734 31.946V37H145.882V31.876C145.882 30.028 144.804 28.852 142.648 28.852ZM150.927 37.168C153.209 37.168 154.259 35.824 154.259 33.01C154.259 30.28 153.181 28.852 150.885 28.852C149.527 28.852 148.561 29.342 147.931 30.266L148.701 30.952C149.163 30.266 149.849 29.86 150.857 29.86C152.257 29.86 153.055 30.728 153.055 32.254V33.794C153.055 35.376 152.341 36.16 150.927 36.16C149.471 36.16 148.855 35.474 148.855 33.794V33.374H150.311V32.394H149.191C148.267 32.394 147.735 32.856 147.735 33.808V33.92C147.735 35.978 148.897 37.168 150.927 37.168ZM153.028 40.738H153.98V39.086C153.98 38.4 153.602 38.022 152.93 38.022H152.244V38.862H153.014L153.028 40.738ZM151.443 27.9H154.705V26.976H152.367V26.85C152.367 26.052 152.073 25.786 151.289 25.786H150.463V26.71H151.443V27.9ZM159.613 37.168C161.237 37.168 162.287 36.062 162.287 34.144V29.02H161.139V33.976C161.139 35.404 160.495 36.146 159.305 36.146C158.325 36.146 157.359 35.656 157.359 34.606V29.02H156.211V37H157.331V35.684H157.387C157.695 36.44 158.297 37.168 159.613 37.168ZM164.715 37H165.863V32.744H168.173C169.097 32.744 169.489 33.206 169.489 34.27V37H170.665V34.074C170.665 32.87 170.119 32.086 169.153 31.82V31.764C169.909 31.484 170.609 30.938 170.609 29.944V29.02H169.461V30.308C169.461 30.91 169.167 31.722 167.991 31.722H165.863V29.02H164.715V37ZM176.023 37H177.171V31.288C177.171 29.734 176.233 28.852 174.595 28.852C173.391 28.852 172.439 29.37 171.949 30.266L172.719 30.966C173.167 30.294 173.713 29.86 174.567 29.86C175.533 29.86 176.023 30.322 176.023 31.414V37ZM182.348 37.168C184.322 37.168 185.372 36.062 185.372 34.144V29.02H184.224V33.976C184.224 35.418 183.58 36.16 182.348 36.16C181.116 36.16 180.472 35.474 180.472 34.34V33.066H182.376V32.058H182.012C180.892 32.058 180.542 31.218 180.542 30.28V30H182.194V29.02H180.92C179.912 29.02 179.422 29.51 179.422 30.364V30.434C179.422 31.372 180.164 31.848 180.878 32.016V32.058H180.752C179.828 32.058 179.324 32.744 179.324 33.906V34.354C179.324 36.118 180.374 37.168 182.348 37.168Z" fill="black" fill-opacity="0.5"/>
<path d="M133.5 56H134.72V54.65H135.64V53.64H134.72V49.02H133.11L130.33 53.55V54.65H133.5V56ZM131.39 53.64L133.41 50.27H133.5V53.64H131.39ZM142.069 56.12C143.269 56.12 143.899 55.35 143.899 54.01V50.27H142.629V53.73C142.629 54.59 142.329 55.01 141.629 55.01C141.009 55.01 140.419 54.71 140.419 54.06V50.27H139.149V56H140.419V55.09H140.469C140.669 55.64 141.109 56.12 142.069 56.12ZM139.639 49.53H143.889V48.58H139.639V49.53ZM146.129 56.11C146.669 56.11 146.919 55.81 146.919 55.39V55.21C146.919 54.79 146.669 54.48 146.129 54.48C145.589 54.48 145.339 54.79 145.339 55.21V55.39C145.339 55.81 145.589 56.11 146.129 56.11ZM150.537 56.12C152.197 56.12 152.887 55.31 152.887 53.63V50.27H151.617V53.78C151.617 54.62 151.277 55.04 150.537 55.04C149.807 55.04 149.437 54.62 149.437 53.86V53.38H150.557V52.4H150.377C149.787 52.4 149.457 51.95 149.457 51.4V51.27H150.467V50.27H149.437C148.667 50.27 148.267 50.67 148.267 51.26V51.3C148.267 51.95 148.787 52.33 149.437 52.41V52.46H149.337C148.617 52.46 148.157 53.08 148.157 53.91V54.08C148.157 55.37 149.007 56.12 150.537 56.12ZM155.103 56.11C155.643 56.11 155.893 55.81 155.893 55.39V55.21C155.893 54.79 155.643 54.48 155.103 54.48C154.563 54.48 154.313 54.79 154.313 55.21V55.39C154.313 55.81 154.563 56.11 155.103 56.11ZM159.575 56H164.395V54.91H160.975L162.465 53.67C163.425 52.88 164.215 52.14 164.215 50.98C164.215 49.77 163.375 48.9 161.915 48.9C160.495 48.9 159.755 49.71 159.455 50.63L160.575 51.06C160.735 50.49 161.085 50.02 161.805 50.02C162.395 50.02 162.855 50.37 162.855 50.98V51.12C162.855 51.73 162.505 52.23 161.765 52.87L159.575 54.8V56ZM167.891 56.12C169.531 56.12 170.461 55.1 170.461 53.7C170.461 52.32 169.531 51.5 168.331 51.5C167.501 51.5 167.151 51.9 166.861 52.5H166.781L166.951 50.14H170.081V49.02H165.991L165.731 52.93L166.791 53.08C167.001 52.83 167.351 52.56 167.921 52.56C168.671 52.56 169.111 53 169.111 53.73V53.82C169.111 54.58 168.691 55.06 167.901 55.06C167.141 55.06 166.761 54.64 166.441 54.1L165.501 54.83C165.921 55.5 166.601 56.12 167.891 56.12ZM173.968 56.12C175.498 56.12 176.488 55.13 176.488 53.72C176.488 52.4 175.608 51.55 174.438 51.55C173.568 51.55 173.128 52.04 172.858 52.59L172.778 52.56C173.088 51.13 174.048 50.2 175.678 49.02H173.938C172.768 49.8 171.438 51.38 171.438 53.38C171.438 55.05 172.378 56.12 173.968 56.12ZM173.968 55.1C173.218 55.1 172.768 54.67 172.768 53.9V53.75C172.768 52.99 173.218 52.56 173.968 52.56C174.708 52.56 175.158 52.99 175.158 53.75V53.9C175.158 54.67 174.708 55.1 173.968 55.1ZM179.654 56.12C181.184 56.12 182.214 55.3 182.214 54.07C182.214 53.08 181.554 52.51 180.754 52.36V52.31C181.484 52.16 182.084 51.61 182.084 50.72C182.084 49.6 181.124 48.9 179.734 48.9C178.564 48.9 177.904 49.41 177.434 50.06L178.264 50.81C178.594 50.28 179.084 49.96 179.694 49.96C180.334 49.96 180.734 50.31 180.734 50.89V50.96C180.734 51.47 180.354 51.85 179.554 51.85H178.864V52.92H179.554C180.394 52.92 180.874 53.27 180.874 53.93V53.99C180.874 54.65 180.434 55.06 179.654 55.06C178.864 55.06 178.454 54.66 178.134 54.1L177.184 54.83C177.624 55.5 178.304 56.12 179.654 56.12Z" fill="black" fill-opacity="0.5"/>
<path d="M134.144 113.852C132.296 113.852 130.952 114.874 130.952 116.694V117.38H132.702V117.436C131.974 117.604 131.246 118.206 131.246 119.522V122H132.394V119.214C132.394 117.996 132.884 117.45 133.92 117.408V116.568H132.086C132.212 115.364 132.954 114.86 134.144 114.86C135.474 114.86 136.23 115.616 136.23 116.946V122H137.378V116.876C137.378 115.028 136.3 113.852 134.144 113.852ZM131.674 112.9H137.232V111.976H131.674V112.9ZM141.975 113.852C140.617 113.852 139.665 114.342 139.063 115.266L139.805 115.98C140.239 115.266 140.953 114.86 141.961 114.86C143.417 114.86 144.229 115.728 144.229 117.254V118.598C144.229 120.208 143.515 120.992 142.507 120.992H142.325L141.695 118.584C141.443 117.632 141.163 117.352 140.449 117.352H139.553V118.332H140.505L141.499 122H142.507C144.355 122 145.433 120.656 145.433 117.898C145.433 115.28 144.397 113.852 141.975 113.852ZM150.332 113.852C148.484 113.852 147.14 114.874 147.14 116.694V117.38H148.89V117.436C148.162 117.604 147.434 118.206 147.434 119.522V122H148.582V119.214C148.582 117.996 149.072 117.45 150.108 117.408V116.568H148.274C148.4 115.364 149.142 114.86 150.332 114.86C151.662 114.86 152.418 115.616 152.418 116.946V122H153.566V116.876C153.566 115.028 152.488 113.852 150.332 113.852ZM158.345 122.168C160.011 122.168 161.103 121.258 161.103 119.69C161.103 118.486 160.431 117.73 158.835 117.506L158.219 117.422C157.309 117.296 156.749 116.904 156.749 116.134C156.749 115.364 157.309 114.86 158.247 114.86C159.171 114.86 159.857 115.378 160.193 115.868L161.033 115.14C160.375 114.328 159.535 113.852 158.331 113.852C156.861 113.852 155.643 114.622 155.643 116.19C155.643 117.674 156.735 118.206 158.065 118.402L158.681 118.486C159.661 118.626 159.997 119.214 159.997 119.83C159.997 120.656 159.367 121.16 158.415 121.16C157.449 121.16 156.763 120.74 156.133 119.9L155.307 120.6C156.021 121.538 156.931 122.168 158.345 122.168ZM165.427 122.168C167.093 122.168 168.185 121.258 168.185 119.69C168.185 118.486 167.513 117.73 165.917 117.506L165.301 117.422C164.391 117.296 163.831 116.904 163.831 116.134C163.831 115.364 164.391 114.86 165.329 114.86C166.253 114.86 166.939 115.378 167.275 115.868L168.115 115.14C167.457 114.328 166.617 113.852 165.413 113.852C163.943 113.852 162.725 114.622 162.725 116.19C162.725 117.674 163.817 118.206 165.147 118.402L165.763 118.486C166.743 118.626 167.079 119.214 167.079 119.83C167.079 120.656 166.449 121.16 165.497 121.16C164.531 121.16 163.845 120.74 163.215 119.9L162.389 120.6C163.103 121.538 164.013 122.168 165.427 122.168ZM173.531 122.168C175.155 122.168 176.205 121.062 176.205 119.144V114.02H175.057V118.976C175.057 120.404 174.413 121.146 173.223 121.146C172.243 121.146 171.277 120.656 171.277 119.606V114.02H170.129V122H171.249V120.684H171.305C171.613 121.44 172.215 122.168 173.531 122.168ZM181.601 122.168C183.575 122.168 184.625 121.062 184.625 119.144V111.08H183.477V118.976C183.477 120.418 182.833 121.16 181.601 121.16C180.355 121.16 179.711 120.418 179.711 118.976V114.02H178.563V119.144C178.563 121.062 179.613 122.168 181.601 122.168ZM189.421 122.168C191.087 122.168 192.179 121.258 192.179 119.69C192.179 118.486 191.507 117.73 189.911 117.506L189.295 117.422C188.385 117.296 187.825 116.904 187.825 116.134C187.825 115.364 188.385 114.86 189.323 114.86C190.247 114.86 190.933 115.378 191.269 115.868L192.109 115.14C191.451 114.328 190.611 113.852 189.407 113.852C187.937 113.852 186.719 114.622 186.719 116.19C186.719 117.674 187.811 118.206 189.141 118.402L189.757 118.486C190.737 118.626 191.073 119.214 191.073 119.83C191.073 120.656 190.443 121.16 189.491 121.16C188.525 121.16 187.839 120.74 187.209 119.9L186.383 120.6C187.097 121.538 188.007 122.168 189.421 122.168ZM194.879 117.114L197.343 117.1V116.064L194.781 116.078V114.79L193.689 114.804V115.924C193.689 116.68 194.179 117.114 194.879 117.114ZM194.879 121.174L197.343 121.16V120.124L194.781 120.138V118.85L193.689 118.864V119.984C193.689 120.74 194.179 121.174 194.879 121.174ZM208.55 114.02V119.606C208.55 120.656 207.584 121.146 206.688 121.146C205.694 121.146 205.05 120.656 205.05 118.99V116.876C205.05 115.028 203.93 113.852 201.886 113.852C199.94 113.852 198.75 114.874 198.75 116.694V117.38H200.402V117.436C199.674 117.604 198.946 118.206 198.946 119.606V120.11C198.946 121.384 199.492 122 200.584 122H201.466V121.02H200.066V119.214C200.066 117.996 200.556 117.45 201.704 117.408V116.568H199.842C199.968 115.42 200.654 114.86 201.886 114.86C203.132 114.86 203.902 115.602 203.902 116.946V119.158C203.902 121.314 204.952 122.168 206.38 122.168C207.612 122.168 208.214 121.44 208.522 120.684H208.578V122H209.698V114.02H208.55ZM215.18 122H216.328V116.288C216.328 114.734 215.39 113.852 213.752 113.852C212.548 113.852 211.596 114.37 211.106 115.266L211.876 115.966C212.324 115.294 212.87 114.86 213.724 114.86C214.69 114.86 215.18 115.322 215.18 116.414V122ZM222.148 122.168C223.772 122.168 224.822 121.062 224.822 119.144V114.02H223.674V118.976C223.674 120.404 223.03 121.146 221.84 121.146C220.86 121.146 219.894 120.656 219.894 119.606V114.02H218.746V122H219.866V120.684H219.922C220.23 121.44 220.832 122.168 222.148 122.168ZM228.37 122H229.77V121.02H228.328V114.02H227.18V120.81C227.18 121.51 227.6 122 228.37 122ZM232.08 122H233.48V121.02H232.038V114.02H230.89V120.81C230.89 121.51 231.31 122 232.08 122ZM237.496 113.852C236.054 113.852 235.088 114.482 234.514 115.406L235.256 116.12C235.69 115.406 236.404 114.86 237.412 114.86C238.756 114.86 239.4 115.462 239.4 116.876V117.296H237.692C235.438 117.296 234.36 118.094 234.36 119.69C234.36 121.23 235.382 122 236.992 122H237.818V120.978H237.132C236.124 120.978 235.564 120.614 235.564 119.802V119.438C235.564 118.738 236.194 118.318 237.454 118.318H239.4V122H240.548V116.708C240.548 114.888 239.484 113.852 237.496 113.852ZM243.701 117.114L246.165 117.1V116.064L243.603 116.078V114.79L242.511 114.804V115.924C242.511 116.68 243.001 117.114 243.701 117.114ZM243.701 121.174L246.165 121.16V120.124L243.603 120.138V118.85L242.511 118.864V119.984C242.511 120.74 243.001 121.174 243.701 121.174ZM132.506 143H133.906V142.02H132.464V135.02H131.316V141.81C131.316 142.51 131.736 143 132.506 143ZM137.741 143.168C139.407 143.168 140.499 142.258 140.499 140.69C140.499 139.486 139.827 138.73 138.231 138.506L137.615 138.422C136.705 138.296 136.145 137.904 136.145 137.134C136.145 136.364 136.705 135.86 137.643 135.86C138.567 135.86 139.253 136.378 139.589 136.868L140.429 136.14C139.771 135.328 138.931 134.852 137.727 134.852C136.257 134.852 135.039 135.622 135.039 137.19C135.039 138.674 136.131 139.206 137.461 139.402L138.077 139.486C139.057 139.626 139.393 140.214 139.393 140.83C139.393 141.656 138.763 142.16 137.811 142.16C136.845 142.16 136.159 141.74 135.529 140.9L134.703 141.6C135.417 142.538 136.327 143.168 137.741 143.168ZM134.807 133.9H139.203C139.973 133.9 140.365 133.522 140.365 132.766V131.786H139.301V132.976H134.807V133.9ZM145.201 143.168C147.175 143.168 148.225 142.062 148.225 140.144V135.02H147.077V139.976C147.077 141.418 146.433 142.16 145.201 142.16C143.969 142.16 143.325 141.474 143.325 140.34V139.066H145.229V138.058H144.865C143.745 138.058 143.395 137.218 143.395 136.28V136H145.047V135.02H143.773C142.765 135.02 142.275 135.51 142.275 136.364V136.434C142.275 137.372 143.017 137.848 143.731 138.016V138.058H143.605C142.681 138.058 142.177 138.744 142.177 139.906V140.354C142.177 142.118 143.227 143.168 145.201 143.168ZM153.544 134.852C151.696 134.852 150.352 135.874 150.352 137.694V138.38H152.102V138.436C151.374 138.604 150.646 139.206 150.646 140.522V143H151.794V140.214C151.794 138.996 152.284 138.45 153.32 138.408V137.568H151.486C151.612 136.364 152.354 135.86 153.544 135.86C154.874 135.86 155.63 136.616 155.63 137.946V143H156.778V137.876C156.778 136.028 155.7 134.852 153.544 134.852ZM161.558 143.168C163.224 143.168 164.316 142.258 164.316 140.69C164.316 139.486 163.644 138.73 162.048 138.506L161.432 138.422C160.522 138.296 159.962 137.904 159.962 137.134C159.962 136.364 160.522 135.86 161.46 135.86C162.384 135.86 163.07 136.378 163.406 136.868L164.246 136.14C163.588 135.328 162.748 134.852 161.544 134.852C160.074 134.852 158.856 135.622 158.856 137.19C158.856 138.674 159.948 139.206 161.278 139.402L161.894 139.486C162.874 139.626 163.21 140.214 163.21 140.83C163.21 141.656 162.58 142.16 161.628 142.16C160.662 142.16 159.976 141.74 159.346 140.9L158.52 141.6C159.234 142.538 160.144 143.168 161.558 143.168ZM161.437 133.9H164.699V132.976H162.361V132.85C162.361 132.052 162.067 131.786 161.283 131.786H160.457V132.71H161.437V133.9ZM168.906 143.168C171.188 143.168 172.238 141.824 172.238 139.01C172.238 136.28 171.16 134.852 168.864 134.852C167.506 134.852 166.54 135.342 165.91 136.266L166.68 136.952C167.142 136.266 167.828 135.86 168.836 135.86C170.236 135.86 171.034 136.728 171.034 138.254V139.794C171.034 141.376 170.32 142.16 168.906 142.16C167.45 142.16 166.834 141.474 166.834 139.794V139.374H168.29V138.394H167.17C166.246 138.394 165.714 138.856 165.714 139.808V139.92C165.714 141.978 166.876 143.168 168.906 143.168ZM175.883 143H176.765C178.571 143 179.481 142.174 179.481 139.5V136.98C179.481 135.72 178.963 135.02 177.885 135.02H176.849V136H178.333V139.99C178.333 141.502 177.871 141.992 176.835 141.992H176.709L174.455 135.02H173.293L175.883 143ZM181.611 143H182.759V141.054C182.759 139.878 183.571 139.584 184.313 139.584H185.335V138.436H184.677C183.613 138.436 183.067 139.094 182.815 139.808H182.759V137.946C182.759 136.602 183.529 135.86 184.789 135.86C186.049 135.86 186.819 136.602 186.819 137.946V143H187.967V137.876C187.967 136.028 186.875 134.852 184.789 134.852C182.703 134.852 181.611 136.028 181.611 137.876V143ZM192.435 143.168C194.577 143.168 195.599 141.74 195.599 139.01C195.599 136.28 194.577 134.852 192.435 134.852C190.993 134.852 190.069 135.552 189.621 136.546L190.629 137.022C190.923 136.294 191.581 135.86 192.435 135.86C193.597 135.86 194.395 136.728 194.395 138.254V139.766C194.395 141.292 193.597 142.16 192.435 142.16C191.581 142.16 190.923 141.726 190.629 140.998L189.621 141.474C190.069 142.468 190.993 143.168 192.435 143.168ZM200.537 143H201.685V137.288C201.685 135.734 200.747 134.852 199.109 134.852C197.905 134.852 196.953 135.37 196.463 136.266L197.233 136.966C197.681 136.294 198.227 135.86 199.081 135.86C200.047 135.86 200.537 136.322 200.537 137.414V143ZM207.505 143.168C209.129 143.168 210.179 142.062 210.179 140.144V135.02H209.031V139.976C209.031 141.404 208.387 142.146 207.197 142.146C206.217 142.146 205.251 141.656 205.251 140.606V135.02H204.103V143H205.223V141.684H205.279C205.587 142.44 206.189 143.168 207.505 143.168ZM213.867 143H215.267V142.02H213.825V135.02H212.677V141.81C212.677 142.51 213.097 143 213.867 143ZM219.691 143.168C221.665 143.168 222.715 142.062 222.715 140.144V132.08H221.567V139.976C221.567 141.418 220.923 142.16 219.691 142.16C218.445 142.16 217.801 141.418 217.801 139.976V135.02H216.653V140.144C216.653 142.062 217.703 143.168 219.691 143.168ZM218.201 131.954H221.057V131.212H218.131C217.249 131.212 216.661 131.758 216.661 132.584C216.661 133.424 217.165 133.97 217.935 133.97C218.523 133.97 218.817 133.662 218.873 133.186L218.901 132.92H218.915C218.985 133.606 219.321 133.97 219.811 133.97C220.273 133.97 220.637 133.69 220.637 133.004V132.5H219.895V132.864C219.895 133.158 219.755 133.298 219.517 133.298C219.237 133.298 219.083 133.046 219.083 132.584H218.355L218.145 133.326C217.767 133.298 217.571 133.074 217.571 132.64C217.571 132.192 217.795 131.954 218.201 131.954ZM227.735 143.168C229.051 143.168 229.653 142.44 229.961 141.684H230.017V143H231.137V135.02H229.989V140.606C229.989 141.656 229.023 142.146 228.043 142.146C226.853 142.146 226.209 141.404 226.209 139.976V135.02H225.061V140.144C225.061 142.062 226.111 143.168 227.735 143.168ZM236.323 143.168C238.115 143.168 239.263 142.328 239.263 140.34C239.263 138.716 238.479 138.156 236.533 137.89L234.447 137.624V137.232C234.447 136.308 235.035 135.86 236.211 135.86C237.345 135.86 238.031 136.378 238.367 136.868L239.207 136.14C238.549 135.328 237.709 134.852 236.253 134.852C234.405 134.852 233.313 135.762 233.313 137.19V137.316C233.313 138.156 233.901 138.576 234.965 138.73L236.659 138.954C237.667 139.094 238.157 139.374 238.157 140.424C238.157 141.726 237.471 142.16 236.393 142.16C235.707 142.16 235.273 142.006 234.741 141.712V139.444H233.621V142.258C234.405 142.86 235.273 143.168 236.323 143.168ZM243.644 143.168C245.31 143.168 246.402 142.258 246.402 140.69C246.402 139.486 245.73 138.73 244.134 138.506L243.518 138.422C242.608 138.296 242.048 137.904 242.048 137.134C242.048 136.364 242.608 135.86 243.546 135.86C244.47 135.86 245.156 136.378 245.492 136.868L246.332 136.14C245.674 135.328 244.834 134.852 243.63 134.852C242.16 134.852 240.942 135.622 240.942 137.19C240.942 138.674 242.034 139.206 243.364 139.402L243.98 139.486C244.96 139.626 245.296 140.214 245.296 140.83C245.296 141.656 244.666 142.16 243.714 142.16C242.748 142.16 242.062 141.74 241.432 140.9L240.606 141.6C241.32 142.538 242.23 143.168 243.644 143.168ZM250.726 143.168C252.392 143.168 253.484 142.258 253.484 140.69C253.484 139.486 252.812 138.73 251.216 138.506L250.6 138.422C249.69 138.296 249.13 137.904 249.13 137.134C249.13 136.364 249.69 135.86 250.628 135.86C251.552 135.86 252.238 136.378 252.574 136.868L253.414 136.14C252.756 135.328 251.916 134.852 250.712 134.852C249.242 134.852 248.024 135.622 248.024 137.19C248.024 138.674 249.116 139.206 250.446 139.402L251.062 139.486C252.042 139.626 252.378 140.214 252.378 140.83C252.378 141.656 251.748 142.16 250.796 142.16C249.83 142.16 249.144 141.74 248.514 140.9L247.688 141.6C248.402 142.538 249.312 143.168 250.726 143.168ZM258.83 143.168C260.454 143.168 261.504 142.062 261.504 140.144V135.02H260.356V139.976C260.356 141.404 259.712 142.146 258.522 142.146C257.542 142.146 256.576 141.656 256.576 140.606V135.02H255.428V143H256.548V141.684H256.604C256.912 142.44 257.514 143.168 258.83 143.168ZM132.758 164H134.158V163.02H132.716V156.552C132.716 154.27 132.212 152.884 130.84 152.352V152.296H134.746V151.344H129.65V152.324C130.812 152.366 131.568 153.654 131.568 155.67V162.81C131.568 163.51 131.988 164 132.758 164ZM138.169 164H138.869V162.978H138.239C137.077 162.978 136.377 162.376 136.377 160.85V159.352C136.377 157.756 137.161 156.86 138.449 156.86C139.709 156.86 140.381 157.644 140.381 159.03V164H141.529V158.876C141.529 156.958 140.465 155.852 138.477 155.852C136.321 155.852 135.173 157.238 135.173 160.052C135.173 162.964 136.111 164 138.169 164ZM146.705 164.168C148.679 164.168 149.729 163.062 149.729 161.144V156.02H148.581V160.976C148.581 162.418 147.937 163.16 146.705 163.16C145.473 163.16 144.829 162.474 144.829 161.34V160.066H146.733V159.058H146.369C145.249 159.058 144.899 158.218 144.899 157.28V157H146.551V156.02H145.277C144.269 156.02 143.779 156.51 143.779 157.364V157.434C143.779 158.372 144.521 158.848 145.235 159.016V159.058H145.109C144.185 159.058 143.681 159.744 143.681 160.906V161.354C143.681 163.118 144.731 164.168 146.705 164.168ZM161.997 156.51V155.53H160.709C160.219 155.53 159.897 155.796 159.897 156.202V156.3C159.435 155.992 158.819 155.852 158.105 155.852C156.719 155.852 155.753 156.482 155.179 157.406L155.921 158.12C156.355 157.406 157.069 156.86 158.077 156.86C159.421 156.86 160.065 157.462 160.065 158.876V159.296H158.357C156.103 159.296 155.025 160.094 155.025 161.69C155.025 163.23 156.047 164 157.657 164H158.483V162.978H157.797C156.789 162.978 156.229 162.614 156.229 161.802V161.438C156.229 160.738 156.859 160.318 158.119 160.318H160.065V164H161.213V158.75C161.213 157.98 161.017 157.322 160.555 156.832V156.51H161.997ZM166.403 164.168C167.719 164.168 168.321 163.44 168.629 162.684H168.685V164H169.805V156.02H168.657V161.606C168.657 162.656 167.691 163.146 166.711 163.146C165.521 163.146 164.877 162.404 164.877 160.976V156.02H163.729V161.144C163.729 163.062 164.779 164.168 166.403 164.168ZM172.303 164H173.451V158.428C173.451 157.378 174.445 156.888 175.453 156.888C176.629 156.888 177.273 157.63 177.273 159.058V164H178.421V158.876C178.421 156.958 177.371 155.852 175.761 155.852C174.417 155.852 173.801 156.58 173.479 157.336H173.423V156.02H172.303V164ZM181.506 164.168C182.094 164.168 182.36 163.832 182.36 163.356V163.174C182.36 162.698 182.094 162.362 181.506 162.362C180.918 162.362 180.652 162.698 180.652 163.174V163.356C180.652 163.832 180.918 164.168 181.506 164.168ZM189.091 164H190.491V163.02H189.049V156.02H187.901V162.81C187.901 163.51 188.321 164 189.091 164ZM192.801 164H194.201V163.02H192.759V156.02H191.611V162.81C191.611 163.51 192.031 164 192.801 164ZM198.216 155.852C196.774 155.852 195.808 156.482 195.234 157.406L195.976 158.12C196.41 157.406 197.124 156.86 198.132 156.86C199.476 156.86 200.12 157.462 200.12 158.876V159.296H198.412C196.158 159.296 195.08 160.094 195.08 161.69C195.08 163.23 196.102 164 197.712 164H198.538V162.978H197.852C196.844 162.978 196.284 162.614 196.284 161.802V161.438C196.284 160.738 196.914 160.318 198.174 160.318H200.12V164H201.268V158.708C201.268 156.888 200.204 155.852 198.216 155.852ZM204.422 159.114L206.886 159.1V158.064L204.324 158.078V156.79L203.232 156.804V157.924C203.232 158.68 203.722 159.114 204.422 159.114ZM204.422 163.174L206.886 163.16V162.124L204.324 162.138V160.85L203.232 160.864V161.984C203.232 162.74 203.722 163.174 204.422 163.174ZM211.54 155.852C209.692 155.852 208.348 156.874 208.348 158.694V159.38H210.098V159.436C209.37 159.604 208.642 160.206 208.642 161.522V164H209.79V161.214C209.79 159.996 210.28 159.45 211.316 159.408V158.568H209.482C209.608 157.364 210.35 156.86 211.54 156.86C212.87 156.86 213.626 157.616 213.626 158.946V164H214.774V158.876C214.774 157.028 213.696 155.852 211.54 155.852ZM219.736 155.852C218.294 155.852 217.328 156.482 216.754 157.406L217.496 158.12C217.93 157.406 218.644 156.86 219.652 156.86C220.996 156.86 221.64 157.462 221.64 158.876V159.296H219.932C217.678 159.296 216.6 160.094 216.6 161.69C216.6 163.23 217.622 164 219.232 164H220.058V162.978H219.372C218.364 162.978 217.804 162.614 217.804 161.802V161.438C217.804 160.738 218.434 160.318 219.694 160.318H221.64V164H222.788V158.708C222.788 156.888 221.724 155.852 219.736 155.852ZM221.839 167.738H222.791V166.086C222.791 165.4 222.413 165.022 221.741 165.022H221.055V165.862H221.825L221.839 167.738ZM221.548 154.9H222.64V152.576H221.548V154.9ZM228.587 164.168C230.211 164.168 231.261 163.062 231.261 161.144V156.02H230.113V160.976C230.113 162.404 229.469 163.146 228.279 163.146C227.299 163.146 226.333 162.656 226.333 161.606V156.02H225.185V164H226.305V162.684H226.361C226.669 163.44 227.271 164.168 228.587 164.168ZM236.223 164H237.077V162.978H236.293C234.991 162.978 234.431 162.376 234.431 160.85V159.24C234.431 157.882 234.865 156.958 235.593 156.958L236.657 158.078H236.685L237.749 156.958C238.421 157.028 238.589 157.364 238.589 158.764V164H239.737V157.966C239.737 156.37 238.757 155.852 237.581 155.852L236.699 156.888H236.657L235.761 155.852C234.137 155.852 233.227 157.21 233.227 159.884C233.227 162.768 234.109 164 236.223 164ZM238.488 154.9H239.58V152.576H238.488V154.9ZM245.189 164H246.337V158.288C246.337 156.734 245.399 155.852 243.761 155.852C242.557 155.852 241.605 156.37 241.115 157.266L241.885 157.966C242.333 157.294 242.879 156.86 243.733 156.86C244.699 156.86 245.189 157.322 245.189 158.414V164ZM250.45 164H251.332C253.138 164 254.048 163.174 254.048 160.5V157.98C254.048 156.72 253.53 156.02 252.452 156.02H251.416V157H252.9V160.99C252.9 162.502 252.438 162.992 251.402 162.992H251.276L249.022 156.02H247.86L250.45 164ZM263.91 166.212H265.058V157.966C265.058 156.37 264.05 155.852 262.986 155.852L262.16 156.916H262.118L261.278 155.852C259.92 155.852 259.066 156.818 259.066 158.442V158.498C259.066 160.122 259.696 161.2 261.572 161.2H262.146V160.178H261.642C260.55 160.178 260.242 159.716 260.242 158.876V158.134C260.242 157.364 260.606 156.958 261.11 156.958L262.118 158.078H262.146L263.154 156.958C263.728 157.028 263.91 157.294 263.91 158.526V166.212Z" fill="black" fill-opacity="0.5"/>
<path d="M132.95 183.12C134.59 183.12 135.52 182.1 135.52 180.7C135.52 179.32 134.59 178.5 133.39 178.5C132.56 178.5 132.21 178.9 131.92 179.5H131.84L132.01 177.14H135.14V176.02H131.05L130.79 179.93L131.85 180.08C132.06 179.83 132.41 179.56 132.98 179.56C133.73 179.56 134.17 180 134.17 180.73V180.82C134.17 181.58 133.75 182.06 132.96 182.06C132.2 182.06 131.82 181.64 131.5 181.1L130.56 181.83C130.98 182.5 131.66 183.12 132.95 183.12ZM138.939 180.58H141.789V179.33H138.939V180.58ZM145.376 183H150.196V181.91H146.776L148.266 180.67C149.226 179.88 150.016 179.14 150.016 177.98C150.016 176.77 149.176 175.9 147.716 175.9C146.296 175.9 145.556 176.71 145.256 177.63L146.376 178.06C146.536 177.49 146.886 177.02 147.606 177.02C148.196 177.02 148.656 177.37 148.656 177.98V178.12C148.656 178.73 148.306 179.23 147.566 179.87L145.376 181.8V183ZM153.742 183.12C155.522 183.12 156.332 181.79 156.332 179.51C156.332 177.23 155.522 175.9 153.742 175.9C151.962 175.9 151.152 177.23 151.152 179.51C151.152 181.79 151.962 183.12 153.742 183.12ZM153.742 182.03C152.842 182.03 152.532 181.3 152.532 180.14V178.88C152.532 177.72 152.842 176.99 153.742 176.99C154.642 176.99 154.952 177.72 154.952 178.88V180.14C154.952 181.3 154.642 182.03 153.742 182.03ZM162.812 183.12C164.012 183.12 164.642 182.35 164.642 181.01V177.27H163.372V180.73C163.372 181.59 163.072 182.01 162.372 182.01C161.752 182.01 161.162 181.71 161.162 181.06V177.27H159.892V183H161.162V182.09H161.212C161.412 182.64 161.852 183.12 162.812 183.12ZM160.381 176.53H164.631V175.58H160.381V176.53ZM166.871 183.11C167.411 183.11 167.661 182.81 167.661 182.39V182.21C167.661 181.79 167.411 181.48 166.871 181.48C166.331 181.48 166.081 181.79 166.081 182.21V182.39C166.081 182.81 166.331 183.11 166.871 183.11ZM171.28 183.12C172.94 183.12 173.63 182.31 173.63 180.63V177.27H172.36V180.78C172.36 181.62 172.02 182.04 171.28 182.04C170.55 182.04 170.18 181.62 170.18 180.86V180.38H171.3V179.4H171.12C170.53 179.4 170.2 178.95 170.2 178.4V178.27H171.21V177.27H170.18C169.41 177.27 169.01 177.67 169.01 178.26V178.3C169.01 178.95 169.53 179.33 170.18 179.41V179.46H170.08C169.36 179.46 168.9 180.08 168.9 180.91V181.08C168.9 182.37 169.75 183.12 171.28 183.12ZM175.845 183.11C176.385 183.11 176.635 182.81 176.635 182.39V182.21C176.635 181.79 176.385 181.48 175.845 181.48C175.305 181.48 175.055 181.79 175.055 182.21V182.39C175.055 182.81 175.305 183.11 175.845 183.11ZM180.318 183H185.138V181.91H181.718L183.208 180.67C184.168 179.88 184.958 179.14 184.958 177.98C184.958 176.77 184.118 175.9 182.658 175.9C181.238 175.9 180.498 176.71 180.198 177.63L181.318 178.06C181.478 177.49 181.828 177.02 182.548 177.02C183.138 177.02 183.598 177.37 183.598 177.98V178.12C183.598 178.73 183.248 179.23 182.508 179.87L180.318 181.8V183ZM188.634 183.12C190.274 183.12 191.204 182.1 191.204 180.7C191.204 179.32 190.274 178.5 189.074 178.5C188.244 178.5 187.894 178.9 187.604 179.5H187.524L187.694 177.14H190.824V176.02H186.734L186.474 179.93L187.534 180.08C187.744 179.83 188.094 179.56 188.664 179.56C189.414 179.56 189.854 180 189.854 180.73V180.82C189.854 181.58 189.434 182.06 188.644 182.06C187.884 182.06 187.504 181.64 187.184 181.1L186.244 181.83C186.664 182.5 187.344 183.12 188.634 183.12ZM194.71 183.12C196.24 183.12 197.23 182.13 197.23 180.72C197.23 179.4 196.35 178.55 195.18 178.55C194.31 178.55 193.87 179.04 193.6 179.59L193.52 179.56C193.83 178.13 194.79 177.2 196.42 176.02H194.68C193.51 176.8 192.18 178.38 192.18 180.38C192.18 182.05 193.12 183.12 194.71 183.12ZM194.71 182.1C193.96 182.1 193.51 181.67 193.51 180.9V180.75C193.51 179.99 193.96 179.56 194.71 179.56C195.45 179.56 195.9 179.99 195.9 180.75V180.9C195.9 181.67 195.45 182.1 194.71 182.1ZM200.396 183.12C201.926 183.12 202.956 182.3 202.956 181.07C202.956 180.08 202.296 179.51 201.496 179.36V179.31C202.226 179.16 202.826 178.61 202.826 177.72C202.826 176.6 201.866 175.9 200.476 175.9C199.306 175.9 198.646 176.41 198.176 177.06L199.006 177.81C199.336 177.28 199.826 176.96 200.436 176.96C201.076 176.96 201.476 177.31 201.476 177.89V177.96C201.476 178.47 201.096 178.85 200.296 178.85H199.606V179.92H200.296C201.136 179.92 201.616 180.27 201.616 180.93V180.99C201.616 181.65 201.176 182.06 200.396 182.06C199.606 182.06 199.196 181.66 198.876 181.1L197.926 181.83C198.366 182.5 199.046 183.12 200.396 183.12Z" fill="black" fill-opacity="0.5"/>
<path d="M42.784 241.51V240.53H41.496C41.006 240.53 40.684 240.796 40.684 241.202V241.3C40.222 240.992 39.606 240.852 38.892 240.852C37.506 240.852 36.54 241.482 35.966 242.406L36.708 243.12C37.142 242.406 37.856 241.86 38.864 241.86C40.208 241.86 40.852 242.462 40.852 243.876V244.296H39.144C36.89 244.296 35.812 245.094 35.812 246.69C35.812 248.23 36.834 249 38.444 249H39.27V247.978H38.584C37.576 247.978 37.016 247.614 37.016 246.802V246.438C37.016 245.738 37.646 245.318 38.906 245.318H40.852V249H42V243.75C42 242.98 41.804 242.322 41.342 241.832V241.51H42.784ZM51.1238 241.51V240.53H49.8358C49.3458 240.53 49.0238 240.796 49.0238 241.202V241.3C48.5618 240.992 47.9458 240.852 47.2318 240.852C45.8458 240.852 44.8798 241.482 44.3058 242.406L45.0478 243.12C45.4818 242.406 46.1958 241.86 47.2038 241.86C48.5478 241.86 49.1918 242.462 49.1918 243.876V244.296H47.4838C45.2298 244.296 44.1518 245.094 44.1518 246.69C44.1518 248.23 45.1738 249 46.7838 249H47.6098V247.978H46.9238C45.9158 247.978 45.3558 247.614 45.3558 246.802V246.438C45.3558 245.738 45.9858 245.318 47.2458 245.318H49.1918V249H50.3398V243.75C50.3398 242.98 50.1438 242.322 49.6818 241.832V241.51H51.1238ZM53.5837 249.168C54.1717 249.168 54.4377 248.832 54.4377 248.356V248.174C54.4377 247.698 54.1717 247.362 53.5837 247.362C52.9957 247.362 52.7297 247.698 52.7297 248.174V248.356C52.7297 248.832 52.9957 249.168 53.5837 249.168ZM57.4121 249H58.9521L60.5061 242.574H60.5341L62.0881 249H63.6281L64.7061 241.02H63.5581L62.7881 247.824H62.7601L61.0801 241.02H59.9601L58.2801 247.824H58.2521L57.4821 241.02H56.3341L57.4121 249ZM69.169 249.168C70.835 249.168 71.927 248.258 71.927 246.69C71.927 245.486 71.255 244.73 69.659 244.506L69.043 244.422C68.133 244.296 67.573 243.904 67.573 243.134C67.573 242.364 68.133 241.86 69.071 241.86C69.995 241.86 70.681 242.378 71.017 242.868L71.857 242.14C71.199 241.328 70.359 240.852 69.155 240.852C67.685 240.852 66.467 241.622 66.467 243.19C66.467 244.674 67.559 245.206 68.889 245.402L69.505 245.486C70.485 245.626 70.821 246.214 70.821 246.83C70.821 247.656 70.191 248.16 69.239 248.16C68.273 248.16 67.587 247.74 66.957 246.9L66.131 247.6C66.845 248.538 67.755 249.168 69.169 249.168ZM76.251 249.168C77.917 249.168 79.009 248.258 79.009 246.69C79.009 245.486 78.337 244.73 76.741 244.506L76.125 244.422C75.215 244.296 74.655 243.904 74.655 243.134C74.655 242.364 75.215 241.86 76.153 241.86C77.077 241.86 77.763 242.378 78.099 242.868L78.939 242.14C78.281 241.328 77.441 240.852 76.237 240.852C74.767 240.852 73.549 241.622 73.549 243.19C73.549 244.674 74.641 245.206 75.971 245.402L76.587 245.486C77.567 245.626 77.903 246.214 77.903 246.83C77.903 247.656 77.273 248.16 76.321 248.16C75.355 248.16 74.669 247.74 74.039 246.9L73.213 247.6C73.927 248.538 74.837 249.168 76.251 249.168ZM80.855 249H82.003V247.054C82.003 245.878 82.815 245.584 83.557 245.584H84.579V244.436H83.921C82.857 244.436 82.311 245.094 82.059 245.808H82.003V243.946C82.003 242.602 82.773 241.86 84.033 241.86C85.293 241.86 86.063 242.602 86.063 243.946V249H87.211V243.876C87.211 242.028 86.119 240.852 84.033 240.852C81.947 240.852 80.855 242.028 80.855 243.876V249ZM92.5053 240.852C90.6573 240.852 89.3133 241.874 89.3133 243.694V244.38H91.0633V244.436C90.3353 244.604 89.6073 245.206 89.6073 246.522V249H90.7553V246.214C90.7553 244.996 91.2453 244.45 92.2813 244.408V243.568H90.4473C90.5733 242.364 91.3153 241.86 92.5053 241.86C93.8353 241.86 94.5913 242.616 94.5913 243.946V249H95.7393V243.876C95.7393 242.028 94.6613 240.852 92.5053 240.852ZM92.9195 239.9H96.1815V238.976H93.8435V238.85C93.8435 238.052 93.5495 237.786 92.7655 237.786H91.9395V238.71H92.9195V239.9ZM101.135 249H102.283V243.288C102.283 241.734 101.345 240.852 99.7066 240.852C98.5026 240.852 97.5506 241.37 97.0606 242.266L97.8306 242.966C98.2786 242.294 98.8246 241.86 99.6786 241.86C100.645 241.86 101.135 242.322 101.135 243.414V249ZM106.773 249.168C108.915 249.168 109.937 247.74 109.937 245.01C109.937 242.28 108.915 240.852 106.773 240.852C105.331 240.852 104.407 241.552 103.959 242.546L104.967 243.022C105.261 242.294 105.919 241.86 106.773 241.86C107.935 241.86 108.733 242.728 108.733 244.254V245.766C108.733 247.292 107.935 248.16 106.773 248.16C105.919 248.16 105.261 247.726 104.967 246.998L103.959 247.474C104.407 248.468 105.331 249.168 106.773 249.168ZM113.433 249H114.833V248.02H113.391V240.852C113.391 238.864 114.203 237.366 115.589 237.324V236.344H111.123V237.296H114.427V237.352C112.831 237.898 112.243 238.962 112.243 241.174V247.81C112.243 248.51 112.663 249 113.433 249ZM119.179 240.852C117.331 240.852 115.987 241.874 115.987 243.694V244.38H117.737V244.436C117.009 244.604 116.281 245.206 116.281 246.522V249H117.429V246.214C117.429 244.996 117.919 244.45 118.955 244.408V243.568H117.121C117.247 242.364 117.989 241.86 119.179 241.86C120.509 241.86 121.265 242.616 121.265 243.946V249H122.413V243.876C122.413 242.028 121.335 240.852 119.179 240.852ZM127.374 240.852C125.932 240.852 124.966 241.482 124.392 242.406L125.134 243.12C125.568 242.406 126.282 241.86 127.29 241.86C128.634 241.86 129.278 242.462 129.278 243.876V244.296H127.57C125.316 244.296 124.238 245.094 124.238 246.69C124.238 248.23 125.26 249 126.87 249H127.696V247.978H127.01C126.002 247.978 125.442 247.614 125.442 246.802V246.438C125.442 245.738 126.072 245.318 127.332 245.318H129.278V249H130.426V243.708C130.426 241.888 129.362 240.852 127.374 240.852ZM133.944 249H135.344V248.02H133.902V241.02H132.754V247.81C132.754 248.51 133.174 249 133.944 249ZM137.654 249H139.054V248.02H137.612V241.02H136.464V247.81C136.464 248.51 136.884 249 137.654 249ZM143.07 240.852C141.628 240.852 140.662 241.482 140.088 242.406L140.83 243.12C141.264 242.406 141.978 241.86 142.986 241.86C144.33 241.86 144.974 242.462 144.974 243.876V244.296H143.266C141.012 244.296 139.934 245.094 139.934 246.69C139.934 248.23 140.956 249 142.566 249H143.392V247.978H142.706C141.698 247.978 141.138 247.614 141.138 246.802V246.438C141.138 245.738 141.768 245.318 143.028 245.318H144.974V249H146.122V243.708C146.122 241.888 145.058 240.852 143.07 240.852ZM149.275 244.114L151.739 244.1V243.064L149.177 243.078V241.79L148.085 241.804V242.924C148.085 243.68 148.575 244.114 149.275 244.114ZM149.275 248.174L151.739 248.16V247.124L149.177 247.138V245.85L148.085 245.864V246.984C148.085 247.74 148.575 248.174 149.275 248.174ZM154.756 249H156.156V248.02H154.714V241.02H153.566V247.81C153.566 248.51 153.986 249 154.756 249ZM158.283 249H159.823L161.377 242.574H161.405L162.959 249H164.499L165.577 241.02H164.429L163.659 247.824H163.631L161.951 241.02H160.831L159.151 247.824H159.123L158.353 241.02H157.205L158.283 249ZM164.163 237.786V238.976H163.575V237.786H162.623V238.976H159.557V239.9H163.953C164.723 239.9 165.115 239.522 165.115 238.766V237.786H164.163ZM164.163 237.24H165.115V235.336H164.163V237.24ZM170.306 249.168C172.588 249.168 173.638 247.824 173.638 245.01C173.638 242.28 172.56 240.852 170.264 240.852C168.906 240.852 167.94 241.342 167.31 242.266L168.08 242.952C168.542 242.266 169.228 241.86 170.236 241.86C171.636 241.86 172.434 242.728 172.434 244.254V245.794C172.434 247.376 171.72 248.16 170.306 248.16C168.85 248.16 168.234 247.474 168.234 245.794V245.374H169.69V244.394H168.57C167.646 244.394 167.114 244.856 167.114 245.808V245.92C167.114 247.978 168.276 249.168 170.306 249.168ZM177.144 249H178.544V248.02H177.102V240.852C177.102 238.864 177.914 237.366 179.3 237.324V236.344H174.834V237.296H178.138V237.352C176.542 237.898 175.954 238.962 175.954 241.174V247.81C175.954 248.51 176.374 249 177.144 249ZM179.992 249H181.14V243.428C181.14 242.378 182.134 241.888 183.142 241.888C184.318 241.888 184.962 242.63 184.962 244.058V249H186.11V243.876C186.11 241.958 185.06 240.852 183.45 240.852C182.106 240.852 181.49 241.58 181.168 242.336H181.112V241.02H179.992V249ZM191.295 249.168C193.269 249.168 194.319 248.062 194.319 246.144V241.02H193.171V245.976C193.171 247.418 192.527 248.16 191.295 248.16C190.063 248.16 189.419 247.474 189.419 246.34V245.066H191.323V244.058H190.959C189.839 244.058 189.489 243.218 189.489 242.28V242H191.141V241.02H189.867C188.859 241.02 188.369 241.51 188.369 242.364V242.434C188.369 243.372 189.111 243.848 189.825 244.016V244.058H189.699C188.775 244.058 188.271 244.744 188.271 245.906V246.354C188.271 248.118 189.321 249.168 191.295 249.168ZM38.78 270H39.634V268.978H38.85C37.548 268.978 36.988 268.376 36.988 266.85V265.24C36.988 263.882 37.422 262.958 38.15 262.958L39.214 264.078H39.242L40.306 262.958C40.978 263.028 41.146 263.364 41.146 264.764V270H42.294V263.966C42.294 262.37 41.314 261.852 40.138 261.852L39.256 262.888H39.214L38.318 261.852C36.694 261.852 35.784 263.21 35.784 265.884C35.784 268.768 36.666 270 38.78 270ZM40.8622 260.9H43.6622V259.976H40.3442V259.08H39.2802V259.486C39.2802 260.48 39.7422 260.9 40.8622 260.9ZM40.8523 257.24H43.2043V256.4H41.6643V256.12C41.6643 255.434 41.3703 255.168 40.5863 255.168H40.0403V256.022H40.8523V257.24ZM46.4439 270H47.3259C49.1319 270 50.0419 269.174 50.0419 266.5V263.98C50.0419 262.72 49.5239 262.02 48.4459 262.02H47.4099V263H48.8939V266.99C48.8939 268.502 48.4319 268.992 47.3959 268.992H47.2699L45.0159 262.02H43.8539L46.4439 270ZM55.1674 261.852C53.3194 261.852 51.9754 262.874 51.9754 264.694V265.38H53.7254V265.436C52.9974 265.604 52.2694 266.206 52.2694 267.522V270H53.4174V267.214C53.4174 265.996 53.9074 265.45 54.9434 265.408V264.568H53.1094C53.2354 263.364 53.9774 262.86 55.1674 262.86C56.4974 262.86 57.2534 263.616 57.2534 264.946V270H58.4014V264.876C58.4014 263.028 57.3234 261.852 55.1674 261.852ZM63.1807 270.168C64.8467 270.168 65.9387 269.258 65.9387 267.69C65.9387 266.486 65.2667 265.73 63.6707 265.506L63.0547 265.422C62.1447 265.296 61.5847 264.904 61.5847 264.134C61.5847 263.364 62.1447 262.86 63.0827 262.86C64.0067 262.86 64.6927 263.378 65.0287 263.868L65.8687 263.14C65.2107 262.328 64.3707 261.852 63.1667 261.852C61.6967 261.852 60.4787 262.622 60.4787 264.19C60.4787 265.674 61.5707 266.206 62.9007 266.402L63.5167 266.486C64.4967 266.626 64.8327 267.214 64.8327 267.83C64.8327 268.656 64.2027 269.16 63.2507 269.16C62.2847 269.16 61.5987 268.74 60.9687 267.9L60.1427 268.6C60.8567 269.538 61.7667 270.168 63.1807 270.168ZM68.6387 265.114L71.1027 265.1V264.064L68.5407 264.078V262.79L67.4487 262.804V263.924C67.4487 264.68 67.9387 265.114 68.6387 265.114ZM68.6387 269.174L71.1027 269.16V268.124L68.5407 268.138V266.85L67.4487 266.864V267.984C67.4487 268.74 67.9387 269.174 68.6387 269.174ZM72.8593 270H74.0073V264.428C74.0073 263.378 75.0013 262.888 76.0093 262.888C77.1853 262.888 77.8293 263.63 77.8293 265.058V270H78.9773V264.876C78.9773 262.958 77.9273 261.852 76.3173 261.852C74.9733 261.852 74.3573 262.58 74.0353 263.336H73.9793V262.02H72.8593V270ZM76.9662 273.738H78.0582C78.6462 273.738 78.9822 273.402 78.9822 272.814V271.022H78.0302V272.912H76.9942V272.086C76.9942 271.4 76.6162 271.022 75.9442 271.022H75.3982V271.862H76.0422V272.814C76.0422 273.402 76.3782 273.738 76.9662 273.738ZM76.1578 260.9H79.4198V259.976H77.0818V259.85C77.0818 259.052 76.7878 258.786 76.0038 258.786H75.1778V259.71H76.1578V260.9ZM87.9422 262.51V261.53H86.6542C86.1642 261.53 85.8422 261.796 85.8422 262.202V262.3C85.3802 261.992 84.7642 261.852 84.0502 261.852C82.6642 261.852 81.6982 262.482 81.1242 263.406L81.8662 264.12C82.3002 263.406 83.0142 262.86 84.0222 262.86C85.3662 262.86 86.0102 263.462 86.0102 264.876V265.296H84.3022C82.0482 265.296 80.9702 266.094 80.9702 267.69C80.9702 269.23 81.9922 270 83.6022 270H84.4282V268.978H83.7422C82.7342 268.978 82.1742 268.614 82.1742 267.802V267.438C82.1742 266.738 82.8042 266.318 84.0642 266.318H86.0102V270H87.1582V264.75C87.1582 263.98 86.9622 263.322 86.5002 262.832V262.51H87.9422ZM92.278 270H92.978V268.978H92.348C91.186 268.978 90.486 268.376 90.486 266.85V265.352C90.486 263.756 91.27 262.86 92.558 262.86C93.818 262.86 94.49 263.644 94.49 265.03V270H95.638V264.876C95.638 262.958 94.574 261.852 92.586 261.852C90.43 261.852 89.282 263.238 89.282 266.052C89.282 268.964 90.22 270 92.278 270ZM100.913 261.852C98.9245 261.852 97.7345 262.874 97.7345 264.694V265.38H99.3865V265.436C98.6585 265.604 97.9305 266.206 97.9305 267.606V268.11C97.9305 269.384 98.4765 270 99.5685 270H100.451V269.02H99.0505V267.214C99.0505 265.996 99.5405 265.45 100.689 265.408V264.568H98.8265C98.9525 263.42 99.6385 262.86 100.913 262.86C102.243 262.86 103.013 263.602 103.013 264.946V270H104.161V264.876C104.161 263.028 103.069 261.852 100.913 261.852ZM109.556 270H110.704V264.288C110.704 262.734 109.766 261.852 108.128 261.852C106.924 261.852 105.972 262.37 105.482 263.266L106.252 263.966C106.7 263.294 107.246 262.86 108.1 262.86C109.066 262.86 109.556 263.322 109.556 264.414V270ZM116.525 270.168C118.149 270.168 119.199 269.062 119.199 267.144V262.02H118.051V266.976C118.051 268.404 117.407 269.146 116.217 269.146C115.237 269.146 114.271 268.656 114.271 267.606V262.02H113.123V270H114.243V268.684H114.299C114.607 269.44 115.209 270.168 116.525 270.168ZM124.007 270.168C125.673 270.168 126.765 269.258 126.765 267.69C126.765 266.486 126.093 265.73 124.497 265.506L123.881 265.422C122.971 265.296 122.411 264.904 122.411 264.134C122.411 263.364 122.971 262.86 123.909 262.86C124.833 262.86 125.519 263.378 125.855 263.868L126.695 263.14C126.037 262.328 125.197 261.852 123.993 261.852C122.523 261.852 121.305 262.622 121.305 264.19C121.305 265.674 122.397 266.206 123.727 266.402L124.343 266.486C125.323 266.626 125.659 267.214 125.659 267.83C125.659 268.656 125.029 269.16 124.077 269.16C123.111 269.16 122.425 268.74 121.795 267.9L120.969 268.6C121.683 269.538 122.593 270.168 124.007 270.168ZM125.272 260.9H128.072V259.976H124.754V259.08H123.69V259.486C123.69 260.48 124.152 260.9 125.272 260.9ZM134.841 262.51V261.53H133.553C133.063 261.53 132.741 261.796 132.741 262.202V262.3C132.265 261.992 131.621 261.852 130.865 261.852C129.535 261.852 128.597 262.342 127.995 263.266L128.737 263.98C129.171 263.266 129.885 262.86 130.893 262.86C132.349 262.86 133.161 263.728 133.161 265.254V266.598C133.161 268.208 132.447 268.992 131.439 268.992H131.257L130.627 266.584C130.375 265.632 130.095 265.352 129.381 265.352H128.485V266.332H129.437L130.431 270H131.439C133.287 270 134.365 268.656 134.365 265.898C134.365 264.512 134.071 263.462 133.399 262.818V262.51H134.841ZM133.189 271.106C133.189 271.624 132.923 271.89 132.489 271.89C131.901 271.89 131.565 271.498 131.495 270.7H130.375L130.067 271.68H128.499V272.632H129.521C130.487 272.632 131.019 272.268 131.173 271.428L131.215 271.19H131.243C131.341 272.198 131.957 272.772 132.839 272.772C133.637 272.772 134.253 272.31 134.253 271.302V270.7H133.189V271.106ZM139.566 270.168C141.54 270.168 142.59 269.062 142.59 267.144V262.02H141.442V266.976C141.442 268.418 140.798 269.16 139.566 269.16C138.32 269.16 137.676 268.418 137.676 266.976V262.02H136.528V267.144C136.528 269.062 137.578 270.168 139.566 270.168ZM148.002 270H149.15V264.288C149.15 262.734 148.212 261.852 146.574 261.852C145.37 261.852 144.418 262.37 143.928 263.266L144.698 263.966C145.146 263.294 145.692 262.86 146.546 262.86C147.512 262.86 148.002 263.322 148.002 264.414V270ZM154.13 261.852C152.688 261.852 151.722 262.482 151.148 263.406L151.89 264.12C152.324 263.406 153.038 262.86 154.046 262.86C155.39 262.86 156.034 263.462 156.034 264.876V265.296H154.326C152.072 265.296 150.994 266.094 150.994 267.69C150.994 269.23 152.016 270 153.626 270H154.452V268.978H153.766C152.758 268.978 152.198 268.614 152.198 267.802V267.438C152.198 266.738 152.828 266.318 154.088 266.318H156.034V270H157.182V264.708C157.182 262.888 156.118 261.852 154.13 261.852Z" fill="black" fill-opacity="0.5"/>
<path d="M35.92 289H40.69V287.95H39.1V282.02H37.13L35.4 284.06L36.21 284.74L37.74 282.95H37.82V287.95H35.92V289ZM43.9961 289.12C45.7761 289.12 46.5861 287.79 46.5861 285.51C46.5861 283.23 45.7761 281.9 43.9961 281.9C42.2161 281.9 41.4061 283.23 41.4061 285.51C41.4061 287.79 42.2161 289.12 43.9961 289.12ZM43.9961 288.03C43.0961 288.03 42.7861 287.3 42.7861 286.14V284.88C42.7861 283.72 43.0961 282.99 43.9961 282.99C44.8961 282.99 45.2061 283.72 45.2061 284.88V286.14C45.2061 287.3 44.8961 288.03 43.9961 288.03ZM53.0655 289.12C54.2655 289.12 54.8955 288.35 54.8955 287.01V283.27H53.6255V286.73C53.6255 287.59 53.3255 288.01 52.6255 288.01C52.0055 288.01 51.4155 287.71 51.4155 287.06V283.27H50.1455V289H51.4155V288.09H51.4655C51.6655 288.64 52.1055 289.12 53.0655 289.12ZM50.635 282.53H54.885V281.58H50.635V282.53ZM57.1248 289.11C57.6648 289.11 57.9148 288.81 57.9148 288.39V288.21C57.9148 287.79 57.6648 287.48 57.1248 287.48C56.5848 287.48 56.3348 287.79 56.3348 288.21V288.39C56.3348 288.81 56.5848 289.11 57.1248 289.11ZM61.5335 289.12C63.1935 289.12 63.8835 288.31 63.8835 286.63V283.27H62.6135V286.78C62.6135 287.62 62.2735 288.04 61.5335 288.04C60.8035 288.04 60.4335 287.62 60.4335 286.86V286.38H61.5535V285.4H61.3735C60.7835 285.4 60.4535 284.95 60.4535 284.4V284.27H61.4635V283.27H60.4335C59.6635 283.27 59.2635 283.67 59.2635 284.26V284.3C59.2635 284.95 59.7835 285.33 60.4335 285.41V285.46H60.3335C59.6135 285.46 59.1535 286.08 59.1535 286.91V287.08C59.1535 288.37 60.0035 289.12 61.5335 289.12ZM66.0994 289.11C66.6394 289.11 66.8894 288.81 66.8894 288.39V288.21C66.8894 287.79 66.6394 287.48 66.0994 287.48C65.5594 287.48 65.3094 287.79 65.3094 288.21V288.39C65.3094 288.81 65.5594 289.11 66.0994 289.11ZM70.5714 289H75.3914V287.91H71.9714L73.4614 286.67C74.4214 285.88 75.2114 285.14 75.2114 283.98C75.2114 282.77 74.3714 281.9 72.9114 281.9C71.4914 281.9 70.7514 282.71 70.4514 283.63L71.5714 284.06C71.7314 283.49 72.0814 283.02 72.8014 283.02C73.3914 283.02 73.8514 283.37 73.8514 283.98V284.12C73.8514 284.73 73.5014 285.23 72.7614 285.87L70.5714 287.8V289ZM78.8875 289.12C80.5275 289.12 81.4575 288.1 81.4575 286.7C81.4575 285.32 80.5275 284.5 79.3275 284.5C78.4975 284.5 78.1475 284.9 77.8575 285.5H77.7775L77.9475 283.14H81.0775V282.02H76.9875L76.7275 285.93L77.7875 286.08C77.9975 285.83 78.3475 285.56 78.9175 285.56C79.6675 285.56 80.1075 286 80.1075 286.73V286.82C80.1075 287.58 79.6875 288.06 78.8975 288.06C78.1375 288.06 77.7575 287.64 77.4375 287.1L76.4975 287.83C76.9175 288.5 77.5975 289.12 78.8875 289.12ZM84.9636 289.12C86.4936 289.12 87.4836 288.13 87.4836 286.72C87.4836 285.4 86.6036 284.55 85.4336 284.55C84.5636 284.55 84.1236 285.04 83.8536 285.59L83.7736 285.56C84.0836 284.13 85.0436 283.2 86.6736 282.02H84.9336C83.7636 282.8 82.4336 284.38 82.4336 286.38C82.4336 288.05 83.3736 289.12 84.9636 289.12ZM84.9636 288.1C84.2136 288.1 83.7636 287.67 83.7636 286.9V286.75C83.7636 285.99 84.2136 285.56 84.9636 285.56C85.7036 285.56 86.1536 285.99 86.1536 286.75V286.9C86.1536 287.67 85.7036 288.1 84.9636 288.1ZM90.6497 289.12C92.1797 289.12 93.2097 288.3 93.2097 287.07C93.2097 286.08 92.5497 285.51 91.7497 285.36V285.31C92.4797 285.16 93.0797 284.61 93.0797 283.72C93.0797 282.6 92.1197 281.9 90.7297 281.9C89.5597 281.9 88.8997 282.41 88.4297 283.06L89.2597 283.81C89.5897 283.28 90.0797 282.96 90.6897 282.96C91.3297 282.96 91.7297 283.31 91.7297 283.89V283.96C91.7297 284.47 91.3497 284.85 90.5497 284.85H89.8597V285.92H90.5497C91.3897 285.92 91.8697 286.27 91.8697 286.93V286.99C91.8697 287.65 91.4297 288.06 90.6497 288.06C89.8597 288.06 89.4497 287.66 89.1297 287.1L88.1797 287.83C88.6197 288.5 89.2997 289.12 90.6497 289.12Z" fill="black" fill-opacity="0.5"/>
<line opacity="0.2" x1="125" y1="12" x2="78" y2="12" stroke="black" stroke-width="2" stroke-dasharray="2 2"/>
<line opacity="0.2" x1="42" y1="231" x2="42" y2="188" stroke="black" stroke-width="2" stroke-dasharray="2 2"/>
<path opacity="0.2" d="M107 83C109.634 82.9997 112.707 83.3259 112.707 87.563C112.707 96.1674 112.707 113.42 112.707 139.385C112.707 143.622 113.41 148.511 125 148.511C120.61 148.511 112.707 148.707 112.707 156.007C112.707 163.308 112.707 209.133 112.707 210.763C112.707 212.61 111.829 215 108.317 215" stroke="black" stroke-width="2" stroke-dasharray="2 2"/>
<defs>
<linearGradient id="paint0_linear" x1="60.5" y1="57" x2="60.5" y2="98" gradientUnits="userSpaceOnUse">
<stop stop-color="#FF655D"/>
<stop offset="1" stop-color="#FF655D" stop-opacity="0.1"/>
</linearGradient>
<linearGradient id="paint1_linear" x1="55" y1="57" x2="55" y2="121" gradientUnits="userSpaceOnUse">
<stop stop-color="#FF655D"/>
<stop offset="1" stop-color="#FF655D" stop-opacity="0.1"/>
</linearGradient>
<linearGradient id="paint2_linear" x1="72.5" y1="57" x2="72.5" y2="142" gradientUnits="userSpaceOnUse">
<stop stop-color="#FF655D"/>
<stop offset="1" stop-color="#FF655D" stop-opacity="0.1"/>
</linearGradient>
<linearGradient id="paint3_linear" x1="58.4999" y1="61" x2="58.4999" y2="141" gradientUnits="userSpaceOnUse">
<stop stop-color="#FF655D"/>
<stop offset="1" stop-color="#FF655D" stop-opacity="0.1"/>
</linearGradient>
<linearGradient id="paint4_linear" x1="74.5" y1="65" x2="74.5" y2="107" gradientUnits="userSpaceOnUse">
<stop stop-color="#FF655D"/>
<stop offset="1" stop-color="#FF655D" stop-opacity="0.1"/>
</linearGradient>
<linearGradient id="paint5_linear" x1="82" y1="61" x2="82" y2="114" gradientUnits="userSpaceOnUse">
<stop stop-color="#FF655D"/>
<stop offset="1" stop-color="#FF655D" stop-opacity="0.1"/>
</linearGradient>
</defs>
</svg>
